<svg width="61" height="54" viewBox="0 0 61 54" fill="none" xmlns="http://www.w3.org/2000/svg">
<rect x="40" y="21" width="21" height="21" fill="#6EB44A"/>
<path d="M27.9071 21.0782V23.2708C27.9071 24.0952 28.5778 24.7659 29.4022 24.7659H29.707V29.1142L28.015 30.8061C27.8666 30.9547 27.7832 31.1559 27.7832 31.3659V33.1208C27.7832 33.558 28.1375 33.9124 28.5748 33.9124C29.0121 33.9124 29.3665 33.558 29.3665 33.1208V31.6937L31.0585 30.0017C31.2069 29.8532 31.2902 29.6519 31.2902 29.442V24.7659H31.5949C32.4193 24.7659 33.09 24.0952 33.09 23.2708V21.0782C33.09 20.2538 32.4193 19.583 31.5949 19.583H29.4022C28.5779 19.583 27.9071 20.2538 27.9071 21.0782ZM29.4904 21.1663H31.5067V23.1826H29.4904V21.1663Z" fill="black"/>
<path d="M18.1875 18.4661C17.3631 18.4661 16.6924 19.1367 16.6924 19.9612V22.6295C16.6924 23.454 17.3631 24.1248 18.1875 24.1248H20.8558C21.6803 24.1248 22.351 23.4541 22.351 22.6295V19.9612C22.351 19.1367 21.6803 18.4661 20.8558 18.4661H18.1875ZM20.7677 22.5415H18.2756V20.0494H20.7677V22.5415Z" fill="black"/>
<path d="M20.03 13.2102V14.8298C20.03 15.6542 20.7007 16.3249 21.5252 16.3249H23.1447C23.9692 16.3249 24.6399 15.6542 24.6399 14.8298V13.2102C24.6399 12.3858 23.9692 11.7151 23.1447 11.7151H21.5252C20.7007 11.7151 20.03 12.3858 20.03 13.2102ZM21.6133 13.2984H23.0566V14.7417H21.6133V13.2984Z" fill="black"/>
<path d="M7.76912 28.7144C7.76912 27.8899 7.09845 27.2192 6.27388 27.2192H4.65431C3.82985 27.2192 3.15918 27.8899 3.15918 28.7144V30.3339C3.15918 31.1584 3.82985 31.8291 4.65431 31.8291H6.27388C7.09834 31.8291 7.76912 31.1584 7.76912 30.3339V28.7144ZM6.18585 30.2458H4.74244V28.8025H6.18575V30.2458H6.18585Z" fill="black"/>
<path d="M11.6638 34.8586H9.00953C8.18508 34.8586 7.5144 35.5293 7.5144 36.3538V39.0079C7.5144 39.8324 8.18508 40.5032 9.00953 40.5032H11.6638C12.4883 40.5032 13.159 39.8325 13.159 39.0079V36.3538C13.159 35.5294 12.4882 34.8586 11.6638 34.8586ZM11.5757 38.9199H9.09767V36.4419H11.5757V38.9199Z" fill="black"/>
<path d="M45.4418 22.0055C45.4418 21.2809 45.3968 20.5479 45.3082 19.8268C45.2547 19.3929 44.8585 19.0846 44.4259 19.1378C43.9919 19.1911 43.6834 19.5862 43.7367 20.0201C43.8176 20.6773 43.8585 21.3453 43.8585 22.0055C43.8585 26.4684 42.0744 30.6185 38.8347 33.6912C36.5927 35.8176 34.7913 38.4709 33.5981 41.3909H32.6982V36.9588L36.2426 33.4144C36.391 33.266 36.4744 33.0646 36.4744 32.8547V30.8601C37.1991 30.852 37.7865 30.2606 37.7865 29.5338V27.8036C37.7865 27.072 37.1912 26.4768 36.4596 26.4768H34.7293C33.9976 26.4768 33.4024 27.0721 33.4024 27.8036V29.5338C33.4024 30.2655 33.9977 30.8608 34.7293 30.8608H34.8911V32.5267L31.3467 36.0711C31.1983 36.2195 31.1149 36.4209 31.1149 36.6309V41.3909H29.3663V36.4942C29.3663 36.057 29.0119 35.7026 28.5746 35.7026C28.1373 35.7026 27.783 36.057 27.783 36.4942V41.3909H25.1641V31.5498H25.4687C26.2931 31.5498 26.9638 30.8791 26.9638 30.0546V27.8621C26.9638 27.0377 26.2931 26.367 25.4687 26.367H23.2762C22.4517 26.367 21.7809 27.0377 21.7809 27.8621V30.0546C21.7809 30.8791 22.4516 31.5498 23.2762 31.5498H23.5808V41.3909H21.9042C20.9521 39.0836 19.6126 36.9375 17.9152 35.0062C17.6266 34.6778 17.1265 34.6456 16.7981 34.9342C16.4697 35.2229 16.4374 35.723 16.7261 36.0514C18.2227 37.7543 19.4204 39.6338 20.2951 41.6488C19.3711 42.0839 18.7298 43.0236 18.7298 44.1108C18.7298 45.5662 19.8788 46.7581 21.3174 46.8273V47.9562C21.3174 48.958 21.9612 49.8118 22.8567 50.1268C23.178 52.3146 25.0668 53.9997 27.3424 53.9997H28.1637C30.4393 53.9997 32.3281 52.3146 32.6494 50.1268C33.5449 49.8118 34.1888 48.9581 34.1888 47.9562V46.8273C35.6273 46.7581 36.7764 45.5662 36.7764 44.1108C36.7764 43.0222 36.1333 42.0814 35.2073 41.6471C36.3146 39.0692 37.9323 36.7291 39.9242 34.8398C43.4823 31.4652 45.4418 26.9072 45.4418 22.0055ZM34.9858 28.0602H36.2033V29.2778H34.9858V28.0602ZM23.3644 27.9504H25.3808V29.9667H23.3644V27.9504ZM28.1638 52.4166H27.3425C25.9894 52.4166 24.8459 51.5011 24.4992 50.257H31.0073C30.6603 51.5011 29.517 52.4166 28.1638 52.4166ZM34.0565 45.2475H31.4464C31.0091 45.2475 30.6547 45.602 30.6547 46.0392C30.6547 46.4764 31.0091 46.8308 31.4464 46.8308H32.6055V47.9563C32.6055 48.3519 32.2836 48.6737 31.888 48.6737H23.6181C23.2225 48.6737 22.9006 48.3519 22.9006 47.9563V46.8308H28.0726C28.5099 46.8308 28.8643 46.4764 28.8643 46.0392C28.8643 45.602 28.5099 45.2475 28.0726 45.2475H21.4496C20.8229 45.2475 20.3129 44.7376 20.3129 44.1109C20.3129 43.5103 20.7815 43.0183 21.372 42.9782C21.3816 42.9782 21.3915 42.978 21.4011 42.9777C21.4191 42.977 21.4371 42.9759 21.4549 42.9747L21.4601 42.9744H34.0562L34.0496 42.9747C34.0668 42.9759 34.084 42.9769 34.1013 42.9777C34.1116 42.9781 34.1219 42.9782 34.1321 42.9783C34.7234 43.0176 35.1929 43.51 35.1929 44.1111C35.1932 44.7377 34.6833 45.2475 34.0565 45.2475Z" fill="black"/>
<path d="M11.6479 22.0059C11.6479 18.6109 12.7 15.36 14.6906 12.6043C14.9466 12.25 14.8669 11.7551 14.5124 11.4991C14.1581 11.2431 13.6631 11.3229 13.4072 11.6773C11.2204 14.7044 10.0646 18.276 10.0647 22.0059C10.0647 26.2621 11.5997 30.3758 14.387 33.5889C14.5435 33.7693 14.7638 33.8617 14.9854 33.8617C15.1693 33.8617 15.354 33.7979 15.5037 33.6681C15.834 33.3817 15.8695 32.8817 15.583 32.5514C13.0454 29.6261 11.6479 25.881 11.6479 22.0059Z" fill="black"/>
<path d="M23.6262 6.41213C23.6903 6.41213 23.7556 6.40421 23.8207 6.38785C25.1136 6.06138 26.4519 5.89472 27.7899 5.90031C28.6132 5.90221 29.4404 5.96681 30.2484 6.09241C30.6813 6.15954 31.0851 5.86379 31.1522 5.43177C31.2194 4.99975 30.9236 4.59507 30.4916 4.52794C29.6045 4.38998 28.6967 4.31905 27.7934 4.31705C26.318 4.31082 24.8536 4.49406 23.433 4.85272C23.0091 4.95975 22.7523 5.39018 22.8592 5.81408C22.9499 6.17295 23.2722 6.41213 23.6262 6.41213Z" fill="black"/>
<path d="M16.7254 10.8448H19.8114C20.6358 10.8448 21.3065 10.1741 21.3065 9.34965V6.26355C21.3065 5.43909 20.6358 4.76831 19.8114 4.76831H16.7254C15.9009 4.76831 15.2302 5.43898 15.2302 6.26355V9.34965C15.2302 10.174 15.901 10.8448 16.7254 10.8448ZM16.8135 6.35168H19.7232V9.26151H16.8135V6.35168Z" fill="black"/>
<path d="M44.9971 37.5955H41.5798C40.7554 37.5955 40.0847 38.2661 40.0847 39.0906V42.5078C40.0847 43.3323 40.7554 44.003 41.5798 44.003H44.9971C45.8215 44.003 46.4922 43.3324 46.4922 42.5078V39.0906C46.4922 38.2662 45.8215 37.5955 44.9971 37.5955ZM44.9089 42.4198H41.668V39.1787H44.9089V42.4198Z" fill="black"/>
<path d="M49.1683 30.8823H47.158C46.3335 30.8823 45.6628 31.553 45.6628 32.3775V34.3877C45.6628 35.2121 46.3335 35.8828 47.158 35.8828H49.1683C49.9928 35.8828 50.6634 35.2121 50.6634 34.3877V32.3775C50.6634 31.5531 49.9926 30.8823 49.1683 30.8823ZM49.0802 34.2996H47.2461V32.4657H49.0802V34.2996Z" fill="black"/>
<path d="M10.228 4.90843H12.0893C12.9138 4.90843 13.5845 4.23776 13.5845 3.4132V1.55201C13.5845 0.727556 12.9138 0.0568848 12.0893 0.0568848H10.228C9.40358 0.0568848 8.73291 0.727556 8.73291 1.55201V3.4133C8.73291 4.23776 9.40369 4.90843 10.228 4.90843ZM10.3162 1.64015H12.0012V3.32517H10.3162V1.64015Z" fill="black"/>
<path d="M5.37037 11.2809H6.81948C7.64394 11.2809 8.31472 10.6103 8.31472 9.78579V8.33668C8.31472 7.51222 7.64405 6.84155 6.81948 6.84155H5.37037C4.54592 6.84155 3.87524 7.51222 3.87524 8.33668V9.78579C3.87524 10.6103 4.54592 11.2809 5.37037 11.2809ZM5.45851 8.42482H6.73145V9.69776H5.45851V8.42482Z" fill="black"/>
<path d="M45.0957 4.95312H38.8854C38.4481 4.95312 38.0938 5.30757 38.0938 5.74476V11.9551C38.0938 12.3923 38.4481 12.7467 38.8854 12.7467H45.0957C45.533 12.7467 45.8873 12.3923 45.8873 11.9551V5.74476C45.8873 5.30757 45.533 4.95312 45.0957 4.95312ZM44.3041 11.1634H39.677V6.53639H44.3041V11.1634Z" fill="black"/>
<path d="M50.0491 9.64166C50.4864 9.64166 50.8407 9.28722 50.8407 8.85003C50.8407 8.41284 50.4864 8.0584 50.0491 8.0584H49.0539V5.86758H50.0491C50.4864 5.86758 50.8407 5.51314 50.8407 5.07595C50.8407 4.63876 50.4864 4.28432 50.0491 4.28432H49.0539V4.24864C49.0539 2.89115 47.9496 1.78677 46.5921 1.78677H46.5563V0.791633C46.5563 0.35444 46.2019 0 45.7646 0C45.3273 0 44.973 0.35444 44.973 0.791633V1.78666H42.7823V0.791633C42.7823 0.35444 42.428 0 41.9907 0C41.5534 0 41.199 0.35444 41.199 0.791633V1.78666H39.0082V0.791633C39.0082 0.35444 38.6539 0 38.2166 0C37.7793 0 37.4249 0.35444 37.4249 0.791633V1.78666H37.3892C36.0317 1.78666 34.9273 2.89104 34.9273 4.24853V4.28432H33.9323C33.495 4.28432 33.1406 4.63876 33.1406 5.07595C33.1406 5.51314 33.495 5.86758 33.9323 5.86758H34.9273V8.05829H33.9323C33.495 8.05829 33.1406 8.41273 33.1406 8.84992C33.1406 9.28712 33.495 9.64156 33.9323 9.64156H34.9273V11.8324H33.9323C33.495 11.8324 33.1406 12.1868 33.1406 12.624C33.1406 13.0612 33.495 13.4156 33.9323 13.4156H34.9273V13.4513C34.9273 14.8088 36.0317 15.9132 37.3892 15.9132H37.4249V16.9082C37.4249 17.3454 37.7793 17.6998 38.2166 17.6998C38.6539 17.6998 39.0082 17.3454 39.0082 16.9082V15.9132H41.199V16.9082C41.199 17.3454 41.5534 17.6998 41.9907 17.6998C42.428 17.6998 42.7823 17.3454 42.7823 16.9082V15.9132H44.9731V16.9082C44.9731 17.3454 45.3274 17.6998 45.7647 17.6998C46.202 17.6998 46.5564 17.3454 46.5564 16.9082V15.9132H46.5921C47.9496 15.9132 49.0539 14.8088 49.0539 13.4513V13.4155H50.0491C50.4864 13.4155 50.8407 13.0611 50.8407 12.6239C50.8407 12.1867 50.4864 11.8323 50.0491 11.8323H49.0539V9.64166H50.0491ZM47.4707 13.4514C47.4707 13.9359 47.0765 14.33 46.5921 14.33H37.3893C36.9048 14.33 36.5107 13.9359 36.5107 13.4514V4.24853C36.5107 3.76405 36.9048 3.36993 37.3893 3.36993H46.5921C47.0765 3.36993 47.4707 3.76405 47.4707 4.24853V13.4514Z" fill="black"/>
</svg>
