<svg width="73" height="68" viewBox="0 0 73 68" fill="none" xmlns="http://www.w3.org/2000/svg">
<rect y="47" width="21" height="21" fill="#6EB44A"/>
<path d="M54.2969 53.1562H64.1406C64.685 53.1562 65.125 52.7153 65.125 52.1719V46.2656C65.125 45.7223 64.685 45.2812 64.1406 45.2812H54.2969C53.7525 45.2812 53.3125 45.7223 53.3125 46.2656V52.1719C53.3125 52.7153 53.7525 53.1562 54.2969 53.1562ZM55.2812 47.25H63.1562V51.1875H55.2812V47.25Z" fill="black"/>
<path d="M70.0469 15.75H54.2969V6.89062C54.2969 5.26247 52.9719 3.9375 51.3438 3.9375H31.6562C30.0281 3.9375 28.7031 5.26247 28.7031 6.89062V15.75H12.9531C11.325 15.75 10 17.075 10 18.7031V32.4844C10 32.9333 10.3042 33.325 10.7383 33.4372L11.9688 33.7552V56.1094C11.9688 57.7375 13.2937 59.0625 14.9219 59.0625H68.0781C69.7063 59.0625 71.0312 57.7375 71.0312 56.1094V33.7552L72.2617 33.4372C72.6958 33.325 73 32.9333 73 32.4844V18.7031C73 17.075 71.675 15.75 70.0469 15.75ZM52.3281 6.89062V15.75H50.3594V5.90625H51.3438C51.8871 5.90625 52.3281 6.34823 52.3281 6.89062ZM34.6094 15.75V9.84375H48.3906V15.75H34.6094ZM48.3906 7.875H34.6094V5.90625H48.3906V7.875ZM30.6719 6.89062C30.6719 6.34823 31.1129 5.90625 31.6562 5.90625H32.6406V15.75H30.6719V6.89062ZM69.0625 56.1094C69.0625 56.6518 68.6215 57.0938 68.0781 57.0938H14.9219C14.3785 57.0938 13.9375 56.6518 13.9375 56.1094V34.2631L37.5625 40.3594V45.2812C37.5625 45.8246 38.0025 46.2656 38.5469 46.2656H44.4531C44.9975 46.2656 45.4375 45.8246 45.4375 45.2812V40.3594L69.0625 34.2631V56.1094ZM39.5312 44.2969V35.4375H43.4688V44.2969H39.5312ZM71.0312 31.7215L45.4375 38.3257V34.4531C45.4375 33.9097 44.9975 33.4688 44.4531 33.4688H38.5469C38.0025 33.4688 37.5625 33.9097 37.5625 34.4531V38.3266L11.9688 31.7215V18.7031C11.9688 18.1607 12.4097 17.7188 12.9531 17.7188H70.0469C70.5902 17.7188 71.0312 18.1607 71.0312 18.7031V31.7215Z" fill="black"/>
</svg>
