<svg width="17" height="19" viewBox="0 0 17 19" fill="none" xmlns="http://www.w3.org/2000/svg">
<path d="M16.8121 5.34375C16.8121 6.61259 16.3181 7.80544 15.421 8.70259L6.86504 17.3601C6.16916 18.0559 5.25538 18.4039 4.3422 18.4039C3.4302 18.4039 2.51819 18.0565 1.8241 17.3624C0.43532 15.9731 0.43532 13.7133 1.8241 12.3245L8.00504 6.17856C8.93307 5.25647 10.4079 5.22619 11.2944 6.11147C11.7273 6.54431 11.9553 7.12856 11.9369 7.75734C11.9184 8.37247 11.6649 8.95553 11.2226 9.39787L5.35691 15.2635C5.12476 15.4957 4.74951 15.4957 4.51735 15.2635C4.2852 15.0314 4.2852 14.6561 4.51735 14.424L10.383 8.55831C10.6104 8.33091 10.741 8.03403 10.7499 7.72231C10.7589 7.42425 10.6538 7.14994 10.4549 6.95103C10.0303 6.52828 9.30713 6.55856 8.84282 7.0205L2.66248 13.1652C1.73801 14.0903 1.73801 15.5972 2.66366 16.5229C3.58991 17.4485 5.09626 17.4485 6.02251 16.5229L14.5784 7.86541C15.2541 7.18972 15.6246 6.29553 15.6246 5.34375C15.6246 4.39197 15.2541 3.49778 14.5814 2.82506C13.9081 2.15175 13.0139 1.78125 12.0621 1.78125C11.1104 1.78125 10.2162 2.15175 9.54285 2.82506L1.19948 11.1091C0.966132 11.34 0.590882 11.3388 0.359914 11.1055C0.128945 10.8728 0.130132 10.4975 0.362882 10.2659L8.70507 1.98372C9.60045 1.08775 10.7933 0.59375 12.0621 0.59375C13.331 0.59375 14.5238 1.08775 15.421 1.9855C16.3181 2.88206 16.8121 4.07491 16.8121 5.34375Z" fill="#6EB44A"/>
</svg>
