<svg width="20" height="14" viewBox="0 0 20 14" fill="none" xmlns="http://www.w3.org/2000/svg">
<path d="M0.12207 6.37208L6.37207 0.12208C6.53484 -0.0406934 6.79852 -0.0406934 6.96125 0.12208C7.12402 0.284853 7.12402 0.548525 6.96125 0.71126L1.4225 6.25001H19.5833C19.8136 6.25001 20 6.43638 20 6.66669C20 6.897 19.8136 7.08337 19.5833 7.08337H1.4225L6.96125 12.6221C7.12402 12.7849 7.12402 13.0485 6.96125 13.2113C6.87988 13.2926 6.77324 13.3333 6.66664 13.3333C6.56004 13.3333 6.45344 13.2926 6.37203 13.2113L0.12203 6.96126C-0.0407028 6.79852 -0.0407028 6.53485 0.12207 6.37208Z" fill="white"/>
</svg>
