<svg width="56" height="57" viewBox="0 0 56 57" fill="none" xmlns="http://www.w3.org/2000/svg">
<g clip-path="url(#clip0_108_3143)">
<path d="M54.9062 45.5424H52.7365V23.2715C54.0148 22.286 54.84 20.7399 54.84 19.0046V13.1421C54.84 13.1319 54.8342 12.8865 54.7531 12.711L51.2816 4.02759C51.1154 3.61219 50.7132 3.33984 50.2659 3.33984H5.73398C5.28664 3.33984 4.88447 3.61219 4.71833 4.02759L1.24687 12.711C1.16583 12.8679 1.16003 13.1319 1.16003 13.1421V19.0046C1.16003 20.7399 1.98516 22.286 3.26353 23.2715V45.5423H1.09375C0.489672 45.5423 0 46.032 0 46.636V52.3788C0 52.9829 0.489672 53.4725 1.09375 53.4725H23.0556C23.6597 53.4725 24.1493 52.9829 24.1493 52.3788C24.1493 51.7747 23.6597 51.285 23.0556 51.285H2.1875V47.7298H53.8125V51.285H32.9445C32.3404 51.285 31.8508 51.7747 31.8508 52.3788C31.8508 52.9829 32.3404 53.4725 32.9445 53.4725H54.9062C55.5103 53.4725 56 52.9829 56 52.3788V46.636C56 46.0321 55.5103 45.5424 54.9062 45.5424ZM44.0704 19.0046C44.0704 20.7677 42.636 22.2019 40.8731 22.2019C39.1102 22.2019 37.6759 20.7675 37.6759 19.0046V14.2326H44.0704V19.0046ZM35.4884 19.0046C35.4884 20.7677 34.054 22.2019 32.2911 22.2019C30.5282 22.2019 29.0938 20.7677 29.0938 19.0046V14.2326H35.4884V19.0046ZM26.9062 19.0046C26.9062 20.7677 25.4719 22.2019 23.709 22.2019C21.9461 22.2019 20.5117 20.7675 20.5117 19.0046V14.2326H26.9062V19.0046ZM18.3242 19.0046C18.3242 20.7677 16.8899 22.2019 15.127 22.2019C13.3641 22.2019 11.9297 20.7675 11.9297 19.0046V14.2326H18.3244V19.0046H18.3242ZM3.34753 19.0046V14.2326H9.74203V19.0046C9.74203 20.7677 8.30769 22.2019 6.54478 22.2019C4.78188 22.2019 3.34753 20.7677 3.34753 19.0046ZM19.3289 5.52734L18.4603 12.0451H12.2593L13.9964 5.52734H19.3289ZM29.0938 5.52734H34.4643L35.3328 12.0451H29.0938V5.52734ZM42.0036 5.52734L43.7407 12.0451H37.5398L36.6712 5.52734H42.0036ZM46.2579 14.2326H52.6524V19.0046C52.6524 20.7677 51.218 22.2019 49.4551 22.2019C47.6922 22.2019 46.2579 20.7675 46.2579 19.0046V14.2326ZM52.131 12.0451H46.0044L44.2673 5.52734H49.5252L52.131 12.0451ZM26.9062 12.0451H20.6672L21.5357 5.52734H26.9062V12.0451ZM6.47467 5.52734H11.7325L9.99545 12.0451H3.86903L6.47467 5.52734ZM10.697 45.5424V29.6247H22.013V45.5423H10.697V45.5424ZM24.2005 45.5424V28.531C24.2005 27.9269 23.7109 27.4372 23.1068 27.4372H9.60323C8.99916 27.4372 8.50948 27.9269 8.50948 28.531V45.5423H5.45103V24.2777C5.80431 24.3509 6.17017 24.3894 6.54478 24.3894C8.29434 24.3894 9.85152 23.5506 10.8358 22.2542C11.8199 23.5506 13.3772 24.3894 15.1268 24.3894C16.8763 24.3894 18.4336 23.5506 19.4178 22.2542C20.4019 23.5506 21.9592 24.3894 23.7088 24.3894C25.4583 24.3894 27.0156 23.5506 27.9998 22.2542C28.9839 23.5506 30.5412 24.3894 32.2908 24.3894C34.0403 24.3894 35.5976 23.5506 36.5818 22.2542C37.5659 23.5506 39.1232 24.3894 40.8728 24.3894C42.6223 24.3894 44.1796 23.5506 45.1638 22.2542C46.1479 23.5506 47.7052 24.3894 49.4548 24.3894C49.8294 24.3894 50.1952 24.3509 50.5485 24.2777V45.5423H24.2005V45.5424Z" fill="white"/>
<path d="M46.3968 27.4375H29.3901C28.786 27.4375 28.2964 27.9272 28.2964 28.5313V40.4275C28.2964 41.0316 28.786 41.5213 29.3901 41.5213H46.3968C47.0009 41.5213 47.4906 41.0316 47.4906 40.4275V28.5313C47.4906 27.9272 47.0009 27.4375 46.3968 27.4375ZM45.3031 39.3338H37.7949L39.6387 37.4901C40.0658 37.0629 40.0658 36.3704 39.6387 35.9432C39.2115 35.516 38.519 35.516 38.0918 35.9432L34.7011 39.3338H30.4837V29.625H45.303V39.3338H45.3031Z" fill="white"/>
<path d="M33.0993 37.2573C32.8194 37.2573 32.5394 37.1506 32.3259 36.9369C31.8988 36.5098 31.8988 35.8173 32.3259 35.3901L36.6817 31.0342C37.1088 30.6071 37.8014 30.6071 38.2286 31.0342C38.6557 31.4613 38.6557 32.1539 38.2286 32.5811L33.8728 36.9369C33.6591 37.1506 33.3792 37.2573 33.0993 37.2573Z" fill="white"/>
<path d="M28.0198 53.473C27.5561 53.473 27.134 53.1682 26.9851 52.7304C26.84 52.3043 26.9783 51.82 27.3259 51.5339C27.6828 51.2402 28.2045 51.2053 28.5969 51.45C28.9789 51.6882 29.1815 52.1502 29.0927 52.5925C28.9913 53.0972 28.5353 53.473 28.0198 53.473Z" fill="white"/>
</g>
<defs>
<clipPath id="clip0_108_3143">
<rect width="56" height="56" fill="white" transform="translate(0 0.40625)"/>
</clipPath>
</defs>
</svg>
