<svg width="53" height="54" viewBox="0 0 53 54" fill="none" xmlns="http://www.w3.org/2000/svg">
<g clip-path="url(#clip0_108_3135)">
<path d="M51.5863 24.6644L49.6875 26.5632V9.51562C49.6875 8.1458 48.5729 7.03125 47.2031 7.03125H45.5469C45.5469 6.02487 45.5469 4.70401 45.5469 3.71875C45.5469 1.89222 44.0609 0.40625 42.2344 0.40625C40.4078 0.40625 38.9219 1.89222 38.9219 3.71875V7.03125H9.86721C9.47168 4.68445 7.42631 2.89062 4.96875 2.89062C2.2289 2.89062 0 5.11963 0 7.85938V38.5C0 41.2397 2.2289 43.4688 4.96875 43.4688H32.7819L30.8832 45.3675C30.3633 45.8876 30.7317 46.7812 31.4688 46.7812H52.1719C52.6292 46.7812 53 46.4105 53 45.9531V25.25C53 24.5141 52.1074 24.1436 51.5863 24.6644ZM43.8906 23.5938H40.5781V5.375H43.8906V23.5938ZM43.4628 25.25L42.2344 28.1165L41.006 25.25H43.4628ZM42.2344 2.0625C43.1476 2.0625 43.8906 2.80554 43.8906 3.71875H40.5781C40.5781 2.80554 41.3212 2.0625 42.2344 2.0625ZM4.96875 4.54688C6.79528 4.54688 8.28125 6.03284 8.28125 7.85938V34.8005C6.39199 33.107 3.54375 33.1087 1.65625 34.8005V7.85938C1.65625 6.03284 3.14222 4.54688 4.96875 4.54688ZM4.96875 41.8125C3.14222 41.8125 1.65625 40.3265 1.65625 38.5C1.65625 36.6735 3.14222 35.1875 4.96875 35.1875C6.79528 35.1875 8.28125 36.6735 8.28125 38.5C8.28125 38.9573 8.65204 39.3281 9.10938 39.3281C9.56671 39.3281 9.9375 38.9573 9.9375 38.5V8.6875H38.9219V24.4213C38.9215 24.7166 38.8702 24.4713 41.4731 30.5449C41.7591 31.2123 42.7091 31.2132 42.9955 30.5449C46.0929 23.3177 45.3866 25.0046 45.48 24.7478C45.5787 24.5181 45.5469 25.5193 45.5469 8.6875H47.2031C47.6597 8.6875 48.0312 9.05902 48.0312 9.51562V28.2194L34.4382 41.8125H4.96875ZM51.3438 45.125H33.4679L37.2655 41.3274C37.5221 41.584 37.6968 41.8125 38.0936 41.8125C38.8245 41.8125 39.2028 40.9224 38.6792 40.3988L38.4368 40.1562L39.75 38.8431C40.0066 39.0997 40.1812 39.3281 40.5781 39.3281C41.3089 39.3281 41.6873 38.438 41.1637 37.9144L40.9212 37.6719L42.2344 36.3587C42.491 36.6153 42.6656 36.8438 43.0625 36.8438C43.7933 36.8438 44.1717 35.9536 43.6481 35.43L43.4056 35.1875L44.7188 33.8743C44.9754 34.1309 45.15 34.3594 45.5469 34.3594C46.2777 34.3594 46.656 33.4692 46.1325 32.9457L45.8899 32.7031L47.2031 31.3899C47.4597 31.6465 47.6344 31.875 48.0312 31.875C48.7621 31.875 49.1404 30.9849 48.6168 30.4613L48.3743 30.2188L51.3438 27.2493V45.125Z" fill="white"/>
<path d="M17 17.4062V34.4062H27.8974H34V27.3575V17.4062H21.359" stroke="white" stroke-width="1.6" stroke-linecap="round" stroke-linejoin="round"/>
<path d="M21 22.9062V34.4062M25 26.4062V34.4062M29 22.9062V34.4062" stroke="white" stroke-width="1.6" stroke-linecap="round" stroke-linejoin="round"/>
<path d="M48.2738 34.6019L40.8206 42.055C40.3008 42.5751 40.6692 43.4687 41.4062 43.4687H48.8593C49.3167 43.4687 49.6875 43.0979 49.6875 42.6406V35.1875C49.6875 34.4522 48.795 34.0806 48.2738 34.6019ZM48.0312 41.8125H43.4054L48.0312 37.1867V41.8125Z" fill="white"/>
<path d="M22.3594 45.125H15.7344C13.4512 45.125 11.5938 46.9825 11.5938 49.2656C11.5938 51.5488 13.4512 53.4062 15.7344 53.4062H22.3594C24.6425 53.4062 26.5 51.5488 26.5 49.2656C26.5 46.9825 24.6425 45.125 22.3594 45.125ZM14.9062 46.9232V51.6081C12.7043 50.8274 12.7023 47.7046 14.9062 46.9232ZM16.5625 46.7812H21.5312V51.75H16.5625V46.7812ZM23.1875 51.6081V46.9232C25.3895 47.7039 25.3915 50.8266 23.1875 51.6081Z" fill="white"/>
</g>
<defs>
<clipPath id="clip0_108_3135">
<rect width="53" height="53" fill="white" transform="translate(0 0.40625)"/>
</clipPath>
</defs>
</svg>
