<svg width="71" height="71" viewBox="0 0 71 71" fill="none" xmlns="http://www.w3.org/2000/svg">
<circle cx="35.5" cy="35.5" r="35.5" fill="white"/>
<path d="M36.4746 34.525V34.375V23.125C36.4746 22.5867 36.0388 22.15 35.4996 22.15C34.9605 22.15 34.5247 22.5867 34.5247 23.125V34.375V34.525H34.3747H32.1246C31.7553 34.525 31.4179 34.7334 31.252 35.064C31.0882 35.3949 31.1235 35.7898 31.3447 36.085L34.7118 40.5744C34.716 40.5772 34.7233 40.5822 34.7304 40.5876C34.7402 40.595 34.7528 40.6056 34.7653 40.6199L34.7671 40.6219L34.7671 40.6219C34.8277 40.6936 34.9015 40.7515 34.9917 40.8085C35.0148 40.8228 35.0369 40.8395 35.0513 40.8505C35.0542 40.8527 35.0568 40.8547 35.059 40.8563C35.0757 40.8688 35.0842 40.8741 35.0912 40.8773L35.092 40.8777C35.2205 40.938 35.3562 40.9749 35.4997 40.9749C35.6431 40.9749 35.7789 40.938 35.9089 40.8775L35.9722 41.0135M36.4746 34.525L36.007 40.809M36.4746 34.525H36.6246H38.8746C39.244 34.525 39.5814 34.7335 39.7473 35.0642C39.9122 35.395 39.8769 35.7897 39.6548 36.0848L39.6547 36.0849L36.2881 40.5738C36.2836 40.5768 36.2756 40.5821 36.2677 40.5882C36.2576 40.5959 36.2445 40.6072 36.2317 40.6226C36.1711 40.6941 36.0973 40.7519 36.0072 40.8089L36.0869 40.9359M36.4746 34.525L36.007 40.809M35.9722 41.0135L35.908 40.878C35.9152 40.8746 35.9242 40.8689 35.9409 40.8563C35.9434 40.8545 35.9462 40.8524 35.9493 40.85C35.9637 40.839 35.9852 40.8227 36.007 40.809M35.9722 41.0135C35.9981 41.0013 36.0203 40.9844 36.0425 40.9676C36.057 40.9566 36.0714 40.9457 36.0869 40.9359M35.9722 41.0135C35.8271 41.081 35.6696 41.1249 35.4997 41.1249C35.3298 41.1249 35.1723 41.081 35.0283 41.0135C35.0021 41.0015 34.9804 40.985 34.9585 40.9684C34.9437 40.9572 34.9288 40.9459 34.9124 40.9359H36.0869M36.007 40.809C36.0069 40.809 36.0069 40.8091 36.0068 40.8091L36.0869 40.9359" fill="#6EB44A" stroke="#F9F9F9" stroke-width="0.3"/>
<path d="M46.9 40C46.9 39.4617 47.3358 39.025 47.875 39.025C48.4142 39.025 48.85 39.4617 48.85 40V43.375C48.85 46.3938 46.3938 48.85 43.375 48.85H27.625C24.6062 48.85 22.15 46.3938 22.15 43.375V40C22.15 39.4617 22.5858 39.025 23.125 39.025C23.6642 39.025 24.1 39.4617 24.1 40V43.375C24.1 45.3186 25.6814 46.9 27.625 46.9H43.375C45.3186 46.9 46.9 45.3186 46.9 43.375V40Z" fill="#6EB44A" stroke="#F9F9F9" stroke-width="0.3"/>
</svg>
