<svg width="24" height="16" viewBox="0 0 24 16" fill="none" xmlns="http://www.w3.org/2000/svg">
<path d="M23.1252 7.43471L15.9377 0.403453C15.7505 0.220333 15.4473 0.220333 15.2602 0.403453C15.073 0.586574 15.073 0.883205 15.2602 1.06628L21.6297 7.29738H0.744806C0.479947 7.29738 0.265625 7.50704 0.265625 7.76614C0.265625 8.02524 0.479947 8.23491 0.744806 8.23491H21.6297L15.2602 14.466C15.073 14.6491 15.073 14.9457 15.2602 15.1288C15.3537 15.2203 15.4764 15.2661 15.599 15.2661C15.7216 15.2661 15.8442 15.2203 15.9378 15.1288L23.1253 8.09753C23.3124 7.91446 23.3124 7.61783 23.1252 7.43471Z" fill="#6EB44A"/>
</svg>
