<svg width="15" height="14" viewBox="0 0 15 14" fill="none" xmlns="http://www.w3.org/2000/svg">
<path fill-rule="evenodd" clip-rule="evenodd" d="M0.015625 6.69043L5.25027 7.03288L10.1914 0.493652L4.69582 0.86872L0.015625 6.69043Z" fill="#CACACA"/>
<path fill-rule="evenodd" clip-rule="evenodd" d="M10.2074 0.493652L5.25 7.03288L10.2074 12.9687L14.4799 6.6415L10.2074 0.493652Z" fill="#E6E6E6"/>
<path fill-rule="evenodd" clip-rule="evenodd" d="M0 6.69043L5.26726 7.00027L10.2084 12.9687L4.76173 12.186L0 6.69043Z" fill="#ADADAD"/>
<path fill-rule="evenodd" clip-rule="evenodd" d="M10.4188 8.43525L9.19578 6.88606L10.4677 5.14118L11.6419 6.77191L10.4188 8.43525ZM8.54349 11.0118L10.1742 8.84293L8.88594 7.2122C8.88594 7.2122 7.59766 9.07123 7.32044 9.36477C7.04322 9.6583 6.60292 9.6583 6.60292 9.6583L5.33095 9.52784L6.48877 10.914C6.48877 10.914 7.97273 11.1423 8.1195 11.1749C8.24996 11.2075 8.54349 11.0118 8.54349 11.0118ZM4.76019 10.6857L3.58607 9.33215L4.67866 9.42999L5.83648 10.8161L4.76019 10.6857ZM1.58027 6.96759C1.44981 6.77191 1.59658 6.57622 1.59658 6.57622L3.12946 4.58673H4.3362C4.3362 4.58673 3.22731 6.03808 2.91747 6.42945C2.59132 6.85344 2.93378 7.32635 2.93378 7.32635L4.28728 9.00601L3.17839 8.85924C3.19469 8.85924 1.71073 7.16328 1.58027 6.96759ZM4.71127 2.62985L5.8854 2.59724L4.66235 4.17904H3.47192L4.71127 2.62985ZM8.62502 6.90236C8.62502 6.90236 7.25521 8.84293 7.02691 9.03862C6.79861 9.23431 6.554 9.20169 6.554 9.20169L4.90696 9.02231C4.90696 9.02231 3.47192 7.27743 3.32515 7.08174C3.14577 6.82083 3.29254 6.64145 3.29254 6.64145L4.87434 4.57042C4.87434 4.57042 6.554 4.60303 6.58661 4.60303C6.83122 4.60303 7.07583 4.86395 7.07583 4.86395L8.62502 6.90236ZM6.40723 2.61354L5.20049 4.19535C5.20049 4.19535 6.50507 4.19535 6.53769 4.19535C7.04322 4.13012 7.35305 4.50519 7.35305 4.50519L8.95117 6.5273L10.1905 4.78241C10.1905 4.78241 8.85333 3.05384 8.73917 2.85815C8.55979 2.54831 8.20103 2.53201 8.20103 2.53201L6.40723 2.61354ZM12.1637 6.72298L13.5335 4.76611C13.5335 4.76611 13.7618 4.2932 13.3052 4.14643C13.2726 4.14643 12.7671 4.19535 12.7671 4.19535L12.9791 4.50519C12.9791 4.50519 13.1095 4.48888 13.1095 4.50519C13.1095 4.5215 13.0769 4.60303 13.0606 4.61934L11.8702 6.34792L10.745 4.76611L12.18 2.76031C12.18 2.76031 12.3431 2.45047 12.18 2.2874C12.0496 2.15694 11.968 2.15694 11.8539 2.15694C11.7234 2.15694 11.381 2.18955 11.381 2.18955L11.6419 2.56462C11.6582 2.56462 11.7723 2.54831 11.7723 2.56462C11.7723 2.58093 11.7397 2.66247 11.7234 2.67877L10.4514 4.39104L9.0164 2.43416C9.0164 2.43416 8.77179 2.02648 8.3478 2.0591C8.02165 2.09171 6.81491 2.10802 6.81491 2.10802L8.05427 0.52621C8.05427 0.52621 8.15211 0.395751 8.24996 0.477288C8.39672 0.640361 8.36411 0.672975 8.33149 0.591439C8.41303 0.591439 8.83702 0.558824 8.83702 0.558824C8.83702 0.558824 8.51087 0.118527 8.42934 0.0696053C8.36411 0.0369907 7.98904 -0.0934677 7.77704 0.118527C7.49982 0.395751 7.38567 0.624053 7.38567 0.624053L6.24416 2.10802L5.05373 2.18955L6.342 0.640361C6.342 0.640361 6.45615 0.656668 6.52138 0.754512L7.04322 0.70559L6.79861 0.379444C6.79861 0.379444 6.554 -0.0119312 6.03216 0.330522L4.53189 2.20586L2.90116 2.2874C2.90116 2.2874 2.59132 2.30371 2.64025 2.58093C2.68917 2.85815 2.91747 3.08646 2.91747 3.08646L3.211 2.71139L4.14052 2.64616L2.96639 4.11382L1.36828 4.14643C1.36828 4.14643 0.993208 4.16274 1.1889 4.57042C1.27043 4.76611 1.4172 4.92918 1.4172 4.92918L1.71073 4.55411L2.62394 4.53781L1.27043 6.34792C1.27043 6.34792 0.927979 6.78821 1.25412 7.2122C1.49873 7.52204 2.60763 8.81032 2.60763 8.81032L1.80857 8.71247C1.80857 8.71247 1.6455 8.69617 1.6455 8.67986C1.6455 8.66355 1.66181 8.63094 1.67811 8.61463L1.44981 8.37002C1.44981 8.37002 1.17259 8.66355 1.22151 8.85924C1.25412 8.9897 1.25412 9.10385 1.46612 9.13646C1.51504 9.15277 3.01531 9.29954 3.01531 9.29954L4.17313 10.653L3.30884 10.5226L3.27623 10.4737C3.27623 10.4737 3.12946 10.4574 3.12946 10.441C3.12946 10.4084 3.14577 10.4084 3.17839 10.3595L2.91747 10.066C2.91747 10.066 2.70547 10.3921 2.72178 10.5389C2.73809 10.6693 2.7544 10.7835 2.91747 10.8813C3.01531 10.9303 4.5482 11.077 4.5482 11.077L5.98324 12.7404C5.98324 12.7404 6.37462 13.2622 6.65184 12.9198C6.91276 12.6099 6.92906 12.4958 6.92906 12.4958L6.5703 12.4305C6.5703 12.4305 6.53769 12.5447 6.47246 12.5447C6.39092 12.5447 6.26047 12.3816 6.26047 12.3816L5.20049 11.1749L6.26047 11.3053L7.76074 13.0991C7.76074 13.0991 8.02165 13.3111 8.23365 13.2296C8.44564 13.1481 8.65764 12.7404 8.65764 12.7404L8.26626 12.6915C8.26626 12.6915 8.20103 12.8219 8.15211 12.8219C8.08688 12.8219 7.94012 12.6588 7.94012 12.6588L6.88014 11.4195L8.33149 11.5663C8.33149 11.5663 8.72287 11.5173 8.91856 11.289C9.13055 11.0607 10.4351 9.15277 10.4351 9.15277L11.7234 10.7672L11.593 10.8813L11.3646 11.2238C11.3646 11.2238 11.9191 11.2564 12.0332 11.1586C12.2452 10.9792 12.2126 10.6857 12.2126 10.6857L10.7124 8.7777L11.9354 7.11436L13.1421 8.71247V8.64724L12.7671 9.18539L13.3052 9.15277C13.3052 9.15277 13.6477 9.00601 13.5824 8.63094C13.5498 8.58202 12.1637 6.72298 12.1637 6.72298Z" fill="#495B68"/>
</svg>
