<svg width="77" height="74" viewBox="0 0 77 74" fill="none" xmlns="http://www.w3.org/2000/svg">
<path d="M0 52H23V74H0V52Z" fill="#6EB44A"/>
<g clip-path="url(#clip0_494_3951)">
<path d="M73.75 58.4999H71.5833V54.1666H73.75C74.9466 54.1666 75.9167 53.1966 75.9167 51.9999V49.8333C75.9167 48.6367 74.9466 47.6666 73.75 47.6666H67.25V43.3333H73.75C74.9466 43.3333 75.9167 42.3632 75.9167 41.1666V34.6666C75.9167 33.47 74.9466 32.4999 73.75 32.4999H49.8668C50.9246 31.1445 51.4989 29.4743 51.4983 27.7549C51.5016 26.792 51.3177 25.8375 50.9567 24.9448C50.7926 24.5254 50.5914 24.1215 50.3554 23.7379C53.3595 21.9642 54.805 18.3995 53.8847 15.0345C52.9645 11.6694 49.9061 9.33642 46.4175 9.33827C45.8709 9.33255 45.3255 9.39109 44.7925 9.51269C44.3664 4.61357 40.5703 0.680756 35.6894 0.0815543C30.8084 -0.517648 26.1738 2.3802 24.5753 7.03077C24.1935 6.72428 23.7836 6.45442 23.3512 6.22477C20.3598 4.65193 16.6939 5.20108 14.2947 7.58143C11.8955 9.96178 11.3175 13.6233 12.8667 16.6269C13.2125 17.2802 13.6471 17.8824 14.158 18.4166C13.6434 18.9545 13.2059 19.5611 12.858 20.2193C11.6292 22.6204 11.7368 25.4877 13.1422 27.79C14.5475 30.0923 17.0485 31.4986 19.7458 31.5033C20.4093 31.5035 21.0696 31.4116 21.7078 31.2303C21.9439 31.1689 22.1772 31.0967 22.4076 31.0136C22.8112 31.8151 23.3186 32.56 23.9167 33.229V46.5833C23.9167 53.782 23.6155 58.4999 19.5833 58.4999H15.25C13.4551 58.4999 12 59.955 12 61.7499C12 63.5449 13.4551 64.9999 15.25 64.9999H73.75C75.5449 64.9999 77 63.5449 77 61.7499C77 59.955 75.5449 58.4999 73.75 58.4999ZM69.4167 58.4999H67.25V54.1666H69.4167V58.4999ZM39.0833 58.4999V54.1666H65.0833V58.4999H39.0833ZM34.75 54.1666H36.9167V58.4999H34.75V54.1666ZM73.75 51.9999H30.4167V49.8333H73.75V51.9999ZM33.6667 46.5833V43.3333H36.9167V47.6666H33.6667C33.6667 47.3048 33.6667 46.9462 33.6667 46.5833ZM60.75 43.3333V47.6666H43.4167V43.3333H60.75ZM41.25 47.6666H39.0833V43.3333H41.25V47.6666ZM65.0833 47.6666H62.9167V43.3333H65.0833V47.6666ZM73.75 41.1666H30.4167V34.6666H73.75V41.1666ZM23.3598 28.5404C23.0609 28.4267 22.7271 28.4509 22.4477 28.6064C20.2785 29.8327 17.5574 29.4589 15.7993 27.6932C14.0898 25.986 13.6771 23.3709 14.7777 21.2203C15.1791 20.4611 15.745 19.8012 16.4341 19.2887C16.7112 19.0845 16.8747 18.7608 16.8747 18.4166C16.8747 18.0724 16.7112 17.7487 16.4341 17.5445C15.7486 17.0353 15.185 16.3799 14.7842 15.6259C13.6755 13.4734 14.0859 10.851 15.7993 9.14002C17.533 7.42783 20.171 7.02437 22.3372 8.14011C23.1118 8.55286 23.7812 9.13812 24.2937 9.85069C24.5542 10.2089 25.0065 10.3725 25.4359 10.2637C25.8652 10.1549 26.1851 9.79574 26.2437 9.35669C26.7689 5.24495 30.269 2.16483 34.4142 2.16661C36.603 2.15574 38.7044 3.02509 40.2458 4.57919C41.8163 6.14569 42.6888 8.27932 42.6659 10.4974C42.6659 10.5538 42.6594 10.6058 42.6583 10.6686L42.6432 10.8734C42.5996 11.2594 42.766 11.6392 43.0793 11.8688C43.3926 12.0984 43.8049 12.1427 44.1598 11.9849C44.5175 11.8265 44.8908 11.706 45.2735 11.6252C45.6482 11.5409 46.0313 11.5006 46.4153 11.5049C49.1178 11.5027 51.432 13.4409 51.9039 16.1019C52.3757 18.7629 50.8692 21.3786 48.3307 22.3058C47.9949 22.4289 47.7415 22.7098 47.6536 23.0564C47.5656 23.4031 47.6544 23.7708 47.8908 24.0391C48.3405 24.5399 48.6971 25.117 48.9438 25.7432C49.201 26.3811 49.332 27.0628 49.3295 27.7506C49.3305 29.2304 48.7436 30.65 47.698 31.6972C47.3858 32.0031 47.0398 32.2724 46.6667 32.4999H30.4167C29.503 32.504 28.69 33.0808 28.3843 33.9419C27.884 33.7188 27.4068 33.447 26.9598 33.1304C26.5374 32.8231 26.144 32.4779 25.7843 32.0991C24.9873 31.2715 24.3776 30.282 23.9968 29.1979C23.8921 28.8954 23.6589 28.6546 23.3598 28.5404ZM26.0833 46.5833V35.1411C26.7606 35.5859 27.4878 35.9496 28.25 36.2244V41.1666C28.25 42.3632 29.2201 43.3333 30.4167 43.3333H31.5V46.5833V47.6666H30.4167C29.2201 47.6666 28.25 48.6367 28.25 49.8333V51.9999C28.25 53.1966 29.2201 54.1666 30.4167 54.1666H32.5833V58.4999H24.1258C26.0725 55.7992 26.0833 51 26.0833 46.5833ZM73.75 62.8333H15.25C14.6517 62.8333 14.1667 62.3482 14.1667 61.7499C14.1667 61.1516 14.6517 60.6666 15.25 60.6666H73.75C74.3483 60.6666 74.8333 61.1516 74.8333 61.7499C74.8333 62.3482 74.3483 62.8333 73.75 62.8333Z" fill="black"/>
<path d="M27.1668 25.9999C27.7651 25.9999 28.2502 25.5149 28.2502 24.9166C28.2502 24.3183 27.7651 23.8332 27.1668 23.8332C25.9702 23.8332 25.0002 22.8632 25.0002 21.6666C25.0002 21.0683 24.5151 20.5833 23.9168 20.5833C23.3185 20.5833 22.8335 21.0683 22.8335 21.6666C22.8335 24.0598 24.7736 25.9999 27.1668 25.9999Z" fill="black"/>
<path d="M39.0833 23.8334C41.4766 23.8334 43.4167 21.8933 43.4167 19.5001C43.4167 18.9018 42.9316 18.4167 42.3333 18.4167C41.735 18.4167 41.25 18.9018 41.25 19.5001C41.25 20.6967 40.2799 21.6667 39.0833 21.6667C38.485 21.6667 38 22.1518 38 22.7501C38 23.3484 38.485 23.8334 39.0833 23.8334Z" fill="black"/>
</g>
<defs>
<clipPath id="clip0_494_3951">
<rect width="65" height="65" fill="white" transform="translate(12)"/>
</clipPath>
</defs>
</svg>
