<svg width="80" height="74" viewBox="0 0 80 74" fill="none" xmlns="http://www.w3.org/2000/svg">
<path d="M0 46H23V68H0V46Z" fill="#6EB44A"/>
<g clip-path="url(#clip0_494_3948)">
<path d="M44.0894 22.4949C44.0894 23.0967 43.6016 23.5845 42.9998 23.5845C42.3979 23.5845 41.9102 23.0967 41.9102 22.4949C41.9102 21.8931 42.3979 21.4053 42.9998 21.4053C43.6016 21.4053 44.0894 21.8931 44.0894 22.4949Z" fill="black"/>
<path d="M38.7939 15.4785C41.3887 13.9197 44.6113 13.9197 47.2061 15.4785C47.3805 15.5835 47.573 15.6332 47.7627 15.6332C48.1308 15.6332 48.4899 15.4457 48.6931 15.1076C49.0014 14.5944 48.8354 13.9282 48.3222 13.6199C45.0392 11.6479 40.9607 11.6479 37.6777 13.6199C37.1645 13.9282 36.9985 14.5944 37.3068 15.1076C37.6151 15.6208 38.2807 15.7868 38.7939 15.4785Z" fill="black"/>
<path d="M46.3066 19.0855C46.6142 18.5717 46.4483 17.9061 45.9351 17.5978C44.1245 16.511 41.8752 16.511 40.0646 17.5978C39.5514 17.9061 39.3854 18.5717 39.6931 19.0855C40.0014 19.5987 40.667 19.7652 41.1808 19.457C42.3032 18.7834 43.6971 18.7834 44.8189 19.457C44.9939 19.5614 45.1859 19.6117 45.3761 19.6117C45.7442 19.6117 46.1033 19.4237 46.3066 19.0855Z" fill="black"/>
<path d="M77.7575 15.6228H75.4405C74.2035 15.6228 73.198 16.6283 73.198 17.8653V21.4153H70.7314V19.0238C70.7314 18.6642 70.5529 18.3277 70.2554 18.1261C69.9573 17.9246 69.5791 17.8834 69.2448 18.0172L46.0735 27.2858C45.662 27.4507 45.3921 27.8492 45.3921 28.2924V60.7329C45.3921 61.0926 45.5705 61.4285 45.868 61.63C46.0504 61.7537 46.2621 61.8169 46.4761 61.8169C46.6121 61.8169 46.7488 61.7909 46.8786 61.739L70.0499 52.4704C70.4615 52.3055 70.7314 51.9075 70.7314 51.4643V49.0722H73.198V53.7813C73.198 54.3798 73.683 54.8653 74.282 54.8653H78.916C79.5145 54.8653 80 54.3798 80 53.7813V17.8653C80 16.6283 78.9939 15.6228 77.7575 15.6228ZM75.366 17.8653C75.366 17.8241 75.3993 17.7908 75.4405 17.7908H77.7575C77.7987 17.7908 77.832 17.8241 77.832 17.8653V21.4153H75.366V17.8653ZM56.8281 25.3188L59.2948 24.3319V54.4374L56.8281 55.4242V25.3188ZM54.6602 56.2914L52.1941 57.2777V27.1723L54.6602 26.186V56.2914ZM47.5595 29.0264L50.0261 28.0395V58.1449L47.5595 59.1312V29.0264ZM68.5634 50.7304L66.0973 51.7167V30.6095C66.0973 30.0104 65.6118 29.5255 65.0133 29.5255C64.4143 29.5255 63.9294 30.0104 63.9294 30.6095V52.5839L61.4627 53.5702V23.4648L63.9294 22.4784V25.9749C63.9294 26.5733 64.4143 27.0588 65.0133 27.0588C65.6118 27.0588 66.0973 26.5733 66.0973 25.9749V21.6113L68.5634 20.6249V50.7304ZM70.7314 46.9042V23.5833H73.1974V46.9042H70.7314ZM75.366 52.6973V23.5833H77.832V52.6973H75.366Z" fill="black"/>
<path d="M39.927 27.2859L16.7552 18.0172C16.4215 17.8834 16.0427 17.9241 15.7451 18.1262C15.447 18.3278 15.2686 18.6642 15.2686 19.0239V21.4154H12.802V17.8648C12.802 16.6284 11.7965 15.6223 10.5595 15.6223H8.24249C7.00607 15.6229 6 16.6284 6 17.8654V53.7814C6 54.3798 6.48553 54.8654 7.08398 54.8654H11.718C12.317 54.8654 12.802 54.3798 12.802 53.7814V49.0723H15.2686V51.4638C15.2686 51.907 15.5385 52.3056 15.9501 52.4704L39.1214 61.7391C39.2512 61.791 39.3878 61.8164 39.5239 61.8164C39.7379 61.8164 39.9496 61.7532 40.132 61.6301C40.4295 61.4286 40.6079 61.0921 40.6079 60.7324V28.2925C40.6085 27.8493 40.3386 27.4507 39.927 27.2859ZM31.3398 26.1861L33.8059 27.1724V57.2778L31.3398 56.2915V26.1861ZM29.1719 55.4243L26.7052 54.4374V24.332L29.1719 25.3189V55.4243ZM8.24249 17.7908H10.5595C10.6007 17.7908 10.634 17.8242 10.634 17.8654V21.4154H8.16797V17.8654C8.16797 17.8242 8.20128 17.7908 8.24249 17.7908ZM10.634 52.6974H8.16797V23.5834H10.634V52.6974ZM12.802 46.9043V23.5834H15.2686V46.9043H12.802ZM17.4366 20.625L19.9027 21.6113V43.3542C19.9027 43.9527 20.3882 44.4382 20.9866 44.4382C21.5857 44.4382 22.0706 43.9527 22.0706 43.3542V22.4785L24.5373 23.4648V53.5702L22.0706 52.5839V47.9877C22.0706 47.3893 21.5857 46.9037 20.9866 46.9037C20.3882 46.9037 19.9027 47.3893 19.9027 47.9877V51.7167L17.4366 50.7299V20.625ZM38.4405 59.1319L35.9739 58.145V28.0396L38.4405 29.0265V59.1319Z" fill="black"/>
</g>
<defs>
<clipPath id="clip0_494_3948">
<rect width="74" height="74" fill="white" transform="translate(6)"/>
</clipPath>
</defs>
</svg>
