<svg width="43" height="44" viewBox="0 0 43 44" fill="none" xmlns="http://www.w3.org/2000/svg">
<rect x="25.5" y="-2" width="21" height="21" fill="#6EB44A"/>
<path d="M36.9024 18.1881H36.7935V15.5198C36.7935 6.94846 29.8452 0 21.2737 0C12.7023 0 5.75392 6.94846 5.75392 15.5198V18.1881H5.1005C2.70443 18.1881 0.852978 20.3118 0.852978 22.7624V29.5693C0.792628 31.9444 2.6692 33.9188 5.04432 33.9791C5.06308 33.9796 5.08174 33.98 5.1005 33.9802H9.13018C9.70095 33.9534 10.1419 33.4688 10.1151 32.898C10.1141 32.8775 10.1126 32.857 10.1104 32.8365V19.495C10.1104 18.8415 9.72919 18.188 9.13018 18.188H7.93214V15.5197C7.93214 8.15139 13.9054 2.17812 21.2737 2.17812C28.642 2.17812 34.6153 8.15139 34.6153 15.5197V18.188H33.4173C32.8183 18.188 32.4371 18.8414 32.4371 19.495V32.8365C32.3763 33.4047 32.7876 33.9146 33.3558 33.9754C33.3762 33.9776 33.3967 33.9791 33.4173 33.9801H34.6697L34.5608 34.1434C32.9268 36.315 30.3627 37.587 27.645 37.5741C27.05 34.6567 24.2026 32.774 21.2853 33.3691C18.7905 33.8778 16.9918 36.0627 16.9717 38.6088C17.0015 41.595 19.4309 44 22.4172 43.9998C23.8955 43.9758 25.3046 43.3692 26.338 42.3117C27.0352 41.5977 27.492 40.6839 27.645 39.6978C31.0483 39.7107 34.2579 38.1159 36.3033 35.3958L37.338 33.871C39.6796 33.7077 41.1499 32.2374 41.1499 30.1136V23.3067C41.15 20.9653 39.4074 18.1881 36.9024 18.1881ZM7.93214 31.8019H5.1005C3.9279 31.7734 3.00045 30.7998 3.02901 29.6272C3.02953 29.6079 3.03026 29.5886 3.0312 29.5692V22.7623C3.0312 21.5099 3.90247 20.3662 5.1005 20.3662H7.93214V31.8019ZM24.7589 40.7871C24.1554 41.4414 23.3075 41.8162 22.4173 41.8218C20.6456 41.7936 19.2079 40.3798 19.15 38.6089C19.1493 36.8344 20.5872 35.3954 22.3616 35.3947C24.136 35.394 25.575 36.8318 25.5758 38.6062C25.5758 38.6071 25.5758 38.608 25.5758 38.6089C25.6211 39.4174 25.3247 40.2078 24.7589 40.7871ZM38.9717 30.1138C38.9717 31.5841 37.5559 31.8019 36.9024 31.8019H34.6153V20.3663H36.9024C38.1005 20.3663 38.9717 22.0545 38.9717 23.3069V30.1138Z" fill="black"/>
</svg>
