<svg width="53" height="47" viewBox="0 0 53 47" fill="none" xmlns="http://www.w3.org/2000/svg">
<rect x="31.5" width="21" height="21" fill="#6EB44A"/>
<g clip-path="url(#clip0_389_3945)">
<path d="M20.1263 34.5417H14.3763C13.8473 34.5417 13.418 34.1123 13.418 33.5833C13.418 33.0543 13.8473 32.625 14.3763 32.625H20.1263C20.6553 32.625 21.0846 33.0543 21.0846 33.5833C21.0846 34.1123 20.6553 34.5417 20.1263 34.5417Z" fill="black"/>
<path d="M20.1263 39.3333H16.293C14.7079 39.3333 13.418 38.0433 13.418 36.4583V30.7083C13.418 29.1232 14.7079 27.8333 16.293 27.8333H20.1263C20.6553 27.8333 21.0846 28.2626 21.0846 28.7916C21.0846 29.3206 20.6553 29.7499 20.1263 29.7499H16.293C15.7659 29.7499 15.3346 30.1812 15.3346 30.7083V36.4583C15.3346 36.9853 15.7659 37.4166 16.293 37.4166H20.1263C20.6553 37.4166 21.0846 37.8459 21.0846 38.3749C21.0846 38.9039 20.6553 39.3333 20.1263 39.3333Z" fill="black"/>
<path d="M41.2083 39.3333H35.4583C34.9293 39.3333 34.5 38.9039 34.5 38.3749V28.7916C34.5 28.2626 34.9293 27.8333 35.4583 27.8333C35.9873 27.8333 36.4167 28.2626 36.4167 28.7916V37.4166H41.2083C41.7373 37.4166 42.1667 37.8459 42.1667 38.3749C42.1667 38.9039 41.7373 39.3333 41.2083 39.3333Z" fill="black"/>
<path d="M31.6263 39.3333H25.8763C25.3473 39.3333 24.918 38.9039 24.918 38.3749V28.7916C24.918 28.2626 25.3473 27.8333 25.8763 27.8333C26.4053 27.8333 26.8346 28.2626 26.8346 28.7916V37.4166H31.6263C32.1553 37.4166 32.5846 37.8459 32.5846 38.3749C32.5846 38.9039 32.1553 39.3333 31.6263 39.3333Z" fill="black"/>
<path d="M23 14.4165C19.8298 14.4165 17.25 11.8367 17.25 8.6665C17.25 5.49634 19.8298 2.9165 23 2.9165C26.1702 2.9165 28.75 5.49634 28.75 8.6665C28.75 11.8367 26.1702 14.4165 23 14.4165ZM23 4.83317C20.8859 4.83317 19.1667 6.55242 19.1667 8.6665C19.1667 10.7806 20.8859 12.4998 23 12.4998C25.1141 12.4998 26.8333 10.7806 26.8333 8.6665C26.8333 6.55242 25.1141 4.83317 23 4.83317Z" fill="black"/>
<path d="M41.2083 45.0834H4.79167C2.14858 45.0834 0 42.9348 0 40.2917V24.9584C0 22.3153 2.14858 20.1667 4.79167 20.1667H41.2083C43.8514 20.1667 46 22.3153 46 24.9584V40.2917C46 42.9348 43.8514 45.0834 41.2083 45.0834ZM4.79167 22.0834C3.20658 22.0834 1.91667 23.3733 1.91667 24.9584V40.2917C1.91667 41.8768 3.20658 43.1667 4.79167 43.1667H41.2083C42.7934 43.1667 44.0833 41.8768 44.0833 40.2917V24.9584C44.0833 23.3733 42.7934 22.0834 41.2083 22.0834H4.79167Z" fill="black"/>
<path d="M12.4579 22.0834C12.3238 22.0834 12.1858 22.0547 12.0554 21.9952C11.5763 21.7729 11.3674 21.2037 11.5878 20.7226L17.3378 8.26424C17.5601 7.78316 18.1294 7.57616 18.6104 7.79658C19.0896 8.01891 19.2985 8.58816 19.0781 9.06924L13.3281 21.5276C13.1652 21.8783 12.8183 22.0834 12.4579 22.0834Z" fill="black"/>
<path d="M33.54 22.0834C33.1797 22.0834 32.8327 21.8783 32.6698 21.5276L26.9198 9.06924C26.6994 8.58816 26.9083 8.01891 27.3875 7.79658C27.8686 7.57616 28.4378 7.78316 28.6601 8.26424L34.4102 20.7226C34.6306 21.2037 34.4217 21.7729 33.9425 21.9952C33.8122 22.0547 33.6742 22.0834 33.54 22.0834Z" fill="black"/>
<path d="M8.14453 39.3333H4.79036C4.26136 39.3333 3.83203 38.9039 3.83203 38.3749C3.83203 37.8459 4.26136 37.4166 4.79036 37.4166H8.14453C8.93611 37.4166 9.58203 36.7707 9.58203 35.9791C9.58203 35.1875 8.93611 34.5416 8.14453 34.5416H7.1862C5.33661 34.5416 3.83203 33.037 3.83203 31.1874C3.83203 29.3378 5.33661 27.8333 7.1862 27.8333H10.5404C11.0694 27.8333 11.4987 28.2626 11.4987 28.7916C11.4987 29.3206 11.0694 29.7499 10.5404 29.7499H7.1862C6.39461 29.7499 5.7487 30.3958 5.7487 31.1874C5.7487 31.979 6.39461 32.6249 7.1862 32.6249H8.14453C9.99411 32.6249 11.4987 34.1295 11.4987 35.9791C11.4987 37.8287 9.99411 39.3333 8.14453 39.3333Z" fill="black"/>
</g>
<defs>
<clipPath id="clip0_389_3945">
<rect width="46" height="46" fill="white" transform="translate(0 1)"/>
</clipPath>
</defs>
</svg>
