<svg width="54" height="50" viewBox="0 0 54 50" fill="none" xmlns="http://www.w3.org/2000/svg">
<rect x="32.5" y="1" width="21" height="21" fill="#6EB44A"/>
<g clip-path="url(#clip0_389_3946)">
<path d="M28.7479 17.4805C29.2664 17.4805 29.6873 17.0429 29.6873 16.5039C29.6873 15.9649 29.2664 15.5273 28.7479 15.5273C28.2284 15.5273 27.8086 15.9649 27.8086 16.5039C27.8086 17.0429 28.2284 17.4805 28.7479 17.4805Z" fill="black"/>
<path d="M19.3534 17.4805C19.8719 17.4805 20.2927 17.0429 20.2927 16.5039C20.2927 15.9649 19.8719 15.5273 19.3534 15.5273C18.8338 15.5273 18.4141 15.9649 18.4141 16.5039C18.4141 17.0429 18.8338 17.4805 19.3534 17.4805Z" fill="black"/>
<path d="M21.539 24.1928C22.3276 24.5793 23.1726 24.7754 24.0499 24.7754C24.9082 24.7754 25.7367 24.5873 26.5128 24.2165C26.9843 23.991 27.1905 23.4112 26.974 22.921C26.7571 22.4312 26.1994 22.2164 25.7279 22.4419C25.1999 22.694 24.6352 22.8222 24.0499 22.8222C23.4515 22.8222 22.8761 22.6891 22.3401 22.4263C21.8708 22.1962 21.3108 22.4053 21.0899 22.8932C20.8687 23.3811 21.0697 23.9628 21.539 24.1928Z" fill="black"/>
<path d="M44.769 39.5284C44.769 34.1584 38.8865 29.947 33.8441 29.7474L31.2716 27.3446C34.4048 24.968 36.3066 21.1487 36.3066 17.0899V10.6446C36.3066 4.72146 31.6565 -0.0976562 25.9409 -0.0976562H22.1835C16.4756 -0.0976562 11.8839 4.70429 11.8839 10.6446V17.0899C11.8839 21.1419 13.7604 24.9539 16.8528 27.3263L14.2608 29.7474C9.22953 29.9466 3.33594 34.1473 3.33594 39.5284V48.9259C3.33594 49.4653 3.75644 49.9024 4.27527 49.9024H43.8297C44.3485 49.9024 44.769 49.4653 44.769 48.9259V39.5284ZM21.9718 43.4571H26.128L27.1128 47.9493H20.9584L21.9718 43.4571ZM26.2087 41.504H21.9124L21.1917 39.1698L24.053 37.6824L26.9756 39.2022L26.2087 41.504ZM24.0527 34.7481L20.7885 29.3194C21.8485 29.6258 22.9501 29.7848 24.0622 29.7848C25.1637 29.7848 26.2572 29.6288 27.3117 29.3275L24.0527 34.7481ZM25.3971 36.1977L29.907 28.6954L32.3394 30.9674L29.2443 38.1982L25.3971 36.1977ZM22.1835 1.85547H25.9409C30.6207 1.85547 34.4279 5.79797 34.4279 10.6446V11.4517L32.6641 8.81121C32.5045 8.57202 32.2502 8.41944 31.971 8.39502C31.6914 8.37061 31.4169 8.47704 31.221 8.68532C29.3115 10.7155 27.1007 11.6211 24.053 11.6211C21.0057 11.6211 18.7946 10.7155 16.8836 8.68532C16.687 8.47589 16.4099 8.36984 16.13 8.3954C15.8496 8.42096 15.595 8.57584 15.4365 8.81769L13.7626 11.3678V10.6446C13.7626 5.79797 17.5401 1.85547 22.1835 1.85547ZM13.7626 17.0899V14.8327L16.3714 10.8582C18.4614 12.7064 20.9312 13.5742 24.053 13.5742C27.1782 13.5742 29.6498 12.7045 31.7402 10.8525L34.4279 14.8762V17.0899C34.4279 22.9382 29.8299 27.8321 24.0622 27.8321C18.3132 27.8321 13.7626 22.9535 13.7626 17.0899ZM18.198 28.6957L22.7086 36.1977L18.8606 38.1982L15.7656 30.9674L18.198 28.6957ZM5.21461 39.5284C5.21461 35.5054 9.91862 32.0317 14.0293 31.7158L17.5437 39.9255C17.6479 40.1688 17.8435 40.3577 18.085 40.4477C18.3264 40.5377 18.5924 40.5209 18.8221 40.4019L19.4914 40.0536L20.2535 42.521L19.0287 47.9493H5.21461V39.5284ZM42.8904 47.9493H29.0396L27.8529 42.5359L28.6701 40.083L29.2829 40.4019C29.514 40.5221 29.7808 40.537 30.02 40.4477C30.2615 40.3577 30.457 40.1688 30.5612 39.9255L34.0757 31.7158C38.1864 32.0321 42.8904 35.5054 42.8904 39.5284V47.9493Z" fill="black"/>
<path d="M36.2631 43.457H32.5057C31.9869 43.457 31.5664 43.8942 31.5664 44.4336C31.5664 44.973 31.9869 45.4102 32.5057 45.4102H36.2631C36.7819 45.4102 37.2024 44.973 37.2024 44.4336C37.2024 43.8942 36.7819 43.457 36.2631 43.457Z" fill="black"/>
<path d="M39.9706 43.457C40.4891 43.457 40.9099 43.8946 40.9099 44.4336C40.9099 44.9726 40.4891 45.4102 39.9706 45.4102C39.4521 45.4102 39.0312 44.9726 39.0312 44.4336C39.0312 43.8946 39.4521 43.457 39.9706 43.457Z" fill="black"/>
</g>
<defs>
<clipPath id="clip0_389_3946">
<rect width="48" height="50" fill="white"/>
</clipPath>
</defs>
</svg>
