<svg width="44" height="42" viewBox="0 0 44 42" fill="none" xmlns="http://www.w3.org/2000/svg">
<rect x="33" y="-2" width="21" height="21" fill="#6EB44A"/>
<path d="M34.203 2.32031C32.9922 2.32031 31.9513 3.06066 31.5085 4.11236L28.0396 6.36718C27.6416 6.62585 27.5287 7.15815 27.7874 7.55603C28.046 7.95401 28.5783 8.06684 28.9762 7.80826L31.2811 6.31012V32.7054L19.2499 24.8851V14.1304L22.4919 12.0231C22.8899 11.7645 23.0028 11.2322 22.7441 10.8343C22.4855 10.4363 21.953 10.3235 21.5553 10.5821L18.1358 12.8046H6.96091C5.652 12.8046 4.54797 13.6962 4.22261 14.9037L0.547849 16.3328C0.217593 16.4613 0 16.7793 0 17.1337V21.8818C0 22.2362 0.217593 22.5542 0.547849 22.6827L4.22261 24.1117C4.54788 25.3193 5.652 26.2108 6.96091 26.2108H7.93028L12.5008 38.9656C13.0825 40.5889 14.6317 41.6795 16.3561 41.6795C17.687 41.6795 18.9389 41.0298 19.705 39.9415C20.4711 38.8532 20.6604 37.4555 20.2115 36.2027L16.6311 26.2108H18.1358L31.5085 34.9031C31.9512 35.9548 32.9921 36.6952 34.203 36.6952C35.8141 36.6952 37.1249 35.3845 37.1249 33.7733V5.24218C37.1249 3.63103 35.8141 2.32031 34.203 2.32031ZM1.71874 17.7216L4.12498 16.7859V22.2297L1.71874 21.2939V17.7216ZM5.84373 23.3749V15.6406C5.84373 15.0246 6.34491 14.5234 6.96091 14.5234H17.5312V24.4921H6.96091C6.34491 24.4921 5.84373 23.9909 5.84373 23.3749ZM18.5935 36.7824C18.8579 37.5203 18.7508 38.3112 18.2995 38.9522C17.8484 39.5932 17.14 39.9608 16.3561 39.9608C15.3554 39.9608 14.4564 39.3279 14.1188 38.3858L12.7123 34.4608H13.8359C14.3105 34.4608 14.6953 34.0761 14.6953 33.6014C14.6953 33.1268 14.3105 32.7421 13.8359 32.7421H12.0964L11.2342 30.3358H12.3463C12.821 30.3358 13.2057 29.9511 13.2057 29.4765C13.2057 29.0018 12.821 28.6171 12.3463 28.6171H10.6183L9.7561 26.2108H14.8053L18.5935 36.7824ZM35.4061 33.7733C35.4061 34.4367 34.8664 34.9764 34.203 34.9764C33.5396 34.9764 32.9999 34.4367 32.9999 33.7733V5.24218C32.9999 4.57874 33.5396 4.03906 34.203 4.03906C34.8664 4.03906 35.4061 4.57874 35.4061 5.24218V33.7733Z" fill="black"/>
<path d="M43.1406 21.6992C43.6153 21.6992 44 21.3145 44 20.8398C44 20.3652 43.6153 19.9805 43.1406 19.9805H39.7031C39.2285 19.9805 38.8438 20.3652 38.8438 20.8398C38.8438 21.3145 39.2285 21.6992 39.7031 21.6992H43.1406Z" fill="black"/>
<path d="M40.165 15.8533C40.3107 15.8533 40.4585 15.8162 40.5939 15.7381L43.5709 14.0193C43.9819 13.7821 44.1228 13.2565 43.8854 12.8454C43.6481 12.4343 43.1224 12.2934 42.7115 12.5309L39.7345 14.2496C39.3235 14.4869 39.1826 15.0125 39.42 15.4235C39.5792 15.6992 39.868 15.8533 40.165 15.8533Z" fill="black"/>
<path d="M43.5709 27.6601L40.5939 25.9414C40.1829 25.7042 39.6573 25.845 39.42 26.2559C39.1826 26.667 39.3235 27.1926 39.7345 27.4298L42.7115 29.1486C42.8468 29.2267 42.9946 29.2638 43.1404 29.2638C43.4374 29.2638 43.7262 29.1097 43.8854 28.834C44.1228 28.423 43.9819 27.8974 43.5709 27.6601Z" fill="black"/>
<path d="M25.2656 10.0547C25.4916 10.0547 25.7134 9.96273 25.8732 9.80289C26.033 9.64305 26.125 9.42133 26.125 9.19531C26.125 8.9693 26.033 8.74758 25.8732 8.58773C25.7134 8.42789 25.4916 8.33594 25.2656 8.33594C25.0396 8.33594 24.8179 8.42789 24.658 8.58773C24.4982 8.74758 24.4062 8.9693 24.4062 9.19531C24.4062 9.42133 24.4982 9.64305 24.658 9.80289C24.8179 9.96273 25.0396 10.0547 25.2656 10.0547Z" fill="black"/>
</svg>
