<svg width="20" height="14" viewBox="0 0 20 14" fill="none" xmlns="http://www.w3.org/2000/svg">
<path d="M19.8779 6.37208L13.6279 0.12208C13.4652 -0.0406934 13.2015 -0.0406934 13.0387 0.12208C12.876 0.284853 12.876 0.548525 13.0387 0.71126L18.5775 6.25001H0.41668C0.186367 6.25001 0 6.43638 0 6.66669C0 6.897 0.186367 7.08337 0.41668 7.08337H18.5775L13.0387 12.6221C12.876 12.7849 12.876 13.0485 13.0387 13.2113C13.1201 13.2926 13.2268 13.3333 13.3334 13.3333C13.44 13.3333 13.5466 13.2926 13.628 13.2113L19.878 6.96126C20.0407 6.79852 20.0407 6.53485 19.8779 6.37208Z" fill="#6EB44A"/>
</svg>
