<svg width="73" height="73" viewBox="0 0 73 73" fill="none" xmlns="http://www.w3.org/2000/svg">
<circle cx="36.5" cy="36.5" r="36.5" fill="#6EB44A" fill-opacity="0.21"/>
<path d="M50.267 34.6147V37.2126C52.8098 38.4832 54.2873 40.0559 54.2873 41.6161C54.2873 45.1919 47.093 48.001 39.9754 48.593C39.3255 48.6466 38.8424 49.2169 38.8967 49.866C38.9477 50.4903 39.486 50.9943 40.1697 50.9454C46.3654 50.4353 56.6476 47.7618 56.6476 41.6161C56.6476 38.2596 53.3634 35.9505 50.267 34.6147Z" fill="#6EB44A"/>
<path d="M29.4022 44.5847C28.7467 43.9177 27.6075 44.2437 27.4074 45.16L26.8858 47.5483C19.0728 45.4455 15.3217 40.9226 22.7462 37.2126V34.6147C13.0039 38.8175 14.5327 46.7113 26.3815 49.8575L25.9125 52.0048C25.7114 52.9255 26.6238 53.7043 27.5038 53.3523L33.4045 50.992C34.1851 50.6799 34.399 49.6707 33.8081 49.0692L29.4022 44.5847Z" fill="#6EB44A"/>
<path d="M37.0245 19.4254C36.6605 19.2191 36.2148 19.221 35.8526 19.4301L26.2861 24.9533C27.9063 25.8887 35.6246 30.3448 36.505 30.8532L46.7274 24.9237L37.0245 19.4254Z" fill="#6EB44A"/>
<path d="M25.1075 38.0434C25.1075 38.4651 25.3324 38.8546 25.6975 39.0655L35.3277 44.6255V32.8978L25.1074 26.9971V38.0434H25.1075Z" fill="#6EB44A"/>
<path d="M47.9068 38.0438V26.9683L37.6865 32.8966V44.6259L47.3167 39.0659C47.6819 38.855 47.9068 38.4655 47.9068 38.0438Z" fill="#6EB44A"/>
</svg>
