<svg width="67" height="28" viewBox="0 0 67 28" fill="none" xmlns="http://www.w3.org/2000/svg">
<path d="M34.7867 8.11599H32.4344V14.1767H30.7185V8.11599H28.3662V6.70459H34.759V8.11599H34.7867Z" fill="#2B2A2A"/>
<path d="M41.5665 12.793V14.1767H35.8379V6.70459H41.4282V8.08832H37.5537V9.72112H40.9854V11.0772H37.5537V12.793H41.5665Z" fill="#2B2A2A"/>
<path d="M44.1964 6.70459L45.7185 8.97391L47.2406 6.70459H49.2331L46.7701 10.2746L49.4269 14.1767H47.4066L45.6908 11.7137L44.0026 14.1767H42.0654L44.6945 10.3576L42.2315 6.70459H44.1964Z" fill="#2B2A2A"/>
<path d="M57.0371 6.70459V14.1767H55.3213V11.1048H51.9727V14.1767H50.2568V6.70459H51.9727V9.63809H55.3213V6.70459H57.0371Z" fill="#2B2A2A"/>
<path d="M63.8725 12.5716H60.4409L59.7767 14.1767H58.0332L61.3265 6.70459H63.0146L66.3079 14.1767H64.5091L63.8725 12.5716ZM63.319 11.2432L62.1567 8.39274L60.9944 11.2432H63.319Z" fill="#2B2A2A"/>
<path d="M66.5566 6.37242C66.695 6.45544 66.8057 6.56614 66.8887 6.70451C66.9717 6.84288 66.9994 7.00893 66.9994 7.17498C66.9994 7.34103 66.9717 7.50707 66.8887 7.64545C66.8057 7.78382 66.695 7.89452 66.5566 7.97754C66.4182 8.06057 66.2522 8.08824 66.0861 8.08824C65.9201 8.08824 65.754 8.06057 65.6156 7.97754C65.4773 7.89452 65.3666 7.78382 65.2835 7.64545C65.2005 7.50707 65.1729 7.34103 65.1729 7.17498C65.1729 7.00893 65.2005 6.84288 65.2835 6.70451C65.3666 6.56614 65.4773 6.45544 65.6156 6.37242C65.754 6.28939 65.9201 6.26172 66.0861 6.26172C66.2522 6.26172 66.4182 6.28939 66.5566 6.37242ZM66.4736 7.83917C66.5843 7.78382 66.6673 7.67312 66.7503 7.56242C66.8057 7.45173 66.861 7.31335 66.861 7.17498C66.861 7.03661 66.8333 6.89823 66.778 6.78754C66.7226 6.67684 66.6396 6.59381 66.5012 6.51079C66.3905 6.45544 66.2522 6.40009 66.1138 6.40009C65.9754 6.40009 65.837 6.42777 65.7263 6.51079C65.6156 6.56614 65.5326 6.67684 65.4496 6.78754C65.3942 6.89823 65.3666 7.03661 65.3666 7.17498C65.3666 7.31335 65.3942 7.45173 65.4496 7.56242C65.5049 7.67312 65.588 7.75615 65.7263 7.83917C65.837 7.89452 65.9754 7.94987 66.1138 7.94987C66.2245 7.94987 66.3629 7.89452 66.4736 7.83917ZM66.5289 7.23033C66.5012 7.28568 66.4459 7.31335 66.3905 7.3687L66.6119 7.7008H66.3352L66.1415 7.39638H65.9754V7.7008H65.6987V6.67684H66.1415C66.2798 6.67684 66.3905 6.70451 66.4736 6.78754C66.5566 6.84288 66.5843 6.95358 66.5843 7.06428C66.5843 7.11963 66.5566 7.17498 66.5289 7.23033ZM66.1138 7.20265C66.1691 7.20265 66.2245 7.20265 66.2522 7.17498C66.2798 7.14731 66.3075 7.11963 66.3075 7.06428C66.3075 7.00893 66.2798 6.98126 66.2522 6.95358C66.2245 6.92591 66.1691 6.89823 66.1138 6.89823H65.9477V7.20265H66.1138Z" fill="#2B2A2A"/>
<path d="M29.6953 16.7789H29.8614V16.7235C29.8614 16.6682 29.8614 16.6128 29.889 16.5575C29.889 16.5021 29.9167 16.4745 29.9444 16.4468C29.9721 16.4191 29.9997 16.3914 30.0274 16.3914C30.0551 16.3638 30.1104 16.3638 30.1658 16.3638C30.2211 16.3638 30.2488 16.3638 30.2765 16.3638C30.3042 16.3638 30.3318 16.3914 30.3872 16.3914L30.3595 16.5298C30.3318 16.5298 30.3042 16.5021 30.2765 16.5021C30.2488 16.5021 30.2211 16.5021 30.1935 16.5021C30.1658 16.5021 30.1381 16.5021 30.1104 16.5298C30.0828 16.5575 30.0828 16.5575 30.0551 16.5852C30.0551 16.6128 30.0274 16.6405 30.0274 16.6682C30.0274 16.6959 30.0274 16.7235 30.0274 16.7789V16.8066H30.3042V16.9449H30.0274V17.8305H29.8614V16.9449H29.6953V16.7789Z" fill="#0A4F28"/>
<path d="M31.2723 17.7188C31.2446 17.7464 31.1893 17.7741 31.1062 17.8018C31.0509 17.8295 30.9679 17.8295 30.9125 17.8295C30.8295 17.8295 30.7741 17.8295 30.7188 17.8018C30.6634 17.7741 30.6081 17.7464 30.5804 17.6911C30.5528 17.6357 30.5251 17.5804 30.4974 17.525C30.4697 17.4697 30.4697 17.3867 30.4697 17.3036C30.4697 17.1376 30.4974 16.9992 30.5804 16.9162C30.6634 16.8332 30.7741 16.7778 30.9125 16.7778C30.9679 16.7778 30.9955 16.7778 31.0509 16.8055C31.1062 16.8055 31.1339 16.8332 31.1616 16.8609C31.1893 16.8885 31.2169 16.9439 31.2446 16.9716C31.2723 16.9992 31.2723 17.0823 31.2723 17.193C31.2723 17.2483 31.2723 17.276 31.2723 17.3313H30.6358C30.6358 17.3867 30.6358 17.442 30.6634 17.4974C30.6634 17.5527 30.6911 17.5804 30.7188 17.6081C30.7465 17.6357 30.7741 17.6634 30.8295 17.6911C30.8572 17.7188 30.9125 17.7188 30.9679 17.7188C31.0232 17.7188 31.0509 17.7188 31.1062 17.6911C31.1616 17.6634 31.1893 17.6634 31.2169 17.6357L31.2723 17.7188ZM30.9125 16.8885C30.8295 16.8885 30.7741 16.9162 30.7188 16.9439C30.6634 16.9992 30.6358 17.0546 30.6358 17.1653H31.1339C31.1339 17.0546 31.1062 16.9992 31.0786 16.9439C31.0509 16.8885 30.9955 16.8885 30.9125 16.8885Z" fill="#0A4F28"/>
<path d="M32.296 17.8015V17.2203C32.296 17.1096 32.2684 17.0266 32.2407 16.9712C32.213 16.9159 32.1577 16.8882 32.0746 16.8882C31.9916 16.8882 31.9363 16.9159 31.9086 16.9436C31.8532 16.9712 31.8256 17.0266 31.7979 17.0819V17.7738H31.6318V16.7498H31.7425L31.7702 16.8882C31.7979 16.8329 31.8532 16.8052 31.9086 16.7775C31.9639 16.7498 32.0193 16.7222 32.1023 16.7222C32.1577 16.7222 32.213 16.7222 32.2407 16.7498C32.296 16.7498 32.3237 16.7775 32.3514 16.8052C32.379 16.8329 32.4067 16.8882 32.4067 16.9436C32.4067 16.9989 32.4344 17.0819 32.4344 17.165V17.7738H32.296V17.8015Z" fill="#0A4F28"/>
<path d="M33.5695 17.7186C33.5418 17.7463 33.4865 17.774 33.4311 17.774C33.3758 17.8016 33.3204 17.8016 33.2651 17.8016C33.182 17.8016 33.1267 17.8016 33.0713 17.774C33.016 17.7463 32.9606 17.7186 32.933 17.6633C32.9053 17.6079 32.8776 17.5526 32.8499 17.4972C32.8223 17.4419 32.8223 17.3588 32.8223 17.2758C32.8223 17.1098 32.8499 16.9714 32.933 16.8884C33.016 16.8053 33.1267 16.75 33.2651 16.75C33.3204 16.75 33.3758 16.75 33.4311 16.7777C33.4865 16.7777 33.5141 16.8053 33.5418 16.833L33.4865 16.9437C33.4588 16.916 33.4311 16.916 33.3758 16.8884C33.3481 16.8884 33.2927 16.8607 33.2651 16.8607C33.0713 16.8607 32.9883 16.9991 32.9883 17.2481C32.9883 17.3035 32.9883 17.3588 33.016 17.3865C33.016 17.4419 33.0437 17.4695 33.0713 17.5249C33.099 17.5526 33.1267 17.5802 33.1544 17.6079C33.182 17.6356 33.2374 17.6356 33.2927 17.6356C33.3481 17.6356 33.3758 17.6356 33.4311 17.6079C33.4588 17.5802 33.5141 17.5802 33.5141 17.5526L33.5695 17.7186Z" fill="#0A4F28"/>
<path d="M33.874 16.4457C33.874 16.418 33.874 16.3903 33.9017 16.3626C33.9294 16.335 33.957 16.335 33.9847 16.335C34.0124 16.335 34.0401 16.335 34.0677 16.3626C34.0954 16.3903 34.0954 16.418 34.0954 16.4457C34.0954 16.4733 34.0954 16.501 34.0677 16.5287C34.0401 16.5564 34.0124 16.5564 33.9847 16.5564C33.957 16.5564 33.9294 16.5564 33.9017 16.5287C33.9017 16.501 33.874 16.501 33.874 16.4457ZM33.9294 16.7778H34.0954V17.8017H33.9294V16.7778Z" fill="#0A4F28"/>
<path d="M35.1749 17.8015V17.2203C35.1749 17.1096 35.1473 17.0266 35.1196 16.9712C35.0919 16.9159 35.0366 16.8882 34.9535 16.8882C34.8705 16.8882 34.8152 16.9159 34.7875 16.9436C34.7321 16.9712 34.7045 17.0266 34.6768 17.0819V17.7738H34.5107V16.7498H34.6214L34.6491 16.8882C34.6768 16.8329 34.7321 16.8052 34.7875 16.7775C34.8428 16.7498 34.8982 16.7222 34.9812 16.7222C35.0366 16.7222 35.0919 16.7222 35.1196 16.7498C35.1749 16.7498 35.2026 16.7775 35.2303 16.8052C35.258 16.8329 35.2856 16.8882 35.2856 16.9436C35.3133 16.9989 35.3133 17.0819 35.3133 17.165V17.7738H35.1749V17.8015Z" fill="#0A4F28"/>
<path d="M36.5031 17.8295C36.5031 17.9679 36.4754 18.0509 36.3924 18.1339C36.3094 18.1893 36.2263 18.2169 36.088 18.2169C36.0049 18.2169 35.9496 18.2169 35.8942 18.1893C35.8389 18.1893 35.8112 18.1616 35.7559 18.1616L35.8112 18.0232C35.8389 18.0232 35.8666 18.0509 35.9219 18.0509C35.9773 18.0509 36.0049 18.0786 36.0603 18.0786C36.1156 18.0786 36.171 18.0786 36.1987 18.0509C36.2263 18.0509 36.254 18.0232 36.2817 17.9955C36.3094 17.9679 36.3094 17.9402 36.337 17.9125C36.337 17.8848 36.337 17.8295 36.337 17.7741V17.6634C36.3094 17.6911 36.2817 17.7465 36.2263 17.7465C36.171 17.7741 36.1433 17.7741 36.0603 17.7741C35.9219 17.7741 35.8112 17.7188 35.7559 17.6358C35.7005 17.5527 35.6729 17.4144 35.6729 17.2206C35.6729 17.0546 35.7005 16.9162 35.7836 16.8332C35.8666 16.7502 35.9773 16.6948 36.1433 16.6948C36.2263 16.6948 36.2817 16.6948 36.337 16.7225C36.3924 16.7225 36.4477 16.7502 36.4754 16.7778V17.8295H36.5031ZM36.1156 17.6634C36.171 17.6634 36.2263 17.6358 36.2817 17.6081C36.3094 17.5804 36.337 17.5251 36.3647 17.442V16.9439C36.3094 16.9162 36.254 16.9162 36.171 16.9162C36.088 16.9162 36.0049 16.9439 35.9496 16.9992C35.8942 17.0546 35.8666 17.1653 35.8666 17.3037C35.8666 17.359 35.8666 17.4144 35.8942 17.4697C35.9219 17.5251 35.9219 17.5527 35.9496 17.5804C35.9773 17.6081 36.0049 17.6358 36.0326 17.6634C36.0326 17.6634 36.0603 17.6634 36.1156 17.6634Z" fill="#0A4F28"/>
<path d="M38.0255 17.525C38.0255 17.4974 38.0255 17.442 37.9978 17.442C37.9701 17.442 37.9425 17.3867 37.9148 17.3867C37.8871 17.359 37.8318 17.359 37.8041 17.3313C37.7764 17.3036 37.7211 17.3036 37.6934 17.276C37.6657 17.2483 37.638 17.2206 37.6104 17.193C37.5827 17.1653 37.5827 17.1099 37.5827 17.0546C37.5827 16.9439 37.6104 16.8885 37.6657 16.8332C37.7211 16.7778 37.8041 16.7778 37.8871 16.7778C37.9701 16.7778 38.0255 16.7778 38.0808 16.8055C38.1362 16.8055 38.1639 16.8332 38.2192 16.8609L38.1915 16.9992C38.1639 16.9716 38.1362 16.9716 38.0808 16.9716C38.0255 16.9716 37.9978 16.9439 37.9425 16.9439C37.8871 16.9439 37.8318 16.9439 37.8041 16.9716C37.7764 16.9992 37.7764 17.0269 37.7764 17.0823C37.7764 17.1099 37.7764 17.1376 37.8041 17.1653C37.8318 17.1929 37.8594 17.193 37.8871 17.2206C37.9148 17.2483 37.9701 17.2483 37.9978 17.276C38.0532 17.3036 38.0808 17.3036 38.1085 17.3313C38.1362 17.359 38.1639 17.3867 38.1915 17.4143C38.2192 17.442 38.2192 17.4974 38.2192 17.5527C38.2192 17.6081 38.2192 17.6357 38.1915 17.6634C38.1639 17.6911 38.1639 17.7464 38.1362 17.7741C38.1085 17.8018 38.0808 17.8295 38.0255 17.8295C37.9701 17.8571 37.9425 17.8571 37.8594 17.8571C37.7764 17.8571 37.7211 17.8571 37.6657 17.8295C37.6104 17.8018 37.555 17.8018 37.5273 17.7741L37.5827 17.6357C37.6104 17.6634 37.6657 17.6634 37.6934 17.6911C37.7211 17.7188 37.8041 17.7188 37.8318 17.7188C37.8871 17.7188 37.9425 17.7188 37.9701 17.6911C37.9978 17.6634 38.0255 17.5804 38.0255 17.525Z" fill="#0A4F28"/>
<path d="M38.8272 17.4419L38.8826 17.6356L38.9379 17.4419L39.1316 16.7777H39.2977L38.9933 17.6909C38.9656 17.7463 38.9379 17.8293 38.9379 17.8847C38.9102 17.94 38.8826 17.9954 38.8549 18.0507C38.8272 18.1061 38.7996 18.1337 38.7719 18.1614C38.7442 18.1891 38.6889 18.2168 38.6612 18.2168C38.6058 18.2168 38.5782 18.2168 38.5505 18.1891L38.5782 18.0507C38.6058 18.0507 38.6058 18.0507 38.6335 18.0507C38.6612 18.0507 38.7165 18.023 38.7442 17.9954C38.7719 17.9677 38.7996 17.8847 38.8272 17.774L38.4121 16.75H38.6058L38.8272 17.4419Z" fill="#0A4F28"/>
<path d="M40.0174 17.525C40.0174 17.4974 40.0174 17.442 39.9897 17.442C39.962 17.442 39.9343 17.3867 39.9067 17.3867C39.879 17.359 39.8236 17.359 39.796 17.3313C39.7683 17.3036 39.7129 17.3036 39.6853 17.276C39.6576 17.2483 39.6299 17.2206 39.6022 17.193C39.5746 17.1653 39.5746 17.1099 39.5746 17.0546C39.5746 16.9439 39.6022 16.8885 39.6576 16.8332C39.7129 16.7778 39.796 16.7778 39.879 16.7778C39.962 16.7778 40.0174 16.7778 40.0727 16.8055C40.1281 16.8055 40.1557 16.8332 40.2111 16.8609L40.1281 16.9439C40.1004 16.9162 40.0727 16.9162 40.0174 16.9162C39.962 16.9162 39.9343 16.8885 39.879 16.8885C39.8236 16.8885 39.7683 16.8885 39.7406 16.9162C39.7129 16.9439 39.7129 16.9716 39.7129 17.0269C39.7129 17.0546 39.7129 17.0823 39.7406 17.1099C39.7683 17.1376 39.796 17.1376 39.8236 17.1653C39.8513 17.1929 39.9067 17.193 39.9343 17.2206C39.9897 17.2483 40.0174 17.2483 40.045 17.276C40.0727 17.3036 40.1004 17.3313 40.1281 17.359C40.1557 17.3867 40.1557 17.442 40.1557 17.4974C40.1557 17.5527 40.1557 17.5804 40.1281 17.6081C40.1004 17.6357 40.1004 17.6911 40.0727 17.7188C40.045 17.7464 40.0174 17.7741 39.962 17.7741C39.9067 17.8018 39.879 17.8018 39.796 17.8018C39.7129 17.8018 39.6576 17.8018 39.6022 17.7741C39.5469 17.7464 39.4915 17.7464 39.4639 17.7188L39.5192 17.5804C39.5469 17.6081 39.6022 17.6081 39.6299 17.6357C39.6576 17.6634 39.7406 17.6634 39.7683 17.6634C39.8236 17.6634 39.879 17.6634 39.9067 17.6357C39.9343 17.6081 40.0174 17.5804 40.0174 17.525Z" fill="#0A4F28"/>
<path d="M40.4043 16.7779H40.5703V16.5842L40.7364 16.5288V16.7779H41.0131V16.9163H40.7364V17.4974C40.7364 17.5804 40.7364 17.6081 40.7641 17.6358C40.7917 17.6635 40.8194 17.6911 40.8471 17.6911C40.8748 17.6911 40.9024 17.6911 40.9301 17.6911C40.9578 17.6911 40.9855 17.6635 41.0131 17.6635L41.0408 17.8018C41.0131 17.8295 40.9578 17.8295 40.9301 17.8572C40.8748 17.8572 40.8471 17.8849 40.7917 17.8849C40.7087 17.8849 40.6534 17.8572 40.6257 17.8018C40.598 17.7465 40.5703 17.6635 40.5703 17.5528V16.9439H40.4043V16.7779Z" fill="#0A4F28"/>
<path d="M42.0379 17.7188C42.0102 17.7464 41.9549 17.7741 41.8719 17.8018C41.8165 17.8295 41.7335 17.8295 41.6781 17.8295C41.5951 17.8295 41.5398 17.8295 41.4844 17.8018C41.4291 17.7741 41.3737 17.7464 41.346 17.6911C41.3184 17.6357 41.2907 17.5804 41.263 17.525C41.2354 17.4697 41.2354 17.3867 41.2354 17.3036C41.2354 17.1376 41.263 16.9992 41.346 16.9162C41.4291 16.8332 41.5398 16.7778 41.6781 16.7778C41.7335 16.7778 41.7612 16.7778 41.8165 16.8055C41.8719 16.8332 41.8995 16.8332 41.9272 16.8609C41.9549 16.8885 41.9826 16.9439 42.0102 16.9716C42.0379 17.0269 42.0379 17.0823 42.0379 17.193C42.0379 17.2483 42.0379 17.276 42.0379 17.3313H41.4014C41.4014 17.3867 41.4014 17.442 41.4291 17.4974C41.4291 17.5527 41.4567 17.5804 41.4844 17.6081C41.5121 17.6357 41.5398 17.6634 41.5951 17.6911C41.6228 17.7188 41.6781 17.7188 41.7335 17.7188C41.7888 17.7188 41.8165 17.7188 41.8719 17.6911C41.9272 17.6634 41.9549 17.6634 41.9826 17.6357L42.0379 17.7188ZM41.6781 16.8885C41.5951 16.8885 41.5398 16.9162 41.4844 16.9439C41.4291 16.9992 41.4014 17.0546 41.4014 17.1653H41.8995C41.8995 17.0546 41.8719 16.9992 41.8442 16.9439C41.8165 16.9162 41.7612 16.8885 41.6781 16.8885Z" fill="#0A4F28"/>
<path d="M43.0336 17.8018V17.2206C43.0336 17.1653 43.0336 17.1099 43.0336 17.0823C43.0336 17.0546 43.0336 16.9992 43.006 16.9716C42.9783 16.9439 42.9783 16.9162 42.9506 16.9162C42.9229 16.9162 42.8953 16.8885 42.8399 16.8885C42.7846 16.8885 42.7292 16.9162 42.6739 16.9439C42.6462 16.9716 42.5908 17.0269 42.5908 17.0823V17.7741H42.4248V16.7502H42.5355L42.5632 16.8885C42.5909 16.8332 42.6462 16.8055 42.7016 16.7778C42.7569 16.7502 42.8122 16.7225 42.8953 16.7225C42.9506 16.7225 43.006 16.7225 43.0613 16.7502C43.089 16.7778 43.1443 16.8332 43.1443 16.8885C43.172 16.8332 43.2274 16.8055 43.2827 16.7502C43.3381 16.6948 43.3934 16.6948 43.4764 16.6948C43.5318 16.6948 43.5871 16.6948 43.6148 16.7225C43.6425 16.7225 43.6978 16.7502 43.7255 16.7778C43.7532 16.8055 43.7809 16.8609 43.7809 16.9162C43.7809 16.9716 43.8085 17.0546 43.8085 17.1376V17.7465H43.6425V17.1376C43.6425 17.0823 43.6425 17.0546 43.6425 16.9992C43.6425 16.9716 43.6148 16.9439 43.6148 16.9162C43.5871 16.8885 43.5871 16.8609 43.5595 16.8609C43.5318 16.8609 43.5041 16.8332 43.4488 16.8332C43.3934 16.8332 43.3381 16.8609 43.2827 16.8885C43.2274 16.9162 43.2274 16.9716 43.1997 17.0546V17.7465H43.0336V17.8018Z" fill="#0A4F28"/>
<path d="M44.6114 17.525C44.6114 17.4974 44.6114 17.442 44.5838 17.442C44.5561 17.442 44.5284 17.3867 44.5007 17.3867C44.4731 17.359 44.4177 17.359 44.39 17.3313C44.3624 17.3036 44.307 17.3036 44.2793 17.276C44.2517 17.2483 44.224 17.2206 44.1963 17.193C44.1686 17.1653 44.1686 17.1099 44.1686 17.0546C44.1686 16.9439 44.1963 16.8885 44.2517 16.8332C44.307 16.7778 44.39 16.7778 44.4731 16.7778C44.5561 16.7778 44.6114 16.7778 44.6668 16.8055C44.7221 16.8055 44.7498 16.8332 44.8051 16.8609L44.7775 16.9992C44.7498 16.9716 44.7221 16.9716 44.6668 16.9716C44.6114 16.9716 44.5837 16.9439 44.5284 16.9439C44.4731 16.9439 44.4177 16.9439 44.39 16.9716C44.3624 16.9992 44.3624 17.0269 44.3624 17.0823C44.3624 17.1099 44.3624 17.1376 44.39 17.1653C44.4177 17.1929 44.4454 17.193 44.4731 17.2206C44.5007 17.2483 44.5561 17.2483 44.5838 17.276C44.6391 17.3036 44.6668 17.3036 44.6944 17.3313C44.7221 17.359 44.7498 17.3867 44.7775 17.4143C44.8051 17.442 44.8051 17.4974 44.8051 17.5527C44.8051 17.6081 44.8051 17.6357 44.7775 17.6634C44.7498 17.6911 44.7498 17.7464 44.7221 17.7741C44.6945 17.8018 44.6668 17.8295 44.6114 17.8295C44.5561 17.8571 44.5284 17.8571 44.4454 17.8571C44.3624 17.8571 44.307 17.8571 44.2517 17.8295C44.1963 17.8018 44.141 17.8018 44.1133 17.7741L44.1686 17.6357C44.1963 17.6634 44.2517 17.6634 44.2793 17.6911C44.307 17.7188 44.39 17.7188 44.4177 17.7188C44.4731 17.7188 44.5284 17.7188 44.5561 17.6911C44.5838 17.6634 44.6114 17.5804 44.6114 17.525Z" fill="#0A4F28"/>
<path d="M45.7461 16.8329C45.8014 16.8052 45.8568 16.7775 45.9121 16.7498C45.9675 16.7222 46.0505 16.7222 46.1335 16.7222C46.2166 16.7222 46.2719 16.7222 46.2996 16.7498C46.3549 16.7775 46.3826 16.8052 46.4103 16.8329C46.438 16.8605 46.438 16.8882 46.4656 16.9436C46.4656 16.9712 46.4656 17.0266 46.4656 17.0543C46.4656 17.1373 46.4656 17.2203 46.4656 17.3033C46.4656 17.3864 46.4656 17.4417 46.4656 17.5247C46.4656 17.5801 46.4656 17.6354 46.4656 17.6631C46.4656 17.7185 46.4656 17.7461 46.4933 17.8015H46.3826L46.3273 17.6631C46.3273 17.6908 46.2996 17.6908 46.2719 17.7185C46.2442 17.7461 46.2442 17.7461 46.2166 17.7738C46.1889 17.8015 46.1612 17.8015 46.1335 17.8015C46.1059 17.8015 46.0505 17.8291 46.0228 17.8291C45.9675 17.8291 45.9398 17.8292 45.9121 17.8015C45.8845 17.7738 45.8291 17.7738 45.8291 17.7461C45.8291 17.7185 45.7738 17.6908 45.7738 17.6631C45.7461 17.6354 45.7461 17.5801 45.7461 17.5524C45.7461 17.4971 45.7461 17.4417 45.7738 17.414C45.8014 17.3864 45.8291 17.331 45.8845 17.331C45.9398 17.3033 45.9675 17.3033 46.0505 17.2757C46.1059 17.2757 46.1889 17.248 46.2442 17.248C46.2719 17.248 46.2719 17.248 46.2996 17.248C46.3273 17.248 46.3273 17.248 46.3549 17.248C46.3549 17.2203 46.3549 17.165 46.3549 17.1373C46.3549 17.0543 46.3273 16.9989 46.2996 16.9712C46.2719 16.9436 46.2166 16.9159 46.1335 16.9159C46.1059 16.9159 46.0782 16.9159 46.0505 16.9159C46.0228 16.9159 45.9952 16.9159 45.9675 16.9436C45.9398 16.9436 45.9121 16.9712 45.8845 16.9712C45.8568 16.9712 45.8291 16.9989 45.8291 16.9989L45.7461 16.8329ZM46.0505 17.6631C46.0782 17.6631 46.1335 17.6631 46.1612 17.6354C46.1889 17.6354 46.2166 17.6078 46.2442 17.6078C46.2719 17.5801 46.2719 17.5801 46.2996 17.5524C46.3273 17.5247 46.3273 17.5247 46.3273 17.4971V17.331C46.2996 17.331 46.2996 17.331 46.2719 17.331C46.2442 17.331 46.2442 17.331 46.2166 17.331C46.1612 17.331 46.1335 17.331 46.1059 17.331C46.0782 17.331 46.0228 17.331 45.9952 17.3587C45.9675 17.3587 45.9398 17.3864 45.9121 17.414C45.8845 17.4417 45.8845 17.4694 45.8845 17.4971C45.8845 17.5524 45.9121 17.5801 45.9398 17.6078C45.9398 17.6354 45.9952 17.6631 46.0505 17.6631Z" fill="#0A4F28"/>
<path d="M47.5451 17.8015V17.2203C47.5451 17.1096 47.5174 17.0266 47.4897 16.9712C47.462 16.9159 47.4067 16.8882 47.3237 16.8882C47.2406 16.8882 47.1853 16.9159 47.1576 16.9436C47.1023 16.9712 47.0746 17.0266 47.0469 17.0819V17.7738H46.8809V16.7498H46.9916L47.0192 16.8882C47.0469 16.8329 47.1023 16.8052 47.1576 16.7775C47.213 16.7498 47.2683 16.7222 47.3513 16.7222C47.4067 16.7222 47.462 16.7222 47.4897 16.7498C47.5451 16.7498 47.5727 16.7775 47.6004 16.8052C47.6281 16.8329 47.6557 16.8882 47.6557 16.9436C47.6834 16.9989 47.6834 17.0819 47.6834 17.165V17.7738H47.5451V17.8015Z" fill="#0A4F28"/>
<path d="M48.8742 17.4421C48.8742 17.5251 48.8742 17.5805 48.8742 17.6358C48.8742 17.6912 48.8742 17.7465 48.9019 17.8019H48.7912L48.7635 17.6635C48.7358 17.7188 48.7081 17.7465 48.6528 17.7742C48.5974 17.8019 48.5421 17.8295 48.4591 17.8295C48.3207 17.8295 48.21 17.7742 48.1546 17.6912C48.0993 17.6081 48.0439 17.4698 48.0439 17.2761C48.0439 17.11 48.0716 16.9716 48.1546 16.8886C48.2377 16.8056 48.3484 16.7502 48.4867 16.7502C48.5421 16.7502 48.5698 16.7502 48.5974 16.7502C48.6251 16.7502 48.6528 16.7779 48.6805 16.7779V16.3628H48.8465V17.4421H48.8742ZM48.4591 17.6635C48.5144 17.6635 48.5698 17.6358 48.6251 17.6081C48.6528 17.5805 48.6805 17.5251 48.7081 17.4421V16.944C48.6805 16.9163 48.6528 16.9163 48.6251 16.9163C48.5974 16.9163 48.5421 16.9163 48.5144 16.9163C48.4314 16.9163 48.3484 16.944 48.293 16.9993C48.2377 17.0547 48.21 17.1654 48.21 17.3037C48.21 17.3591 48.21 17.4144 48.21 17.4698C48.21 17.5251 48.2377 17.5528 48.2653 17.5805C48.293 17.6081 48.3207 17.6358 48.3484 17.6635C48.376 17.6635 48.4037 17.6635 48.4591 17.6635Z" fill="#0A4F28"/>
<path d="M50.3683 17.525C50.3683 17.4974 50.3683 17.442 50.3406 17.442C50.3129 17.442 50.2852 17.3867 50.2576 17.3867C50.2299 17.359 50.1745 17.359 50.1469 17.3313C50.1192 17.3036 50.0638 17.3036 50.0362 17.276C50.0085 17.2483 49.9808 17.2206 49.9531 17.193C49.9255 17.1653 49.9255 17.1099 49.9255 17.0546C49.9255 16.9439 49.9531 16.8885 50.0085 16.8332C50.0638 16.7778 50.1469 16.7778 50.2299 16.7778C50.3129 16.7778 50.3683 16.7778 50.4236 16.8055C50.479 16.8055 50.5066 16.8332 50.562 16.8609L50.5343 16.9992C50.5066 16.9716 50.479 16.9716 50.4236 16.9716C50.3683 16.9716 50.3406 16.9439 50.2852 16.9439C50.2299 16.9439 50.1745 16.9439 50.1469 16.9716C50.1192 16.9992 50.1192 17.0269 50.1192 17.0823C50.1192 17.1099 50.1192 17.1376 50.1469 17.1653C50.1745 17.1929 50.2022 17.193 50.2299 17.2206C50.2576 17.2483 50.3129 17.2483 50.3406 17.276C50.3959 17.3036 50.4236 17.3036 50.4513 17.3313C50.479 17.359 50.5066 17.3867 50.5343 17.4143C50.562 17.442 50.562 17.4974 50.562 17.5527C50.562 17.6081 50.562 17.6357 50.5343 17.6634C50.5066 17.6911 50.5066 17.7464 50.479 17.7741C50.4513 17.8018 50.4236 17.8295 50.3683 17.8295C50.3129 17.8571 50.2852 17.8571 50.2022 17.8571C50.1192 17.8571 50.0638 17.8571 50.0085 17.8295C49.9531 17.8018 49.8978 17.8018 49.8701 17.7741L49.9255 17.6357C49.9531 17.6634 50.0085 17.6634 50.0362 17.6911C50.0638 17.7188 50.1469 17.7188 50.1745 17.7188C50.2299 17.7188 50.2852 17.7188 50.3129 17.6911C50.3406 17.6634 50.3683 17.5804 50.3683 17.525Z" fill="#0A4F28"/>
<path d="M50.8656 16.8329C50.9209 16.8052 50.9763 16.7775 51.0316 16.7498C51.087 16.7222 51.17 16.7222 51.253 16.7222C51.336 16.7222 51.3914 16.7222 51.4191 16.7498C51.4744 16.7775 51.5021 16.8052 51.5298 16.8329C51.5574 16.8605 51.5574 16.8882 51.5851 16.9436C51.5851 16.9712 51.5851 17.0266 51.5851 17.0543C51.5851 17.1373 51.5851 17.2203 51.5851 17.3033C51.5851 17.3864 51.5851 17.4417 51.5851 17.5247C51.5851 17.5801 51.5851 17.6354 51.5851 17.6631C51.5851 17.7185 51.5851 17.7461 51.6128 17.8015H51.4744L51.4191 17.6631C51.4191 17.6908 51.3914 17.6908 51.3637 17.7185C51.336 17.7461 51.336 17.7461 51.3084 17.7738C51.2807 17.8015 51.253 17.8015 51.2253 17.8015C51.1977 17.8015 51.1423 17.8291 51.1146 17.8291C51.0593 17.8291 51.0316 17.8292 51.0039 17.8015C50.9763 17.7738 50.9209 17.7738 50.9209 17.7461C50.9209 17.7185 50.8656 17.6908 50.8656 17.6631C50.8379 17.6354 50.8379 17.5801 50.8379 17.5524C50.8379 17.4971 50.8379 17.4417 50.8656 17.414C50.8932 17.3864 50.9209 17.331 50.9763 17.331C51.0316 17.3033 51.0593 17.3033 51.1423 17.2757C51.1977 17.2757 51.2807 17.248 51.336 17.248C51.3637 17.248 51.3637 17.248 51.3914 17.248C51.4191 17.248 51.4191 17.248 51.4467 17.248C51.4467 17.2203 51.4467 17.165 51.4467 17.1373C51.4467 17.0543 51.4191 16.9989 51.3914 16.9712C51.3637 16.9436 51.3084 16.9159 51.2253 16.9159C51.1977 16.9159 51.17 16.9159 51.1423 16.9159C51.1146 16.9159 51.087 16.9159 51.0593 16.9436C51.0316 16.9436 51.0039 16.9712 50.9763 16.9712C50.9486 16.9712 50.9209 16.9989 50.9209 16.9989L50.8656 16.8329ZM51.1423 17.6631C51.17 17.6631 51.2253 17.6631 51.253 17.6354C51.2807 17.6354 51.3084 17.6078 51.336 17.6078C51.3637 17.5801 51.3637 17.5801 51.3914 17.5524C51.4191 17.5247 51.4191 17.5247 51.4191 17.4971V17.331C51.3914 17.331 51.3914 17.331 51.3637 17.331C51.336 17.331 51.336 17.331 51.3084 17.331C51.253 17.331 51.2253 17.331 51.1977 17.331C51.17 17.331 51.1146 17.331 51.087 17.3587C51.0593 17.3587 51.0316 17.3864 51.0039 17.414C50.9763 17.4417 50.9763 17.4694 50.9763 17.4971C50.9763 17.5524 51.0039 17.5801 51.0316 17.6078C51.0593 17.6354 51.1146 17.6631 51.1423 17.6631Z" fill="#0A4F28"/>
<path d="M51.89 16.7779H52.056V16.7226C52.056 16.6672 52.056 16.6119 52.0837 16.5565C52.0837 16.5012 52.1114 16.4735 52.1391 16.4458C52.1667 16.4181 52.1944 16.3905 52.2221 16.3905C52.2497 16.3905 52.3051 16.3628 52.3604 16.3628C52.4158 16.3628 52.4435 16.3628 52.4711 16.3628C52.4988 16.3628 52.5265 16.3905 52.5818 16.3905L52.5542 16.5288C52.5265 16.5288 52.4988 16.5012 52.4711 16.5012C52.4435 16.5012 52.4158 16.5012 52.3881 16.5012C52.3604 16.5012 52.3328 16.5012 52.3051 16.5288C52.2774 16.5288 52.2774 16.5565 52.2498 16.5842C52.2498 16.6119 52.2221 16.6395 52.2221 16.6672C52.2221 16.6949 52.2221 16.7226 52.2221 16.7779V16.8056H52.4988V16.944H52.2221V17.8295H52.0284V16.944H51.8623V16.7779H51.89Z" fill="#0A4F28"/>
<path d="M53.4676 17.7188C53.4399 17.7464 53.3846 17.7741 53.3016 17.8018C53.2462 17.8295 53.1632 17.8295 53.1078 17.8295C53.0248 17.8295 52.9695 17.8295 52.9141 17.8018C52.8588 17.7741 52.8034 17.7464 52.7757 17.6911C52.7481 17.6357 52.7204 17.5804 52.6927 17.525C52.665 17.4697 52.665 17.3867 52.665 17.3036C52.665 17.1376 52.6927 16.9992 52.7757 16.9162C52.8588 16.8332 52.9695 16.7778 53.1078 16.7778C53.1632 16.7778 53.1909 16.7778 53.2462 16.8055C53.3016 16.8332 53.3292 16.8332 53.3569 16.8609C53.3846 16.8885 53.4123 16.9439 53.4399 16.9716C53.4676 17.0269 53.4676 17.0823 53.4676 17.193C53.4676 17.2483 53.4676 17.276 53.4676 17.3313H52.8311C52.8311 17.3867 52.8311 17.442 52.8588 17.4974C52.8588 17.5527 52.8864 17.5804 52.9141 17.6081C52.9418 17.6357 52.9695 17.6634 53.0248 17.6911C53.0525 17.7188 53.1078 17.7188 53.1632 17.7188C53.2185 17.7188 53.2462 17.7188 53.3016 17.6911C53.3569 17.6634 53.3846 17.6634 53.4123 17.6357L53.4676 17.7188ZM53.1078 16.8885C53.0248 16.8885 52.9695 16.9162 52.9141 16.9439C52.8588 16.9992 52.8311 17.0546 52.8311 17.1653H53.3292C53.3292 17.0546 53.3016 16.9992 53.2739 16.9439C53.2462 16.9162 53.1909 16.8885 53.1078 16.8885Z" fill="#0A4F28"/>
<path d="M53.7168 16.7779H53.8828V16.5842L54.0489 16.5288V16.7779H54.3256V16.9163H54.0489V17.4974C54.0489 17.5804 54.0489 17.6081 54.0766 17.6358C54.1042 17.6635 54.1319 17.6911 54.1596 17.6911C54.1873 17.6911 54.2149 17.6911 54.2426 17.6911C54.2703 17.6911 54.298 17.6635 54.3256 17.6635L54.3533 17.8018C54.3256 17.8295 54.2703 17.8295 54.2426 17.8572C54.1873 17.8572 54.1596 17.8849 54.1042 17.8849C54.0212 17.8849 53.9659 17.8572 53.9382 17.8018C53.9105 17.7465 53.8828 17.6635 53.8828 17.5528V16.9439H53.7168V16.7779Z" fill="#0A4F28"/>
<path d="M54.9337 17.4419L54.989 17.6356L55.0444 17.4419L55.2381 16.7777H55.4041L55.0997 17.6909C55.072 17.7463 55.0444 17.8293 55.0444 17.8847C55.0167 17.94 54.989 17.9954 54.9613 18.0507C54.9337 18.1061 54.906 18.1337 54.8783 18.1614C54.8507 18.1891 54.7953 18.2168 54.7676 18.2168C54.7123 18.2168 54.6846 18.2168 54.6569 18.1891L54.6846 18.0507C54.7123 18.0507 54.7123 18.0507 54.74 18.0507C54.7676 18.0507 54.823 18.023 54.8506 17.9954C54.8783 17.9677 54.906 17.8847 54.9337 17.774L54.5186 16.75H54.7123L54.9337 17.4419Z" fill="#0A4F28"/>
<path d="M56.9822 17.7188C56.9546 17.7464 56.8992 17.7741 56.8162 17.8018C56.7609 17.8295 56.6778 17.8295 56.6225 17.8295C56.5395 17.8295 56.4841 17.8295 56.4288 17.8018C56.3734 17.7741 56.3181 17.7464 56.2904 17.6911C56.2627 17.6357 56.235 17.5804 56.2074 17.525C56.1797 17.4697 56.1797 17.3867 56.1797 17.3036C56.1797 17.1376 56.2074 16.9992 56.2904 16.9162C56.3734 16.8332 56.4841 16.7778 56.6225 16.7778C56.6778 16.7778 56.7055 16.7778 56.7609 16.8055C56.8162 16.8332 56.8439 16.8332 56.8716 16.8609C56.8992 16.8885 56.9269 16.9439 56.9546 16.9716C56.9823 17.0269 56.9822 17.0823 56.9822 17.193C56.9822 17.2483 56.9822 17.276 56.9822 17.3313H56.3457C56.3457 17.3867 56.3457 17.442 56.3734 17.4974C56.3734 17.5527 56.4011 17.5804 56.4288 17.6081C56.4564 17.6357 56.4841 17.6634 56.5395 17.6911C56.5671 17.7188 56.6225 17.7188 56.6778 17.7188C56.7332 17.7188 56.7609 17.7188 56.8162 17.6911C56.8716 17.6634 56.8992 17.6634 56.9269 17.6357L56.9822 17.7188ZM56.6502 16.8885C56.5671 16.8885 56.5118 16.9162 56.4564 16.9439C56.4011 16.9992 56.3734 17.0546 56.3734 17.1653H56.8716C56.8716 17.0546 56.8439 16.9992 56.8162 16.9439C56.7609 16.9162 56.7055 16.8885 56.6502 16.8885Z" fill="#0A4F28"/>
<path d="M58.145 18.1893H57.979V17.6634C57.9513 17.6911 57.9236 17.7465 57.8683 17.7465C57.8406 17.7741 57.7853 17.7741 57.7022 17.7741C57.5639 17.7741 57.4808 17.7188 57.3978 17.6358C57.3425 17.5527 57.2871 17.4144 57.2871 17.2206C57.2871 17.0546 57.3425 16.9162 57.4255 16.8332C57.5085 16.7502 57.6192 16.6948 57.7853 16.6948C57.8683 16.6948 57.9236 16.6948 57.979 16.7225C58.0343 16.7225 58.0897 16.7502 58.1173 16.7778V18.1893H58.145ZM57.7299 17.6634C57.7853 17.6634 57.8406 17.6358 57.8959 17.6081C57.9513 17.5804 57.9513 17.5251 57.979 17.442V16.9439C57.9236 16.9162 57.8683 16.9162 57.7853 16.9162C57.7022 16.9162 57.6192 16.9439 57.5639 16.9992C57.5085 17.0546 57.4808 17.1653 57.4808 17.3037C57.4808 17.359 57.4808 17.4144 57.5085 17.4697C57.5085 17.5251 57.5362 17.5527 57.5639 17.5804C57.5915 17.6081 57.6192 17.6358 57.6469 17.6634C57.6469 17.6634 57.6746 17.6634 57.7299 17.6634Z" fill="#0A4F28"/>
<path d="M58.6979 16.7777V17.3588C58.6979 17.4142 58.6979 17.4695 58.6979 17.4972C58.6979 17.5249 58.7256 17.5802 58.7256 17.6079C58.7256 17.6356 58.7533 17.6633 58.781 17.6633C58.8086 17.6633 58.8363 17.6909 58.8917 17.6909C58.9193 17.6909 58.947 17.6909 59.0024 17.6633C59.03 17.6633 59.0577 17.6356 59.0854 17.6079C59.1131 17.5802 59.1407 17.5526 59.1407 17.5249C59.1684 17.4972 59.1684 17.4695 59.1684 17.4419V16.75H59.3345V17.4972C59.3345 17.5526 59.3345 17.6079 59.3345 17.6633C59.3345 17.7186 59.3345 17.774 59.3621 17.8016H59.2514L59.2238 17.6356C59.1961 17.6909 59.1407 17.7463 59.0854 17.774C59.03 17.8016 58.9747 17.8293 58.8917 17.8293C58.8363 17.8293 58.781 17.8293 58.7533 17.8016C58.7256 17.8016 58.6703 17.774 58.6426 17.7463C58.6149 17.7186 58.5872 17.6633 58.5872 17.6079C58.5596 17.5526 58.5596 17.4695 58.5596 17.3865V16.7777H58.6979Z" fill="#0A4F28"/>
<path d="M59.75 16.4457C59.75 16.418 59.75 16.3903 59.7777 16.3626C59.8054 16.335 59.833 16.335 59.8607 16.335C59.8884 16.335 59.9161 16.335 59.9437 16.3626C59.9714 16.3903 59.9714 16.418 59.9714 16.4457C59.9714 16.4733 59.9714 16.501 59.9437 16.5287C59.9161 16.5564 59.8884 16.5564 59.8607 16.5564C59.833 16.5564 59.8054 16.5564 59.7777 16.5287C59.75 16.501 59.75 16.501 59.75 16.4457ZM59.7777 16.7778H59.9437V17.8017H59.7777V16.7778Z" fill="#0A4F28"/>
<path d="M60.3857 16.7777H60.4964L60.5241 16.8884C60.5518 16.833 60.6071 16.8053 60.6348 16.7777C60.6902 16.75 60.7455 16.75 60.8009 16.75C60.9392 16.75 61.0499 16.7777 61.1053 16.8607C61.1606 16.9437 61.216 17.0821 61.216 17.2481C61.216 17.3312 61.216 17.4142 61.1883 17.4695C61.1606 17.5249 61.133 17.6079 61.1053 17.6356C61.0776 17.6909 61.0223 17.7186 60.9669 17.7463C60.9116 17.774 60.8562 17.774 60.7732 17.774C60.7178 17.774 60.6902 17.774 60.6625 17.774C60.6348 17.774 60.6071 17.7463 60.5795 17.7463V18.1614H60.4134V16.7777H60.3857ZM60.8009 16.8884C60.7455 16.8884 60.6902 16.916 60.6348 16.9437C60.6071 16.9714 60.5795 17.0267 60.5518 17.1098V17.6079C60.5795 17.6356 60.6071 17.6356 60.6348 17.6633C60.6625 17.6909 60.7178 17.6909 60.7455 17.6909C60.8285 17.6909 60.9116 17.6633 60.9669 17.5802C61.0223 17.4972 61.0499 17.4142 61.0499 17.2758C61.0499 17.2205 61.0499 17.1651 61.0223 17.1098C61.0223 17.0544 60.9946 17.0267 60.9669 16.9991C60.9392 16.9714 60.9116 16.9437 60.8839 16.916C60.8839 16.8884 60.8562 16.8884 60.8009 16.8884Z" fill="#0A4F28"/>
<path d="M62.185 17.8018V17.2206C62.185 17.1653 62.185 17.1099 62.185 17.0823C62.185 17.0546 62.185 16.9992 62.1573 16.9716C62.1573 16.9439 62.1297 16.9162 62.102 16.9162C62.0743 16.9162 62.0466 16.8885 61.9913 16.8885C61.9359 16.8885 61.8806 16.9162 61.8252 16.9439C61.7976 16.9716 61.7422 17.0269 61.7422 17.0823V17.7741H61.5762V16.7502H61.6869L61.7145 16.8885C61.7422 16.8332 61.7976 16.8055 61.8529 16.7778C61.9083 16.7502 61.9636 16.7225 62.0466 16.7225C62.102 16.7225 62.1573 16.7225 62.2127 16.7502C62.2404 16.7778 62.2957 16.8332 62.2957 16.8885C62.3234 16.8332 62.3787 16.8055 62.4341 16.7502C62.4894 16.6948 62.5448 16.6948 62.6278 16.6948C62.6832 16.6948 62.7385 16.6948 62.7662 16.7225C62.7939 16.7225 62.8492 16.7502 62.8769 16.7778C62.9046 16.8055 62.9322 16.8609 62.9322 16.9162C62.9322 16.9716 62.9599 17.0546 62.9599 17.1376V17.7465H62.7939V17.1376C62.7939 17.0823 62.7939 17.0546 62.7939 16.9992C62.7939 16.9716 62.7662 16.9439 62.7662 16.9162C62.7385 16.8885 62.7385 16.8609 62.7108 16.8609C62.6832 16.8609 62.6555 16.8332 62.6001 16.8332C62.5448 16.8332 62.4894 16.8609 62.4341 16.8885C62.3787 16.9162 62.3787 16.9716 62.3511 17.0546V17.7465H62.185V17.8018Z" fill="#0A4F28"/>
<path d="M64.0672 17.7188C64.0395 17.7464 63.9842 17.7741 63.9012 17.8018C63.8458 17.8295 63.7628 17.8295 63.7074 17.8295C63.6244 17.8295 63.5691 17.8295 63.5137 17.8018C63.4584 17.7741 63.403 17.7464 63.3753 17.6911C63.3477 17.6357 63.32 17.5804 63.2923 17.525C63.2646 17.4697 63.2646 17.3867 63.2646 17.3036C63.2646 17.1376 63.2923 16.9992 63.3753 16.9162C63.4584 16.8332 63.5691 16.7778 63.7074 16.7778C63.7628 16.7778 63.7905 16.7778 63.8458 16.8055C63.9012 16.8332 63.9288 16.8332 63.9565 16.8609C63.9842 16.8885 64.0119 16.9439 64.0395 16.9716C64.0672 17.0269 64.0672 17.0823 64.0672 17.193C64.0672 17.2483 64.0672 17.276 64.0672 17.3313H63.4307C63.4307 17.3867 63.4307 17.442 63.4584 17.4974C63.4584 17.5527 63.486 17.5804 63.5137 17.6081C63.5414 17.6357 63.5691 17.6634 63.6244 17.6911C63.6521 17.7188 63.7074 17.7188 63.7628 17.7188C63.8181 17.7188 63.8458 17.7188 63.9012 17.6911C63.9565 17.6634 63.9842 17.6634 64.0119 17.6357L64.0672 17.7188ZM63.7351 16.8885C63.6521 16.8885 63.5967 16.9162 63.5414 16.9439C63.486 16.9992 63.4584 17.0546 63.4584 17.1653H63.9565C63.9565 17.0546 63.9288 16.9992 63.9012 16.9439C63.8458 16.9162 63.7905 16.8885 63.7351 16.8885Z" fill="#0A4F28"/>
<path d="M65.1189 17.8015V17.2203C65.1189 17.1096 65.0913 17.0266 65.0636 16.9712C65.0359 16.9159 64.9806 16.8882 64.8975 16.8882C64.8145 16.8882 64.7592 16.9159 64.7315 16.9436C64.6761 16.9712 64.6485 17.0266 64.6208 17.0819V17.7738H64.4824V16.7498H64.5931L64.6208 16.8882C64.6485 16.8329 64.7038 16.8052 64.7592 16.7775C64.8145 16.7498 64.8699 16.7222 64.9529 16.7222C65.0082 16.7222 65.0636 16.7222 65.0913 16.7498C65.1466 16.7498 65.1743 16.7775 65.202 16.8052C65.2296 16.8329 65.2573 16.8882 65.2573 16.9436C65.285 16.9989 65.285 17.0819 65.285 17.165V17.7738H65.1189V17.8015Z" fill="#0A4F28"/>
<path d="M65.5615 16.7779H65.7276V16.5842L65.8936 16.5288V16.7779H66.1704V16.9163H65.8936V17.4974C65.8936 17.5804 65.8936 17.6081 65.9213 17.6358C65.949 17.6635 65.9766 17.6911 66.0043 17.6911C66.032 17.6911 66.0597 17.6911 66.0873 17.6911C66.115 17.6911 66.1427 17.6635 66.1704 17.6635L66.198 17.8018C66.1704 17.8295 66.115 17.8295 66.0873 17.8572C66.032 17.8572 66.0043 17.8849 65.949 17.8849C65.8659 17.8849 65.8106 17.8572 65.7829 17.8018C65.7552 17.7465 65.7276 17.6635 65.7276 17.5528V16.9439H65.5615V16.7779Z" fill="#0A4F28"/>
<path fill-rule="evenodd" clip-rule="evenodd" d="M0.0283203 11.3537L8.91186 11.9349L17.2973 0.837402L7.97092 1.47392L0.0283203 11.3537Z" fill="#8EC587"/>
<path fill-rule="evenodd" clip-rule="evenodd" d="M17.3242 0.837402L8.91113 11.9349L17.3242 22.0084L24.5749 11.2707L17.3242 0.837402Z" fill="#CDE3A8"/>
<path fill-rule="evenodd" clip-rule="evenodd" d="M0 11.354L8.93888 11.8798L17.3243 22.0087L8.08097 20.6803L0 11.354Z" fill="#699566"/>
<path fill-rule="evenodd" clip-rule="evenodd" d="M17.6847 14.3152L15.6091 11.6861L17.7677 8.72492L19.7603 11.4924L17.6847 14.3152ZM14.5021 18.6878L17.2696 15.007L15.0833 12.2396C15.0833 12.2396 12.897 15.3945 12.4265 15.8926C11.9561 16.3908 11.2089 16.3908 11.2089 16.3908L9.05024 16.1694L11.0151 18.5217C11.0151 18.5217 13.5335 18.9092 13.7826 18.9645C14.004 19.0199 14.5021 18.6878 14.5021 18.6878ZM8.08163 18.1343L6.08906 15.8373L7.94326 16.0033L9.90815 18.3557L8.08163 18.1343ZM2.68509 11.8245C2.46369 11.4924 2.71276 11.1603 2.71276 11.1603L5.31417 7.78398H7.36209C7.36209 7.78398 5.48022 10.247 4.95441 10.9112C4.40091 11.6307 4.98208 12.4333 4.98208 12.4333L7.27907 15.2838L5.3972 15.0347C5.42487 15.0347 2.90649 12.1566 2.68509 11.8245ZM7.99861 4.46303L9.99118 4.40768L7.91558 7.09212H5.89534L7.99861 4.46303ZM14.6405 11.7138C14.6405 11.7138 12.3158 15.007 11.9284 15.3391C11.541 15.6712 11.1258 15.6159 11.1258 15.6159L8.3307 15.3115C8.3307 15.3115 5.89534 12.3503 5.64627 12.0182C5.34185 11.5754 5.59092 11.271 5.59092 11.271L8.27535 7.75631C8.27535 7.75631 11.1258 7.81166 11.1812 7.81166C11.5963 7.81166 12.0114 8.25445 12.0114 8.25445L14.6405 11.7138ZM10.8768 4.43536L8.82884 7.11979C8.82884 7.11979 11.0428 7.11979 11.0982 7.11979C11.9561 7.00909 12.4819 7.64561 12.4819 7.64561L15.194 11.0773L17.2973 8.11608C17.2973 8.11608 15.0279 5.18257 14.8342 4.85048C14.5298 4.32466 13.921 4.29699 13.921 4.29699L10.8768 4.43536ZM20.6459 11.4094L22.9706 8.0884C22.9706 8.0884 23.358 7.28584 22.5831 7.03677C22.5278 7.03677 21.6698 7.11979 21.6698 7.11979L22.0296 7.64561C22.0296 7.64561 22.251 7.61793 22.251 7.64561C22.251 7.67328 22.1957 7.81166 22.168 7.83933L20.1477 10.7728L18.2382 8.0884L20.6736 4.68443C20.6736 4.68443 20.9503 4.15861 20.6736 3.88187C20.4522 3.66047 20.3138 3.66047 20.1201 3.66047C19.8987 3.66047 19.3175 3.71582 19.3175 3.71582L19.7603 4.35233C19.788 4.35233 19.9817 4.32466 19.9817 4.35233C19.9817 4.38001 19.9263 4.51838 19.8987 4.54606L17.7401 7.45189L15.3047 4.13094C15.3047 4.13094 14.8896 3.43907 14.17 3.49442C13.6165 3.54977 11.5686 3.57745 11.5686 3.57745L13.6719 0.893013C13.6719 0.893013 13.8379 0.671616 14.004 0.809989C14.2531 1.08673 14.1977 1.14208 14.1424 1.00371C14.2807 1.00371 15.0003 0.948362 15.0003 0.948362C15.0003 0.948362 14.4468 0.201149 14.3084 0.118125C14.1977 0.0627757 13.5612 -0.158621 13.2014 0.201149C12.731 0.671616 12.5372 1.05906 12.5372 1.05906L10.6 3.57745L8.57977 3.71582L10.7661 1.08673C10.7661 1.08673 10.9598 1.11441 11.0705 1.28046L11.9561 1.19743L11.541 0.643942C11.541 0.643942 11.1258 -0.020248 10.2402 0.560918L7.69419 3.74349L4.92673 3.88187C4.92673 3.88187 4.40091 3.90954 4.48394 4.38001C4.56696 4.85048 4.95441 5.23792 4.95441 5.23792L5.45255 4.60141L7.03 4.49071L5.03743 6.98142L2.32532 7.03677C2.32532 7.03677 1.68881 7.06444 2.0209 7.75631C2.15927 8.0884 2.40834 8.36515 2.40834 8.36515L2.90649 7.72863L4.45626 7.70096L2.15927 10.7728C2.15927 10.7728 1.57811 11.52 2.1316 12.2396C2.54672 12.7654 4.42859 14.9517 4.42859 14.9517L3.07253 14.7856C3.07253 14.7856 2.79579 14.758 2.79579 14.7303C2.79579 14.7026 2.82346 14.6473 2.85114 14.6196L2.46369 14.2045C2.46369 14.2045 1.99323 14.7026 2.07625 15.0347C2.1316 15.2561 2.1316 15.4498 2.49137 15.5052C2.57439 15.5329 5.12045 15.7819 5.12045 15.7819L7.08535 18.0789L5.61859 17.8575L5.56325 17.7745C5.56325 17.7745 5.31417 17.7468 5.31417 17.7192C5.31417 17.6638 5.34185 17.6638 5.3972 17.5808L4.95441 17.0826C4.95441 17.0826 4.59464 17.6361 4.62231 17.8852C4.64999 18.1066 4.67766 18.3003 4.95441 18.4664C5.12045 18.5494 7.72186 18.7985 7.72186 18.7985L10.1572 21.6213C10.1572 21.6213 10.8214 22.5069 11.2919 21.9257C11.7347 21.3999 11.7624 21.2061 11.7624 21.2061L11.1535 21.0954C11.1535 21.0954 11.0982 21.2892 10.9875 21.2892C10.8491 21.2892 10.6277 21.0124 10.6277 21.0124L8.82884 18.9645L10.6277 19.1859L13.1738 22.2301C13.1738 22.2301 13.6165 22.5899 13.9763 22.4515C14.3361 22.3131 14.6959 21.6213 14.6959 21.6213L14.0317 21.5382C14.0317 21.5382 13.921 21.7596 13.8379 21.7596C13.7272 21.7596 13.4782 21.4829 13.4782 21.4829L11.6793 19.3796L14.1424 19.6287C14.1424 19.6287 14.8066 19.5457 15.1386 19.1582C15.4984 18.7708 17.7124 15.5329 17.7124 15.5329L19.8987 18.2726L19.6773 18.4664L19.2898 19.0475C19.2898 19.0475 20.2308 19.1029 20.4245 18.9368C20.7843 18.6324 20.7289 18.1343 20.7289 18.1343L18.1828 14.8963L20.2584 12.0735L22.3064 14.7856V14.6749L21.6698 15.5882L22.5831 15.5329C22.5831 15.5329 23.1643 15.2838 23.0536 14.6473C22.9982 14.5643 20.6459 11.4094 20.6459 11.4094Z" fill="#495B68"/>
</svg>
