<svg width="60" height="67" viewBox="0 0 60 67" fill="none" xmlns="http://www.w3.org/2000/svg">
<rect width="21" height="21" fill="#6EB44A"/>
<path d="M55.1184 27.5741H52.7183V26.0307L54.2158 24.3815C54.9932 23.5254 55.4213 22.4171 55.4213 21.2606V17.3496C55.4213 14.6148 53.1963 12.3899 50.4615 12.3899H48.1802C45.4454 12.3899 43.2205 14.6149 43.2205 17.3496V21.2606C43.2205 22.4171 43.6487 23.5255 44.4258 24.3815L45.9235 26.031V27.5741H43.5235C41.1919 27.5741 39.2377 29.2177 38.7563 31.4071C38.5113 31.3728 38.2615 31.3539 38.0072 31.3539H35.1959V29.466L36.9108 27.5775C37.7682 26.6332 38.2404 25.4107 38.2404 24.1353V19.7301C38.2404 16.7095 35.7831 14.2524 32.7626 14.2524C32.2893 14.2524 31.9057 14.6359 31.9057 15.1093C31.9057 15.5827 32.2893 15.9662 32.7626 15.9662C34.8381 15.9662 36.5266 17.6546 36.5266 19.7301V24.1351C36.5266 24.9838 36.2125 25.7971 35.6421 26.4253L33.8762 28.3701C33.6393 28.5225 33.4824 28.7884 33.4824 29.0913V32.2109C33.4824 32.6843 33.8659 33.0678 34.3393 33.0678H38.0074C40.0344 33.0678 41.6836 34.7169 41.6836 36.744V42.1209H21.2723V36.744C21.2723 35.1636 22.2749 33.8131 23.6772 33.2946C23.7431 33.2808 23.8059 33.2588 23.8653 33.2308C24.2078 33.125 24.5716 33.0677 24.9484 33.0677H28.6165C29.0898 33.0677 29.4734 32.6842 29.4734 32.2108V29.0912C29.4734 28.7884 29.3165 28.5224 29.0796 28.37L27.3137 26.4252C26.7432 25.7969 26.4289 24.9836 26.4289 24.135V19.7301C26.4289 17.6547 28.1173 15.9662 30.1929 15.9662C30.6662 15.9662 31.0498 15.5827 31.0498 15.1093C31.0498 14.6359 30.6662 14.2524 30.1929 14.2524C27.1724 14.2524 24.7151 16.7097 24.7151 19.7301V24.1351C24.7151 25.4105 25.1874 26.633 26.0447 27.5774L27.7594 29.4658V31.3538H24.9482C24.7087 31.3538 24.4733 31.371 24.2421 31.4015C23.7587 29.2149 21.8061 27.5741 19.4764 27.5741H17.0764V26.0307L18.5738 24.3815C19.3512 23.5254 19.7793 22.4171 19.7793 21.2606V17.3496C19.7793 14.6148 17.5543 12.3899 14.8195 12.3899H12.5384C9.80361 12.3899 7.57871 14.6149 7.57871 17.3496V21.2606C7.57871 22.4171 8.00677 23.5255 8.78418 24.3815L10.2818 26.0308V27.5741H7.88175C5.18994 27.5741 3 29.764 3 32.4558V37.9906C3 38.464 3.38364 38.8475 3.85689 38.8475H17.1894C17.6626 38.8475 18.0462 38.464 18.0462 37.9906C18.0462 37.5173 17.6626 37.1337 17.1894 37.1337H4.71379V32.4558C4.71379 30.7091 6.13489 29.2879 7.88175 29.2879H11.1387C11.6119 29.2879 11.9956 28.9043 11.9956 28.431V25.6611C11.9956 25.3631 11.8434 25.1006 11.6125 24.9471L10.0529 23.2295C9.56247 22.6894 9.29239 21.9903 9.29239 21.2608V17.3496C9.29239 15.5597 10.7485 14.1037 12.5383 14.1037H14.8196C16.6094 14.1037 18.0656 15.5597 18.0656 17.3496V21.2606C18.0656 21.9902 17.7955 22.6894 17.3051 23.2294L15.7454 24.9471C15.5146 25.1006 15.3626 25.3631 15.3626 25.661V28.4309C15.3626 28.9042 15.7462 29.2878 16.2195 29.2878H19.4764C21.0322 29.2878 22.3287 30.4154 22.5938 31.8962C20.7984 32.7717 19.5584 34.6153 19.5584 36.7436V42.9775C19.5584 43.4508 19.9421 43.8344 20.4153 43.8344H42.5403C43.0136 43.8344 43.3972 43.4508 43.3972 42.9775V36.7436C43.3972 34.6316 42.1756 32.8005 40.4023 31.917C40.6589 30.4261 41.9604 29.2878 43.5235 29.2878H46.7804C47.2538 29.2878 47.6373 28.9042 47.6373 28.4309V25.661C47.6373 25.3629 47.4851 25.1004 47.2541 24.9468L45.6946 23.2294C45.2042 22.6894 44.9343 21.9902 44.9343 21.2606V17.3496C44.9343 15.5597 46.3903 14.1037 48.1802 14.1037H50.4615C52.2513 14.1037 53.7075 15.5597 53.7075 17.3496V21.2606C53.7075 21.9902 53.4374 22.6894 52.947 23.2294L51.3874 24.9471C51.1565 25.1006 51.0044 25.3631 51.0044 25.661V28.4309C51.0044 28.9042 51.388 29.2878 51.8613 29.2878H55.1183C56.865 29.2878 58.2862 30.7089 58.2862 32.4557V37.1336H45.958C45.4847 37.1336 45.1012 37.5171 45.1012 37.9905C45.1012 38.4639 45.4847 38.8474 45.958 38.8474H59.1431C59.6165 38.8474 60 38.4639 60 37.9905V32.4557C60.0001 29.764 57.8102 27.5741 55.1184 27.5741Z" fill="black"/>
<path d="M40.1175 54.6947C40.0187 54.3898 39.7578 54.1657 39.4414 54.1138L34.7605 53.3454L32.5833 49.1309C32.4362 48.8462 32.1425 48.6672 31.822 48.6672C31.5015 48.6672 31.2078 48.846 31.0607 49.1309L28.8835 53.3454L24.2026 54.1138C23.8863 54.1657 23.6254 54.3897 23.5264 54.6947C23.4273 54.9995 23.5067 55.334 23.732 55.562L27.0672 58.9349L26.3514 63.6241C26.3031 63.9409 26.4355 64.2583 26.6949 64.4466C26.8441 64.555 27.0208 64.6103 27.1986 64.6103C27.3298 64.6103 27.4616 64.5802 27.5832 64.5191L31.8218 62.3893L36.0604 64.5191C36.3468 64.663 36.6896 64.6352 36.9487 64.4466C37.2081 64.2583 37.3404 63.9409 37.2921 63.6241L36.5763 58.9349L39.9114 55.562C40.1373 55.334 40.2166 54.9995 40.1175 54.6947ZM35.0554 58.036C34.8649 58.2287 34.7769 58.5001 34.8176 58.7677L35.3481 62.2427L32.2069 60.6645C31.9647 60.543 31.6795 60.543 31.4375 60.6645L28.2962 62.2427L28.8266 58.7677C28.8674 58.4999 28.7793 58.2285 28.5888 58.036L26.1169 55.5362L29.5858 54.9669C29.8531 54.9229 30.084 54.7551 30.2083 54.5145L31.8219 51.3912L33.4354 54.5145C33.5597 54.7551 33.7905 54.9229 34.0578 54.9669L37.5268 55.5362L35.0554 58.036Z" fill="black"/>
<path d="M58.8748 48.3936C58.7758 48.0888 58.5151 47.8647 58.199 47.8127L53.5181 47.0443L51.3407 42.8299C51.1936 42.5452 50.9 42.3662 50.5794 42.3662C50.2588 42.3662 49.9652 42.545 49.8182 42.8299L47.6409 47.0443L42.9599 47.8127C42.6436 47.8647 42.3828 48.0887 42.2837 48.3936C42.1846 48.6985 42.2639 49.0331 42.4893 49.261L45.8246 52.6339L45.1088 57.3232C45.0605 57.64 45.1928 57.9574 45.4522 58.1457C45.7116 58.334 46.0543 58.3622 46.3405 58.2181L50.5791 56.0884L54.8177 58.2181C54.9393 58.2793 55.0711 58.3094 55.2022 58.3094C55.3801 58.3094 55.5569 58.2542 55.706 58.1457C55.9654 57.9574 56.0978 57.64 56.0494 57.3232L55.3336 52.6339L58.6689 49.261C58.8947 49.0331 58.9739 48.6985 58.8748 48.3936ZM53.8127 51.735C53.6223 51.9276 53.5342 52.1992 53.575 52.4668L54.1054 55.9419L50.9642 54.3637C50.8431 54.3029 50.7114 54.2724 50.5794 54.2724C50.4475 54.2724 50.3157 54.3029 50.1947 54.3637L47.0535 55.9419L47.5839 52.4668C47.6247 52.199 47.5366 51.9275 47.3461 51.735L44.8743 49.2354L48.3433 48.6661C48.6107 48.6221 48.8415 48.4543 48.9657 48.2137L50.5792 45.0904L52.1928 48.2137C52.3172 48.4543 52.5479 48.6221 52.8152 48.6661L56.2841 49.2354L53.8127 51.735Z" fill="black"/>
<path d="M21.3603 48.3937C21.2613 48.0888 21.0004 47.8647 20.6841 47.8127L16.0032 47.0443L13.8259 42.8299C13.6788 42.5452 13.3852 42.3662 13.0646 42.3662C12.7439 42.3662 12.4504 42.545 12.3032 42.8299L10.1262 47.0445L5.44524 47.8128C5.12896 47.8648 4.86811 48.0888 4.76903 48.3937C4.66995 48.6986 4.74933 49.0332 4.97466 49.2611L8.30994 52.634L7.59421 57.3233C7.5459 57.6401 7.67826 57.9575 7.93766 58.1458C8.19694 58.3341 8.53961 58.3623 8.82595 58.2183L13.0646 56.0885L17.303 58.2183C17.4246 58.2794 17.5564 58.3095 17.6876 58.3095C17.8654 58.3095 18.0423 58.2543 18.1913 58.1458C18.4507 57.9575 18.5831 57.6401 18.5348 57.3233L17.8191 52.634L21.1542 49.2611C21.3799 49.0331 21.4594 48.6986 21.3603 48.3937ZM16.298 51.735C16.1075 51.9276 16.0193 52.1992 16.0602 52.4668L16.5905 55.9419L13.4494 54.3637C13.3284 54.3028 13.1966 54.2724 13.0647 54.2724C12.9327 54.2724 12.8009 54.3029 12.6799 54.3637L9.53867 55.9419L10.0692 52.4668C10.11 52.199 10.0218 51.9275 9.83135 51.735L7.35987 49.2354L10.8289 48.6661C11.0962 48.6221 11.3271 48.4543 11.4514 48.2137L13.0649 45.0904L14.6784 48.2137C14.8027 48.4543 15.0336 48.6221 15.3009 48.6661L18.7699 49.2354L16.298 51.735Z" fill="black"/>
</svg>
