<svg width="75" height="73" viewBox="0 0 75 73" fill="none" xmlns="http://www.w3.org/2000/svg">
<rect x="54" y="2" width="21" height="21" fill="#6EB44A"/>
<path d="M53.5362 31.2552C53.5362 21.5802 45.6612 13.7192 36.0003 13.7192C26.3394 13.7192 18.4644 21.5802 18.4644 31.2552C18.4644 40.9161 26.3253 48.7911 36.0003 48.7911C45.6753 48.7911 53.5362 40.9161 53.5362 31.2552ZM36.0003 46.5271C27.5769 46.5271 20.7144 39.6786 20.7144 31.2411C20.7144 22.8036 27.5769 15.9692 36.0003 15.9692C44.4237 15.9692 51.2862 22.8177 51.2862 31.2552C51.2862 39.6927 44.4237 46.5271 36.0003 46.5271Z" fill="black"/>
<path d="M57.4877 49.3958C58.1205 49.0724 58.683 48.6505 59.1189 48.0599C60.258 46.499 59.9908 44.4599 59.7377 42.4771C59.5689 41.1974 59.4002 39.8615 59.6955 38.9614C59.9627 38.1177 60.8627 37.1755 61.7205 36.2755C63.0564 34.8693 64.5611 33.2802 64.5611 31.2693C64.5611 29.2583 63.0705 27.6411 61.7346 26.2349C60.8768 25.3208 59.9768 24.3927 59.7096 23.5489C59.4143 22.6489 59.583 21.313 59.7518 20.0333C60.0049 18.0505 60.258 16.0114 59.133 14.4505C57.9939 12.8755 55.9549 12.4958 53.9861 12.1161C52.7205 11.8771 51.4127 11.638 50.6674 11.0896C49.9221 10.5552 49.3033 9.40207 48.6986 8.27707C47.7846 6.58957 46.7299 4.67707 44.8596 4.05832C43.0596 3.4677 41.2174 4.33957 39.4314 5.18332C38.2361 5.74582 37.0127 6.32239 36.0283 6.32239C35.0439 6.32239 33.8205 5.74582 32.6252 5.18332C30.8393 4.33957 28.9971 3.4677 27.1971 4.05832C25.3127 4.66301 24.3283 6.5052 23.358 8.27707C22.7533 9.38801 22.1205 10.5552 21.3893 11.0896C20.6299 11.638 19.3361 11.8911 18.0705 12.1161C16.1018 12.4818 14.0627 12.8755 12.9236 14.4505C11.7846 16.0114 12.0518 18.0505 12.3049 20.0333C12.4736 21.313 12.6424 22.6489 12.3471 23.5489C12.0799 24.3927 11.1799 25.3349 10.3221 26.2349C8.98613 27.6411 7.48145 29.2302 7.48145 31.2411C7.48145 33.2521 9.0002 34.8411 10.3221 36.2474C11.1799 37.1614 12.0799 38.0896 12.3471 38.9333C12.6424 39.8333 12.4736 41.1693 12.3049 42.4489C12.0518 44.4318 11.7986 46.4708 12.9236 48.0318C13.3596 48.6224 13.9221 49.0583 14.5549 49.3677L8.42363 59.9849C8.19863 60.3786 8.22676 60.8708 8.50801 61.2365C8.78926 61.6021 9.25332 61.7568 9.68926 61.6443L18.7455 59.2115L21.1783 68.2677C21.2908 68.7036 21.6705 69.0271 22.1205 69.0974C22.1768 69.0974 22.2189 69.1115 22.2611 69.1115C22.6549 69.1115 23.0346 68.9005 23.2314 68.549L28.983 58.5786C30.2064 58.438 31.4439 57.8615 32.6393 57.299C33.8346 56.7365 35.058 56.1599 36.0424 56.1599C37.0268 56.1599 38.2502 56.7365 39.4455 57.299C40.6408 57.8615 41.8783 58.4521 43.1018 58.5786L48.8533 68.549C49.0502 68.9005 49.4299 69.1115 49.8236 69.1115C49.8658 69.1115 49.9221 69.1115 49.9643 69.0974C50.4143 69.0411 50.7799 68.7177 50.9064 68.2677L53.3393 59.2115L62.3955 61.6443C62.8314 61.7568 63.2955 61.6021 63.5768 61.2365C63.858 60.8708 63.8861 60.3786 63.6611 59.9849L57.4877 49.3958ZM22.5986 65.0896L20.5877 57.5661C20.433 56.9615 19.8143 56.6099 19.2096 56.7646L11.6861 58.7755L16.6924 50.099C17.1283 50.1974 17.5783 50.2818 18.0283 50.3661C19.2939 50.6052 20.6018 50.8443 21.3471 51.3927C22.0924 51.9271 22.7111 53.0802 23.3158 54.2052C24.1314 55.7099 25.0455 57.3833 26.5643 58.1708L22.5986 65.0896ZM36.0002 53.924C34.5096 53.924 33.0471 54.613 31.6408 55.274C30.2486 55.9349 28.8143 56.6099 27.8721 56.3005C26.8455 55.963 26.0721 54.5286 25.3127 53.1505C24.5814 51.8146 23.8361 50.4365 22.683 49.5927C21.5158 48.749 19.9549 48.4536 18.4502 48.1724C16.9174 47.8771 15.3283 47.5818 14.6955 46.738C14.0908 45.9083 14.2877 44.3052 14.4846 42.7724C14.6814 41.2396 14.8783 39.6646 14.4283 38.2724C13.9924 36.9505 12.9236 35.8114 11.8971 34.7286C10.8002 33.5755 9.66113 32.3802 9.66113 31.2693C9.66113 30.1583 10.8002 28.963 11.8971 27.8099C12.9377 26.713 14.0064 25.588 14.4283 24.2661C14.8783 22.8739 14.6814 21.2989 14.4846 19.7661C14.2877 18.2193 14.0908 16.6302 14.6955 15.8005C15.3143 14.9427 16.9033 14.6474 18.4502 14.3661C19.9549 14.0849 21.5158 13.7896 22.683 12.9458C23.8361 12.1161 24.5814 10.7239 25.3127 9.38801C26.0721 7.99582 26.8455 6.57551 27.8721 6.23801C28.8283 5.92863 30.2627 6.60363 31.6408 7.26457C33.0471 7.92551 34.5096 8.61457 36.0002 8.61457C37.4908 8.61457 38.9533 7.92551 40.3596 7.26457C41.7518 6.60363 43.1861 5.92863 44.1283 6.23801C45.1549 6.57551 45.9283 8.00989 46.6877 9.38801C47.4189 10.7239 48.1643 12.1021 49.3174 12.9458C50.4846 13.7896 52.0455 14.0849 53.5502 14.3661C55.083 14.6614 56.6721 14.9568 57.3049 15.8005C57.9096 16.6302 57.7127 18.2333 57.5158 19.7661C57.3189 21.2989 57.1221 22.8739 57.5721 24.2661C58.008 25.588 59.0768 26.7271 60.1033 27.8099C61.2002 28.963 62.3393 30.1583 62.3393 31.2693C62.3393 32.3802 61.2002 33.5755 60.1033 34.7286C59.0627 35.8255 57.9939 36.9505 57.5721 38.2724C57.1221 39.6646 57.3189 41.2396 57.5158 42.7724C57.7127 44.3193 57.9096 45.9083 57.3049 46.738C56.6861 47.5958 55.0971 47.8911 53.5502 48.1724C52.0455 48.4536 50.4846 48.749 49.3174 49.5927C48.1643 50.4224 47.4189 51.8146 46.6877 53.1505C45.9283 54.5427 45.1549 55.963 44.1283 56.3005C43.1721 56.6099 41.7377 55.9349 40.3596 55.274C38.9533 54.613 37.4908 53.924 36.0002 53.924ZM52.7908 56.7646C52.1861 56.6099 51.5674 56.9615 51.4127 57.5661L49.4018 65.0896L45.4221 58.199C46.9268 57.4255 47.8127 55.8083 48.6705 54.2333C49.2752 53.1224 49.908 51.9552 50.6393 51.4208C51.3986 50.8724 52.6924 50.6193 53.958 50.3943C54.408 50.3099 54.858 50.2255 55.2939 50.1271L60.3002 58.8036L52.7908 56.7646Z" fill="black"/>
<path d="M46.5473 24.3646C46.1113 23.9286 45.3941 23.9286 44.9582 24.3646L33.5676 35.7552L27.0566 29.2442C26.6207 28.8083 25.9035 28.8083 25.4676 29.2442C25.0316 29.6802 25.0316 30.3974 25.4676 30.8333L32.7801 38.1458C32.991 38.3567 33.2723 38.4692 33.5816 38.4692C33.891 38.4692 34.1723 38.3567 34.3832 38.1458L46.5473 25.9536C46.9832 25.5177 46.9832 24.8005 46.5473 24.3646Z" fill="black"/>
</svg>
