<svg width="23" height="16" viewBox="0 0 23 16" fill="none" xmlns="http://www.w3.org/2000/svg">
<path d="M22.8596 7.43471L15.6721 0.403453C15.4849 0.220333 15.1817 0.220333 14.9946 0.403453C14.8074 0.586574 14.8074 0.883205 14.9946 1.06628L21.3641 7.29738H0.479181C0.214322 7.29738 0 7.50704 0 7.76614C0 8.02524 0.214322 8.23491 0.479181 8.23491H21.3641L14.9946 14.466C14.8074 14.6491 14.8074 14.9457 14.9946 15.1288C15.0881 15.2203 15.2108 15.2661 15.3334 15.2661C15.4559 15.2661 15.5785 15.2203 15.6722 15.1288L22.8596 8.09753C23.0468 7.91446 23.0468 7.61783 22.8596 7.43471Z" fill="#6EB44A"/>
</svg>
