<svg width="69" height="50" viewBox="0 0 69 50" fill="none" xmlns="http://www.w3.org/2000/svg">
<path d="M67.85 47.5562H63.2501V32.4092C64.5901 31.9356 65.5501 30.6587 65.5501 29.1562C65.5501 27.6537 64.5902 26.3767 63.2501 25.9032V5.00621C63.2501 4.37106 62.7353 3.85625 62.1001 3.85625C61.465 3.85625 60.9502 4.37106 60.9502 5.00621V13.0562H54.0502V1.55621C54.0502 0.921055 53.5352 0.40625 52.9002 0.40625C52.2651 0.40625 51.7503 0.921055 51.7503 1.55621V13.0562H44.8503V5.00621C44.8503 4.37106 44.3355 3.85625 43.7003 3.85625C43.0652 3.85625 42.5504 4.37106 42.5504 5.00621V13.0562H35.6504V1.55621C35.6504 0.921055 35.1356 0.40625 34.5004 0.40625C33.8653 0.40625 33.3504 0.921055 33.3504 1.55621V13.0562H26.4504V5.00621C26.4504 4.37106 25.9356 3.85625 25.3005 3.85625C24.6653 3.85625 24.1505 4.37106 24.1505 5.00621V13.0562H17.25V1.55621C17.25 0.921055 16.7352 0.40625 16.1 0.40625C15.4649 0.40625 14.9501 0.921055 14.9501 1.55621V13.0562H8.05009V5.00621C8.05009 4.37106 7.53528 3.85625 6.90013 3.85625C6.26498 3.85625 5.75018 4.37106 5.75018 5.00621V25.9032C4.4102 26.3768 3.45013 27.6538 3.45013 29.1562C3.45013 30.6586 4.41007 31.9358 5.75018 32.4092V47.5562H1.14996C0.514805 47.5562 0 48.0711 0 48.7061C0 49.3411 0.514805 49.8561 1.14996 49.8561H67.8499C68.4851 49.8561 68.9999 49.3413 68.9999 48.7061C68.9999 48.071 68.4852 47.5562 67.85 47.5562ZM10.153 30.3062H12.8469C13.1933 31.2864 13.9697 32.0628 14.95 32.4092V39.5062H8.04996V32.4092C9.03024 32.0628 9.80662 31.2864 10.153 30.3062ZM16.1 28.0061C16.7356 28.0061 17.25 28.5205 17.25 29.1561C17.25 29.7916 16.7356 30.306 16.1 30.306C15.4645 30.306 14.9501 29.7916 14.9501 29.1561C14.9501 28.5205 15.4644 28.0061 16.1 28.0061ZM17.25 32.4092C18.2303 32.0628 19.0067 31.2864 19.353 30.3062H22.047C22.3933 31.2864 23.1697 32.0628 24.15 32.4092V39.5062H17.25V32.4092ZM31.247 30.3062C31.5934 31.2864 32.3698 32.0628 33.35 32.4092V39.5062H26.45V32.4092C27.4303 32.0628 28.2067 31.2864 28.5531 30.3062H31.247ZM40.4469 30.3062C40.7933 31.2864 41.5697 32.0628 42.55 32.4092V39.5062H35.65V32.4092C36.6302 32.0628 37.4066 31.2864 37.753 30.3062H40.4469ZM49.647 30.3062C49.9933 31.2864 50.7697 32.0628 51.75 32.4092V39.5062H44.85V32.4092C45.8303 32.0628 46.6067 31.2864 46.953 30.3062H49.647ZM58.847 30.3062C59.1934 31.2864 59.9698 32.0628 60.95 32.4092V39.5062H54.05V32.4092C55.0303 32.0628 55.8067 31.2864 56.1531 30.3062H58.847ZM52.9 28.0061C53.5356 28.0061 54.0499 28.5205 54.0499 29.1561C54.0499 29.7916 53.5355 30.306 52.9 30.306C52.2644 30.306 51.75 29.7916 51.75 29.1561C51.75 28.5205 52.2644 28.0061 52.9 28.0061ZM43.7 28.0061C44.3357 28.0061 44.85 28.5205 44.85 29.1561C44.85 29.7916 44.3356 30.306 43.7 30.306C43.0645 30.306 42.5501 29.7916 42.5501 29.1561C42.5501 28.5205 43.0644 28.0061 43.7 28.0061ZM34.5 28.0061C35.1356 28.0061 35.65 28.5205 35.65 29.1561C35.65 29.7916 35.1356 30.3062 34.5 30.3062C33.8644 30.3062 33.35 29.7918 33.35 29.1562C33.35 28.5207 33.8644 28.0061 34.5 28.0061ZM25.3 28.0061C25.9355 28.0061 26.4499 28.5205 26.4499 29.1561C26.4499 29.7916 25.9355 30.306 25.3 30.306C24.6644 30.306 24.15 29.7916 24.15 29.1561C24.15 28.5205 24.6644 28.0061 25.3 28.0061ZM24.15 41.8061V47.5562H17.25V41.8061H24.15ZM26.45 41.8061H33.35V47.5562H26.45V41.8061ZM35.65 41.8061H42.55V47.5562H35.65V41.8061ZM44.85 41.8061H51.75V47.5562H44.85V41.8061ZM54.05 41.8061H60.95V47.5562H54.05V41.8061ZM62.1 30.3062C61.4643 30.3062 60.95 29.7918 60.95 29.1562C60.95 28.5207 61.4644 28.0063 62.1 28.0063C62.7356 28.0063 63.25 28.5207 63.25 29.1562C63.25 29.7918 62.7357 30.3062 62.1 30.3062ZM60.95 15.3562V25.9032C59.9698 26.2496 59.1934 27.026 58.847 28.0063H56.1531C55.8067 27.026 55.0303 26.2496 54.05 25.9032V15.3562H60.95ZM51.75 15.3562V25.9032C50.7697 26.2496 49.9933 27.026 49.647 28.0063H46.953C46.6067 27.026 45.8303 26.2496 44.85 25.9032V15.3562H51.75ZM42.55 15.3562V25.9032C41.5697 26.2496 40.7933 27.026 40.4469 28.0063H37.753C37.4066 27.026 36.6302 26.2496 35.65 25.9032V15.3562H42.55ZM33.35 15.3562V25.9032C32.3698 26.2496 31.5934 27.026 31.247 28.0063H28.5531C28.2067 27.026 27.4303 26.2496 26.45 25.9032V15.3562H33.35ZM24.15 15.3562V25.9032C23.1697 26.2496 22.3933 27.026 22.047 28.0063H19.353C19.0067 27.026 18.2303 26.2496 17.25 25.9032V15.3562H24.15ZM14.95 15.3562V25.9032C13.9697 26.2496 13.1933 27.026 12.8469 28.0063H10.153C9.80662 27.026 9.03024 26.2496 8.04996 25.9032V15.3562H14.95ZM6.9 28.0061C7.53555 28.0061 8.04996 28.5205 8.04996 29.1561C8.04996 29.7916 7.53569 30.3062 6.9 30.3062C6.26431 30.3062 5.75004 29.7918 5.75004 29.1562C5.75004 28.5207 6.26445 28.0061 6.9 28.0061ZM8.04996 41.8061H14.95V47.5562H8.04996V41.8061Z" fill="white"/>
</svg>
