<svg width="20" height="14" viewBox="0 0 20 14" fill="none" xmlns="http://www.w3.org/2000/svg">
<path d="M0.122086 6.37208L6.37209 0.12208C6.53486 -0.0406934 6.79853 -0.0406934 6.96127 0.12208C7.12404 0.284853 7.12404 0.548525 6.96127 0.71126L1.42251 6.25001H19.5833C19.8136 6.25001 20 6.43638 20 6.66669C20 6.897 19.8136 7.08337 19.5833 7.08337H1.42251L6.96127 12.6221C7.12404 12.7849 7.12404 13.0485 6.96127 13.2113C6.8799 13.2926 6.77326 13.3333 6.66666 13.3333C6.56005 13.3333 6.45345 13.2926 6.37205 13.2113L0.122046 6.96126C-0.0406876 6.79852 -0.0406876 6.53485 0.122086 6.37208Z" fill="white"/>
</svg>
