<svg width="22" height="21" viewBox="0 0 22 21" fill="none" xmlns="http://www.w3.org/2000/svg">
<g clip-path="url(#clip0_53_9819)">
<path d="M11.5592 9.77501V9.62501V0.874986C11.5592 0.474733 11.2351 0.15 10.8342 0.15C10.4333 0.15 10.1092 0.474733 10.1092 0.874986V9.62497V9.77497H9.9592H8.20919C7.93457 9.77497 7.68371 9.92994 7.56031 10.1758C7.43848 10.4219 7.46484 10.7156 7.62926 10.935L10.2448 14.4223C10.248 14.4246 10.2521 14.4275 10.2561 14.4305C10.2649 14.4371 10.2765 14.4469 10.2881 14.4602L10.2899 14.4622L10.2899 14.4622C10.334 14.5144 10.3883 14.5573 10.4568 14.6006C10.4764 14.6127 10.4951 14.6269 10.5061 14.6353C10.5082 14.6369 10.51 14.6382 10.5114 14.6393C10.524 14.6488 10.5283 14.6511 10.5304 14.6521L10.5312 14.6525C10.6278 14.6977 10.7285 14.7249 10.8342 14.7249C10.9399 14.7249 11.0407 14.6978 11.1385 14.6523L11.2017 14.7883L11.1375 14.6527C11.14 14.6516 11.1448 14.6488 11.1575 14.6393C11.159 14.6381 11.161 14.6367 11.1632 14.635C11.1743 14.6265 11.1926 14.6126 11.211 14.601M11.5592 9.77501L11.291 14.7279M11.5592 9.77501H11.7092H13.4592C13.7338 9.77501 13.9847 9.93003 14.1081 10.176M11.5592 9.77501L11.4241 14.4218M11.211 14.601C11.2111 14.601 11.2112 14.6009 11.2112 14.6009L11.291 14.7279M11.211 14.601C11.211 14.6011 11.2109 14.6011 11.2108 14.6011L11.291 14.7279M11.211 14.601C11.2795 14.5577 11.3338 14.5149 11.378 14.4629M11.291 14.7279C11.3671 14.6798 11.4354 14.6273 11.4931 14.5591M11.378 14.4629C11.3776 14.4634 11.3771 14.4639 11.3767 14.4645L11.4931 14.5591M11.378 14.4629C11.39 14.4484 11.4022 14.438 11.4113 14.431C11.4159 14.4275 11.4205 14.4243 11.4241 14.4218M11.378 14.4629C11.3782 14.4626 11.3784 14.4624 11.3786 14.4622L11.4931 14.5591M11.4931 14.5591L11.4241 14.4218M11.4241 14.4218L11.4152 14.4337M11.4241 14.4218C11.4273 14.4196 11.4298 14.418 11.4309 14.4172C11.4327 14.4161 11.4333 14.4156 11.4333 14.4156C11.4334 14.4156 11.4322 14.4164 11.4309 14.4175C11.4278 14.42 11.4216 14.4253 11.4152 14.4337M11.4241 14.4218L14.0392 10.935L14.0394 10.9348C14.2044 10.7154 14.2307 10.422 14.1081 10.176M11.4152 14.4337L11.4142 14.4349L11.5342 14.5249L11.4152 14.4337ZM14.1081 10.176C14.1082 10.176 14.1082 10.1761 14.1082 10.1761L14.2423 10.1089L14.1081 10.1758C14.1081 10.1759 14.1081 10.1759 14.1081 10.176Z" fill="#6EB44A" stroke="#F9F9F9" stroke-width="0.3"/>
<path d="M19.734 14C19.734 13.5997 20.0581 13.275 20.459 13.275C20.8599 13.275 21.184 13.5997 21.184 14V16.625C21.184 18.9545 19.2885 20.85 16.959 20.85H4.709C2.37947 20.85 0.483984 18.9545 0.483984 16.625V14C0.483984 13.5997 0.808044 13.275 1.20901 13.275C1.60993 13.275 1.934 13.5997 1.934 14V16.625C1.934 18.1551 3.17892 19.4 4.709 19.4H16.959C18.4891 19.4 19.734 18.1551 19.734 16.625V14Z" fill="#6EB44A" stroke="#F9F9F9" stroke-width="0.3"/>
</g>
<defs>
<clipPath id="clip0_53_9819">
<rect width="21" height="21" fill="white" transform="translate(0.333984)"/>
</clipPath>
</defs>
</svg>
