<svg width="61" height="61" viewBox="0 0 61 61" fill="none" xmlns="http://www.w3.org/2000/svg">
<path fill-rule="evenodd" clip-rule="evenodd" d="M0.0605469 24.7418L19.4187 26.0083L37.6913 1.82568L17.3683 3.21271L0.0605469 24.7418Z" fill="#8EC587"/>
<path fill-rule="evenodd" clip-rule="evenodd" d="M37.7509 1.82568L19.418 26.0083L37.7509 47.9595L53.551 24.5609L37.7509 1.82568Z" fill="#CDE3A8"/>
<path fill-rule="evenodd" clip-rule="evenodd" d="M0 24.7415L19.4787 25.8873L37.7513 47.9591L17.6093 45.0645L0 24.7415Z" fill="#699566"/>
<path fill-rule="evenodd" clip-rule="evenodd" d="M38.5357 31.1942L34.0128 25.4652L38.7166 19.0125L43.0586 25.043L38.5357 31.1942ZM31.6005 40.7225L37.6311 32.7019L32.8669 26.6713C32.8669 26.6713 28.1028 33.5461 27.0776 34.6316C26.0524 35.7171 24.4242 35.7171 24.4242 35.7171L19.7203 35.2347L24.002 40.3607C24.002 40.3607 29.4898 41.205 30.0326 41.3256C30.515 41.4462 31.6005 40.7225 31.6005 40.7225ZM17.6096 39.5164L13.2676 34.511L17.3081 34.8729L21.5898 39.9988L17.6096 39.5164ZM5.85001 25.7667C5.36756 25.043 5.91032 24.3194 5.91032 24.3194L11.579 16.9621H16.0417C16.0417 16.9621 11.9409 22.3293 10.7951 23.7766C9.58896 25.3446 10.8554 27.0934 10.8554 27.0934L15.8607 33.3049L11.76 32.7622C11.8203 32.7622 6.33246 26.4904 5.85001 25.7667ZM17.4287 9.72539L21.7707 9.60478L17.2478 15.4544H12.8455L17.4287 9.72539ZM31.9021 25.5255C31.9021 25.5255 26.8364 32.7019 25.9921 33.4255C25.1478 34.1492 24.2432 34.0286 24.2432 34.0286L18.1524 33.3652C18.1524 33.3652 12.8455 26.9125 12.3027 26.1888C11.6394 25.224 12.1821 24.5606 12.1821 24.5606L18.0318 16.9018C18.0318 16.9018 24.2432 17.0224 24.3638 17.0224C25.2684 17.0224 26.173 17.9873 26.173 17.9873L31.9021 25.5255ZM23.7005 9.66509L19.2379 15.5147C19.2379 15.5147 24.0623 15.5147 24.1829 15.5147C26.0524 15.2735 27.1982 16.6605 27.1982 16.6605L33.1082 24.1384L37.6914 17.6857C37.6914 17.6857 32.7463 11.2933 32.3242 10.5697C31.6608 9.42387 30.3341 9.36356 30.3341 9.36356L23.7005 9.66509ZM44.9884 24.8621L50.0541 17.6254C50.0541 17.6254 50.8983 15.8766 49.2098 15.3338C49.0892 15.3338 47.2197 15.5147 47.2197 15.5147L48.0037 16.6605C48.0037 16.6605 48.4861 16.6002 48.4861 16.6605C48.4861 16.7209 48.3655 17.0224 48.3052 17.0827L43.9029 23.4751L39.7418 17.6254L45.0487 10.2078C45.0487 10.2078 45.6517 9.06203 45.0487 8.45898C44.5662 7.97653 44.2647 7.97653 43.8426 7.97653C43.3601 7.97653 42.0937 8.09714 42.0937 8.09714L43.0586 9.48417C43.1189 9.48417 43.541 9.42387 43.541 9.48417C43.541 9.54448 43.4204 9.84601 43.3601 9.90631L38.6563 16.2384L33.3494 9.00173C33.3494 9.00173 32.4448 7.49408 30.8769 7.6147C29.6707 7.73531 25.2081 7.79561 25.2081 7.79561L29.7914 1.94596C29.7914 1.94596 30.1532 1.46352 30.515 1.76505C31.0578 2.3681 30.9372 2.48872 30.8166 2.18719C31.1181 2.18719 32.686 2.06658 32.686 2.06658C32.686 2.06658 31.4799 0.438323 31.1784 0.257406C30.9372 0.136795 29.5501 -0.345651 28.7662 0.438323C27.741 1.46352 27.3188 2.3078 27.3188 2.3078L23.0974 7.79561L18.6951 8.09714L23.4593 2.3681C23.4593 2.3681 23.8814 2.42841 24.1226 2.79024L26.0524 2.60933L25.1478 1.40321C25.1478 1.40321 24.2432 -0.0441225 22.3135 1.2223L16.7653 8.15745L10.7348 8.45898C10.7348 8.45898 9.58896 8.51928 9.76988 9.54448C9.9508 10.5697 10.7951 11.414 10.7951 11.414L11.8806 10.0269L15.318 9.7857L10.976 15.2132L5.06604 15.3338C5.06604 15.3338 3.67901 15.3941 4.40267 16.9018C4.7042 17.6254 5.24695 18.2285 5.24695 18.2285L6.33246 16.8415L9.70957 16.7812L4.7042 23.4751C4.7042 23.4751 3.43778 25.1033 4.6439 26.6713C5.54848 27.8171 9.64927 32.5812 9.64927 32.5812L6.69429 32.2194C6.69429 32.2194 6.09123 32.1591 6.09123 32.0988C6.09123 32.0385 6.15154 31.9179 6.21184 31.8576L5.36756 30.953C5.36756 30.953 4.34237 32.0385 4.52329 32.7622C4.6439 33.2446 4.6439 33.6667 5.42787 33.7874C5.60879 33.8477 11.1569 34.3904 11.1569 34.3904L15.4386 39.3958L12.2424 38.9133L12.1218 38.7324C12.1218 38.7324 11.579 38.6721 11.579 38.6118C11.579 38.4912 11.6394 38.4912 11.76 38.3103L10.7951 37.2248C10.7951 37.2248 10.0111 38.4309 10.0714 38.9736C10.1317 39.4561 10.192 39.8782 10.7951 40.2401C11.1569 40.421 16.8256 40.9637 16.8256 40.9637L22.1325 47.1149C22.1325 47.1149 23.5799 49.0447 24.6051 47.7783C25.57 46.6325 25.6303 46.2103 25.6303 46.2103L24.3035 45.9691C24.3035 45.9691 24.1829 46.3912 23.9417 46.3912C23.6402 46.3912 23.1577 45.7882 23.1577 45.7882L19.2379 41.3256L23.1577 41.808L28.7059 48.4416C28.7059 48.4416 29.6707 49.2256 30.4547 48.9241C31.2387 48.6225 32.0227 47.1149 32.0227 47.1149L30.5753 46.934C30.5753 46.934 30.3341 47.4164 30.1532 47.4164C29.912 47.4164 29.3692 46.8134 29.3692 46.8134L25.4494 42.2301L30.8166 42.7729C30.8166 42.7729 32.2639 42.592 32.9876 41.7477C33.7715 40.9034 38.596 33.8477 38.596 33.8477L43.3601 39.8179L42.8777 40.2401L42.0334 41.5065C42.0334 41.5065 44.0838 41.6271 44.5059 41.2653C45.2899 40.6019 45.1693 39.5164 45.1693 39.5164L39.6212 32.4606L44.1441 26.3095L48.6067 32.2194V31.9782L47.2197 33.9683L49.2098 33.8477C49.2098 33.8477 50.4762 33.3049 50.235 31.9179C50.1144 31.737 44.9884 24.8621 44.9884 24.8621Z" fill="#495B68"/>
</svg>
