<svg width="119" height="119" viewBox="0 0 119 119" fill="none" xmlns="http://www.w3.org/2000/svg">
<path d="M59.5 119C26.6923 119 0 92.3077 0 59.5C0 26.6923 26.6923 0 59.5 0C92.3077 0 119 26.6923 119 59.5C119 92.3077 92.3077 119 59.5 119ZM59.5 7.4375C30.7922 7.4375 7.4375 30.7922 7.4375 59.5C7.4375 88.2078 30.7922 111.562 59.5 111.562C88.2078 111.562 111.562 88.2078 111.562 59.5C111.562 30.7922 88.2078 7.4375 59.5 7.4375ZM50.9729 80.7229L88.1604 43.5354C89.6135 42.0823 89.6135 39.7293 88.1604 38.2771C86.7073 36.8249 84.3543 36.824 82.9021 38.2771L48.3438 72.8354L36.0979 60.5896C34.6448 59.1365 32.2918 59.1365 30.8396 60.5896C29.3874 62.0427 29.3865 64.3957 30.8396 65.8479L45.7146 80.7229C46.4407 81.449 47.3927 81.8125 48.3438 81.8125C49.2948 81.8125 50.2468 81.449 50.9729 80.7229Z" fill="#6EB44A"/>
</svg>
