<svg width="14" height="13" viewBox="0 0 14 13" fill="none" xmlns="http://www.w3.org/2000/svg">
<g clip-path="url(#clip0_201_481)">
<path d="M11.0696 2.40543C10.8822 2.40543 10.7297 2.54703 10.7297 2.72103C10.7297 2.89503 10.8822 3.03664 11.0696 3.03664C11.257 3.03664 11.4095 2.89506 11.4095 2.72103C11.4095 2.547 11.257 2.40543 11.0696 2.40543Z" fill="#6EB44A"/>
<path d="M6.99999 3.702C5.33853 3.702 3.98682 4.95716 3.98682 6.49994C3.98682 8.04273 5.33853 9.29791 6.99999 9.29791C8.66147 9.29791 10.0132 8.04275 10.0132 6.49997C10.0132 4.95718 8.66147 3.702 6.99999 3.702Z" fill="#6EB44A"/>
<path d="M10.1621 -6.10352e-05H3.83789C1.72167 -6.10352e-05 0 1.59863 0 3.56372V9.43619C0 11.4013 1.72167 12.9999 3.83789 12.9999H10.1621C12.2784 12.9999 14 11.4012 14 9.43619V3.56372C14 1.59863 12.2784 -6.10352e-05 10.1621 -6.10352e-05ZM7 10.0656C4.88264 10.0656 3.16009 8.46606 3.16009 6.49994C3.16009 4.53382 4.88266 2.93433 7 2.93433C9.11734 2.93433 10.8399 4.53384 10.8399 6.49994C10.8399 8.46604 9.11734 10.0656 7 10.0656ZM11.0696 3.80437C10.4263 3.80437 9.90295 3.31839 9.90295 2.72105C9.90295 2.12371 10.4263 1.63771 11.0696 1.63771C11.7129 1.63771 12.2362 2.12369 12.2362 2.72103C12.2362 3.31837 11.7129 3.80437 11.0696 3.80437Z" fill="#6EB44A"/>
</g>
<defs>
<clipPath id="clip0_201_481">
<rect width="14" height="13" fill="white"/>
</clipPath>
</defs>
</svg>
