<svg width="55" height="55" viewBox="0 0 55 55" fill="none" xmlns="http://www.w3.org/2000/svg">
<rect width="55" height="55" transform="matrix(-1 0 0 1 55 0)" fill="white"/>
<path d="M37.8779 27.3721L31.6279 21.1221C31.4652 20.9593 31.2015 20.9593 31.0387 21.1221C30.876 21.2849 30.876 21.5485 31.0387 21.7113L36.5775 27.25H18.4167C18.1864 27.25 18 27.4364 18 27.6667C18 27.897 18.1864 28.0834 18.4167 28.0834H36.5775L31.0387 33.6221C30.876 33.7849 30.876 34.0485 31.0387 34.2113C31.1201 34.2926 31.2268 34.3333 31.3334 34.3333C31.44 34.3333 31.5466 34.2926 31.628 34.2113L37.878 27.9613C38.0407 27.7985 38.0407 27.5349 37.8779 27.3721Z" fill="#6EB44A"/>
</svg>
