<svg width="15" height="15" viewBox="0 0 15 15" fill="none" xmlns="http://www.w3.org/2000/svg">
<g clip-path="url(#clip0_201_477)">
<path d="M14.9963 14.9999V14.9993H15V9.49805C15 6.8068 14.4207 4.73367 11.2744 4.73367C9.76191 4.73367 8.74691 5.56367 8.33254 6.35055H8.28879V4.98492H5.30566V14.9993H8.41191V10.0406C8.41191 8.73493 8.65941 7.47243 10.2763 7.47243C11.8694 7.47243 11.8932 8.96243 11.8932 10.1243V14.9999H14.9963Z" fill="#6BAC49"/>
<path d="M0.247559 4.98557H3.35756V14.9999H0.247559V4.98557Z" fill="#6BAC49"/>
<path d="M1.80125 -6.10352e-05C0.806875 -6.10352e-05 0 0.806814 0 1.80119C0 2.79556 0.806875 3.61931 1.80125 3.61931C2.79562 3.61931 3.6025 2.79556 3.6025 1.80119C3.60188 0.806814 2.795 -6.10352e-05 1.80125 -6.10352e-05V-6.10352e-05Z" fill="#6BAC49"/>
</g>
<defs>
<clipPath id="clip0_201_477">
<rect width="15" height="15" fill="white"/>
</clipPath>
</defs>
</svg>
