<svg width="421" height="123" viewBox="0 0 421 123" fill="none" xmlns="http://www.w3.org/2000/svg">
<path fill-rule="evenodd" clip-rule="evenodd" d="M0.699219 50.0973L39.8955 52.6616L76.8938 3.69678L35.7438 6.50523L0.699219 50.0973Z" fill="#8EC587"/>
<path fill-rule="evenodd" clip-rule="evenodd" d="M77.0189 3.69678L39.8984 52.6616L77.0189 97.1084L109.011 49.731L77.0189 3.69678Z" fill="#CDE3A8"/>
<path fill-rule="evenodd" clip-rule="evenodd" d="M0.578125 50.0972L40.0186 52.4172L77.0169 97.1082L36.2333 91.2471L0.578125 50.0972Z" fill="#699566"/>
<path fill-rule="evenodd" clip-rule="evenodd" d="M78.6043 63.1619L69.4464 51.5618L78.9707 38.4964L87.7623 50.707L78.6043 63.1619ZM64.5621 82.4548L76.7728 66.2146L67.1263 54.0039C67.1263 54.0039 57.4799 67.9241 55.4041 70.122C53.3283 72.3199 50.0314 72.3199 50.0314 72.3199L40.5071 71.3431L49.1766 81.7221C49.1766 81.7221 60.2883 83.4316 61.3873 83.6758C62.3642 83.9201 64.5621 82.4548 64.5621 82.4548ZM36.2333 80.0126L27.4417 69.8778L35.6228 70.6104L44.2924 80.9895L36.2333 80.0126ZM12.4225 52.1723C11.4457 50.707 12.5446 49.2418 12.5446 49.2418L24.0227 34.3447H33.0586C33.0586 34.3447 24.7553 45.2122 22.4353 48.1428C19.9931 51.3176 22.5574 54.8587 22.5574 54.8587L32.6922 67.4357L24.389 66.3367C24.5111 66.3367 13.3994 53.6376 12.4225 52.1723ZM35.867 19.6919L44.6587 19.4477L35.5007 31.2921H26.5869L35.867 19.6919ZM65.1726 51.6839C65.1726 51.6839 54.9156 66.2146 53.2062 67.6799C51.4967 69.1451 49.6651 68.9009 49.6651 68.9009L37.3323 67.5578C37.3323 67.5578 26.5869 54.4923 25.4879 53.0271C24.1448 51.0734 25.2437 49.7302 25.2437 49.7302L37.0881 34.2226C37.0881 34.2226 49.6651 34.4669 49.9093 34.4669C51.7409 34.4669 53.5725 36.4206 53.5725 36.4206L65.1726 51.6839ZM48.5661 19.5698L39.5302 31.4142C39.5302 31.4142 49.2987 31.4142 49.543 31.4142C53.3283 30.9258 55.6483 33.7342 55.6483 33.7342L67.6147 48.8754L76.8949 35.81C76.8949 35.81 66.8821 22.8667 66.0274 21.4014C64.6842 19.0814 61.9978 18.9593 61.9978 18.9593L48.5661 19.5698ZM91.6698 50.3407L101.927 35.6879C101.927 35.6879 103.636 32.1468 100.217 31.0479C99.973 31.0479 96.1877 31.4142 96.1877 31.4142L97.7751 33.7342C97.7751 33.7342 98.7519 33.6121 98.7519 33.7342C98.7519 33.8563 98.5077 34.4669 98.3856 34.589L89.4718 47.5323L81.0465 35.6879L91.7919 20.6688C91.7919 20.6688 93.0129 18.3488 91.7919 17.1277C90.815 16.1508 90.2045 16.1508 89.3497 16.1508C88.3729 16.1508 85.8086 16.3951 85.8086 16.3951L87.7623 19.2035C87.8845 19.2035 88.7392 19.0814 88.7392 19.2035C88.7392 19.3256 88.495 19.9362 88.3729 20.0583L78.8486 32.8795L68.1032 18.2267C68.1032 18.2267 66.2716 15.174 63.0968 15.4182C60.6547 15.6624 51.6188 15.7845 51.6188 15.7845L60.8989 3.94018C60.8989 3.94018 61.6315 2.96333 62.3642 3.57386C63.4631 4.79493 63.2189 5.03914 62.9747 4.42861C63.5852 4.42861 66.76 4.18439 66.76 4.18439C66.76 4.18439 64.3179 0.887514 63.7073 0.521194C63.2189 0.276981 60.4105 -0.699872 58.8231 0.887514C56.7473 2.96333 55.8925 4.67282 55.8925 4.67282L47.345 15.7845L38.4312 16.3951L48.0777 4.79493C48.0777 4.79493 48.9324 4.91703 49.4209 5.64967L53.3283 5.28335L51.4967 2.84122C51.4967 2.84122 49.6651 -0.089339 45.7577 2.4749L34.5238 16.5172L22.3132 17.1277C22.3132 17.1277 19.9931 17.2498 20.3595 19.3256C20.7258 21.4014 22.4353 23.1109 22.4353 23.1109L24.6332 20.3025L31.5933 19.814L22.8016 30.8036L10.8351 31.0479C10.8351 31.0479 8.02669 31.17 9.49197 34.2226C10.1025 35.6879 11.2015 36.909 11.2015 36.909L13.3994 34.1005L20.2374 33.9784L10.1025 47.5323C10.1025 47.5323 7.53826 50.8291 9.9804 54.0039C11.812 56.3239 20.1153 65.9704 20.1153 65.9704L14.132 65.2377C14.132 65.2377 12.911 65.1156 12.911 64.9935C12.911 64.8714 13.0331 64.6272 13.1552 64.5051L11.4457 62.6735C11.4457 62.6735 9.36986 64.8714 9.73618 66.3367C9.9804 67.3135 9.9804 68.1683 11.5678 68.4125C11.9341 68.5346 23.1679 69.6336 23.1679 69.6336L31.8375 79.7684L25.3658 78.7916L25.1216 78.4253C25.1216 78.4253 24.0227 78.3031 24.0227 78.181C24.0227 77.9368 24.1448 77.9368 24.389 77.5705L22.4353 75.3726C22.4353 75.3726 20.8479 77.8147 20.97 78.9137C21.0921 79.8905 21.2142 80.7453 22.4353 81.4779C23.1679 81.8442 34.6459 82.9432 34.6459 82.9432L45.3913 95.3981C45.3913 95.3981 48.3219 99.3055 50.3977 96.7413C52.3514 94.4212 52.4735 93.5665 52.4735 93.5665L49.7872 93.0781C49.7872 93.0781 49.543 93.9328 49.0545 93.9328C48.444 93.9328 47.4671 92.7117 47.4671 92.7117L39.5302 83.6758L47.4671 84.6527L58.701 98.0844C58.701 98.0844 60.6547 99.6718 62.2421 99.0613C63.8294 98.4508 65.4168 95.3981 65.4168 95.3981L62.4863 95.0318C62.4863 95.0318 61.9978 96.0086 61.6315 96.0086C61.1431 96.0086 60.0441 94.7876 60.0441 94.7876L52.1072 85.5074L62.9747 86.6064C62.9747 86.6064 65.9053 86.2401 67.3705 84.5306C68.9579 82.8211 78.7265 68.5346 78.7265 68.5346L88.3729 80.6232L87.396 81.4779L85.6865 84.0422C85.6865 84.0422 89.8382 84.2864 90.6929 83.5537C92.2803 82.2106 92.0361 80.0126 92.0361 80.0126L80.8023 65.7262L89.9603 53.2713L98.9962 65.2377V64.7493L96.1877 68.7788L100.217 68.5346C100.217 68.5346 102.781 67.4357 102.293 64.6272C102.049 64.2609 91.6698 50.3407 91.6698 50.3407Z" fill="#495B68"/>
<path d="M192.317 25.6313H175.31V69.4485H162.905V25.6313H145.898V15.4272H192.117V25.6313H192.317Z" fill="white"/>
<path d="M241.334 59.4426V69.4466H199.918V15.4253H240.334V25.4292H212.323V37.2339H237.133V47.0378H212.323V59.4426H241.334Z" fill="white"/>
<path d="M260.344 15.4253L271.348 31.8318L282.352 15.4253H296.758L278.951 41.2355L298.158 69.4466H283.553L271.148 51.6396L258.943 69.4466H244.938L263.945 41.8357L246.138 15.4253H260.344Z" fill="white"/>
<path d="M353.187 15.4253V69.4466H340.782V47.2378H316.573V69.4466H304.168V15.4253H316.573V36.6336H340.782V15.4253H353.187Z" fill="white"/>
<path d="M402.603 57.842H377.794L372.992 69.4466H360.387L384.196 15.4253H396.401L420.21 69.4466H407.205L402.603 57.842ZM398.602 48.2382L390.198 27.6301L381.795 48.2382H398.602Z" fill="white"/>
<path d="M155.5 88.2585H156.7V87.8583C156.7 87.4582 156.7 87.058 156.901 86.6579C156.901 86.2577 157.101 86.0576 157.301 85.8576C157.501 85.6575 157.701 85.4574 157.901 85.4574C158.101 85.2573 158.501 85.2573 158.901 85.2573C159.301 85.2573 159.502 85.2573 159.702 85.2573C159.902 85.2573 160.102 85.4574 160.502 85.4574L160.302 86.4578C160.102 86.4578 159.902 86.2577 159.702 86.2577C159.502 86.2577 159.301 86.2577 159.101 86.2577C158.901 86.2577 158.701 86.2577 158.501 86.4578C158.301 86.6579 158.301 86.6579 158.101 86.858C158.101 87.058 157.901 87.2581 157.901 87.4582C157.901 87.6583 157.901 87.8583 157.901 88.2585V88.4586H159.902V89.459H157.901V95.8615H156.7V89.459H155.5V88.2585Z" fill="white"/>
<path d="M166.9 95.0571C166.7 95.2571 166.3 95.4572 165.699 95.6573C165.299 95.8574 164.699 95.8574 164.299 95.8574C163.699 95.8574 163.299 95.8574 162.898 95.6573C162.498 95.4572 162.098 95.2572 161.898 94.857C161.698 94.4568 161.498 94.0567 161.298 93.6565C161.098 93.2564 161.098 92.6561 161.098 92.0559C161.098 90.8554 161.298 89.855 161.898 89.2548C162.498 88.6546 163.299 88.2544 164.299 88.2544C164.699 88.2544 164.899 88.2544 165.299 88.4545C165.699 88.4545 165.9 88.6546 166.1 88.8546C166.3 89.0547 166.5 89.4549 166.7 89.6549C166.9 89.855 166.9 90.4553 166.9 91.2556C166.9 91.6557 166.9 91.8558 166.9 92.256H162.298C162.298 92.6561 162.298 93.0563 162.498 93.4564C162.498 93.8566 162.698 94.0567 162.898 94.2568C163.098 94.4568 163.299 94.6569 163.699 94.857C163.899 95.0571 164.299 95.0571 164.699 95.0571C165.099 95.0571 165.299 95.0571 165.699 94.857C166.1 94.6569 166.3 94.6569 166.5 94.4568L166.9 95.0571ZM164.299 89.0547C163.699 89.0547 163.299 89.2548 162.898 89.4549C162.498 89.855 162.298 90.2552 162.298 91.0555H165.9C165.9 90.2552 165.699 89.855 165.499 89.4549C165.299 89.0547 164.899 89.0547 164.299 89.0547Z" fill="white"/>
<path d="M174.314 95.6556V91.454C174.314 90.6536 174.114 90.0534 173.913 89.6532C173.713 89.2531 173.313 89.053 172.713 89.053C172.113 89.053 171.713 89.2531 171.513 89.4532C171.112 89.6532 170.912 90.0534 170.712 90.4536V95.4555H169.512V88.0526H170.312L170.512 89.053C170.712 88.6529 171.112 88.4528 171.513 88.2527C171.913 88.0526 172.313 87.8525 172.913 87.8525C173.313 87.8525 173.713 87.8525 173.913 88.0526C174.314 88.0526 174.514 88.2527 174.714 88.4528C174.914 88.6529 175.114 89.053 175.114 89.4532C175.114 89.8533 175.314 90.4536 175.314 91.0538V95.4555H174.314V95.6556Z" fill="white"/>
<path d="M183.519 95.0565C183.319 95.2565 182.919 95.4566 182.519 95.4566C182.119 95.6567 181.719 95.6567 181.318 95.6567C180.718 95.6567 180.318 95.6567 179.918 95.4566C179.518 95.2566 179.118 95.0565 178.918 94.6563C178.717 94.2562 178.517 93.856 178.317 93.4558C178.117 93.0557 178.117 92.4554 178.117 91.8552C178.117 90.6547 178.317 89.6543 178.918 89.0541C179.518 88.4539 180.318 88.0537 181.318 88.0537C181.719 88.0537 182.119 88.0537 182.519 88.2538C182.919 88.2538 183.119 88.4539 183.319 88.6539L182.919 89.4543C182.719 89.2542 182.519 89.2542 182.119 89.0541C181.919 89.0541 181.519 88.854 181.318 88.854C179.918 88.854 179.318 89.8544 179.318 91.6551C179.318 92.0553 179.318 92.4554 179.518 92.6555C179.518 93.0557 179.718 93.2558 179.918 93.6559C180.118 93.856 180.318 94.0561 180.518 94.2562C180.718 94.4562 181.118 94.4562 181.519 94.4562C181.919 94.4562 182.119 94.4562 182.519 94.2562C182.719 94.0561 183.119 94.0561 183.119 93.856L183.519 95.0565Z" fill="white"/>
<path d="M185.711 85.8535C185.711 85.6535 185.711 85.4534 185.911 85.2533C186.111 85.0532 186.311 85.0532 186.511 85.0532C186.711 85.0532 186.911 85.0532 187.111 85.2533C187.312 85.4534 187.312 85.6535 187.312 85.8535C187.312 86.0536 187.312 86.2537 187.111 86.4538C186.911 86.6539 186.711 86.6539 186.511 86.6539C186.311 86.6539 186.111 86.6539 185.911 86.4538C185.911 86.2537 185.711 86.2537 185.711 85.8535ZM186.111 88.2545H187.312V95.6574H186.111V88.2545Z" fill="white"/>
<path d="M195.11 95.6556V91.454C195.11 90.6536 194.91 90.0534 194.71 89.6532C194.51 89.2531 194.11 89.053 193.51 89.053C192.91 89.053 192.509 89.2531 192.309 89.4532C191.909 89.6532 191.709 90.0534 191.509 90.4536V95.4555H190.309V88.0526H191.109L191.309 89.053C191.509 88.6529 191.909 88.4528 192.309 88.2527C192.71 88.0526 193.11 87.8525 193.71 87.8525C194.11 87.8525 194.51 87.8525 194.71 88.0526C195.11 88.0526 195.311 88.2527 195.511 88.4528C195.711 88.6529 195.911 89.053 195.911 89.4532C196.111 89.8533 196.111 90.4536 196.111 91.0538V95.4555H195.11V95.6556Z" fill="white"/>
<path d="M204.725 95.858C204.725 96.8584 204.525 97.4587 203.925 98.0589C203.324 98.4591 202.724 98.6591 201.724 98.6591C201.124 98.6591 200.723 98.6591 200.323 98.459C199.923 98.459 199.723 98.259 199.323 98.259L199.723 97.2586C199.923 97.2586 200.123 97.4587 200.523 97.4587C200.924 97.4587 201.124 97.6587 201.524 97.6587C201.924 97.6587 202.324 97.6587 202.524 97.4587C202.724 97.4587 202.924 97.2586 203.124 97.0585C203.324 96.8584 203.324 96.6583 203.525 96.4583C203.525 96.2582 203.525 95.858 203.525 95.4579V94.6575C203.324 94.8576 203.124 95.2578 202.724 95.2578C202.324 95.4579 202.124 95.4579 201.524 95.4579C200.523 95.4579 199.723 95.0577 199.323 94.4575C198.923 93.8572 198.723 92.8568 198.723 91.4563C198.723 90.2558 198.923 89.2554 199.523 88.6552C200.123 88.0549 200.924 87.6548 202.124 87.6548C202.724 87.6548 203.124 87.6548 203.525 87.8549C203.925 87.8549 204.325 88.0549 204.525 88.255V95.858H204.725ZM201.924 94.6575C202.324 94.6575 202.724 94.4575 203.124 94.2574C203.324 94.0573 203.525 93.6572 203.725 93.0569V89.4555C203.324 89.2554 202.924 89.2554 202.324 89.2554C201.724 89.2554 201.124 89.4555 200.723 89.8557C200.323 90.2558 200.123 91.0561 200.123 92.0565C200.123 92.4567 200.123 92.8568 200.323 93.257C200.523 93.6572 200.523 93.8572 200.723 94.0573C200.924 94.2574 201.124 94.4575 201.324 94.6575C201.324 94.6575 201.524 94.6575 201.924 94.6575Z" fill="white"/>
<path d="M215.722 93.6565C215.722 93.4564 215.723 93.0563 215.522 93.0563C215.322 93.0563 215.122 92.6561 214.922 92.6561C214.722 92.456 214.322 92.4561 214.122 92.256C213.922 92.0559 213.522 92.0559 213.322 91.8558C213.121 91.6557 212.921 91.4557 212.721 91.2556C212.521 91.0555 212.521 90.6553 212.521 90.2552C212.521 89.4549 212.721 89.0547 213.121 88.6545C213.522 88.2544 214.122 88.2544 214.722 88.2544C215.322 88.2544 215.723 88.2544 216.123 88.4545C216.523 88.4545 216.723 88.6546 217.123 88.8546L216.923 89.855C216.723 89.6549 216.523 89.6549 216.123 89.6549C215.723 89.6549 215.522 89.4549 215.122 89.4549C214.722 89.4549 214.322 89.4549 214.122 89.6549C213.922 89.855 213.922 90.0551 213.922 90.4553C213.922 90.6553 213.922 90.8554 214.122 91.0555C214.322 91.2556 214.522 91.2556 214.722 91.4557C214.922 91.6557 215.322 91.6557 215.522 91.8558C215.923 92.0559 216.123 92.0559 216.323 92.256C216.523 92.4561 216.723 92.6561 216.923 92.8562C217.123 93.0563 217.123 93.4564 217.123 93.8566C217.123 94.2568 217.123 94.4568 216.923 94.6569C216.723 94.857 216.723 95.2572 216.523 95.4572C216.323 95.6573 216.123 95.8574 215.722 95.8574C215.322 96.0575 215.122 96.0575 214.522 96.0575C213.922 96.0575 213.522 96.0575 213.121 95.8574C212.721 95.6573 212.321 95.6573 212.121 95.4572L212.521 94.4568C212.721 94.6569 213.121 94.6569 213.322 94.857C213.522 95.0571 214.122 95.0571 214.322 95.0571C214.722 95.0571 215.122 95.0571 215.322 94.857C215.522 94.6569 215.722 94.0567 215.722 93.6565Z" fill="white"/>
<path d="M221.529 93.0557L221.929 94.4562L222.329 93.0557L223.729 88.2538H224.93L222.729 94.8564C222.529 95.2566 222.329 95.8568 222.329 96.2569C222.129 96.6571 221.929 97.0573 221.729 97.4574C221.529 97.8576 221.328 98.0577 221.128 98.2577C220.928 98.4578 220.528 98.6579 220.328 98.6579C219.928 98.6579 219.728 98.6579 219.528 98.4578L219.728 97.4574C219.928 97.4574 219.928 97.4574 220.128 97.4574C220.328 97.4574 220.728 97.2573 220.928 97.0573C221.128 96.8572 221.328 96.2569 221.529 95.4566L218.527 88.0537H219.928L221.529 93.0557Z" fill="white"/>
<path d="M230.134 93.6565C230.134 93.4564 230.134 93.0563 229.934 93.0563C229.734 93.0563 229.534 92.6561 229.334 92.6561C229.134 92.456 228.734 92.4561 228.534 92.256C228.334 92.0559 227.933 92.0559 227.733 91.8558C227.533 91.6557 227.333 91.4557 227.133 91.2556C226.933 91.0555 226.933 90.6553 226.933 90.2552C226.933 89.4549 227.133 89.0547 227.533 88.6545C227.934 88.2544 228.534 88.2544 229.134 88.2544C229.734 88.2544 230.134 88.2544 230.535 88.4545C230.935 88.4545 231.135 88.6546 231.535 88.8546L230.935 89.4549C230.735 89.2548 230.535 89.2548 230.134 89.2548C229.734 89.2548 229.534 89.0547 229.134 89.0547C228.734 89.0547 228.334 89.0547 228.134 89.2548C227.934 89.4549 227.934 89.6549 227.934 90.0551C227.934 90.2552 227.934 90.4553 228.134 90.6553C228.334 90.8554 228.534 90.8554 228.734 91.0555C228.934 91.2556 229.334 91.2556 229.534 91.4557C229.934 91.6557 230.134 91.6557 230.334 91.8558C230.535 92.0559 230.735 92.256 230.935 92.456C231.135 92.6561 231.135 93.0563 231.135 93.4564C231.135 93.8566 231.135 94.0567 230.935 94.2568C230.735 94.4568 230.735 94.857 230.535 95.0571C230.334 95.2572 230.134 95.4572 229.734 95.4572C229.334 95.6573 229.134 95.6573 228.534 95.6573C227.934 95.6573 227.533 95.6573 227.133 95.4572C226.733 95.2572 226.333 95.2572 226.133 95.0571L226.533 94.0567C226.733 94.2568 227.133 94.2568 227.333 94.4568C227.533 94.6569 228.134 94.6569 228.334 94.6569C228.734 94.6569 229.134 94.6569 229.334 94.4568C229.534 94.2568 230.134 94.0567 230.134 93.6565Z" fill="white"/>
<path d="M232.938 88.2548H234.138V86.8543L235.338 86.4541V88.2548H237.339V89.2552H235.338V93.4569C235.338 94.0571 235.338 94.2572 235.539 94.4573C235.739 94.6573 235.939 94.8574 236.139 94.8574C236.339 94.8574 236.539 94.8574 236.739 94.8574C236.939 94.8574 237.139 94.6573 237.339 94.6573L237.539 95.6577C237.339 95.8578 236.939 95.8578 236.739 96.0579C236.339 96.0579 236.139 96.258 235.739 96.258C235.138 96.258 234.738 96.0579 234.538 95.6577C234.338 95.2576 234.138 94.6573 234.138 93.857V89.4553H232.938V88.2548Z" fill="white"/>
<path d="M244.736 95.0571C244.536 95.2571 244.136 95.4572 243.535 95.6573C243.135 95.8574 242.535 95.8574 242.135 95.8574C241.535 95.8574 241.134 95.8574 240.734 95.6573C240.334 95.4572 239.934 95.2572 239.734 94.857C239.534 94.4568 239.334 94.0567 239.134 93.6565C238.934 93.2564 238.934 92.6561 238.934 92.0559C238.934 90.8554 239.134 89.855 239.734 89.2548C240.334 88.6546 241.134 88.2544 242.135 88.2544C242.535 88.2544 242.735 88.2544 243.135 88.4545C243.535 88.6545 243.735 88.6546 243.936 88.8546C244.136 89.0547 244.336 89.4549 244.536 89.6549C244.736 90.0551 244.736 90.4553 244.736 91.2556C244.736 91.6557 244.736 91.8558 244.736 92.256H240.134C240.134 92.6561 240.134 93.0563 240.334 93.4564C240.334 93.8566 240.534 94.0567 240.734 94.2568C240.934 94.4568 241.134 94.6569 241.535 94.857C241.735 95.0571 242.135 95.0571 242.535 95.0571C242.935 95.0571 243.135 95.0571 243.535 94.857C243.936 94.6569 244.136 94.6569 244.336 94.4568L244.736 95.0571ZM242.135 89.0547C241.535 89.0547 241.134 89.2548 240.734 89.4549C240.334 89.855 240.134 90.2552 240.134 91.0555H243.735C243.735 90.2552 243.535 89.855 243.335 89.4549C243.135 89.2548 242.735 89.0547 242.135 89.0547Z" fill="white"/>
<path d="M251.941 95.6579V91.4563C251.941 91.0561 251.941 90.656 251.941 90.4559C251.941 90.2558 251.941 89.8557 251.741 89.6556C251.541 89.4555 251.541 89.2554 251.341 89.2554C251.14 89.2554 250.94 89.0553 250.54 89.0553C250.14 89.0553 249.74 89.2554 249.34 89.4555C249.14 89.6556 248.74 90.0557 248.74 90.4559V95.4579H247.539V88.0549H248.339L248.539 89.0553C248.74 88.6552 249.14 88.4551 249.54 88.255C249.94 88.0549 250.34 87.8549 250.94 87.8549C251.341 87.8549 251.741 87.8549 252.141 88.0549C252.341 88.255 252.741 88.6552 252.741 89.0553C252.941 88.6552 253.341 88.4551 253.741 88.0549C254.142 87.6548 254.542 87.6548 255.142 87.6548C255.542 87.6548 255.942 87.6548 256.142 87.8549C256.343 87.8549 256.743 88.0549 256.943 88.255C257.143 88.4551 257.343 88.8553 257.343 89.2554C257.343 89.6556 257.543 90.2558 257.543 90.8561V95.2578H256.343V90.8561C256.343 90.4559 256.343 90.2558 256.343 89.8557C256.343 89.6556 256.142 89.4555 256.142 89.2554C255.942 89.0553 255.942 88.8553 255.742 88.8553C255.542 88.8553 255.342 88.6552 254.942 88.6552C254.542 88.6552 254.142 88.8553 253.741 89.0553C253.341 89.2554 253.341 89.6556 253.141 90.2558V95.2578H251.941V95.6579Z" fill="white"/>
<path d="M263.336 93.6565C263.336 93.4564 263.336 93.0563 263.136 93.0563C262.936 93.0563 262.736 92.6561 262.535 92.6561C262.335 92.456 261.935 92.4561 261.735 92.256C261.535 92.0559 261.135 92.0559 260.935 91.8558C260.735 91.6557 260.535 91.4557 260.335 91.2556C260.135 91.0555 260.135 90.6553 260.135 90.2552C260.135 89.4549 260.335 89.0547 260.735 88.6545C261.135 88.2544 261.735 88.2544 262.335 88.2544C262.936 88.2544 263.336 88.2544 263.736 88.4545C264.136 88.4545 264.336 88.6546 264.736 88.8546L264.536 89.855C264.336 89.6549 264.136 89.6549 263.736 89.6549C263.336 89.6549 263.136 89.4549 262.736 89.4549C262.335 89.4549 261.935 89.4549 261.735 89.6549C261.535 89.855 261.535 90.0551 261.535 90.4553C261.535 90.6553 261.535 90.8554 261.735 91.0555C261.935 91.2556 262.135 91.2556 262.335 91.4557C262.535 91.6557 262.936 91.6557 263.136 91.8558C263.536 92.0559 263.736 92.0559 263.936 92.256C264.136 92.4561 264.336 92.6561 264.536 92.8562C264.736 93.0563 264.736 93.4564 264.736 93.8566C264.736 94.2568 264.736 94.4568 264.536 94.6569C264.336 94.857 264.336 95.2572 264.136 95.4572C263.936 95.6573 263.736 95.8574 263.336 95.8574C262.936 96.0575 262.736 96.0575 262.135 96.0575C261.535 96.0575 261.135 96.0575 260.735 95.8574C260.335 95.6573 259.934 95.6573 259.734 95.4572L260.135 94.4568C260.335 94.6569 260.735 94.6569 260.935 94.857C261.135 95.0571 261.735 95.0571 261.935 95.0571C262.335 95.0571 262.736 95.0571 262.936 94.857C263.136 94.6569 263.336 94.0567 263.336 93.6565Z" fill="white"/>
<path d="M271.543 88.6528C271.943 88.4528 272.343 88.2527 272.743 88.0526C273.144 87.8525 273.744 87.8525 274.344 87.8525C274.944 87.8525 275.344 87.8525 275.545 88.0526C275.945 88.2527 276.145 88.4528 276.345 88.6528C276.545 88.8529 276.545 89.053 276.745 89.4532C276.745 89.6532 276.745 90.0534 276.745 90.2535C276.745 90.8537 276.745 91.454 276.745 92.0542C276.745 92.6544 276.745 93.0546 276.745 93.6548C276.745 94.055 276.745 94.4551 276.745 94.6552C276.745 95.0554 276.745 95.2555 276.945 95.6556H276.145L275.745 94.6552C275.745 94.8553 275.545 94.8553 275.344 95.0554C275.144 95.2555 275.144 95.2555 274.944 95.4555C274.744 95.6556 274.544 95.6556 274.344 95.6556C274.144 95.6556 273.744 95.8557 273.544 95.8557C273.144 95.8557 272.944 95.8557 272.743 95.6556C272.543 95.4555 272.143 95.4555 272.143 95.2555C272.143 95.0554 271.743 94.8553 271.743 94.6552C271.543 94.4551 271.543 94.055 271.543 93.8549C271.543 93.4547 271.543 93.0546 271.743 92.8545C271.943 92.6544 272.143 92.2543 272.543 92.2543C272.944 92.0542 273.144 92.0542 273.744 91.8541C274.144 91.8541 274.744 91.654 275.144 91.654C275.344 91.654 275.344 91.654 275.545 91.654C275.745 91.654 275.745 91.654 275.945 91.654C275.945 91.454 275.945 91.0538 275.945 90.8537C275.945 90.2535 275.745 89.8533 275.545 89.6532C275.344 89.4532 274.944 89.2531 274.344 89.2531C274.144 89.2531 273.944 89.2531 273.744 89.2531C273.544 89.2531 273.344 89.2531 273.144 89.4532C272.944 89.4532 272.743 89.6532 272.543 89.6532C272.343 89.6532 272.143 89.8533 272.143 89.8533L271.543 88.6528ZM273.744 94.6552C273.944 94.6552 274.344 94.6552 274.544 94.4551C274.744 94.4551 274.944 94.2551 275.144 94.2551C275.344 94.055 275.344 94.055 275.545 93.8549C275.745 93.6548 275.745 93.6548 275.745 93.4547V92.2543C275.545 92.2543 275.545 92.2543 275.344 92.2543C275.144 92.2543 275.144 92.2543 274.944 92.2543C274.544 92.2543 274.344 92.2543 274.144 92.2543C273.944 92.2543 273.544 92.2543 273.344 92.4544C273.144 92.4544 272.944 92.6544 272.743 92.8545C272.543 93.0546 272.543 93.2547 272.543 93.4547C272.543 93.8549 272.743 94.055 272.944 94.2551C272.944 94.4551 273.344 94.6552 273.744 94.6552Z" fill="white"/>
<path d="M284.548 95.6556V91.454C284.548 90.6536 284.348 90.0534 284.148 89.6532C283.948 89.2531 283.548 89.053 282.947 89.053C282.347 89.053 281.947 89.2531 281.747 89.4532C281.347 89.6532 281.147 90.0534 280.947 90.4536V95.4555H279.746V88.0526H280.546L280.746 89.053C280.947 88.6529 281.347 88.4528 281.747 88.2527C282.147 88.0526 282.547 87.8525 283.147 87.8525C283.548 87.8525 283.948 87.8525 284.148 88.0526C284.548 88.0526 284.748 88.2527 284.948 88.4528C285.148 88.6529 285.348 89.053 285.348 89.4532C285.548 89.8533 285.548 90.4536 285.548 91.0538V95.4555H284.548V95.6556Z" fill="white"/>
<path d="M294.159 93.057C294.159 93.6572 294.159 94.0574 294.159 94.4575C294.159 94.8577 294.159 95.2578 294.359 95.658H293.558L293.358 94.6576C293.158 95.0578 292.958 95.2578 292.558 95.4579C292.158 95.658 291.758 95.8581 291.157 95.8581C290.157 95.8581 289.357 95.4579 288.957 94.8577C288.556 94.2575 288.156 93.2571 288.156 91.8565C288.156 90.656 288.356 89.6556 288.957 89.0554C289.557 88.4552 290.357 88.055 291.357 88.055C291.758 88.055 291.958 88.055 292.158 88.055C292.358 88.055 292.558 88.2551 292.758 88.2551V85.2539H293.959V93.057H294.159ZM291.157 94.6576C291.558 94.6576 291.958 94.4575 292.358 94.2575C292.558 94.0574 292.758 93.6572 292.958 93.057V89.4556C292.758 89.2555 292.558 89.2555 292.358 89.2555C292.158 89.2555 291.758 89.2555 291.558 89.2555C290.957 89.2555 290.357 89.4556 289.957 89.8557C289.557 90.2559 289.357 91.0562 289.357 92.0566C289.357 92.4567 289.357 92.8569 289.357 93.2571C289.357 93.6572 289.557 93.8573 289.757 94.0574C289.957 94.2575 290.157 94.4575 290.357 94.6576C290.557 94.6576 290.757 94.6576 291.157 94.6576Z" fill="white"/>
<path d="M304.953 93.6565C304.953 93.4564 304.953 93.0563 304.753 93.0563C304.553 93.0563 304.353 92.6561 304.153 92.6561C303.953 92.456 303.552 92.4561 303.352 92.256C303.152 92.0559 302.752 92.0559 302.552 91.8558C302.352 91.6557 302.152 91.4557 301.952 91.2556C301.752 91.0555 301.752 90.6553 301.752 90.2552C301.752 89.4549 301.952 89.0547 302.352 88.6545C302.752 88.2544 303.352 88.2544 303.953 88.2544C304.553 88.2544 304.953 88.2544 305.353 88.4545C305.753 88.4545 305.953 88.6546 306.354 88.8546L306.153 89.855C305.953 89.6549 305.753 89.6549 305.353 89.6549C304.953 89.6549 304.753 89.4549 304.353 89.4549C303.953 89.4549 303.552 89.4549 303.352 89.6549C303.152 89.855 303.152 90.0551 303.152 90.4553C303.152 90.6553 303.152 90.8554 303.352 91.0555C303.552 91.2556 303.753 91.2556 303.953 91.4557C304.153 91.6557 304.553 91.6557 304.753 91.8558C305.153 92.0559 305.353 92.0559 305.553 92.256C305.753 92.4561 305.953 92.6561 306.153 92.8562C306.354 93.0563 306.354 93.4564 306.354 93.8566C306.354 94.2568 306.354 94.4568 306.153 94.6569C305.953 94.857 305.953 95.2572 305.753 95.4572C305.553 95.6573 305.353 95.8574 304.953 95.8574C304.553 96.0575 304.353 96.0575 303.753 96.0575C303.152 96.0575 302.752 96.0575 302.352 95.8574C301.952 95.6573 301.552 95.6573 301.352 95.4572L301.752 94.4568C301.952 94.6569 302.352 94.6569 302.552 94.857C302.752 95.0571 303.352 95.0571 303.552 95.0571C303.953 95.0571 304.353 95.0571 304.553 94.857C304.753 94.6569 304.953 94.0567 304.953 93.6565Z" fill="white"/>
<path d="M308.563 88.6528C308.964 88.4528 309.364 88.2527 309.764 88.0526C310.164 87.8525 310.764 87.8525 311.364 87.8525C311.965 87.8525 312.365 87.8525 312.565 88.0526C312.965 88.2527 313.165 88.4528 313.365 88.6528C313.565 88.8529 313.565 89.053 313.765 89.4532C313.765 89.6532 313.765 90.0534 313.765 90.2535C313.765 90.8537 313.765 91.454 313.765 92.0542C313.765 92.6544 313.765 93.0546 313.765 93.6548C313.765 94.055 313.765 94.4551 313.765 94.6552C313.765 95.0554 313.765 95.2555 313.965 95.6556H312.965L312.565 94.6552C312.565 94.8553 312.365 94.8553 312.165 95.0554C311.965 95.2555 311.965 95.2555 311.765 95.4555C311.565 95.6556 311.364 95.6556 311.164 95.6556C310.964 95.6556 310.564 95.8557 310.364 95.8557C309.964 95.8557 309.764 95.8557 309.564 95.6556C309.364 95.4555 308.964 95.4555 308.964 95.2555C308.964 95.0554 308.563 94.8553 308.563 94.6552C308.363 94.4551 308.363 94.055 308.363 93.8549C308.363 93.4547 308.363 93.0546 308.563 92.8545C308.763 92.6544 308.964 92.2543 309.364 92.2543C309.764 92.0542 309.964 92.0542 310.564 91.8541C310.964 91.8541 311.565 91.654 311.965 91.654C312.165 91.654 312.165 91.654 312.365 91.654C312.565 91.654 312.565 91.654 312.765 91.654C312.765 91.454 312.765 91.0538 312.765 90.8537C312.765 90.2535 312.565 89.8533 312.365 89.6532C312.165 89.4532 311.765 89.2531 311.164 89.2531C310.964 89.2531 310.764 89.2531 310.564 89.2531C310.364 89.2531 310.164 89.2531 309.964 89.4532C309.764 89.4532 309.564 89.6532 309.364 89.6532C309.164 89.6532 308.964 89.8533 308.964 89.8533L308.563 88.6528ZM310.564 94.6552C310.764 94.6552 311.164 94.6552 311.364 94.4551C311.565 94.4551 311.765 94.2551 311.965 94.2551C312.165 94.055 312.165 94.055 312.365 93.8549C312.565 93.6548 312.565 93.6548 312.565 93.4547V92.2543C312.365 92.2543 312.365 92.2543 312.165 92.2543C311.965 92.2543 311.965 92.2543 311.765 92.2543C311.364 92.2543 311.164 92.2543 310.964 92.2543C310.764 92.2543 310.364 92.2543 310.164 92.4544C309.964 92.4544 309.764 92.6544 309.564 92.8545C309.364 93.0546 309.364 93.2547 309.364 93.4547C309.364 93.8549 309.564 94.055 309.764 94.2551C309.964 94.4551 310.364 94.6552 310.564 94.6552Z" fill="white"/>
<path d="M315.962 88.2551H317.162V87.8549C317.162 87.4548 317.162 87.0546 317.362 86.6545C317.362 86.2543 317.562 86.0542 317.763 85.8541C317.963 85.6541 318.163 85.454 318.363 85.454C318.563 85.454 318.963 85.2539 319.363 85.2539C319.763 85.2539 319.963 85.2539 320.163 85.2539C320.364 85.2539 320.564 85.454 320.964 85.454L320.764 86.4544C320.564 86.4544 320.364 86.2543 320.163 86.2543C319.963 86.2543 319.763 86.2543 319.563 86.2543C319.363 86.2543 319.163 86.2543 318.963 86.4544C318.763 86.4544 318.763 86.6545 318.563 86.8545C318.563 87.0546 318.363 87.2547 318.363 87.4548C318.363 87.6548 318.363 87.8549 318.363 88.2551V88.4552H320.364V89.4556H318.363V95.8581H316.962V89.4556H315.762V88.2551H315.962Z" fill="white"/>
<path d="M327.373 95.0571C327.173 95.2571 326.772 95.4572 326.172 95.6573C325.772 95.8574 325.172 95.8574 324.772 95.8574C324.171 95.8574 323.771 95.8574 323.371 95.6573C322.971 95.4572 322.571 95.2572 322.371 94.857C322.171 94.4568 321.97 94.0567 321.77 93.6565C321.57 93.2564 321.57 92.6561 321.57 92.0559C321.57 90.8554 321.77 89.855 322.371 89.2548C322.971 88.6546 323.771 88.2544 324.772 88.2544C325.172 88.2544 325.372 88.2544 325.772 88.4545C326.172 88.6545 326.372 88.6546 326.572 88.8546C326.772 89.0547 326.972 89.4549 327.173 89.6549C327.373 90.0551 327.373 90.4553 327.373 91.2556C327.373 91.6557 327.373 91.8558 327.373 92.256H322.771C322.771 92.6561 322.771 93.0563 322.971 93.4564C322.971 93.8566 323.171 94.0567 323.371 94.2568C323.571 94.4568 323.771 94.6569 324.171 94.857C324.371 95.0571 324.772 95.0571 325.172 95.0571C325.572 95.0571 325.772 95.0571 326.172 94.857C326.572 94.6569 326.772 94.6569 326.972 94.4568L327.373 95.0571ZM324.772 89.0547C324.171 89.0547 323.771 89.2548 323.371 89.4549C322.971 89.855 322.771 90.2552 322.771 91.0555H326.372C326.372 90.2552 326.172 89.855 325.972 89.4549C325.772 89.2548 325.372 89.0547 324.772 89.0547Z" fill="white"/>
<path d="M329.164 88.2548H330.365V86.8543L331.565 86.4541V88.2548H333.566V89.2552H331.565V93.4569C331.565 94.0571 331.565 94.2572 331.765 94.4573C331.965 94.6573 332.165 94.8574 332.365 94.8574C332.565 94.8574 332.765 94.8574 332.966 94.8574C333.166 94.8574 333.366 94.6573 333.566 94.6573L333.766 95.6577C333.566 95.8578 333.166 95.8578 332.966 96.0579C332.565 96.0579 332.365 96.258 331.965 96.258C331.365 96.258 330.965 96.0579 330.765 95.6577C330.565 95.2576 330.365 94.6573 330.365 93.857V89.4553H329.164V88.2548Z" fill="white"/>
<path d="M337.97 93.0557L338.37 94.4562L338.77 93.0557L340.171 88.2538H341.371L339.17 94.8564C338.97 95.2566 338.77 95.8568 338.77 96.2569C338.57 96.6571 338.37 97.0573 338.17 97.4574C337.97 97.8576 337.77 98.0577 337.57 98.2577C337.37 98.4578 336.97 98.6579 336.769 98.6579C336.369 98.6579 336.169 98.6579 335.969 98.4578L336.169 97.4574C336.369 97.4574 336.369 97.4574 336.569 97.4574C336.769 97.4574 337.17 97.2573 337.37 97.0573C337.57 96.8572 337.77 96.2569 337.97 95.4566L334.969 88.0537H336.369L337.97 93.0557Z" fill="white"/>
<path d="M352.771 95.0571C352.571 95.2571 352.171 95.4572 351.571 95.6573C351.17 95.8574 350.57 95.8574 350.17 95.8574C349.57 95.8574 349.17 95.8574 348.769 95.6573C348.369 95.4572 347.969 95.2572 347.769 94.857C347.569 94.4568 347.369 94.0567 347.169 93.6565C346.969 93.2564 346.969 92.6561 346.969 92.0559C346.969 90.8554 347.169 89.855 347.769 89.2548C348.369 88.6546 349.17 88.2544 350.17 88.2544C350.57 88.2544 350.77 88.2544 351.17 88.4545C351.571 88.6545 351.771 88.6546 351.971 88.8546C352.171 89.0547 352.371 89.4549 352.571 89.6549C352.771 90.0551 352.771 90.4553 352.771 91.2556C352.771 91.6557 352.771 91.8558 352.771 92.256H348.169C348.169 92.6561 348.169 93.0563 348.369 93.4564C348.369 93.8566 348.569 94.0567 348.769 94.2568C348.97 94.4568 349.17 94.6569 349.57 94.857C349.77 95.0571 350.17 95.0571 350.57 95.0571C350.97 95.0571 351.17 95.0571 351.571 94.857C351.971 94.6569 352.171 94.6569 352.371 94.4568L352.771 95.0571ZM350.37 89.0547C349.77 89.0547 349.37 89.2548 348.97 89.4549C348.569 89.855 348.369 90.2552 348.369 91.0555H351.971C351.971 90.2552 351.771 89.855 351.571 89.4549C351.17 89.2548 350.77 89.0547 350.37 89.0547Z" fill="white"/>
<path d="M361.179 98.459H359.979V94.6575C359.778 94.8576 359.578 95.2578 359.178 95.2578C358.978 95.4579 358.578 95.4579 357.978 95.4579C356.977 95.4579 356.377 95.0577 355.777 94.4575C355.377 93.8572 354.977 92.8568 354.977 91.4563C354.977 90.2558 355.377 89.2554 355.977 88.6552C356.577 88.0549 357.378 87.6548 358.578 87.6548C359.178 87.6548 359.578 87.6548 359.979 87.8549C360.379 87.8549 360.779 88.0549 360.979 88.255V98.459H361.179ZM358.178 94.6575C358.578 94.6575 358.978 94.4575 359.378 94.2574C359.778 94.0573 359.778 93.6572 359.979 93.0569V89.4555C359.578 89.2554 359.178 89.2554 358.578 89.2554C357.978 89.2554 357.378 89.4555 356.977 89.8557C356.577 90.2558 356.377 91.0561 356.377 92.0565C356.377 92.4567 356.377 92.8568 356.577 93.257C356.577 93.6572 356.777 93.8572 356.977 94.0573C357.177 94.2574 357.378 94.4575 357.578 94.6575C357.578 94.6575 357.778 94.6575 358.178 94.6575Z" fill="white"/>
<path d="M365.18 88.2538V92.4554C365.18 92.8556 365.18 93.2558 365.18 93.4558C365.18 93.6559 365.38 94.0561 365.38 94.2562C365.38 94.4562 365.58 94.6563 365.78 94.6563C365.98 94.6563 366.18 94.8564 366.581 94.8564C366.781 94.8564 366.981 94.8564 367.381 94.6563C367.581 94.6563 367.781 94.4562 367.981 94.2562C368.181 94.0561 368.381 93.856 368.381 93.6559C368.581 93.4558 368.581 93.2558 368.581 93.0557V88.0537H369.782V93.4558C369.782 93.856 369.782 94.2562 369.782 94.6563C369.782 95.0565 369.782 95.4566 369.982 95.6567H369.182L368.982 94.4562C368.781 94.8564 368.381 95.2566 367.981 95.4566C367.581 95.6567 367.181 95.8568 366.581 95.8568C366.18 95.8568 365.78 95.8568 365.58 95.6567C365.38 95.6567 364.98 95.4566 364.78 95.2566C364.58 95.0565 364.38 94.6563 364.38 94.2562C364.18 93.856 364.18 93.2558 364.18 92.6555V88.2538H365.18Z" fill="white"/>
<path d="M372.785 85.8535C372.785 85.6535 372.785 85.4534 372.985 85.2533C373.185 85.0532 373.385 85.0532 373.585 85.0532C373.786 85.0532 373.986 85.0532 374.186 85.2533C374.386 85.4534 374.386 85.6535 374.386 85.8535C374.386 86.0536 374.386 86.2537 374.186 86.4538C373.986 86.6539 373.786 86.6539 373.585 86.6539C373.385 86.6539 373.185 86.6539 372.985 86.4538C372.785 86.2537 372.785 86.2537 372.785 85.8535ZM372.985 88.2545H374.186V95.6574H372.985V88.2545Z" fill="white"/>
<path d="M377.387 88.2533H378.187L378.387 89.0536C378.587 88.6535 378.987 88.4534 379.187 88.2533C379.588 88.0532 379.988 88.0532 380.388 88.0532C381.388 88.0532 382.189 88.2533 382.589 88.8535C382.989 89.4538 383.389 90.4542 383.389 91.6546C383.389 92.2549 383.389 92.8551 383.189 93.2553C382.989 93.6554 382.789 94.2557 382.589 94.4557C382.389 94.8559 381.989 95.056 381.588 95.2561C381.188 95.4561 380.788 95.4561 380.188 95.4561C379.788 95.4561 379.588 95.4561 379.388 95.4561C379.187 95.4561 378.987 95.2561 378.787 95.2561V98.2572H377.587V88.2533H377.387ZM380.388 89.0536C379.988 89.0536 379.588 89.2537 379.187 89.4538C378.987 89.6539 378.787 90.054 378.587 90.6542V94.2557C378.787 94.4558 378.987 94.4557 379.187 94.6558C379.388 94.8559 379.788 94.8559 379.988 94.8559C380.588 94.8559 381.188 94.6558 381.588 94.0556C381.989 93.4554 382.189 92.8551 382.189 91.8547C382.189 91.4546 382.189 91.0544 381.989 90.6542C381.989 90.2541 381.788 90.054 381.588 89.8539C381.388 89.6539 381.188 89.4538 380.988 89.2537C380.988 89.0536 380.788 89.0536 380.388 89.0536Z" fill="white"/>
<path d="M390.394 95.6579V91.4563C390.394 91.0561 390.394 90.656 390.394 90.4559C390.394 90.2558 390.394 89.8557 390.194 89.6556C390.194 89.4555 389.994 89.2554 389.794 89.2554C389.594 89.2554 389.394 89.0553 388.993 89.0553C388.593 89.0553 388.193 89.2554 387.793 89.4555C387.593 89.6556 387.193 90.0557 387.193 90.4559V95.4579H385.992V88.0549H386.792L386.993 89.0553C387.193 88.6552 387.593 88.4551 387.993 88.255C388.393 88.0549 388.793 87.8549 389.394 87.8549C389.794 87.8549 390.194 87.8549 390.594 88.0549C390.794 88.255 391.194 88.6552 391.194 89.0553C391.394 88.6552 391.794 88.4551 392.195 88.0549C392.595 87.6548 392.995 87.6548 393.595 87.6548C393.995 87.6548 394.396 87.6548 394.596 87.8549C394.796 87.8549 395.196 88.0549 395.396 88.255C395.596 88.4551 395.796 88.8553 395.796 89.2554C395.796 89.6556 395.996 90.2558 395.996 90.8561V95.2578H394.796V90.8561C394.796 90.4559 394.796 90.2558 394.796 89.8557C394.796 89.6556 394.596 89.4555 394.596 89.2554C394.396 89.0553 394.396 88.8553 394.195 88.8553C393.995 88.8553 393.795 88.6552 393.395 88.6552C392.995 88.6552 392.595 88.8553 392.195 89.0553C391.794 89.2554 391.794 89.6556 391.594 90.2558V95.2578H390.394V95.6579Z" fill="white"/>
<path d="M404.005 95.0571C403.805 95.2571 403.405 95.4572 402.805 95.6573C402.405 95.8574 401.805 95.8574 401.404 95.8574C400.804 95.8574 400.404 95.8574 400.004 95.6573C399.604 95.4572 399.204 95.2572 399.003 94.857C398.803 94.4568 398.603 94.0567 398.403 93.6565C398.203 93.2564 398.203 92.6561 398.203 92.0559C398.203 90.8554 398.403 89.855 399.003 89.2548C399.604 88.6546 400.404 88.2544 401.404 88.2544C401.805 88.2544 402.005 88.2544 402.405 88.4545C402.805 88.6545 403.005 88.6546 403.205 88.8546C403.405 89.0547 403.605 89.4549 403.805 89.6549C404.005 90.0551 404.005 90.4553 404.005 91.2556C404.005 91.6557 404.005 91.8558 404.005 92.256H399.404C399.404 92.6561 399.404 93.0563 399.604 93.4564C399.604 93.8566 399.804 94.0567 400.004 94.2568C400.204 94.4568 400.404 94.6569 400.804 94.857C401.004 95.0571 401.404 95.0571 401.805 95.0571C402.205 95.0571 402.405 95.0571 402.805 94.857C403.205 94.6569 403.405 94.6569 403.605 94.4568L404.005 95.0571ZM401.604 89.0547C401.004 89.0547 400.604 89.2548 400.204 89.4549C399.804 89.855 399.604 90.2552 399.604 91.0555H403.205C403.205 90.2552 403.005 89.855 402.805 89.4549C402.405 89.2548 402.005 89.0547 401.604 89.0547Z" fill="white"/>
<path d="M411.602 95.6556V91.454C411.602 90.6536 411.402 90.0534 411.202 89.6532C411.002 89.2531 410.601 89.053 410.001 89.053C409.401 89.053 409.001 89.2531 408.801 89.4532C408.401 89.6532 408.2 90.0534 408 90.4536V95.4555H407V88.0526H407.8L408 89.053C408.2 88.6529 408.601 88.4528 409.001 88.2527C409.401 88.0526 409.801 87.8525 410.401 87.8525C410.801 87.8525 411.202 87.8525 411.402 88.0526C411.802 88.0526 412.002 88.2527 412.202 88.4528C412.402 88.6529 412.602 89.053 412.602 89.4532C412.802 89.8533 412.802 90.4536 412.802 91.0538V95.4555H411.602V95.6556Z" fill="white"/>
<path d="M414.801 88.2548H416.001V86.8543L417.202 86.4541V88.2548H419.203V89.2552H417.202V93.4569C417.202 94.0571 417.202 94.2572 417.402 94.4573C417.602 94.6573 417.802 94.8574 418.002 94.8574C418.202 94.8574 418.402 94.8574 418.602 94.8574C418.802 94.8574 419.002 94.6573 419.203 94.6573L419.403 95.6577C419.203 95.8578 418.802 95.8578 418.602 96.0579C418.202 96.0579 418.002 96.258 417.602 96.258C417.002 96.258 416.601 96.0579 416.401 95.6577C416.201 95.2576 416.001 94.6573 416.001 93.857V89.4553H414.801V88.2548Z" fill="white"/>
</svg>
