<svg width="190" height="79" viewBox="0 0 190 79" fill="none" xmlns="http://www.w3.org/2000/svg">
<path d="M98.6492 23.0155H91.9784V40.2027H87.1126V23.0155H80.4418V19.0131H98.5707V23.0155H98.6492Z" fill="white"/>
<path d="M117.877 36.278V40.202H101.631V19.0124H117.484V22.9364H106.497V27.5667H116.229V31.4123H106.497V36.278H117.877Z" fill="white"/>
<path d="M125.332 19.0124L129.649 25.4478L133.965 19.0124H139.616L132.631 29.1363L140.165 40.202H134.436L129.57 33.2173L124.783 40.202H119.289L126.745 29.3718L119.76 19.0124H125.332Z" fill="white"/>
<path d="M161.747 19.0124V40.202H156.881V31.4907H147.385V40.202H142.519V19.0124H147.385V27.3313H156.881V19.0124H161.747Z" fill="white"/>
<path d="M181.132 35.6502H171.4L169.517 40.202H164.572L173.911 19.0124H178.699L188.038 40.202H182.937L181.132 35.6502ZM179.562 31.8831L176.266 23.7997L172.97 31.8831H179.562Z" fill="white"/>
<path d="M188.744 18.0715C189.137 18.307 189.451 18.6209 189.686 19.0133C189.921 19.4057 190 19.8766 190 20.3475C190 20.8183 189.921 21.2892 189.686 21.6816C189.451 22.074 189.137 22.3879 188.744 22.6234C188.352 22.8588 187.881 22.9373 187.41 22.9373C186.939 22.9373 186.468 22.8588 186.076 22.6234C185.683 22.3879 185.37 22.074 185.134 21.6816C184.899 21.2892 184.82 20.8183 184.82 20.3475C184.82 19.8766 184.899 19.4057 185.134 19.0133C185.37 18.6209 185.683 18.307 186.076 18.0715C186.468 17.8361 186.939 17.7576 187.41 17.7576C187.881 17.7576 188.352 17.8361 188.744 18.0715ZM188.509 22.231C188.823 22.074 189.058 21.7601 189.294 21.4462C189.451 21.1323 189.607 20.7399 189.607 20.3475C189.607 19.9551 189.529 19.5627 189.372 19.2487C189.215 18.9348 188.98 18.6994 188.587 18.4639C188.273 18.307 187.881 18.15 187.489 18.15C187.096 18.15 186.704 18.2285 186.39 18.4639C186.076 18.6209 185.84 18.9348 185.605 19.2487C185.448 19.5627 185.37 19.9551 185.37 20.3475C185.37 20.7399 185.448 21.1323 185.605 21.4462C185.762 21.7601 185.997 21.9955 186.39 22.231C186.704 22.3879 187.096 22.5449 187.489 22.5449C187.802 22.5449 188.195 22.3879 188.509 22.231ZM188.666 20.5044C188.587 20.6614 188.43 20.7399 188.273 20.8968L188.901 21.8386H188.116L187.567 20.9753H187.096V21.8386H186.311V18.9348H187.567C187.959 18.9348 188.273 19.0133 188.509 19.2487C188.744 19.4057 188.823 19.7196 188.823 20.0335C188.823 20.1905 188.744 20.3475 188.666 20.5044ZM187.489 20.4259C187.645 20.4259 187.802 20.4259 187.881 20.3475C187.959 20.269 188.038 20.1905 188.038 20.0335C188.038 19.8766 187.959 19.7981 187.881 19.7196C187.802 19.6411 187.645 19.5627 187.489 19.5627H187.018V20.4259H187.489V20.4259Z" fill="#2B2A2A"/>
<path d="M84.2089 47.5813H84.6797V47.4243C84.6797 47.2674 84.6797 47.1104 84.7582 46.9534C84.7582 46.7965 84.8367 46.718 84.9152 46.6395C84.9937 46.561 85.0721 46.4826 85.1506 46.4826C85.2291 46.4041 85.3861 46.4041 85.543 46.4041C85.7 46.4041 85.7785 46.4041 85.8569 46.4041C85.9354 46.4041 86.0139 46.4826 86.1709 46.4826L86.0924 46.875C86.0139 46.875 85.9354 46.7965 85.8569 46.7965C85.7785 46.7965 85.7 46.7965 85.6215 46.7965C85.543 46.7965 85.4645 46.7965 85.3861 46.875C85.3076 46.9534 85.3076 46.9534 85.2291 47.0319C85.2291 47.1104 85.1506 47.1889 85.1506 47.2674C85.1506 47.3458 85.1506 47.4243 85.1506 47.5813V47.6598H85.9354V48.0522H85.1506V50.5635H84.6797V48.0522H84.2089V47.5813V47.5813Z" fill="white"/>
<path d="M88.6822 50.2478C88.6038 50.3262 88.4468 50.4047 88.2114 50.4832C88.0544 50.5617 87.8189 50.5617 87.662 50.5617C87.4265 50.5617 87.2696 50.5617 87.1126 50.4832C86.9557 50.4047 86.7987 50.3262 86.7202 50.1693C86.6418 50.0123 86.5633 49.8554 86.4848 49.6984C86.4063 49.5414 86.4063 49.306 86.4063 49.0706C86.4063 48.5997 86.4848 48.2073 86.7202 47.9718C86.9557 47.7364 87.2696 47.5794 87.662 47.5794C87.8189 47.5794 87.8974 47.5794 88.0544 47.6579C88.2113 47.6579 88.2898 47.7364 88.3683 47.8149C88.4468 47.8934 88.5253 48.0503 88.6038 48.1288C88.6822 48.2073 88.6822 48.4427 88.6822 48.7566C88.6822 48.9136 88.6822 48.9921 88.6822 49.149H86.8772C86.8772 49.306 86.8772 49.463 86.9557 49.6199C86.9557 49.7769 87.0342 49.8554 87.1126 49.9338C87.1911 50.0123 87.2696 50.0908 87.4266 50.1693C87.505 50.2478 87.662 50.2478 87.819 50.2478C87.9759 50.2478 88.0544 50.2478 88.2114 50.1693C88.3683 50.0908 88.4468 50.0908 88.5253 50.0123L88.6822 50.2478ZM87.662 47.8934C87.4265 47.8934 87.2696 47.9718 87.1126 48.0503C86.9557 48.2073 86.8772 48.3642 86.8772 48.6782H88.2898C88.2898 48.3642 88.2114 48.2073 88.1329 48.0503C88.0544 47.8934 87.8974 47.8934 87.662 47.8934Z" fill="white"/>
<path d="M91.586 50.4829V48.8348C91.586 48.5209 91.5076 48.2855 91.4291 48.1285C91.3506 47.9716 91.1936 47.8931 90.9582 47.8931C90.7228 47.8931 90.5658 47.9716 90.4873 48.05C90.3304 48.1285 90.2519 48.2855 90.1734 48.4424V50.4044H89.7025V47.5007H90.0164L90.0949 47.8931C90.1734 47.7361 90.3304 47.6577 90.4873 47.5792C90.6443 47.5007 90.8012 47.4222 91.0367 47.4222C91.1936 47.4222 91.3506 47.4222 91.4291 47.5007C91.586 47.5007 91.6645 47.5792 91.743 47.6576C91.8215 47.7361 91.9 47.8931 91.9 48.05C91.9 48.207 91.9784 48.4424 91.9784 48.6779V50.4044H91.586V50.4829Z" fill="white"/>
<path d="M95.1961 50.2479C95.1176 50.3264 94.9607 50.4049 94.8037 50.4049C94.6468 50.4834 94.4898 50.4834 94.3328 50.4834C94.0974 50.4834 93.9404 50.4834 93.7835 50.4049C93.6265 50.3264 93.4695 50.2479 93.3911 50.091C93.3126 49.934 93.2341 49.777 93.1556 49.6201C93.0771 49.4631 93.0771 49.2277 93.0771 48.9922C93.0771 48.5214 93.1556 48.129 93.3911 47.8935C93.6265 47.6581 93.9404 47.5011 94.3328 47.5011C94.4898 47.5011 94.6468 47.5011 94.8037 47.5796C94.9607 47.5796 95.0391 47.6581 95.1176 47.7366L94.9607 48.0505C94.8822 47.972 94.8037 47.972 94.6467 47.8935C94.5683 47.8935 94.4113 47.8151 94.3328 47.8151C93.7835 47.8151 93.548 48.2074 93.548 48.9138C93.548 49.0707 93.548 49.2277 93.6265 49.3062C93.6265 49.4631 93.705 49.5416 93.7835 49.6986C93.8619 49.777 93.9404 49.8555 94.0189 49.934C94.0974 50.0125 94.2544 50.0125 94.4113 50.0125C94.5683 50.0125 94.6468 50.0125 94.8037 49.934C94.8822 49.8555 95.0391 49.8555 95.0391 49.777L95.1961 50.2479Z" fill="white"/>
<path d="M96.0593 46.6379C96.0593 46.5594 96.0593 46.4809 96.1378 46.4025C96.2163 46.324 96.2948 46.324 96.3732 46.324C96.4517 46.324 96.5302 46.324 96.6087 46.4025C96.6872 46.4809 96.6872 46.5594 96.6872 46.6379C96.6872 46.7164 96.6872 46.7949 96.6087 46.8733C96.5302 46.9518 96.4517 46.9518 96.3732 46.9518C96.2948 46.9518 96.2163 46.9518 96.1378 46.8733C96.1378 46.7949 96.0593 46.7949 96.0593 46.6379ZM96.2163 47.5797H96.6872V50.4834H96.2163V47.5797Z" fill="white"/>
<path d="M99.748 50.4829V48.8348C99.748 48.5209 99.6695 48.2855 99.591 48.1285C99.5125 47.9716 99.3556 47.8931 99.1201 47.8931C98.8847 47.8931 98.7277 47.9716 98.6492 48.05C98.4923 48.1285 98.4138 48.2855 98.3353 48.4424V50.4044H97.8644V47.5007H98.1784L98.2568 47.8931C98.3353 47.7361 98.4923 47.6577 98.6492 47.5792C98.8062 47.5007 98.9632 47.4222 99.1986 47.4222C99.3556 47.4222 99.5125 47.4222 99.591 47.5007C99.748 47.5007 99.8264 47.5792 99.9049 47.6576C99.9834 47.7361 100.062 47.8931 100.062 48.05C100.14 48.207 100.14 48.4424 100.14 48.6779V50.4044H99.748V50.4829Z" fill="white"/>
<path d="M103.515 50.5622C103.515 50.9546 103.436 51.19 103.201 51.4254C102.966 51.5824 102.73 51.6609 102.338 51.6609C102.102 51.6609 101.945 51.6609 101.788 51.5824C101.631 51.5824 101.553 51.5039 101.396 51.5039L101.553 51.1115C101.631 51.1115 101.71 51.19 101.867 51.19C102.024 51.19 102.102 51.2685 102.259 51.2685C102.416 51.2685 102.573 51.2685 102.652 51.19C102.73 51.19 102.809 51.1115 102.887 51.033C102.966 50.9546 102.966 50.8761 103.044 50.7976C103.044 50.7191 103.044 50.5622 103.044 50.4052V50.0913C102.966 50.1698 102.887 50.3267 102.73 50.3267C102.573 50.4052 102.495 50.4052 102.259 50.4052C101.867 50.4052 101.553 50.2482 101.396 50.0128C101.239 49.7774 101.161 49.385 101.161 48.8356C101.161 48.3647 101.239 47.9723 101.474 47.7369C101.71 47.5014 102.024 47.3445 102.495 47.3445C102.73 47.3445 102.887 47.3445 103.044 47.423C103.201 47.423 103.358 47.5014 103.436 47.5799V50.5622H103.515ZM102.416 50.0913C102.573 50.0913 102.73 50.0128 102.887 49.9343C102.966 49.8558 103.044 49.6989 103.123 49.4634V48.0508C102.966 47.9723 102.809 47.9723 102.573 47.9723C102.338 47.9723 102.102 48.0508 101.945 48.2078C101.788 48.3647 101.71 48.6786 101.71 49.071C101.71 49.228 101.71 49.385 101.788 49.5419C101.867 49.6989 101.867 49.7774 101.945 49.8558C102.024 49.9343 102.102 50.0128 102.181 50.0913C102.181 50.0913 102.259 50.0913 102.416 50.0913Z" fill="white"/>
<path d="M107.831 49.6984C107.831 49.6199 107.831 49.463 107.753 49.463C107.674 49.463 107.596 49.306 107.517 49.306C107.439 49.2275 107.282 49.2275 107.204 49.149C107.125 49.0706 106.968 49.0706 106.89 48.9921C106.811 48.9136 106.733 48.8351 106.654 48.7566C106.576 48.6782 106.576 48.5212 106.576 48.3642C106.576 48.0503 106.654 47.8934 106.811 47.7364C106.968 47.5794 107.203 47.5794 107.439 47.5794C107.674 47.5794 107.831 47.5794 107.988 47.6579C108.145 47.6579 108.224 47.7364 108.381 47.8149L108.302 48.2073C108.224 48.1288 108.145 48.1288 107.988 48.1288C107.831 48.1288 107.753 48.0503 107.596 48.0503C107.439 48.0503 107.282 48.0503 107.204 48.1288C107.125 48.2073 107.125 48.2858 107.125 48.4427C107.125 48.5212 107.125 48.5997 107.204 48.6782C107.282 48.7566 107.36 48.7566 107.439 48.8351C107.517 48.9136 107.674 48.9136 107.753 48.9921C107.91 49.0706 107.988 49.0706 108.067 49.149C108.145 49.2275 108.224 49.306 108.302 49.3845C108.381 49.463 108.381 49.6199 108.381 49.7769C108.381 49.9338 108.381 50.0123 108.302 50.0908C108.224 50.1693 108.224 50.3262 108.145 50.4047C108.067 50.4832 107.988 50.5617 107.831 50.5617C107.674 50.6402 107.596 50.6402 107.36 50.6402C107.125 50.6402 106.968 50.6402 106.811 50.5617C106.654 50.4832 106.497 50.4832 106.419 50.4047L106.576 50.0123C106.654 50.0908 106.811 50.0908 106.89 50.1693C106.968 50.2478 107.203 50.2478 107.282 50.2478C107.439 50.2478 107.596 50.2478 107.674 50.1693C107.753 50.0908 107.831 49.8554 107.831 49.6984Z" fill="white"/>
<path d="M110.107 49.4631L110.264 50.0125L110.421 49.4631L110.971 47.5796H111.441L110.578 50.1694C110.5 50.3264 110.421 50.5618 110.421 50.7188C110.343 50.8758 110.264 51.0327 110.186 51.1897C110.107 51.3466 110.029 51.4251 109.95 51.5036C109.872 51.5821 109.715 51.6606 109.636 51.6606C109.479 51.6606 109.401 51.6606 109.322 51.5821L109.401 51.1897C109.479 51.1897 109.479 51.1897 109.558 51.1897C109.636 51.1897 109.793 51.1112 109.872 51.0327C109.95 50.9543 110.029 50.7188 110.107 50.4049L108.93 47.5011H109.479L110.107 49.4631Z" fill="white"/>
<path d="M113.482 49.6984C113.482 49.6199 113.482 49.463 113.403 49.463C113.325 49.463 113.246 49.306 113.168 49.306C113.089 49.2275 112.933 49.2275 112.854 49.149C112.776 49.0706 112.619 49.0706 112.54 48.9921C112.462 48.9136 112.383 48.8351 112.305 48.7566C112.226 48.6782 112.226 48.5212 112.226 48.3642C112.226 48.0503 112.305 47.8934 112.462 47.7364C112.619 47.5794 112.854 47.5794 113.089 47.5794C113.325 47.5794 113.482 47.5794 113.639 47.6579C113.796 47.6579 113.874 47.7364 114.031 47.8149L113.796 48.0503C113.717 47.9718 113.639 47.9718 113.482 47.9718C113.325 47.9718 113.246 47.8934 113.089 47.8934C112.933 47.8934 112.776 47.8934 112.697 47.9718C112.619 48.0503 112.619 48.1288 112.619 48.2858C112.619 48.3642 112.619 48.4427 112.697 48.5212C112.776 48.5997 112.854 48.5997 112.933 48.6782C113.011 48.7566 113.168 48.7566 113.246 48.8351C113.403 48.9136 113.482 48.9136 113.56 48.9921C113.639 49.0706 113.717 49.149 113.796 49.2275C113.874 49.306 113.874 49.463 113.874 49.6199C113.874 49.7769 113.874 49.8554 113.796 49.9338C113.717 50.0123 113.717 50.1693 113.639 50.2478C113.56 50.3262 113.482 50.4047 113.325 50.4047C113.168 50.4832 113.089 50.4832 112.854 50.4832C112.619 50.4832 112.462 50.4832 112.305 50.4047C112.148 50.3262 111.991 50.3262 111.912 50.2478L112.069 49.8554C112.148 49.9338 112.305 49.9338 112.383 50.0123C112.462 50.0908 112.697 50.0908 112.776 50.0908C112.933 50.0908 113.089 50.0908 113.168 50.0123C113.246 49.9338 113.482 49.8554 113.482 49.6984Z" fill="white"/>
<path d="M114.581 47.5803H115.052V47.031L115.522 46.874V47.5803H116.307V47.9727H115.522V49.6208C115.522 49.8562 115.522 49.9347 115.601 50.0132C115.679 50.0917 115.758 50.1702 115.836 50.1702C115.915 50.1702 115.993 50.1702 116.072 50.1702C116.15 50.1702 116.229 50.0917 116.307 50.0917L116.386 50.4841C116.307 50.5625 116.15 50.5626 116.072 50.641C115.915 50.641 115.836 50.7195 115.679 50.7195C115.444 50.7195 115.287 50.641 115.208 50.4841C115.13 50.3271 115.052 50.0917 115.052 49.7778V48.0512H114.581V47.5803Z" fill="white"/>
<path d="M119.211 50.2478C119.132 50.3262 118.976 50.4047 118.74 50.4832C118.583 50.5617 118.348 50.5617 118.191 50.5617C117.955 50.5617 117.798 50.5617 117.641 50.4832C117.484 50.4047 117.327 50.3262 117.249 50.1693C117.17 50.0123 117.092 49.8554 117.014 49.6984C116.935 49.5414 116.935 49.306 116.935 49.0706C116.935 48.5997 117.014 48.2073 117.249 47.9718C117.484 47.7364 117.798 47.5794 118.191 47.5794C118.348 47.5794 118.426 47.5794 118.583 47.6579C118.74 47.7364 118.819 47.7364 118.897 47.8149C118.976 47.8934 119.054 48.0503 119.132 48.1288C119.211 48.2858 119.211 48.4427 119.211 48.7566C119.211 48.9136 119.211 48.9921 119.211 49.149H117.406C117.406 49.306 117.406 49.463 117.484 49.6199C117.484 49.7769 117.563 49.8554 117.641 49.9338C117.72 50.0123 117.798 50.0908 117.955 50.1693C118.034 50.2478 118.191 50.2478 118.348 50.2478C118.505 50.2478 118.583 50.2478 118.74 50.1693C118.897 50.0908 118.976 50.0908 119.054 50.0123L119.211 50.2478ZM118.191 47.8934C117.955 47.8934 117.798 47.9718 117.641 48.0503C117.484 48.2073 117.406 48.3642 117.406 48.6782H118.819C118.819 48.3642 118.74 48.2073 118.662 48.0503C118.583 47.9718 118.426 47.8934 118.191 47.8934Z" fill="white"/>
<path d="M122.036 50.4837V48.8356C122.036 48.6786 122.036 48.5217 122.036 48.4432C122.036 48.3647 122.036 48.2078 121.958 48.1293C121.879 48.0508 121.879 47.9723 121.801 47.9723C121.722 47.9723 121.644 47.8938 121.487 47.8938C121.33 47.8938 121.173 47.9723 121.016 48.0508C120.938 48.1293 120.781 48.2862 120.781 48.4432V50.4052H120.31V47.5014H120.624L120.702 47.8938C120.781 47.7369 120.938 47.6584 121.094 47.5799C121.251 47.5014 121.408 47.423 121.644 47.423C121.801 47.423 121.958 47.423 122.115 47.5014C122.193 47.5799 122.35 47.7369 122.35 47.8938C122.429 47.7369 122.586 47.6584 122.743 47.5014C122.9 47.3445 123.056 47.3445 123.292 47.3445C123.449 47.3445 123.606 47.3445 123.684 47.423C123.763 47.423 123.92 47.5014 123.998 47.5799C124.077 47.6584 124.155 47.8154 124.155 47.9723C124.155 48.1293 124.234 48.3647 124.234 48.6002V50.3267H123.763V48.6002C123.763 48.4432 123.763 48.3647 123.763 48.2078C123.763 48.1293 123.684 48.0508 123.684 47.9723C123.606 47.8938 123.606 47.8154 123.527 47.8154C123.449 47.8154 123.37 47.7369 123.213 47.7369C123.056 47.7369 122.9 47.8154 122.743 47.8938C122.586 47.9723 122.586 48.1293 122.507 48.3647V50.3267H122.036V50.4837Z" fill="white"/>
<path d="M126.51 49.6984C126.51 49.6199 126.51 49.463 126.431 49.463C126.353 49.463 126.274 49.306 126.196 49.306C126.117 49.2275 125.96 49.2275 125.882 49.149C125.803 49.0706 125.646 49.0706 125.568 48.9921C125.489 48.9136 125.411 48.8351 125.332 48.7566C125.254 48.6782 125.254 48.5212 125.254 48.3642C125.254 48.0503 125.332 47.8934 125.489 47.7364C125.646 47.5794 125.882 47.5794 126.117 47.5794C126.353 47.5794 126.51 47.5794 126.667 47.6579C126.823 47.6579 126.902 47.7364 127.059 47.8149L126.98 48.2073C126.902 48.1288 126.823 48.1288 126.667 48.1288C126.51 48.1288 126.431 48.0503 126.274 48.0503C126.117 48.0503 125.96 48.0503 125.882 48.1288C125.803 48.2073 125.803 48.2858 125.803 48.4427C125.803 48.5212 125.803 48.5997 125.882 48.6782C125.96 48.7566 126.039 48.7566 126.117 48.8351C126.196 48.9136 126.353 48.9136 126.431 48.9921C126.588 49.0706 126.667 49.0706 126.745 49.149C126.823 49.2275 126.902 49.306 126.98 49.3845C127.059 49.463 127.059 49.6199 127.059 49.7769C127.059 49.9338 127.059 50.0123 126.98 50.0908C126.902 50.1693 126.902 50.3262 126.823 50.4047C126.745 50.4832 126.667 50.5617 126.51 50.5617C126.353 50.6402 126.274 50.6402 126.039 50.6402C125.803 50.6402 125.646 50.6402 125.489 50.5617C125.332 50.4832 125.175 50.4832 125.097 50.4047L125.254 50.0123C125.332 50.0908 125.489 50.0908 125.568 50.1693C125.646 50.2478 125.882 50.2478 125.96 50.2478C126.117 50.2478 126.274 50.2478 126.353 50.1693C126.431 50.0908 126.51 49.8554 126.51 49.6984Z" fill="white"/>
<path d="M129.727 47.7361C129.884 47.6576 130.041 47.5792 130.198 47.5007C130.355 47.4222 130.591 47.4222 130.826 47.4222C131.061 47.4222 131.218 47.4222 131.297 47.5007C131.454 47.5792 131.532 47.6576 131.611 47.7361C131.689 47.8146 131.689 47.8931 131.768 48.05C131.768 48.1285 131.768 48.2855 131.768 48.364C131.768 48.5994 131.768 48.8348 131.768 49.0703C131.768 49.3057 131.768 49.4627 131.768 49.6981C131.768 49.8551 131.768 50.012 131.768 50.0905C131.768 50.2475 131.768 50.326 131.846 50.4829H131.532L131.375 50.0905C131.375 50.169 131.297 50.169 131.218 50.2475C131.14 50.326 131.14 50.326 131.061 50.4044C130.983 50.4829 130.904 50.4829 130.826 50.4829C130.747 50.4829 130.591 50.5614 130.512 50.5614C130.355 50.5614 130.277 50.5614 130.198 50.4829C130.12 50.4044 129.963 50.4044 129.963 50.326C129.963 50.2475 129.806 50.169 129.806 50.0905C129.727 50.012 129.727 49.8551 129.727 49.7766C129.727 49.6196 129.727 49.4627 129.806 49.3842C129.884 49.3057 129.963 49.1488 130.12 49.1488C130.277 49.0703 130.355 49.0703 130.591 48.9918C130.747 48.9918 130.983 48.9133 131.14 48.9133C131.218 48.9133 131.218 48.9133 131.297 48.9133C131.375 48.9133 131.375 48.9133 131.454 48.9133C131.454 48.8348 131.454 48.6779 131.454 48.5994C131.454 48.364 131.375 48.207 131.297 48.1285C131.218 48.05 131.061 47.9716 130.826 47.9716C130.747 47.9716 130.669 47.9716 130.591 47.9716C130.512 47.9716 130.434 47.9716 130.355 48.05C130.277 48.05 130.198 48.1285 130.12 48.1285C130.041 48.1285 129.963 48.207 129.963 48.207L129.727 47.7361ZM130.591 50.0905C130.669 50.0905 130.826 50.0905 130.904 50.012C130.983 50.012 131.061 49.9336 131.14 49.9336C131.218 49.8551 131.218 49.8551 131.297 49.7766C131.375 49.6981 131.375 49.6981 131.375 49.6196V49.1488C131.297 49.1488 131.297 49.1488 131.218 49.1488C131.14 49.1488 131.14 49.1488 131.061 49.1488C130.904 49.1488 130.826 49.1488 130.747 49.1488C130.669 49.1488 130.512 49.1488 130.434 49.2272C130.355 49.2272 130.277 49.3057 130.198 49.3842C130.12 49.4627 130.12 49.5412 130.12 49.6196C130.12 49.7766 130.198 49.8551 130.277 49.9336C130.277 50.0121 130.434 50.0905 130.591 50.0905Z" fill="white"/>
<path d="M134.828 50.4829V48.8348C134.828 48.5209 134.75 48.2855 134.672 48.1285C134.593 47.9716 134.436 47.8931 134.201 47.8931C133.965 47.8931 133.808 47.9716 133.73 48.05C133.573 48.1285 133.494 48.2855 133.416 48.4424V50.4044H132.945V47.5007H133.259L133.337 47.8931C133.416 47.7361 133.573 47.6577 133.73 47.5792C133.887 47.5007 134.044 47.4222 134.279 47.4222C134.436 47.4222 134.593 47.4222 134.672 47.5007C134.828 47.5007 134.907 47.5792 134.985 47.6576C135.064 47.7361 135.142 47.8931 135.142 48.05C135.221 48.207 135.221 48.4424 135.221 48.6779V50.4044H134.828V50.4829Z" fill="white"/>
<path d="M138.595 49.4636C138.595 49.699 138.595 49.856 138.595 50.013C138.595 50.1699 138.595 50.3269 138.674 50.4838H138.36L138.282 50.0914C138.203 50.2484 138.125 50.3269 137.968 50.4054C137.811 50.4838 137.654 50.5623 137.418 50.5623C137.026 50.5623 136.712 50.4054 136.555 50.1699C136.398 49.9345 136.241 49.5421 136.241 48.9927C136.241 48.5219 136.32 48.1295 136.555 47.894C136.79 47.6586 137.104 47.5016 137.497 47.5016C137.654 47.5016 137.732 47.5016 137.811 47.5016C137.889 47.5016 137.968 47.5801 138.046 47.5801V46.4029H138.517V49.4636H138.595ZM137.418 50.0914C137.575 50.0914 137.732 50.013 137.889 49.9345C137.968 49.856 138.046 49.699 138.125 49.4636V48.051C138.046 47.9725 137.968 47.9725 137.889 47.9725C137.811 47.9725 137.654 47.9725 137.575 47.9725C137.34 47.9725 137.104 48.051 136.947 48.2079C136.79 48.3649 136.712 48.6788 136.712 49.0712C136.712 49.2282 136.712 49.3851 136.712 49.5421C136.712 49.6991 136.79 49.7775 136.869 49.856C136.947 49.9345 137.026 50.013 137.104 50.0914C137.183 50.0914 137.261 50.0914 137.418 50.0914Z" fill="white"/>
<path d="M142.833 49.6984C142.833 49.6199 142.833 49.463 142.755 49.463C142.676 49.463 142.598 49.306 142.52 49.306C142.441 49.2275 142.284 49.2275 142.206 49.149C142.127 49.0706 141.97 49.0706 141.892 48.9921C141.813 48.9136 141.735 48.8351 141.656 48.7566C141.578 48.6782 141.578 48.5212 141.578 48.3642C141.578 48.0503 141.656 47.8934 141.813 47.7364C141.97 47.5794 142.206 47.5794 142.441 47.5794C142.676 47.5794 142.833 47.5794 142.99 47.6579C143.147 47.6579 143.226 47.7364 143.383 47.8149L143.304 48.2073C143.226 48.1288 143.147 48.1288 142.99 48.1288C142.833 48.1288 142.755 48.0503 142.598 48.0503C142.441 48.0503 142.284 48.0503 142.206 48.1288C142.127 48.2073 142.127 48.2858 142.127 48.4427C142.127 48.5212 142.127 48.5997 142.206 48.6782C142.284 48.7566 142.363 48.7566 142.441 48.8351C142.519 48.9136 142.676 48.9136 142.755 48.9921C142.912 49.0706 142.99 49.0706 143.069 49.149C143.147 49.2275 143.226 49.306 143.304 49.3845C143.383 49.463 143.383 49.6199 143.383 49.7769C143.383 49.9338 143.383 50.0123 143.304 50.0908C143.226 50.1693 143.226 50.3262 143.147 50.4047C143.069 50.4832 142.99 50.5617 142.833 50.5617C142.676 50.6402 142.598 50.6402 142.363 50.6402C142.127 50.6402 141.97 50.6402 141.813 50.5617C141.656 50.4832 141.499 50.4832 141.421 50.4047L141.578 50.0123C141.656 50.0908 141.813 50.0908 141.892 50.1693C141.97 50.2478 142.206 50.2478 142.284 50.2478C142.441 50.2478 142.598 50.2478 142.676 50.1693C142.755 50.0908 142.833 49.8554 142.833 49.6984Z" fill="white"/>
<path d="M144.246 47.7361C144.403 47.6576 144.56 47.5792 144.717 47.5007C144.874 47.4222 145.109 47.4222 145.345 47.4222C145.58 47.4222 145.737 47.4222 145.816 47.5007C145.973 47.5792 146.051 47.6576 146.13 47.7361C146.208 47.8146 146.208 47.8931 146.286 48.05C146.286 48.1285 146.286 48.2855 146.286 48.364C146.286 48.5994 146.286 48.8348 146.286 49.0703C146.286 49.3057 146.286 49.4627 146.286 49.6981C146.286 49.8551 146.286 50.012 146.286 50.0905C146.286 50.2475 146.287 50.326 146.365 50.4829H145.973L145.816 50.0905C145.816 50.169 145.737 50.169 145.659 50.2475C145.58 50.326 145.58 50.326 145.502 50.4044C145.423 50.4829 145.345 50.4829 145.266 50.4829C145.188 50.4829 145.031 50.5614 144.952 50.5614C144.795 50.5614 144.717 50.5614 144.638 50.4829C144.56 50.4044 144.403 50.4044 144.403 50.326C144.403 50.2475 144.246 50.169 144.246 50.0905C144.168 50.012 144.168 49.8551 144.168 49.7766C144.168 49.6196 144.168 49.4627 144.246 49.3842C144.325 49.3057 144.403 49.1488 144.56 49.1488C144.717 49.0703 144.795 49.0703 145.031 48.9918C145.188 48.9918 145.423 48.9133 145.58 48.9133C145.659 48.9133 145.659 48.9133 145.737 48.9133C145.816 48.9133 145.816 48.9133 145.894 48.9133C145.894 48.8348 145.894 48.6779 145.894 48.5994C145.894 48.364 145.816 48.207 145.737 48.1285C145.659 48.05 145.502 47.9716 145.266 47.9716C145.188 47.9716 145.109 47.9716 145.031 47.9716C144.952 47.9716 144.874 47.9716 144.795 48.05C144.717 48.05 144.638 48.1285 144.56 48.1285C144.481 48.1285 144.403 48.207 144.403 48.207L144.246 47.7361ZM145.031 50.0905C145.109 50.0905 145.266 50.0905 145.345 50.012C145.423 50.012 145.502 49.9336 145.58 49.9336C145.659 49.8551 145.659 49.8551 145.737 49.7766C145.816 49.6981 145.816 49.6981 145.816 49.6196V49.1488C145.737 49.1488 145.737 49.1488 145.659 49.1488C145.58 49.1488 145.58 49.1488 145.502 49.1488C145.345 49.1488 145.266 49.1488 145.188 49.1488C145.109 49.1488 144.952 49.1488 144.874 49.2272C144.795 49.2272 144.717 49.3057 144.638 49.3842C144.56 49.4627 144.56 49.5412 144.56 49.6196C144.56 49.7766 144.638 49.8551 144.717 49.9336C144.795 50.0121 144.952 50.0905 145.031 50.0905Z" fill="white"/>
<path d="M147.15 47.5801H147.621V47.4231C147.621 47.2662 147.621 47.1092 147.699 46.9523C147.699 46.7953 147.778 46.7168 147.856 46.6383C147.935 46.5599 148.013 46.4814 148.092 46.4814C148.17 46.4814 148.327 46.4029 148.484 46.4029C148.641 46.4029 148.719 46.4029 148.798 46.4029C148.876 46.4029 148.955 46.4814 149.112 46.4814L149.033 46.8738C148.955 46.8738 148.876 46.7953 148.798 46.7953C148.719 46.7953 148.641 46.7953 148.562 46.7953C148.484 46.7953 148.405 46.7953 148.327 46.8738C148.248 46.8738 148.248 46.9523 148.17 47.0307C148.17 47.1092 148.092 47.1877 148.092 47.2662C148.092 47.3447 148.092 47.4231 148.092 47.5801V47.6586H148.876V48.051H148.092V50.5623H147.542V48.051H147.071V47.5801H147.15Z" fill="white"/>
<path d="M151.623 50.2478C151.545 50.3262 151.388 50.4047 151.152 50.4832C150.995 50.5617 150.76 50.5617 150.603 50.5617C150.367 50.5617 150.211 50.5617 150.054 50.4832C149.897 50.4047 149.74 50.3262 149.661 50.1693C149.583 50.0123 149.504 49.8554 149.426 49.6984C149.347 49.5414 149.347 49.306 149.347 49.0706C149.347 48.5997 149.426 48.2073 149.661 47.9718C149.897 47.7364 150.211 47.5794 150.603 47.5794C150.76 47.5794 150.838 47.5794 150.995 47.6579C151.152 47.7364 151.231 47.7364 151.309 47.8149C151.388 47.8934 151.466 48.0503 151.545 48.1288C151.623 48.2858 151.623 48.4427 151.623 48.7566C151.623 48.9136 151.623 48.9921 151.623 49.149H149.818C149.818 49.306 149.818 49.463 149.897 49.6199C149.897 49.7769 149.975 49.8554 150.054 49.9338C150.132 50.0123 150.211 50.0908 150.367 50.1693C150.446 50.2478 150.603 50.2478 150.76 50.2478C150.917 50.2478 150.995 50.2478 151.152 50.1693C151.309 50.0908 151.388 50.0908 151.466 50.0123L151.623 50.2478ZM150.603 47.8934C150.367 47.8934 150.211 47.9718 150.054 48.0503C149.897 48.2073 149.818 48.3642 149.818 48.6782H151.231C151.231 48.3642 151.152 48.2073 151.074 48.0503C150.995 47.9718 150.838 47.8934 150.603 47.8934Z" fill="white"/>
<path d="M152.329 47.5803H152.8V47.031L153.271 46.874V47.5803H154.056V47.9727H153.271V49.6208C153.271 49.8562 153.271 49.9347 153.35 50.0132C153.428 50.0917 153.507 50.1702 153.585 50.1702C153.664 50.1702 153.742 50.1702 153.821 50.1702C153.899 50.1702 153.978 50.0917 154.056 50.0917L154.134 50.4841C154.056 50.5625 153.899 50.5626 153.821 50.641C153.664 50.641 153.585 50.7195 153.428 50.7195C153.193 50.7195 153.036 50.641 152.957 50.4841C152.879 50.3271 152.8 50.0917 152.8 49.7778V48.0512H152.329V47.5803V47.5803Z" fill="white"/>
<path d="M155.783 49.4631L155.94 50.0125L156.097 49.4631L156.646 47.5796H157.117L156.253 50.1694C156.175 50.3264 156.097 50.5618 156.097 50.7188C156.018 50.8758 155.94 51.0327 155.861 51.1897C155.783 51.3466 155.704 51.4251 155.626 51.5036C155.547 51.5821 155.39 51.6606 155.312 51.6606C155.155 51.6606 155.076 51.6606 154.998 51.5821L155.076 51.1897C155.155 51.1897 155.155 51.1897 155.233 51.1897C155.312 51.1897 155.469 51.1112 155.547 51.0327C155.626 50.9543 155.704 50.7188 155.783 50.4049L154.605 47.5011H155.155L155.783 49.4631Z" fill="white"/>
<path d="M161.59 50.2478C161.512 50.3262 161.355 50.4047 161.119 50.4832C160.962 50.5617 160.727 50.5617 160.57 50.5617C160.334 50.5617 160.177 50.5617 160.021 50.4832C159.864 50.4047 159.707 50.3262 159.628 50.1693C159.55 50.0123 159.471 49.8554 159.393 49.6984C159.314 49.5414 159.314 49.306 159.314 49.0706C159.314 48.5997 159.393 48.2073 159.628 47.9718C159.864 47.7364 160.177 47.5794 160.57 47.5794C160.727 47.5794 160.805 47.5794 160.962 47.6579C161.119 47.7364 161.198 47.7364 161.276 47.8149C161.355 47.8934 161.433 48.0503 161.512 48.1288C161.59 48.2858 161.59 48.4427 161.59 48.7566C161.59 48.9136 161.59 48.9921 161.59 49.149H159.785C159.785 49.306 159.785 49.463 159.864 49.6199C159.864 49.7769 159.942 49.8554 160.021 49.9338C160.099 50.0123 160.177 50.0908 160.334 50.1693C160.413 50.2478 160.57 50.2478 160.727 50.2478C160.884 50.2478 160.962 50.2478 161.119 50.1693C161.276 50.0908 161.355 50.0908 161.433 50.0123L161.59 50.2478ZM160.648 47.8934C160.413 47.8934 160.256 47.9718 160.099 48.0503C159.942 48.2073 159.864 48.3642 159.864 48.6782H161.276C161.276 48.3642 161.198 48.2073 161.119 48.0503C160.962 47.9718 160.805 47.8934 160.648 47.8934Z" fill="white"/>
<path d="M164.886 51.5824H164.415V50.0913C164.337 50.1698 164.258 50.3267 164.101 50.3267C164.023 50.4052 163.866 50.4052 163.631 50.4052C163.238 50.4052 163.003 50.2482 162.767 50.0128C162.61 49.7774 162.453 49.385 162.453 48.8356C162.453 48.3647 162.61 47.9723 162.846 47.7369C163.081 47.5014 163.395 47.3445 163.866 47.3445C164.101 47.3445 164.258 47.3445 164.415 47.423C164.572 47.423 164.729 47.5014 164.808 47.5799V51.5824H164.886ZM163.709 50.0913C163.866 50.0913 164.023 50.0128 164.18 49.9343C164.337 49.8558 164.337 49.6989 164.415 49.4634V48.0508C164.258 47.9723 164.101 47.9723 163.866 47.9723C163.631 47.9723 163.395 48.0508 163.238 48.2078C163.081 48.3647 163.003 48.6786 163.003 49.071C163.003 49.228 163.003 49.385 163.081 49.5419C163.081 49.6989 163.16 49.7774 163.238 49.8558C163.317 49.9343 163.395 50.0128 163.474 50.0913C163.474 50.0913 163.552 50.0913 163.709 50.0913Z" fill="white"/>
<path d="M166.456 47.5796V49.2277C166.456 49.3846 166.456 49.5416 166.456 49.6201C166.456 49.6986 166.534 49.8555 166.534 49.934C166.534 50.0125 166.613 50.091 166.691 50.091C166.77 50.091 166.848 50.1694 167.005 50.1694C167.084 50.1694 167.162 50.1694 167.319 50.091C167.398 50.091 167.476 50.0125 167.555 49.934C167.633 49.8555 167.712 49.777 167.712 49.6986C167.79 49.6201 167.79 49.5416 167.79 49.4631V47.5011H168.261V49.6201C168.261 49.777 168.261 49.934 168.261 50.091C168.261 50.2479 168.261 50.4049 168.339 50.4834H168.025L167.947 50.0125C167.869 50.1694 167.712 50.3264 167.555 50.4049C167.398 50.4834 167.241 50.5618 167.005 50.5618C166.848 50.5618 166.691 50.5618 166.613 50.4834C166.534 50.4834 166.377 50.4049 166.299 50.3264C166.22 50.2479 166.142 50.091 166.142 49.934C166.063 49.777 166.063 49.5416 166.063 49.3062V47.5796H166.456V47.5796Z" fill="white"/>
<path d="M169.438 46.6379C169.438 46.5594 169.438 46.4809 169.517 46.4025C169.595 46.324 169.674 46.324 169.752 46.324C169.831 46.324 169.909 46.324 169.987 46.4025C170.066 46.4809 170.066 46.5594 170.066 46.6379C170.066 46.7164 170.066 46.7949 169.987 46.8733C169.909 46.9518 169.831 46.9518 169.752 46.9518C169.674 46.9518 169.595 46.9518 169.517 46.8733C169.438 46.7949 169.438 46.7949 169.438 46.6379ZM169.517 47.5797H169.987V50.4834H169.517V47.5797Z" fill="white"/>
<path d="M171.243 47.5796H171.557L171.636 47.8935C171.714 47.7366 171.871 47.6581 171.95 47.5796C172.107 47.5011 172.263 47.5011 172.42 47.5011C172.813 47.5011 173.127 47.5796 173.284 47.8151C173.441 48.0505 173.598 48.4429 173.598 48.9138C173.598 49.1492 173.598 49.3846 173.519 49.5416C173.441 49.6986 173.362 49.934 173.284 50.0125C173.205 50.1694 173.048 50.2479 172.891 50.3264C172.734 50.4049 172.577 50.4049 172.342 50.4049C172.185 50.4049 172.107 50.4049 172.028 50.4049C171.95 50.4049 171.871 50.3264 171.793 50.3264V51.5036H171.322V47.5796H171.243ZM172.42 47.8935C172.263 47.8935 172.107 47.972 171.95 48.0505C171.871 48.129 171.793 48.2859 171.714 48.5214V49.934C171.793 50.0125 171.871 50.0125 171.95 50.091C172.028 50.1694 172.185 50.1694 172.263 50.1694C172.499 50.1694 172.734 50.091 172.891 49.8555C173.048 49.6201 173.127 49.3846 173.127 48.9922C173.127 48.8353 173.127 48.6783 173.048 48.5214C173.048 48.3644 172.97 48.2859 172.891 48.2074C172.813 48.129 172.734 48.0505 172.656 47.972C172.656 47.8935 172.577 47.8935 172.42 47.8935Z" fill="white"/>
<path d="M176.344 50.4837V48.8356C176.344 48.6786 176.344 48.5217 176.344 48.4432C176.344 48.3647 176.344 48.2078 176.266 48.1293C176.266 48.0508 176.187 47.9723 176.109 47.9723C176.03 47.9723 175.952 47.8938 175.795 47.8938C175.638 47.8938 175.481 47.9723 175.324 48.0508C175.246 48.1293 175.089 48.2862 175.089 48.4432V50.4052H174.618V47.5014H174.932L175.01 47.8938C175.089 47.7369 175.246 47.6584 175.403 47.5799C175.56 47.5014 175.717 47.423 175.952 47.423C176.109 47.423 176.266 47.423 176.423 47.5014C176.501 47.5799 176.658 47.7369 176.658 47.8938C176.737 47.7369 176.894 47.6584 177.051 47.5014C177.208 47.3445 177.365 47.3445 177.6 47.3445C177.757 47.3445 177.914 47.3445 177.992 47.423C178.071 47.423 178.228 47.5014 178.306 47.5799C178.385 47.6584 178.463 47.8154 178.463 47.9723C178.463 48.1293 178.542 48.3647 178.542 48.6002V50.3267H178.071V48.6002C178.071 48.4432 178.071 48.3647 178.071 48.2078C178.071 48.1293 177.992 48.0508 177.992 47.9723C177.914 47.8938 177.914 47.8154 177.836 47.8154C177.757 47.8154 177.679 47.7369 177.522 47.7369C177.365 47.7369 177.208 47.8154 177.051 47.8938C176.894 47.9723 176.894 48.1293 176.815 48.3647V50.3267H176.344V50.4837Z" fill="white"/>
<path d="M181.681 50.2478C181.603 50.3262 181.446 50.4047 181.21 50.4832C181.053 50.5617 180.818 50.5617 180.661 50.5617C180.425 50.5617 180.268 50.5617 180.111 50.4832C179.954 50.4047 179.797 50.3262 179.719 50.1693C179.641 50.0123 179.562 49.8554 179.484 49.6984C179.405 49.5414 179.405 49.306 179.405 49.0706C179.405 48.5997 179.484 48.2073 179.719 47.9718C179.954 47.7364 180.268 47.5794 180.661 47.5794C180.818 47.5794 180.896 47.5794 181.053 47.6579C181.21 47.7364 181.289 47.7364 181.367 47.8149C181.446 47.8934 181.524 48.0503 181.603 48.1288C181.681 48.2858 181.681 48.4427 181.681 48.7566C181.681 48.9136 181.681 48.9921 181.681 49.149H179.876C179.876 49.306 179.876 49.463 179.954 49.6199C179.954 49.7769 180.033 49.8554 180.111 49.9338C180.19 50.0123 180.268 50.0908 180.425 50.1693C180.504 50.2478 180.661 50.2478 180.818 50.2478C180.975 50.2478 181.053 50.2478 181.21 50.1693C181.367 50.0908 181.446 50.0908 181.524 50.0123L181.681 50.2478ZM180.739 47.8934C180.504 47.8934 180.347 47.9718 180.19 48.0503C180.033 48.2073 179.954 48.3642 179.954 48.6782H181.367C181.367 48.3642 181.289 48.2073 181.21 48.0503C181.053 47.9718 180.896 47.8934 180.739 47.8934Z" fill="white"/>
<path d="M184.663 50.4829V48.8348C184.663 48.5209 184.585 48.2855 184.506 48.1285C184.428 47.9716 184.271 47.8931 184.035 47.8931C183.8 47.8931 183.643 47.9716 183.565 48.05C183.408 48.1285 183.329 48.2855 183.251 48.4424V50.4044H182.858V47.5007H183.172L183.251 47.8931C183.329 47.7361 183.486 47.6577 183.643 47.5792C183.8 47.5007 183.957 47.4222 184.192 47.4222C184.349 47.4222 184.506 47.4222 184.585 47.5007C184.742 47.5007 184.82 47.5792 184.899 47.6576C184.977 47.7361 185.056 47.8931 185.056 48.05C185.134 48.207 185.134 48.4424 185.134 48.6779V50.4044H184.663V50.4829Z" fill="white"/>
<path d="M185.919 47.5803H186.39V47.031L186.861 46.874V47.5803H187.645V47.9727H186.861V49.6208C186.861 49.8562 186.861 49.9347 186.939 50.0132C187.018 50.0917 187.096 50.1702 187.175 50.1702C187.253 50.1702 187.332 50.1702 187.41 50.1702C187.488 50.1702 187.567 50.0917 187.645 50.0917L187.724 50.4841C187.645 50.5625 187.488 50.5626 187.41 50.641C187.253 50.641 187.175 50.7195 187.018 50.7195C186.782 50.7195 186.625 50.641 186.547 50.4841C186.468 50.3271 186.39 50.0917 186.39 49.7778V48.0512H185.919V47.5803V47.5803Z" fill="white"/>
<path fill-rule="evenodd" clip-rule="evenodd" d="M0.0783691 32.1983L25.2704 33.8463L49.0499 2.37589L22.6021 4.18092L0.0783691 32.1983Z" fill="#8EC587"/>
<path fill-rule="evenodd" clip-rule="evenodd" d="M49.1283 2.37589L25.2704 33.8463L49.1283 62.4131L69.69 31.9628L49.1283 2.37589Z" fill="#CDE3A8"/>
<path fill-rule="evenodd" clip-rule="evenodd" d="M-0.00012207 32.1977L25.3489 33.6888L49.1283 62.4125L22.916 58.6455L-0.00012207 32.1977Z" fill="#699566"/>
<path fill-rule="evenodd" clip-rule="evenodd" d="M50.1485 40.5951L44.2626 33.1395L50.384 24.7422L56.0345 32.5902L50.1485 40.5951ZM41.1234 52.995L48.9713 42.5571L42.7714 34.7091C42.7714 34.7091 36.5715 43.6559 35.2374 45.0685C33.9032 46.4811 31.7842 46.4811 31.7842 46.4811L25.6628 45.8533L31.2349 52.5241C31.2349 52.5241 38.3766 53.6228 39.0829 53.7798C39.7107 53.9367 41.1234 52.995 41.1234 52.995ZM22.916 51.4254L17.2654 44.9115L22.5236 45.3824L28.0957 52.0532L22.916 51.4254ZM7.61241 33.5319C6.98457 32.5902 7.69089 31.6484 7.69089 31.6484L15.068 22.0739H20.8755C20.8755 22.0739 15.5389 29.0586 14.0478 30.9421C12.4782 32.9826 14.1262 35.2585 14.1262 35.2585L20.6401 43.3419L15.3034 42.6356C15.3819 42.6356 8.24025 34.4737 7.61241 33.5319ZM22.6806 12.6563L28.3311 12.4993L22.4451 20.1119H16.7161L22.6806 12.6563ZM41.5158 33.218C41.5158 33.218 34.9234 42.5571 33.8247 43.4989C32.726 44.4407 31.5488 44.2837 31.5488 44.2837L23.6223 43.4204C23.6223 43.4204 16.7161 35.0231 16.0098 34.0813C15.1465 32.8256 15.8528 31.9623 15.8528 31.9623L23.4654 21.9954C23.4654 21.9954 31.5488 22.1523 31.7058 22.1523C32.883 22.1523 34.0602 23.408 34.0602 23.408L41.5158 33.218ZM30.8425 12.5778L25.035 20.1903C25.035 20.1903 31.3134 20.1903 31.4703 20.1903C33.9032 19.8764 35.3943 21.6815 35.3943 21.6815L43.0854 31.413L49.0498 23.0156C49.0498 23.0156 42.6145 14.6968 42.0651 13.755C41.2018 12.2639 39.4753 12.1854 39.4753 12.1854L30.8425 12.5778ZM58.5459 32.3547L65.1382 22.9371C65.1382 22.9371 66.2369 20.6612 64.0395 19.9549C63.8825 19.9549 61.4497 20.1903 61.4497 20.1903L62.4699 21.6815C62.4699 21.6815 63.0977 21.603 63.0977 21.6815C63.0977 21.7599 62.9408 22.1523 62.8623 22.2308L57.1333 30.5497L51.7181 22.9371L58.6244 13.2841C58.6244 13.2841 59.4092 11.793 58.6244 11.0082C57.9965 10.3804 57.6041 10.3804 57.0548 10.3804C56.4269 10.3804 54.7789 10.5373 54.7789 10.5373L56.0345 12.3424C56.113 12.3424 56.6624 12.2639 56.6624 12.3424C56.6624 12.4208 56.5054 12.8132 56.4269 12.8917L50.3055 21.1321L43.3993 11.7145C43.3993 11.7145 42.2221 9.75251 40.1816 9.90947C38.612 10.0664 32.8045 10.1449 32.8045 10.1449L38.769 2.53236C38.769 2.53236 39.2398 1.90452 39.7107 2.29692C40.417 3.08172 40.2601 3.23868 40.1031 2.84628C40.4955 2.84628 42.536 2.68932 42.536 2.68932C42.536 2.68932 40.9664 0.570359 40.574 0.334919C40.2601 0.177959 38.455 -0.44988 37.4348 0.570359C36.1006 1.90452 35.5513 3.00324 35.5513 3.00324L30.0577 10.1449L24.3286 10.5373L30.5286 3.08172C30.5286 3.08172 31.0779 3.1602 31.3918 3.63108L33.9032 3.39564L32.726 1.82604C32.726 1.82604 31.5488 -0.0574807 29.0374 1.5906L21.8173 10.6158L13.9693 11.0082C13.9693 11.0082 12.4782 11.0867 12.7136 12.4208C12.949 13.755 14.0478 14.8537 14.0478 14.8537L15.4604 13.0487L19.9338 12.7348L14.2832 19.7979L6.59217 19.9549C6.59217 19.9549 4.78713 20.0334 5.72889 21.9954C6.12129 22.9371 6.82761 23.7219 6.82761 23.7219L8.24025 21.9169L12.6351 21.8384L6.12129 30.5497C6.12129 30.5497 4.47321 32.6687 6.04281 34.7091C7.22001 36.2003 12.5566 42.4002 12.5566 42.4002L8.71113 41.9293C8.71113 41.9293 7.92633 41.8508 7.92633 41.7723C7.92633 41.6939 8.00481 41.5369 8.08329 41.4584L6.98457 40.2812C6.98457 40.2812 5.65041 41.6939 5.88585 42.6356C6.04281 43.2635 6.04281 43.8128 7.06305 43.9698C7.29849 44.0483 14.5186 44.7546 14.5186 44.7546L20.0907 51.2684L15.9313 50.6406L15.7743 50.4051C15.7743 50.4051 15.068 50.3266 15.068 50.2482C15.068 50.0912 15.1465 50.0912 15.3034 49.8558L14.0478 48.4431C14.0478 48.4431 13.0275 50.0127 13.106 50.7191C13.1845 51.3469 13.263 51.8963 14.0478 52.3671C14.5186 52.6026 21.8958 53.3089 21.8958 53.3089L28.802 61.3138C28.802 61.3138 30.6855 63.8252 32.0197 62.1771C33.2754 60.686 33.3538 60.1366 33.3538 60.1366L31.6273 59.8227C31.6273 59.8227 31.4703 60.3721 31.1564 60.3721C30.764 60.3721 30.1362 59.5873 30.1362 59.5873L25.035 53.7798L30.1362 54.4076L37.3563 63.0404C37.3563 63.0404 38.612 64.0606 39.6322 63.6682C40.6525 63.2758 41.6727 61.3138 41.6727 61.3138L39.7892 61.0784C39.7892 61.0784 39.4753 61.7062 39.2398 61.7062C38.9259 61.7062 38.2196 60.9214 38.2196 60.9214L33.1184 54.957L40.1031 55.6633C40.1031 55.6633 41.9866 55.4279 42.9284 54.3291C43.9486 53.2304 50.227 44.0483 50.227 44.0483L56.4269 51.8178L55.7991 52.3671L54.7004 54.0152C54.7004 54.0152 57.3687 54.1722 57.9181 53.7013C58.9383 52.838 58.7813 51.4254 58.7813 51.4254L51.5612 42.2432L57.4472 34.2383L63.2547 41.9293V41.6154L61.4497 44.2052L64.0395 44.0483C64.0395 44.0483 65.6876 43.3419 65.3737 41.5369C65.2167 41.3015 58.5459 32.3547 58.5459 32.3547Z" fill="#495B68"/>
</svg>
