<svg width="218" height="75" viewBox="0 0 218 75" fill="none" xmlns="http://www.w3.org/2000/svg">
<path d="M113.187 27.4058H105.534V47.1258H99.9508V27.4058H92.2969V22.8135H113.097V27.4058H113.187Z" fill="white"/>
<path d="M135.249 42.6225V47.1248H116.609V22.8125H134.799V27.3148H122.192V32.6275H133.358V37.0397H122.192V42.6225H135.249Z" fill="white"/>
<path d="M143.805 22.8125L148.757 30.1962L153.71 22.8125H160.193L152.179 34.4284L160.823 47.1248H154.25L148.667 39.1108L143.174 47.1248H136.871L145.425 34.6985L137.411 22.8125H143.805Z" fill="white"/>
<path d="M185.585 22.8125V47.1248H180.002V37.1298H169.106V47.1248H163.523V22.8125H169.106V32.3573H180.002V22.8125H185.585Z" fill="white"/>
<path d="M207.828 41.9022H196.662L194.501 47.1248H188.828L199.544 22.8125H205.036L215.752 47.1248H209.899L207.828 41.9022ZM206.027 37.58L202.245 28.3053L198.463 37.58H206.027Z" fill="white"/>
<path d="M216.561 21.7323C217.011 22.0024 217.371 22.3626 217.641 22.8128C217.912 23.263 218.002 23.8033 218.002 24.3436C218.002 24.8839 217.912 25.4241 217.641 25.8744C217.371 26.3246 217.011 26.6848 216.561 26.9549C216.111 27.225 215.57 27.3151 215.03 27.3151C214.49 27.3151 213.95 27.225 213.499 26.9549C213.049 26.6848 212.689 26.3246 212.419 25.8744C212.149 25.4241 212.059 24.8839 212.059 24.3436C212.059 23.8033 212.149 23.263 212.419 22.8128C212.689 22.3626 213.049 22.0024 213.499 21.7323C213.95 21.4621 214.49 21.3721 215.03 21.3721C215.57 21.3721 216.111 21.4621 216.561 21.7323ZM216.291 26.5047C216.651 26.3246 216.921 25.9644 217.191 25.6042C217.371 25.244 217.551 24.7938 217.551 24.3436C217.551 23.8933 217.461 23.4431 217.281 23.0829C217.101 22.7228 216.831 22.4526 216.381 22.1825C216.021 22.0024 215.57 21.8223 215.12 21.8223C214.67 21.8223 214.22 21.9123 213.86 22.1825C213.499 22.3626 213.229 22.7228 212.959 23.0829C212.779 23.4431 212.689 23.8933 212.689 24.3436C212.689 24.7938 212.779 25.244 212.959 25.6042C213.139 25.9644 213.409 26.2345 213.86 26.5047C214.22 26.6848 214.67 26.8649 215.12 26.8649C215.48 26.8649 215.931 26.6848 216.291 26.5047ZM216.471 24.5237C216.381 24.7038 216.201 24.7938 216.021 24.9739L216.741 26.0544H215.841L215.21 25.0639H214.67V26.0544H213.769V22.7228H215.21C215.66 22.7228 216.021 22.8128 216.291 23.0829C216.561 23.263 216.651 23.6232 216.651 23.9834C216.651 24.1635 216.561 24.3436 216.471 24.5237ZM215.12 24.4336C215.3 24.4336 215.48 24.4336 215.57 24.3436C215.66 24.2535 215.75 24.1635 215.75 23.9834C215.75 23.8033 215.66 23.7133 215.57 23.6232C215.48 23.5332 215.3 23.4431 215.12 23.4431H214.58V24.4336H215.12Z" fill="white"/>
<path d="M96.6172 55.5909H97.1575V55.4108C97.1575 55.2307 97.1575 55.0506 97.2475 54.8706C97.2475 54.6905 97.3375 54.6004 97.4276 54.5104C97.5176 54.4203 97.6077 54.3303 97.6977 54.3303C97.7878 54.2402 97.9679 54.2402 98.148 54.2402C98.3281 54.2402 98.4181 54.2402 98.5081 54.2402C98.5982 54.2402 98.6882 54.3303 98.8683 54.3303L98.7783 54.7805C98.6882 54.7805 98.5982 54.6905 98.5081 54.6905C98.4181 54.6905 98.3281 54.6905 98.238 54.6905C98.148 54.6905 98.0579 54.6905 97.9679 54.7805C97.8778 54.8706 97.8778 54.8706 97.7878 54.9606C97.7878 55.0506 97.6977 55.1407 97.6977 55.2307C97.6977 55.3208 97.6977 55.4108 97.6977 55.5909V55.681H98.5982V56.1312H97.6977V59.0126H97.1575V56.1312H96.6172V55.5909Z" fill="white"/>
<path d="M101.752 58.6494C101.662 58.7395 101.482 58.8295 101.212 58.9196C101.032 59.0096 100.761 59.0096 100.581 59.0096C100.311 59.0096 100.131 59.0096 99.951 58.9196C99.7709 58.8295 99.5909 58.7395 99.5008 58.5594C99.4108 58.3793 99.3207 58.1992 99.2307 58.0191C99.1406 57.839 99.1406 57.5689 99.1406 57.2988C99.1406 56.7585 99.2307 56.3083 99.5008 56.0381C99.7709 55.768 100.131 55.5879 100.581 55.5879C100.761 55.5879 100.851 55.5879 101.032 55.6779C101.212 55.6779 101.302 55.768 101.392 55.858C101.482 55.9481 101.572 56.1282 101.662 56.2182C101.752 56.3083 101.752 56.5784 101.752 56.9386C101.752 57.1187 101.752 57.2087 101.752 57.3888H99.6809C99.6809 57.5689 99.6809 57.749 99.7709 57.9291C99.7709 58.1092 99.861 58.1992 99.951 58.2893C100.041 58.3793 100.131 58.4693 100.311 58.5594C100.401 58.6494 100.581 58.6494 100.761 58.6494C100.942 58.6494 101.032 58.6494 101.212 58.5594C101.392 58.4693 101.482 58.4693 101.572 58.3793L101.752 58.6494ZM100.581 55.9481C100.311 55.9481 100.131 56.0381 99.951 56.1282C99.7709 56.3083 99.6809 56.4883 99.6809 56.8485H101.302C101.302 56.4883 101.212 56.3083 101.122 56.1282C101.032 55.9481 100.851 55.9481 100.581 55.9481Z" fill="white"/>
<path d="M105.079 58.919V57.028C105.079 56.6679 104.989 56.3977 104.899 56.2176C104.809 56.0375 104.629 55.9475 104.359 55.9475C104.089 55.9475 103.908 56.0375 103.818 56.1276C103.638 56.2176 103.548 56.3977 103.458 56.5778V58.829H102.918V55.4973H103.278L103.368 55.9475C103.458 55.7674 103.638 55.6774 103.818 55.5873C103.999 55.4973 104.179 55.4072 104.449 55.4072C104.629 55.4072 104.809 55.4072 104.899 55.4973C105.079 55.4973 105.169 55.5873 105.259 55.6774C105.349 55.7674 105.439 55.9475 105.439 56.1276C105.439 56.3077 105.529 56.5778 105.529 56.848V58.829H105.079V58.919Z" fill="white"/>
<path d="M109.224 58.6496C109.134 58.7397 108.954 58.8297 108.774 58.8297C108.594 58.9198 108.414 58.9198 108.234 58.9198C107.964 58.9198 107.783 58.9198 107.603 58.8297C107.423 58.7397 107.243 58.6496 107.153 58.4696C107.063 58.2895 106.973 58.1094 106.883 57.9293C106.793 57.7492 106.793 57.4791 106.793 57.2089C106.793 56.6686 106.883 56.2184 107.153 55.9483C107.423 55.6781 107.783 55.498 108.234 55.498C108.414 55.498 108.594 55.498 108.774 55.5881C108.954 55.5881 109.044 55.6781 109.134 55.7682L108.954 56.1284C108.864 56.0383 108.774 56.0383 108.594 55.9483C108.504 55.9483 108.324 55.8582 108.234 55.8582C107.603 55.8582 107.333 56.3085 107.333 57.1189C107.333 57.299 107.333 57.479 107.423 57.5691C107.423 57.7492 107.513 57.8392 107.603 58.0193C107.693 58.1094 107.783 58.1994 107.874 58.2895C107.964 58.3795 108.144 58.3795 108.324 58.3795C108.504 58.3795 108.594 58.3795 108.774 58.2895C108.864 58.1994 109.044 58.1994 109.044 58.1094L109.224 58.6496Z" fill="white"/>
<path d="M110.211 54.5076C110.211 54.4176 110.211 54.3276 110.301 54.2375C110.391 54.1475 110.481 54.1475 110.571 54.1475C110.661 54.1475 110.751 54.1475 110.841 54.2375C110.931 54.3276 110.931 54.4176 110.931 54.5076C110.931 54.5977 110.931 54.6877 110.841 54.7778C110.751 54.8678 110.661 54.8678 110.571 54.8678C110.481 54.8678 110.391 54.8678 110.301 54.7778C110.301 54.6877 110.211 54.6877 110.211 54.5076ZM110.391 55.5882H110.931V58.9199H110.391V55.5882Z" fill="white"/>
<path d="M114.446 58.919V57.028C114.446 56.6679 114.356 56.3977 114.266 56.2176C114.176 56.0375 113.996 55.9475 113.726 55.9475C113.456 55.9475 113.276 56.0375 113.186 56.1276C113.006 56.2176 112.915 56.3977 112.825 56.5778V58.829H112.285V55.4973H112.645L112.735 55.9475C112.825 55.7674 113.006 55.6774 113.186 55.5873C113.366 55.4973 113.546 55.4072 113.816 55.4072C113.996 55.4072 114.176 55.4072 114.266 55.4973C114.446 55.4973 114.536 55.5873 114.626 55.6774C114.716 55.7674 114.806 55.9475 114.806 56.1276C114.896 56.3077 114.896 56.5778 114.896 56.848V58.829H114.446V58.919Z" fill="white"/>
<path d="M118.768 59.0102C118.768 59.4605 118.678 59.7306 118.408 60.0007C118.137 60.1808 117.867 60.2709 117.417 60.2709C117.147 60.2709 116.967 60.2709 116.787 60.1808C116.607 60.1808 116.517 60.0908 116.337 60.0908L116.517 59.6406C116.607 59.6406 116.697 59.7306 116.877 59.7306C117.057 59.7306 117.147 59.8206 117.327 59.8206C117.507 59.8206 117.687 59.8206 117.777 59.7306C117.867 59.7306 117.957 59.6406 118.047 59.5505C118.137 59.4605 118.137 59.3704 118.228 59.2804C118.228 59.1903 118.228 59.0102 118.228 58.8301V58.47C118.137 58.56 118.047 58.7401 117.867 58.7401C117.687 58.8301 117.597 58.8301 117.327 58.8301C116.877 58.8301 116.517 58.65 116.337 58.3799C116.156 58.1098 116.066 57.6595 116.066 57.0292C116.066 56.489 116.156 56.0387 116.427 55.7686C116.697 55.4985 117.057 55.3184 117.597 55.3184C117.867 55.3184 118.047 55.3184 118.228 55.4084C118.408 55.4084 118.588 55.4985 118.678 55.5885V59.0102H118.768ZM117.507 58.47C117.687 58.47 117.867 58.3799 118.047 58.2899C118.137 58.1998 118.228 58.0197 118.318 57.7496V56.1288C118.137 56.0387 117.957 56.0387 117.687 56.0387C117.417 56.0387 117.147 56.1288 116.967 56.3089C116.787 56.489 116.697 56.8491 116.697 57.2994C116.697 57.4795 116.697 57.6595 116.787 57.8396C116.877 58.0197 116.877 58.1098 116.967 58.1998C117.057 58.2899 117.147 58.3799 117.237 58.47C117.237 58.47 117.327 58.47 117.507 58.47Z" fill="white"/>
<path d="M123.722 58.0191C123.722 57.9291 123.722 57.749 123.632 57.749C123.542 57.749 123.452 57.5689 123.362 57.5689C123.272 57.4788 123.092 57.4788 123.002 57.3888C122.912 57.2988 122.732 57.2988 122.642 57.2087C122.552 57.1187 122.462 57.0286 122.372 56.9386C122.282 56.8485 122.282 56.6684 122.282 56.4883C122.282 56.1282 122.372 55.9481 122.552 55.768C122.732 55.5879 123.002 55.5879 123.272 55.5879C123.542 55.5879 123.722 55.5879 123.902 55.6779C124.083 55.6779 124.173 55.768 124.353 55.858L124.263 56.3083C124.173 56.2182 124.083 56.2182 123.902 56.2182C123.722 56.2182 123.632 56.1282 123.452 56.1282C123.272 56.1282 123.092 56.1282 123.002 56.2182C122.912 56.3083 122.912 56.3983 122.912 56.5784C122.912 56.6684 122.912 56.7585 123.002 56.8485C123.092 56.9386 123.182 56.9386 123.272 57.0286C123.362 57.1187 123.542 57.1187 123.632 57.2087C123.812 57.2988 123.902 57.2988 123.993 57.3888C124.083 57.4788 124.173 57.5689 124.263 57.6589C124.353 57.749 124.353 57.9291 124.353 58.1092C124.353 58.2893 124.353 58.3793 124.263 58.4693C124.173 58.5594 124.173 58.7395 124.083 58.8295C123.993 58.9196 123.902 59.0096 123.722 59.0096C123.542 59.0997 123.452 59.0997 123.182 59.0997C122.912 59.0997 122.732 59.0997 122.552 59.0096C122.372 58.9196 122.192 58.9196 122.102 58.8295L122.282 58.3793C122.372 58.4693 122.552 58.4693 122.642 58.5594C122.732 58.6494 123.002 58.6494 123.092 58.6494C123.272 58.6494 123.452 58.6494 123.542 58.5594C123.632 58.4693 123.722 58.1992 123.722 58.0191Z" fill="white"/>
<path d="M126.331 57.7492L126.511 58.3795L126.691 57.7492L127.322 55.5881H127.862L126.871 58.5596C126.781 58.7397 126.691 59.0098 126.691 59.1899C126.601 59.37 126.511 59.5501 126.421 59.7302C126.331 59.9103 126.241 60.0003 126.151 60.0904C126.061 60.1804 125.881 60.2705 125.791 60.2705C125.611 60.2705 125.521 60.2705 125.431 60.1804L125.521 59.7302C125.611 59.7302 125.611 59.7302 125.701 59.7302C125.791 59.7302 125.971 59.6401 126.061 59.5501C126.151 59.4601 126.241 59.1899 126.331 58.8297L124.98 55.498H125.611L126.331 57.7492Z" fill="white"/>
<path d="M130.203 58.0191C130.203 57.9291 130.203 57.749 130.113 57.749C130.023 57.749 129.933 57.5689 129.843 57.5689C129.753 57.4788 129.573 57.4788 129.483 57.3888C129.393 57.2988 129.213 57.2988 129.123 57.2087C129.033 57.1187 128.943 57.0286 128.853 56.9386C128.763 56.8485 128.763 56.6684 128.763 56.4883C128.763 56.1282 128.853 55.9481 129.033 55.768C129.213 55.5879 129.483 55.5879 129.753 55.5879C130.023 55.5879 130.203 55.5879 130.383 55.6779C130.563 55.6779 130.653 55.768 130.834 55.858L130.563 56.1282C130.473 56.0381 130.383 56.0381 130.203 56.0381C130.023 56.0381 129.933 55.9481 129.753 55.9481C129.573 55.9481 129.393 55.9481 129.303 56.0381C129.213 56.1282 129.213 56.2182 129.213 56.3983C129.213 56.4883 129.213 56.5784 129.303 56.6684C129.393 56.7585 129.483 56.7585 129.573 56.8485C129.663 56.9386 129.843 56.9386 129.933 57.0286C130.113 57.1187 130.203 57.1187 130.293 57.2087C130.383 57.2988 130.473 57.3888 130.563 57.4788C130.653 57.5689 130.653 57.749 130.653 57.9291C130.653 58.1092 130.653 58.1992 130.563 58.2893C130.473 58.3793 130.473 58.5594 130.383 58.6494C130.293 58.7395 130.203 58.8295 130.023 58.8295C129.843 58.9196 129.753 58.9196 129.483 58.9196C129.213 58.9196 129.033 58.9196 128.853 58.8295C128.672 58.7395 128.492 58.7395 128.402 58.6494L128.582 58.1992C128.672 58.2893 128.853 58.2893 128.943 58.3793C129.033 58.4693 129.303 58.4693 129.393 58.4693C129.573 58.4693 129.753 58.4693 129.843 58.3793C129.933 58.2893 130.203 58.1992 130.203 58.0191Z" fill="white"/>
<path d="M131.465 55.5887H132.005V54.9584L132.545 54.7783V55.5887H133.446V56.039H132.545V57.9299C132.545 58.2001 132.545 58.2901 132.635 58.3801C132.725 58.4702 132.816 58.5602 132.906 58.5602C132.996 58.5602 133.086 58.5602 133.176 58.5602C133.266 58.5602 133.356 58.4702 133.446 58.4702L133.536 58.9204C133.446 59.0105 133.266 59.0105 133.176 59.1005C132.996 59.1005 132.906 59.1906 132.725 59.1906C132.455 59.1906 132.275 59.1005 132.185 58.9204C132.095 58.7403 132.005 58.4702 132.005 58.11V56.129H131.465V55.5887Z" fill="white"/>
<path d="M136.779 58.6494C136.689 58.7395 136.509 58.8295 136.239 58.9196C136.059 59.0096 135.789 59.0096 135.609 59.0096C135.339 59.0096 135.158 59.0096 134.978 58.9196C134.798 58.8295 134.618 58.7395 134.528 58.5594C134.438 58.3793 134.348 58.1992 134.258 58.0191C134.168 57.839 134.168 57.5689 134.168 57.2988C134.168 56.7585 134.258 56.3083 134.528 56.0381C134.798 55.768 135.158 55.5879 135.609 55.5879C135.789 55.5879 135.879 55.5879 136.059 55.6779C136.239 55.768 136.329 55.768 136.419 55.858C136.509 55.9481 136.599 56.1282 136.689 56.2182C136.779 56.3983 136.779 56.5784 136.779 56.9386C136.779 57.1187 136.779 57.2087 136.779 57.3888H134.708C134.708 57.5689 134.708 57.749 134.798 57.9291C134.798 58.1092 134.888 58.1992 134.978 58.2893C135.068 58.3793 135.158 58.4693 135.339 58.5594C135.429 58.6494 135.609 58.6494 135.789 58.6494C135.969 58.6494 136.059 58.6494 136.239 58.5594C136.419 58.4693 136.509 58.4693 136.599 58.3793L136.779 58.6494ZM135.609 55.9481C135.339 55.9481 135.158 56.0381 134.978 56.1282C134.798 56.3083 134.708 56.4883 134.708 56.8485H136.329C136.329 56.4883 136.239 56.3083 136.149 56.1282C136.059 56.0381 135.879 55.9481 135.609 55.9481Z" fill="white"/>
<path d="M140.016 58.9202V57.0292C140.016 56.8491 140.016 56.669 140.016 56.579C140.016 56.489 140.016 56.3089 139.926 56.2188C139.836 56.1288 139.836 56.0387 139.746 56.0387C139.656 56.0387 139.566 55.9487 139.386 55.9487C139.206 55.9487 139.026 56.0387 138.846 56.1288C138.756 56.2188 138.575 56.3989 138.575 56.579V58.8301H138.035V55.4985H138.395L138.485 55.9487C138.575 55.7686 138.756 55.6785 138.936 55.5885C139.116 55.4985 139.296 55.4084 139.566 55.4084C139.746 55.4084 139.926 55.4084 140.106 55.4985C140.196 55.5885 140.376 55.7686 140.376 55.9487C140.466 55.7686 140.646 55.6785 140.827 55.4985C141.007 55.3184 141.187 55.3184 141.457 55.3184C141.637 55.3184 141.817 55.3184 141.907 55.4084C141.997 55.4084 142.177 55.4985 142.267 55.5885C142.357 55.6785 142.447 55.8586 142.447 56.0387C142.447 56.2188 142.537 56.489 142.537 56.7591V58.7401H141.997V56.7591C141.997 56.579 141.997 56.489 141.997 56.3089C141.997 56.2188 141.907 56.1288 141.907 56.0387C141.817 55.9487 141.817 55.8586 141.727 55.8586C141.637 55.8586 141.547 55.7686 141.367 55.7686C141.187 55.7686 141.007 55.8586 140.827 55.9487C140.646 56.0387 140.646 56.2188 140.556 56.489V58.7401H140.016V58.9202Z" fill="white"/>
<path d="M145.152 58.0191C145.152 57.9291 145.152 57.749 145.062 57.749C144.972 57.749 144.882 57.5689 144.792 57.5689C144.702 57.4788 144.522 57.4788 144.432 57.3888C144.342 57.2988 144.162 57.2988 144.072 57.2087C143.981 57.1187 143.891 57.0286 143.801 56.9386C143.711 56.8485 143.711 56.6684 143.711 56.4883C143.711 56.1282 143.801 55.9481 143.981 55.768C144.162 55.5879 144.432 55.5879 144.702 55.5879C144.972 55.5879 145.152 55.5879 145.332 55.6779C145.512 55.6779 145.602 55.768 145.782 55.858L145.692 56.3083C145.602 56.2182 145.512 56.2182 145.332 56.2182C145.152 56.2182 145.062 56.1282 144.882 56.1282C144.702 56.1282 144.522 56.1282 144.432 56.2182C144.342 56.3083 144.342 56.3983 144.342 56.5784C144.342 56.6684 144.342 56.7585 144.432 56.8485C144.522 56.9386 144.612 56.9386 144.702 57.0286C144.792 57.1187 144.972 57.1187 145.062 57.2087C145.242 57.2988 145.332 57.2988 145.422 57.3888C145.512 57.4788 145.602 57.5689 145.692 57.6589C145.782 57.749 145.782 57.9291 145.782 58.1092C145.782 58.2893 145.782 58.3793 145.692 58.4693C145.602 58.5594 145.602 58.7395 145.512 58.8295C145.422 58.9196 145.332 59.0096 145.152 59.0096C144.972 59.0997 144.882 59.0997 144.612 59.0997C144.342 59.0997 144.162 59.0997 143.981 59.0096C143.801 58.9196 143.621 58.9196 143.531 58.8295L143.711 58.3793C143.801 58.4693 143.981 58.4693 144.072 58.5594C144.162 58.6494 144.432 58.6494 144.522 58.6494C144.702 58.6494 144.882 58.6494 144.972 58.5594C145.062 58.4693 145.152 58.1992 145.152 58.0191Z" fill="white"/>
<path d="M148.844 55.7674C149.024 55.6774 149.204 55.5873 149.384 55.4973C149.564 55.4072 149.834 55.4072 150.104 55.4072C150.375 55.4072 150.555 55.4072 150.645 55.4973C150.825 55.5873 150.915 55.6774 151.005 55.7674C151.095 55.8575 151.095 55.9475 151.185 56.1276C151.185 56.2176 151.185 56.3977 151.185 56.4878C151.185 56.7579 151.185 57.028 151.185 57.2982C151.185 57.5683 151.185 57.7484 151.185 58.0185C151.185 58.1986 151.185 58.3787 151.185 58.4688C151.185 58.6489 151.185 58.7389 151.275 58.919H150.915L150.735 58.4688C150.735 58.5588 150.645 58.5588 150.555 58.6489C150.465 58.7389 150.465 58.7389 150.375 58.829C150.284 58.919 150.194 58.919 150.104 58.919C150.014 58.919 149.834 59.009 149.744 59.009C149.564 59.009 149.474 59.009 149.384 58.919C149.294 58.829 149.114 58.829 149.114 58.7389C149.114 58.6489 148.934 58.5588 148.934 58.4688C148.844 58.3787 148.844 58.1986 148.844 58.1086C148.844 57.9285 148.844 57.7484 148.934 57.6584C149.024 57.5683 149.114 57.3882 149.294 57.3882C149.474 57.2982 149.564 57.2982 149.834 57.2081C150.014 57.2081 150.284 57.1181 150.465 57.1181C150.555 57.1181 150.555 57.1181 150.645 57.1181C150.735 57.1181 150.735 57.1181 150.825 57.1181C150.825 57.028 150.825 56.848 150.825 56.7579C150.825 56.4878 150.735 56.3077 150.645 56.2176C150.555 56.1276 150.375 56.0375 150.104 56.0375C150.014 56.0375 149.924 56.0375 149.834 56.0375C149.744 56.0375 149.654 56.0375 149.564 56.1276C149.474 56.1276 149.384 56.2176 149.294 56.2176C149.204 56.2176 149.114 56.3077 149.114 56.3077L148.844 55.7674ZM149.834 58.4688C149.924 58.4688 150.104 58.4688 150.194 58.3787C150.284 58.3787 150.375 58.2887 150.465 58.2887C150.555 58.1986 150.555 58.1986 150.645 58.1086C150.735 58.0185 150.735 58.0185 150.735 57.9285V57.3882C150.645 57.3882 150.645 57.3882 150.555 57.3882C150.465 57.3882 150.465 57.3882 150.375 57.3882C150.194 57.3882 150.104 57.3882 150.014 57.3882C149.924 57.3882 149.744 57.3882 149.654 57.4783C149.564 57.4783 149.474 57.5683 149.384 57.6584C149.294 57.7484 149.294 57.8385 149.294 57.9285C149.294 58.1086 149.384 58.1986 149.474 58.2887C149.474 58.3787 149.654 58.4688 149.834 58.4688Z" fill="white"/>
<path d="M154.696 58.919V57.028C154.696 56.6679 154.606 56.3977 154.516 56.2176C154.426 56.0375 154.246 55.9475 153.976 55.9475C153.706 55.9475 153.526 56.0375 153.436 56.1276C153.256 56.2176 153.165 56.3977 153.075 56.5778V58.829H152.535V55.4973H152.895L152.985 55.9475C153.075 55.7674 153.256 55.6774 153.436 55.5873C153.616 55.4973 153.796 55.4072 154.066 55.4072C154.246 55.4072 154.426 55.4072 154.516 55.4973C154.696 55.4973 154.786 55.5873 154.876 55.6774C154.966 55.7674 155.056 55.9475 155.056 56.1276C155.146 56.3077 155.146 56.5778 155.146 56.848V58.829H154.696V58.919Z" fill="white"/>
<path d="M159.018 57.7501C159.018 58.0202 159.018 58.2003 159.018 58.3804C159.018 58.5605 159.018 58.7406 159.108 58.9207H158.748L158.658 58.4704C158.568 58.6505 158.477 58.7406 158.297 58.8306C158.117 58.9207 157.937 59.0107 157.667 59.0107C157.217 59.0107 156.857 58.8306 156.677 58.5605C156.496 58.2903 156.316 57.8401 156.316 57.2098C156.316 56.6695 156.406 56.2193 156.677 55.9491C156.947 55.679 157.307 55.4989 157.757 55.4989C157.937 55.4989 158.027 55.4989 158.117 55.4989C158.207 55.4989 158.297 55.589 158.387 55.589V54.2383H158.928V57.7501H159.018ZM157.667 58.4704C157.847 58.4704 158.027 58.3804 158.207 58.2903C158.297 58.2003 158.387 58.0202 158.477 57.7501V56.1292C158.387 56.0392 158.297 56.0392 158.207 56.0392C158.117 56.0392 157.937 56.0392 157.847 56.0392C157.577 56.0392 157.307 56.1292 157.127 56.3093C156.947 56.4894 156.857 56.8496 156.857 57.2998C156.857 57.4799 156.857 57.66 156.857 57.8401C156.857 58.0202 156.947 58.1102 157.037 58.2003C157.127 58.2903 157.217 58.3804 157.307 58.4704C157.397 58.4704 157.487 58.4704 157.667 58.4704Z" fill="white"/>
<path d="M163.883 58.0191C163.883 57.9291 163.883 57.749 163.792 57.749C163.702 57.749 163.612 57.5689 163.522 57.5689C163.432 57.4788 163.252 57.4788 163.162 57.3888C163.072 57.2988 162.892 57.2988 162.802 57.2087C162.712 57.1187 162.622 57.0286 162.532 56.9386C162.442 56.8485 162.442 56.6684 162.442 56.4883C162.442 56.1282 162.532 55.9481 162.712 55.768C162.892 55.5879 163.162 55.5879 163.432 55.5879C163.702 55.5879 163.883 55.5879 164.063 55.6779C164.243 55.6779 164.333 55.768 164.513 55.858L164.423 56.3083C164.333 56.2182 164.243 56.2182 164.063 56.2182C163.883 56.2182 163.792 56.1282 163.612 56.1282C163.432 56.1282 163.252 56.1282 163.162 56.2182C163.072 56.3083 163.072 56.3983 163.072 56.5784C163.072 56.6684 163.072 56.7585 163.162 56.8485C163.252 56.9386 163.342 56.9386 163.432 57.0286C163.522 57.1187 163.702 57.1187 163.792 57.2087C163.973 57.2988 164.063 57.2988 164.153 57.3888C164.243 57.4788 164.333 57.5689 164.423 57.6589C164.513 57.749 164.513 57.9291 164.513 58.1092C164.513 58.2893 164.513 58.3793 164.423 58.4693C164.333 58.5594 164.333 58.7395 164.243 58.8295C164.153 58.9196 164.063 59.0096 163.883 59.0096C163.702 59.0997 163.612 59.0997 163.342 59.0997C163.072 59.0997 162.892 59.0997 162.712 59.0096C162.532 58.9196 162.352 58.9196 162.262 58.8295L162.442 58.3793C162.532 58.4693 162.712 58.4693 162.802 58.5594C162.892 58.6494 163.162 58.6494 163.252 58.6494C163.432 58.6494 163.612 58.6494 163.702 58.5594C163.792 58.4693 163.883 58.1992 163.883 58.0191Z" fill="white"/>
<path d="M165.504 55.7674C165.684 55.6774 165.864 55.5873 166.044 55.4973C166.224 55.4072 166.495 55.4072 166.765 55.4072C167.035 55.4072 167.215 55.4072 167.305 55.4973C167.485 55.5873 167.575 55.6774 167.665 55.7674C167.755 55.8575 167.755 55.9475 167.845 56.1276C167.845 56.2176 167.845 56.3977 167.845 56.4878C167.845 56.7579 167.845 57.028 167.845 57.2982C167.845 57.5683 167.845 57.7484 167.845 58.0185C167.845 58.1986 167.845 58.3787 167.845 58.4688C167.845 58.6489 167.845 58.7389 167.935 58.919H167.485L167.305 58.4688C167.305 58.5588 167.215 58.5588 167.125 58.6489C167.035 58.7389 167.035 58.7389 166.945 58.829C166.855 58.919 166.765 58.919 166.675 58.919C166.585 58.919 166.405 59.009 166.315 59.009C166.134 59.009 166.044 59.009 165.954 58.919C165.864 58.829 165.684 58.829 165.684 58.7389C165.684 58.6489 165.504 58.5588 165.504 58.4688C165.414 58.3787 165.414 58.1986 165.414 58.1086C165.414 57.9285 165.414 57.7484 165.504 57.6584C165.594 57.5683 165.684 57.3882 165.864 57.3882C166.044 57.2982 166.134 57.2982 166.405 57.2081C166.585 57.2081 166.855 57.1181 167.035 57.1181C167.125 57.1181 167.125 57.1181 167.215 57.1181C167.305 57.1181 167.305 57.1181 167.395 57.1181C167.395 57.028 167.395 56.848 167.395 56.7579C167.395 56.4878 167.305 56.3077 167.215 56.2176C167.125 56.1276 166.945 56.0375 166.675 56.0375C166.585 56.0375 166.495 56.0375 166.405 56.0375C166.315 56.0375 166.224 56.0375 166.134 56.1276C166.044 56.1276 165.954 56.2176 165.864 56.2176C165.774 56.2176 165.684 56.3077 165.684 56.3077L165.504 55.7674ZM166.405 58.4688C166.495 58.4688 166.675 58.4688 166.765 58.3787C166.855 58.3787 166.945 58.2887 167.035 58.2887C167.125 58.1986 167.125 58.1986 167.215 58.1086C167.305 58.0185 167.305 58.0185 167.305 57.9285V57.3882C167.215 57.3882 167.215 57.3882 167.125 57.3882C167.035 57.3882 167.035 57.3882 166.945 57.3882C166.765 57.3882 166.675 57.3882 166.585 57.3882C166.495 57.3882 166.315 57.3882 166.224 57.4783C166.134 57.4783 166.044 57.5683 165.954 57.6584C165.864 57.7484 165.864 57.8385 165.864 57.9285C165.864 58.1086 165.954 58.1986 166.044 58.2887C166.134 58.3787 166.315 58.4688 166.405 58.4688Z" fill="white"/>
<path d="M168.832 55.589H169.373V55.4089C169.373 55.2288 169.373 55.0487 169.463 54.8686C169.463 54.6885 169.553 54.5985 169.643 54.5084C169.733 54.4184 169.823 54.3283 169.913 54.3283C170.003 54.3283 170.183 54.2383 170.363 54.2383C170.543 54.2383 170.633 54.2383 170.723 54.2383C170.813 54.2383 170.903 54.3283 171.083 54.3283L170.993 54.7786C170.903 54.7786 170.813 54.6885 170.723 54.6885C170.633 54.6885 170.543 54.6885 170.453 54.6885C170.363 54.6885 170.273 54.6885 170.183 54.7786C170.093 54.7786 170.093 54.8686 170.003 54.9586C170.003 55.0487 169.913 55.1387 169.913 55.2288C169.913 55.3188 169.913 55.4089 169.913 55.589V55.679H170.813V56.1292H169.913V59.0107H169.282V56.1292H168.742V55.589H168.832Z" fill="white"/>
<path d="M173.963 58.6494C173.873 58.7395 173.693 58.8295 173.423 58.9196C173.243 59.0096 172.972 59.0096 172.792 59.0096C172.522 59.0096 172.342 59.0096 172.162 58.9196C171.982 58.8295 171.802 58.7395 171.712 58.5594C171.622 58.3793 171.532 58.1992 171.442 58.0191C171.352 57.839 171.352 57.5689 171.352 57.2988C171.352 56.7585 171.442 56.3083 171.712 56.0381C171.982 55.768 172.342 55.5879 172.792 55.5879C172.972 55.5879 173.062 55.5879 173.243 55.6779C173.423 55.768 173.513 55.768 173.603 55.858C173.693 55.9481 173.783 56.1282 173.873 56.2182C173.963 56.3983 173.963 56.5784 173.963 56.9386C173.963 57.1187 173.963 57.2087 173.963 57.3888H171.892C171.892 57.5689 171.892 57.749 171.982 57.9291C171.982 58.1092 172.072 58.1992 172.162 58.2893C172.252 58.3793 172.342 58.4693 172.522 58.5594C172.612 58.6494 172.792 58.6494 172.972 58.6494C173.152 58.6494 173.243 58.6494 173.423 58.5594C173.603 58.4693 173.693 58.4693 173.783 58.3793L173.963 58.6494ZM172.792 55.9481C172.522 55.9481 172.342 56.0381 172.162 56.1282C171.982 56.3083 171.892 56.4883 171.892 56.8485H173.513C173.513 56.4883 173.423 56.3083 173.333 56.1282C173.243 56.0381 173.062 55.9481 172.792 55.9481Z" fill="white"/>
<path d="M174.777 55.5887H175.318V54.9584L175.858 54.7783V55.5887H176.758V56.039H175.858V57.9299C175.858 58.2001 175.858 58.2901 175.948 58.3801C176.038 58.4702 176.128 58.5602 176.218 58.5602C176.308 58.5602 176.398 58.5602 176.488 58.5602C176.578 58.5602 176.668 58.4702 176.758 58.4702L176.848 58.9204C176.758 59.0105 176.578 59.0105 176.488 59.1005C176.308 59.1005 176.218 59.1906 176.038 59.1906C175.768 59.1906 175.588 59.1005 175.498 58.9204C175.408 58.7403 175.318 58.4702 175.318 58.11V56.129H174.777V55.5887Z" fill="white"/>
<path d="M178.737 57.7492L178.917 58.3795L179.098 57.7492L179.728 55.5881H180.268L179.278 58.5596C179.188 58.7397 179.098 59.0098 179.098 59.1899C179.008 59.37 178.917 59.5501 178.827 59.7302C178.737 59.9103 178.647 60.0003 178.557 60.0904C178.467 60.1804 178.287 60.2705 178.197 60.2705C178.017 60.2705 177.927 60.2705 177.837 60.1804L177.927 59.7302C178.017 59.7302 178.017 59.7302 178.107 59.7302C178.197 59.7302 178.377 59.6401 178.467 59.5501C178.557 59.4601 178.647 59.1899 178.737 58.8297L177.387 55.498H178.017L178.737 57.7492Z" fill="white"/>
<path d="M185.404 58.6494C185.314 58.7395 185.134 58.8295 184.864 58.9196C184.684 59.0096 184.414 59.0096 184.234 59.0096C183.964 59.0096 183.783 59.0096 183.603 58.9196C183.423 58.8295 183.243 58.7395 183.153 58.5594C183.063 58.3793 182.973 58.1992 182.883 58.0191C182.793 57.839 182.793 57.5689 182.793 57.2988C182.793 56.7585 182.883 56.3083 183.153 56.0381C183.423 55.768 183.783 55.5879 184.234 55.5879C184.414 55.5879 184.504 55.5879 184.684 55.6779C184.864 55.768 184.954 55.768 185.044 55.858C185.134 55.9481 185.224 56.1282 185.314 56.2182C185.404 56.3983 185.404 56.5784 185.404 56.9386C185.404 57.1187 185.404 57.2087 185.404 57.3888H183.333C183.333 57.5689 183.333 57.749 183.423 57.9291C183.423 58.1092 183.513 58.1992 183.603 58.2893C183.693 58.3793 183.783 58.4693 183.964 58.5594C184.054 58.6494 184.234 58.6494 184.414 58.6494C184.594 58.6494 184.684 58.6494 184.864 58.5594C185.044 58.4693 185.134 58.4693 185.224 58.3793L185.404 58.6494ZM184.324 55.9481C184.054 55.9481 183.874 56.0381 183.693 56.1282C183.513 56.3083 183.423 56.4883 183.423 56.8485H185.044C185.044 56.4883 184.954 56.3083 184.864 56.1282C184.684 56.0381 184.504 55.9481 184.324 55.9481Z" fill="white"/>
<path d="M189.186 60.1808H188.646V58.47C188.556 58.56 188.466 58.7401 188.285 58.7401C188.195 58.8301 188.015 58.8301 187.745 58.8301C187.295 58.8301 187.025 58.65 186.755 58.3799C186.575 58.1098 186.395 57.6595 186.395 57.0292C186.395 56.489 186.575 56.0387 186.845 55.7686C187.115 55.4985 187.475 55.3184 188.015 55.3184C188.285 55.3184 188.466 55.3184 188.646 55.4084C188.826 55.4084 189.006 55.4985 189.096 55.5885V60.1808H189.186ZM187.835 58.47C188.015 58.47 188.195 58.3799 188.376 58.2899C188.556 58.1998 188.556 58.0197 188.646 57.7496V56.1288C188.466 56.0387 188.285 56.0387 188.015 56.0387C187.745 56.0387 187.475 56.1288 187.295 56.3089C187.115 56.489 187.025 56.8491 187.025 57.2994C187.025 57.4795 187.025 57.6595 187.115 57.8396C187.115 58.0197 187.205 58.1098 187.295 58.1998C187.385 58.2899 187.475 58.3799 187.565 58.47C187.565 58.47 187.655 58.47 187.835 58.47Z" fill="white"/>
<path d="M190.985 55.5881V57.4791C190.985 57.6591 190.985 57.8392 190.985 57.9293C190.985 58.0193 191.075 58.1994 191.075 58.2895C191.075 58.3795 191.165 58.4696 191.256 58.4696C191.346 58.4696 191.436 58.5596 191.616 58.5596C191.706 58.5596 191.796 58.5596 191.976 58.4696C192.066 58.4696 192.156 58.3795 192.246 58.2895C192.336 58.1994 192.426 58.1094 192.426 58.0193C192.516 57.9293 192.516 57.8392 192.516 57.7492V55.498H193.056V57.9293C193.056 58.1094 193.056 58.2895 193.056 58.4696C193.056 58.6496 193.056 58.8297 193.146 58.9198H192.786L192.696 58.3795C192.606 58.5596 192.426 58.7397 192.246 58.8297C192.066 58.9198 191.886 59.0098 191.616 59.0098C191.436 59.0098 191.256 59.0098 191.165 58.9198C191.075 58.9198 190.895 58.8297 190.805 58.7397C190.715 58.6496 190.625 58.4696 190.625 58.2895C190.535 58.1094 190.535 57.8392 190.535 57.5691V55.5881H190.985Z" fill="white"/>
<path d="M194.406 54.5076C194.406 54.4176 194.406 54.3276 194.496 54.2375C194.586 54.1475 194.676 54.1475 194.766 54.1475C194.856 54.1475 194.947 54.1475 195.037 54.2375C195.127 54.3276 195.127 54.4176 195.127 54.5076C195.127 54.5977 195.127 54.6877 195.037 54.7778C194.947 54.8678 194.856 54.8678 194.766 54.8678C194.676 54.8678 194.586 54.8678 194.496 54.7778C194.406 54.6877 194.406 54.6877 194.406 54.5076ZM194.496 55.5882H195.037V58.9199H194.496V55.5882Z" fill="white"/>
<path d="M196.477 55.5881H196.837L196.927 55.9483C197.017 55.7682 197.197 55.6781 197.287 55.5881C197.467 55.498 197.647 55.498 197.827 55.498C198.277 55.498 198.638 55.5881 198.818 55.8582C198.998 56.1284 199.178 56.5786 199.178 57.1189C199.178 57.389 199.178 57.6591 199.088 57.8392C198.998 58.0193 198.908 58.2895 198.818 58.3795C198.728 58.5596 198.548 58.6496 198.368 58.7397C198.187 58.8297 198.007 58.8297 197.737 58.8297C197.557 58.8297 197.467 58.8297 197.377 58.8297C197.287 58.8297 197.197 58.7397 197.107 58.7397V60.0904H196.567V55.5881H196.477ZM197.827 55.9483C197.647 55.9483 197.467 56.0383 197.287 56.1284C197.197 56.2184 197.107 56.3985 197.017 56.6686V58.2895C197.107 58.3795 197.197 58.3795 197.287 58.4696C197.377 58.5596 197.557 58.5596 197.647 58.5596C197.917 58.5596 198.187 58.4696 198.368 58.1994C198.548 57.9293 198.638 57.6591 198.638 57.2089C198.638 57.0288 198.638 56.8487 198.548 56.6686C198.548 56.4885 198.458 56.3985 198.368 56.3085C198.277 56.2184 198.187 56.1284 198.097 56.0383C198.097 55.9483 198.007 55.9483 197.827 55.9483Z" fill="white"/>
<path d="M202.333 58.9202V57.0292C202.333 56.8491 202.333 56.669 202.333 56.579C202.333 56.489 202.333 56.3089 202.243 56.2188C202.243 56.1288 202.152 56.0387 202.062 56.0387C201.972 56.0387 201.882 55.9487 201.702 55.9487C201.522 55.9487 201.342 56.0387 201.162 56.1288C201.072 56.2188 200.892 56.3989 200.892 56.579V58.8301H200.352V55.4985H200.712L200.802 55.9487C200.892 55.7686 201.072 55.6785 201.252 55.5885C201.432 55.4985 201.612 55.4084 201.882 55.4084C202.062 55.4084 202.243 55.4084 202.423 55.4985C202.513 55.5885 202.693 55.7686 202.693 55.9487C202.783 55.7686 202.963 55.6785 203.143 55.4985C203.323 55.3184 203.503 55.3184 203.773 55.3184C203.953 55.3184 204.133 55.3184 204.224 55.4084C204.314 55.4084 204.494 55.4985 204.584 55.5885C204.674 55.6785 204.764 55.8586 204.764 56.0387C204.764 56.2188 204.854 56.489 204.854 56.7591V58.7401H204.314V56.7591C204.314 56.579 204.314 56.489 204.314 56.3089C204.314 56.2188 204.224 56.1288 204.224 56.0387C204.133 55.9487 204.133 55.8586 204.043 55.8586C203.953 55.8586 203.863 55.7686 203.683 55.7686C203.503 55.7686 203.323 55.8586 203.143 55.9487C202.963 56.0387 202.963 56.2188 202.873 56.489V58.7401H202.333V58.9202Z" fill="white"/>
<path d="M208.455 58.6494C208.365 58.7395 208.185 58.8295 207.915 58.9196C207.735 59.0096 207.465 59.0096 207.284 59.0096C207.014 59.0096 206.834 59.0096 206.654 58.9196C206.474 58.8295 206.294 58.7395 206.204 58.5594C206.114 58.3793 206.024 58.1992 205.934 58.0191C205.844 57.839 205.844 57.5689 205.844 57.2988C205.844 56.7585 205.934 56.3083 206.204 56.0381C206.474 55.768 206.834 55.5879 207.284 55.5879C207.465 55.5879 207.555 55.5879 207.735 55.6779C207.915 55.768 208.005 55.768 208.095 55.858C208.185 55.9481 208.275 56.1282 208.365 56.2182C208.455 56.3983 208.455 56.5784 208.455 56.9386C208.455 57.1187 208.455 57.2087 208.455 57.3888H206.384C206.384 57.5689 206.384 57.749 206.474 57.9291C206.474 58.1092 206.564 58.1992 206.654 58.2893C206.744 58.3793 206.834 58.4693 207.014 58.5594C207.104 58.6494 207.284 58.6494 207.465 58.6494C207.645 58.6494 207.735 58.6494 207.915 58.5594C208.095 58.4693 208.185 58.4693 208.275 58.3793L208.455 58.6494ZM207.375 55.9481C207.104 55.9481 206.924 56.0381 206.744 56.1282C206.564 56.3083 206.474 56.4883 206.474 56.8485H208.095C208.095 56.4883 208.005 56.3083 207.915 56.1282C207.735 56.0381 207.555 55.9481 207.375 55.9481Z" fill="white"/>
<path d="M211.876 58.919V57.028C211.876 56.6679 211.786 56.3977 211.696 56.2176C211.606 56.0375 211.426 55.9475 211.155 55.9475C210.885 55.9475 210.705 56.0375 210.615 56.1276C210.435 56.2176 210.345 56.3977 210.255 56.5778V58.829H209.805V55.4973H210.165L210.255 55.9475C210.345 55.7674 210.525 55.6774 210.705 55.5873C210.885 55.4973 211.065 55.4072 211.335 55.4072C211.516 55.4072 211.696 55.4072 211.786 55.4973C211.966 55.4973 212.056 55.5873 212.146 55.6774C212.236 55.7674 212.326 55.9475 212.326 56.1276C212.416 56.3077 212.416 56.5778 212.416 56.848V58.829H211.876V58.919Z" fill="white"/>
<path d="M213.316 55.5887H213.857V54.9584L214.397 54.7783V55.5887H215.297V56.039H214.397V57.9299C214.397 58.2001 214.397 58.2901 214.487 58.3801C214.577 58.4702 214.667 58.5602 214.757 58.5602C214.847 58.5602 214.937 58.5602 215.027 58.5602C215.117 58.5602 215.207 58.4702 215.297 58.4702L215.387 58.9204C215.297 59.0105 215.117 59.0105 215.027 59.1005C214.847 59.1005 214.757 59.1906 214.577 59.1906C214.307 59.1906 214.127 59.1005 214.037 58.9204C213.947 58.7403 213.857 58.4702 213.857 58.11V56.129H213.316V55.5887Z" fill="white"/>
<path fill-rule="evenodd" clip-rule="evenodd" d="M0.0898438 37.941L28.9945 39.8319L56.2783 3.72363L25.9329 5.79468L0.0898438 37.941Z" fill="#8EC587"/>
<path fill-rule="evenodd" clip-rule="evenodd" d="M56.3661 3.72266L28.9922 39.8309L56.3661 72.6076L79.958 37.6699L56.3661 3.72266Z" fill="#CDE3A8"/>
<path fill-rule="evenodd" clip-rule="evenodd" d="M0 37.9404L29.0847 39.6513L56.3686 72.608L26.2933 68.2858L0 37.9404Z" fill="#699566"/>
<path fill-rule="evenodd" clip-rule="evenodd" d="M57.5396 47.5748L50.7862 39.0205L57.8097 29.3856L64.293 38.3902L57.5396 47.5748ZM47.1844 61.802L56.1889 49.826L49.0753 40.8214C49.0753 40.8214 41.9617 51.0866 40.4309 52.7074C38.9002 54.3283 36.4689 54.3283 36.4689 54.3283L29.4454 53.6079L35.8386 61.2618C35.8386 61.2618 44.0328 62.5224 44.8432 62.7025C45.5635 62.8826 47.1844 61.802 47.1844 61.802ZM26.2938 60.0011L19.8105 52.5273L25.8435 53.0676L32.2368 60.7215L26.2938 60.0011ZM8.73487 39.4707C8.01451 38.3902 8.82492 37.3096 8.82492 37.3096L17.2892 26.3241H23.9526C23.9526 26.3241 17.8295 34.3381 16.1186 36.4992C14.3177 38.8404 16.2087 41.4517 16.2087 41.4517L23.6824 50.7264L17.5593 49.916C17.6494 49.916 9.45524 40.5513 8.73487 39.4707ZM26.0236 15.5186L32.5069 15.3385L25.7535 24.0729H19.1802L26.0236 15.5186ZM47.6346 39.1105C47.6346 39.1105 40.0707 49.826 38.8101 50.9065C37.5495 51.9871 36.1988 51.807 36.1988 51.807L27.1042 50.8165C27.1042 50.8165 19.1802 41.1816 18.3698 40.101C17.3793 38.6603 18.1897 37.6698 18.1897 37.6698L26.9241 26.234C26.9241 26.234 36.1988 26.4141 36.3789 26.4141C37.7296 26.4141 39.0802 27.8548 39.0802 27.8548L47.6346 39.1105ZM35.3884 15.4285L28.725 24.163C28.725 24.163 35.9286 24.163 36.1087 24.163C38.9002 23.8028 40.611 25.8738 40.611 25.8738L49.4355 37.0395L56.279 27.4046C56.279 27.4046 48.8952 17.8598 48.2649 16.7792C47.2744 15.0684 45.2934 14.9783 45.2934 14.9783L35.3884 15.4285ZM67.1745 38.12L74.7383 27.3146C74.7383 27.3146 75.9989 24.7032 73.4777 23.8928C73.2976 23.8928 70.5062 24.163 70.5062 24.163L71.6768 25.8738C71.6768 25.8738 72.3971 25.7838 72.3971 25.8738C72.3971 25.9639 72.217 26.4141 72.127 26.5041L65.5537 36.049L59.3405 27.3146L67.2645 16.2389C67.2645 16.2389 68.165 14.5281 67.2645 13.6276C66.5442 12.9073 66.0939 12.9073 65.4636 12.9073C64.7432 12.9073 62.8523 13.0873 62.8523 13.0873L64.293 15.1584C64.3831 15.1584 65.0134 15.0684 65.0134 15.1584C65.0134 15.2484 64.8333 15.6987 64.7432 15.7887L57.7197 25.2435L49.7957 14.438C49.7957 14.438 48.445 12.1869 46.1038 12.367C44.3029 12.5471 37.6395 12.6371 37.6395 12.6371L44.483 3.90269C44.483 3.90269 45.0233 3.18233 45.5635 3.63256C46.3739 4.53301 46.1939 4.71311 46.0138 4.26288C46.464 4.26288 48.8052 4.08279 48.8052 4.08279C48.8052 4.08279 47.0043 1.65155 46.554 1.38142C46.1939 1.20133 44.1228 0.480961 42.9522 1.65155C41.4214 3.18233 40.7911 4.44297 40.7911 4.44297L34.4879 12.6371L27.9146 13.0873L35.0282 4.53301C35.0282 4.53301 35.6585 4.62306 36.0187 5.16333L38.9002 4.8932L37.5495 3.09228C37.5495 3.09228 36.1988 0.931189 33.3173 2.82215L25.0331 13.1774L16.0286 13.6276C16.0286 13.6276 14.3177 13.7177 14.5878 15.2484C14.858 16.7792 16.1186 18.0399 16.1186 18.0399L17.7394 15.9688L22.872 15.6086L16.3888 23.7127L7.56428 23.8928C7.56428 23.8928 5.49323 23.9829 6.57378 26.234C7.02401 27.3146 7.83442 28.215 7.83442 28.215L9.45524 26.144L14.4978 26.0539L7.02401 36.049C7.02401 36.049 5.13305 38.4802 6.93396 40.8214C8.28464 42.5323 14.4077 49.6459 14.4077 49.6459L9.99551 49.1056C9.99551 49.1056 9.09505 49.0156 9.09505 48.9255C9.09505 48.8355 9.1851 48.6554 9.27515 48.5653L8.01451 47.2146C8.01451 47.2146 6.48373 48.8355 6.75387 49.916C6.93396 50.6364 6.93396 51.2667 8.10455 51.4468C8.37469 51.5368 16.6589 52.3472 16.6589 52.3472L23.0521 59.821L18.2797 59.1007L18.0996 58.8305C18.0996 58.8305 17.2892 58.7405 17.2892 58.6504C17.2892 58.4703 17.3793 58.4703 17.5593 58.2002L16.1186 56.5794C16.1186 56.5794 14.948 58.3803 15.0381 59.1907C15.1281 59.9111 15.2182 60.5414 16.1186 61.0817C16.6589 61.3518 25.1232 62.1622 25.1232 62.1622L33.0472 71.3469C33.0472 71.3469 35.2083 74.2283 36.7391 72.3374C38.1798 70.6265 38.2698 69.9962 38.2698 69.9962L36.2888 69.636C36.2888 69.636 36.1087 70.2663 35.7486 70.2663C35.2983 70.2663 34.578 69.3659 34.578 69.3659L28.725 62.7025L34.578 63.4229L42.8622 73.3279C42.8622 73.3279 44.3029 74.4985 45.4735 74.0482C46.6441 73.598 47.8147 71.3469 47.8147 71.3469L45.6536 71.0767C45.6536 71.0767 45.2934 71.7971 45.0233 71.7971C44.6631 71.7971 43.8527 70.8966 43.8527 70.8966L37.9997 64.0532L46.0138 64.8636C46.0138 64.8636 48.1749 64.5935 49.2554 63.3328C50.426 62.0722 57.6296 51.5368 57.6296 51.5368L64.7432 60.4514L64.0229 61.0817L62.7622 62.9726C62.7622 62.9726 65.8238 63.1527 66.4541 62.6124C67.6247 61.6219 67.4446 60.0011 67.4446 60.0011L59.1604 49.4658L65.9138 40.2811L72.5772 49.1056V48.7454L70.5062 51.7169L73.4777 51.5368C73.4777 51.5368 75.3686 50.7264 75.0085 48.6554C74.8284 48.3852 67.1745 38.12 67.1745 38.12Z" fill="#495B68"/>
</svg>
