<svg width="146" height="50" viewBox="0 0 146 50" fill="none" xmlns="http://www.w3.org/2000/svg">
<path d="M75.8042 18.3417H70.6782V31.5486H66.9393V18.3417H61.8133V15.2661H75.7439V18.3417H75.8042Z" fill="#2B2A2A"/>
<path d="M90.5791 28.5329V31.5482H78.0958V15.2656H90.2776V18.2809H81.8348V21.8389H89.3127V24.7939H81.8348V28.5329H90.5791Z" fill="#2B2A2A"/>
<path d="M96.3081 15.2656L99.625 20.2107L102.942 15.2656H107.284L101.917 23.0451L107.706 31.5482H103.304L99.5647 26.181L95.886 31.5482H91.6646L97.3936 23.226L92.0264 15.2656H96.3081Z" fill="#2B2A2A"/>
<path d="M124.29 15.2656V31.5482H120.551V24.8542H113.254V31.5482H109.515V15.2656H113.254V21.658H120.551V15.2656H124.29Z" fill="#2B2A2A"/>
<path d="M139.185 28.0504H131.708L130.26 31.5482H126.461L133.637 15.2656H137.316L144.492 31.5482H140.572L139.185 28.0504ZM137.979 25.1558L135.446 18.9443L132.914 25.1558H137.979Z" fill="#2B2A2A"/>
<path d="M145.035 14.5425C145.337 14.7234 145.578 14.9646 145.759 15.2662C145.94 15.5677 146 15.9295 146 16.2914C146 16.6532 145.94 17.015 145.759 17.3166C145.578 17.6181 145.337 17.8593 145.035 18.0402C144.734 18.2211 144.372 18.2814 144.01 18.2814C143.648 18.2814 143.286 18.2211 142.985 18.0402C142.683 17.8593 142.442 17.6181 142.261 17.3166C142.08 17.015 142.02 16.6532 142.02 16.2914C142.02 15.9295 142.08 15.5677 142.261 15.2662C142.442 14.9646 142.683 14.7234 142.985 14.5425C143.286 14.3616 143.648 14.3013 144.01 14.3013C144.372 14.3013 144.734 14.3616 145.035 14.5425ZM144.854 17.7387C145.095 17.6181 145.276 17.3769 145.457 17.1356C145.578 16.8944 145.698 16.5929 145.698 16.2914C145.698 15.9898 145.638 15.6883 145.518 15.4471C145.397 15.2059 145.216 15.0249 144.915 14.844C144.673 14.7234 144.372 14.6028 144.07 14.6028C143.769 14.6028 143.467 14.6631 143.226 14.844C142.985 14.9646 142.804 15.2059 142.623 15.4471C142.502 15.6883 142.442 15.9898 142.442 16.2914C142.442 16.5929 142.502 16.8944 142.623 17.1356C142.744 17.3769 142.924 17.5578 143.226 17.7387C143.467 17.8593 143.769 17.9799 144.07 17.9799C144.311 17.9799 144.613 17.8593 144.854 17.7387ZM144.975 16.412C144.915 16.5326 144.794 16.5929 144.673 16.7135L145.156 17.4372H144.553L144.131 16.7738H143.769V17.4372H143.166V15.2059H144.131C144.432 15.2059 144.673 15.2662 144.854 15.4471C145.035 15.5677 145.095 15.8089 145.095 16.0501C145.095 16.1707 145.035 16.2914 144.975 16.412ZM144.07 16.3517C144.191 16.3517 144.311 16.3517 144.372 16.2914C144.432 16.2311 144.492 16.1707 144.492 16.0501C144.492 15.9295 144.432 15.8692 144.372 15.8089C144.311 15.7486 144.191 15.6883 144.07 15.6883H143.708V16.3517H144.07Z" fill="#2B2A2A"/>
<path d="M64.7079 37.2181H65.0698V37.0974C65.0698 36.9768 65.0698 36.8562 65.1301 36.7356C65.1301 36.615 65.1904 36.5547 65.2507 36.4944C65.311 36.4341 65.3713 36.3738 65.4316 36.3738C65.4919 36.3135 65.6125 36.3135 65.7331 36.3135C65.8538 36.3135 65.9141 36.3135 65.9744 36.3135C66.0347 36.3135 66.095 36.3738 66.2156 36.3738L66.1553 36.6753C66.095 36.6753 66.0347 36.615 65.9744 36.615C65.9141 36.615 65.8538 36.615 65.7934 36.615C65.7331 36.615 65.6728 36.615 65.6125 36.6753C65.5522 36.7356 65.5522 36.7356 65.4919 36.7959C65.4919 36.8562 65.4316 36.9165 65.4316 36.9768C65.4316 37.0371 65.4316 37.0975 65.4316 37.2181V37.2784H66.0347V37.5799H65.4316V39.5097H65.0698V37.5799H64.7079V37.2181Z" fill="#0A4F28"/>
<path d="M68.1453 39.2672C68.085 39.3275 67.9644 39.3878 67.7835 39.4481C67.6629 39.5084 67.482 39.5084 67.3614 39.5084C67.1805 39.5084 67.0598 39.5084 66.9392 39.4481C66.8186 39.3878 66.698 39.3275 66.6377 39.2069C66.5774 39.0863 66.5171 38.9657 66.4568 38.845C66.3965 38.7244 66.3965 38.5435 66.3965 38.3626C66.3965 38.0008 66.4568 37.6992 66.6377 37.5183C66.8186 37.3374 67.0598 37.2168 67.3614 37.2168C67.482 37.2168 67.5423 37.2168 67.6629 37.2771C67.7835 37.2771 67.8438 37.3374 67.9041 37.3977C67.9644 37.458 68.0247 37.5786 68.085 37.6389C68.1454 37.6992 68.1453 37.8802 68.1453 38.1214C68.1453 38.242 68.1453 38.3023 68.1453 38.4229H66.7583C66.7583 38.5435 66.7583 38.6641 66.8186 38.7847C66.8186 38.9054 66.8789 38.9657 66.9392 39.026C66.9995 39.0863 67.0598 39.1466 67.1805 39.2069C67.2408 39.2672 67.3614 39.2672 67.482 39.2672C67.6026 39.2672 67.6629 39.2672 67.7835 39.2069C67.9041 39.1466 67.9644 39.1466 68.0247 39.0863L68.1453 39.2672ZM67.3614 37.458C67.1805 37.458 67.0598 37.5183 66.9392 37.5786C66.8186 37.6992 66.7583 37.8199 66.7583 38.0611H67.8438C67.8438 37.8199 67.7835 37.6992 67.7232 37.5786C67.6629 37.458 67.5423 37.458 67.3614 37.458Z" fill="#0A4F28"/>
<path d="M70.3767 39.4476V38.1812C70.3767 37.94 70.3164 37.7591 70.2561 37.6385C70.1958 37.5178 70.0752 37.4575 69.8943 37.4575C69.7134 37.4575 69.5927 37.5178 69.5324 37.5781C69.4118 37.6385 69.3515 37.7591 69.2912 37.8797V39.3873H68.9294V37.156H69.1706L69.2309 37.4575C69.2912 37.3369 69.4118 37.2766 69.5324 37.2163C69.6531 37.156 69.7737 37.0957 69.9546 37.0957C70.0752 37.0957 70.1958 37.0957 70.2561 37.156C70.3767 37.156 70.437 37.2163 70.4973 37.2766C70.5576 37.3369 70.6179 37.4575 70.6179 37.5781C70.6179 37.6988 70.6782 37.8797 70.6782 38.0606V39.3873H70.3767V39.4476Z" fill="#0A4F28"/>
<path d="M73.1508 39.2669C73.0905 39.3273 72.9699 39.3876 72.8492 39.3876C72.7286 39.4479 72.608 39.4479 72.4874 39.4479C72.3065 39.4479 72.1859 39.4479 72.0653 39.3876C71.9447 39.3273 71.8241 39.2669 71.7637 39.1463C71.7034 39.0257 71.6431 38.9051 71.5828 38.7845C71.5225 38.6639 71.5225 38.483 71.5225 38.3021C71.5225 37.9402 71.5828 37.6387 71.7637 37.4578C71.9447 37.2769 72.1859 37.1562 72.4874 37.1562C72.608 37.1562 72.7286 37.1563 72.8492 37.2166C72.9699 37.2166 73.0302 37.2769 73.0905 37.3372L72.9699 37.5784C72.9096 37.5181 72.8492 37.5181 72.7286 37.4578C72.6683 37.4578 72.5477 37.3975 72.4874 37.3975C72.0653 37.3975 71.8844 37.699 71.8844 38.2418C71.8844 38.3624 71.8844 38.483 71.9447 38.5433C71.9447 38.6639 72.005 38.7242 72.0653 38.8448C72.1256 38.9051 72.1859 38.9654 72.2462 39.0257C72.3065 39.086 72.4271 39.086 72.5477 39.086C72.6683 39.086 72.7286 39.086 72.8492 39.0257C72.9096 38.9654 73.0302 38.9654 73.0302 38.9051L73.1508 39.2669Z" fill="#0A4F28"/>
<path d="M73.8141 36.4932C73.8141 36.4329 73.8141 36.3726 73.8745 36.3123C73.9348 36.252 73.9951 36.252 74.0554 36.252C74.1157 36.252 74.176 36.252 74.2363 36.3123C74.2966 36.3726 74.2966 36.4329 74.2966 36.4932C74.2966 36.5535 74.2966 36.6138 74.2363 36.6741C74.176 36.7344 74.1157 36.7344 74.0554 36.7344C73.9951 36.7344 73.9348 36.7344 73.8745 36.6741C73.8745 36.6138 73.8141 36.6138 73.8141 36.4932ZM73.9348 37.2168H74.2966V39.4482H73.9348V37.2168Z" fill="#0A4F28"/>
<path d="M76.6485 39.4476V38.1812C76.6485 37.94 76.5882 37.7591 76.5279 37.6385C76.4676 37.5178 76.347 37.4575 76.1661 37.4575C75.9851 37.4575 75.8645 37.5178 75.8042 37.5781C75.6836 37.6385 75.6233 37.7591 75.563 37.8797V39.3873H75.2012V37.156H75.4424L75.5027 37.4575C75.563 37.3369 75.6836 37.2766 75.8042 37.2163C75.9248 37.156 76.0455 37.0957 76.2264 37.0957C76.347 37.0957 76.4676 37.0957 76.5279 37.156C76.6485 37.156 76.7088 37.2163 76.7691 37.2766C76.8294 37.3369 76.8897 37.4575 76.8897 37.5781C76.95 37.6988 76.95 37.8797 76.95 38.0606V39.3873H76.6485V39.4476Z" fill="#0A4F28"/>
<path d="M79.5432 39.5087C79.5432 39.8102 79.4829 39.9911 79.302 40.172C79.121 40.2926 78.9401 40.3529 78.6386 40.3529C78.4577 40.3529 78.3371 40.3529 78.2165 40.2926C78.0958 40.2926 78.0355 40.2323 77.9149 40.2323L78.0355 39.9308C78.0958 39.9308 78.1562 39.9911 78.2768 39.9911C78.3974 39.9911 78.4577 40.0514 78.5783 40.0514C78.6989 40.0514 78.8195 40.0514 78.8798 39.9911C78.9401 39.9911 79.0004 39.9308 79.0607 39.8705C79.121 39.8102 79.121 39.7499 79.1814 39.6896C79.1814 39.6293 79.1814 39.5087 79.1814 39.3881V39.1468C79.121 39.2071 79.0607 39.3277 78.9401 39.3277C78.8195 39.3881 78.7592 39.3881 78.5783 39.3881C78.2768 39.3881 78.0355 39.2674 77.9149 39.0865C77.7943 38.9056 77.734 38.6041 77.734 38.1819C77.734 37.8201 77.7943 37.5186 77.9752 37.3377C78.1562 37.1567 78.3974 37.0361 78.7592 37.0361C78.9401 37.0361 79.0607 37.0361 79.1814 37.0964C79.302 37.0964 79.4226 37.1567 79.4829 37.2171V39.5087H79.5432ZM78.6989 39.1468C78.8195 39.1468 78.9401 39.0865 79.0607 39.0262C79.121 38.9659 79.1813 38.8453 79.2417 38.6644V37.5789C79.121 37.5186 79.0004 37.5186 78.8195 37.5186C78.6386 37.5186 78.4577 37.5789 78.3371 37.6995C78.2165 37.8201 78.1562 38.0613 78.1562 38.3629C78.1562 38.4835 78.1562 38.6041 78.2165 38.7247C78.2768 38.8453 78.2768 38.9056 78.3371 38.9659C78.3974 39.0262 78.4577 39.0865 78.518 39.1468C78.518 39.1468 78.5783 39.1468 78.6989 39.1468Z" fill="#0A4F28"/>
<path d="M82.86 38.845C82.86 38.7847 82.86 38.6641 82.7997 38.6641C82.7394 38.6641 82.6791 38.5435 82.6188 38.5435C82.5584 38.4832 82.4378 38.4832 82.3775 38.4229C82.3172 38.3626 82.1966 38.3626 82.1363 38.3023C82.076 38.242 82.0157 38.1817 81.9554 38.1214C81.8951 38.0611 81.8951 37.9405 81.8951 37.8199C81.8951 37.5786 81.9554 37.458 82.076 37.3374C82.1966 37.2168 82.3775 37.2168 82.5584 37.2168C82.7394 37.2168 82.86 37.2168 82.9806 37.2771C83.1012 37.2771 83.1615 37.3374 83.2821 37.3977L83.2218 37.6992C83.1615 37.6389 83.1012 37.6389 82.9806 37.6389C82.86 37.6389 82.7997 37.5786 82.6791 37.5786C82.5584 37.5786 82.4378 37.5786 82.3775 37.6389C82.3172 37.6992 82.3172 37.7595 82.3172 37.8802C82.3172 37.9405 82.3172 38.0008 82.3775 38.0611C82.4378 38.1214 82.4981 38.1214 82.5584 38.1817C82.6187 38.242 82.7394 38.242 82.7997 38.3023C82.9203 38.3626 82.9806 38.3626 83.0409 38.4229C83.1012 38.4832 83.1615 38.5435 83.2218 38.6038C83.2821 38.6641 83.2821 38.7847 83.2821 38.9054C83.2821 39.026 83.2821 39.0863 83.2218 39.1466C83.1615 39.2069 83.1615 39.3275 83.1012 39.3878C83.0409 39.4481 82.9806 39.5084 82.86 39.5084C82.7394 39.5687 82.6791 39.5687 82.4981 39.5687C82.3172 39.5687 82.1966 39.5687 82.076 39.5084C81.9554 39.4481 81.8348 39.4481 81.7745 39.3878L81.8951 39.0863C81.9554 39.1466 82.076 39.1466 82.1363 39.2069C82.1966 39.2672 82.3775 39.2672 82.4378 39.2672C82.5584 39.2672 82.6791 39.2672 82.7394 39.2069C82.7997 39.1466 82.86 38.9657 82.86 38.845Z" fill="#0A4F28"/>
<path d="M84.6089 38.6639L84.7295 39.086L84.8501 38.6639L85.2722 37.2166H85.6341L84.9707 39.2066C84.9104 39.3273 84.8501 39.5082 84.8501 39.6288C84.7898 39.7494 84.7295 39.87 84.6692 39.9906C84.6089 40.1112 84.5486 40.1715 84.4883 40.2318C84.428 40.2921 84.3073 40.3524 84.247 40.3524C84.1264 40.3524 84.0661 40.3525 84.0058 40.2921L84.0661 39.9906C84.1264 39.9906 84.1264 39.9906 84.1867 39.9906C84.247 39.9906 84.3676 39.9303 84.428 39.87C84.4883 39.8097 84.5486 39.6288 84.6089 39.3876L83.7043 37.1562H84.1264L84.6089 38.6639Z" fill="#0A4F28"/>
<path d="M87.202 38.845C87.202 38.7847 87.202 38.6641 87.1417 38.6641C87.0813 38.6641 87.021 38.5435 86.9607 38.5435C86.9004 38.4832 86.7798 38.4832 86.7195 38.4229C86.6592 38.3626 86.5386 38.3626 86.4783 38.3023C86.418 38.242 86.3577 38.1817 86.2974 38.1214C86.2371 38.0611 86.2371 37.9405 86.2371 37.8199C86.2371 37.5786 86.2974 37.458 86.418 37.3374C86.5386 37.2168 86.7195 37.2168 86.9004 37.2168C87.0814 37.2168 87.202 37.2168 87.3226 37.2771C87.4432 37.2771 87.5035 37.3374 87.6241 37.3977L87.4432 37.5786C87.3829 37.5183 87.3226 37.5183 87.202 37.5183C87.0814 37.5183 87.021 37.458 86.9004 37.458C86.7798 37.458 86.6592 37.458 86.5989 37.5183C86.5386 37.5786 86.5386 37.6389 86.5386 37.7595C86.5386 37.8199 86.5386 37.8802 86.5989 37.9405C86.6592 38.0008 86.7195 38.0008 86.7798 38.0611C86.8401 38.1214 86.9607 38.1214 87.021 38.1817C87.1417 38.242 87.202 38.242 87.2623 38.3023C87.3226 38.3626 87.3829 38.4229 87.4432 38.4832C87.5035 38.5435 87.5035 38.6641 87.5035 38.7847C87.5035 38.9054 87.5035 38.9657 87.4432 39.026C87.3829 39.0863 87.3829 39.2069 87.3226 39.2672C87.2623 39.3275 87.202 39.3878 87.0813 39.3878C86.9607 39.4481 86.9004 39.4481 86.7195 39.4481C86.5386 39.4481 86.418 39.4481 86.2974 39.3878C86.1768 39.3275 86.0562 39.3275 85.9958 39.2672L86.1165 38.9657C86.1768 39.026 86.2974 39.026 86.3577 39.0863C86.418 39.1466 86.5989 39.1466 86.6592 39.1466C86.7798 39.1466 86.9004 39.1466 86.9607 39.0863C87.021 39.026 87.202 38.9657 87.202 38.845Z" fill="#0A4F28"/>
<path d="M88.0463 37.2171H88.4081V36.7949L88.7699 36.6743V37.2171H89.373V37.5186H88.7699V38.785C88.7699 38.9659 88.7699 39.0262 88.8302 39.0865C88.8905 39.1468 88.9509 39.2072 89.0112 39.2072C89.0715 39.2072 89.1318 39.2072 89.1921 39.2072C89.2524 39.2072 89.3127 39.1468 89.373 39.1468L89.4333 39.4484C89.373 39.5087 89.2524 39.5087 89.1921 39.569C89.0715 39.569 89.0112 39.6293 88.8905 39.6293C88.7096 39.6293 88.589 39.569 88.5287 39.4484C88.4684 39.3278 88.4081 39.1468 88.4081 38.9056V37.5789H88.0463V37.2171Z" fill="#0A4F28"/>
<path d="M91.6043 39.2672C91.544 39.3275 91.4234 39.3878 91.2424 39.4481C91.1218 39.5084 90.9409 39.5084 90.8203 39.5084C90.6394 39.5084 90.5188 39.5084 90.3982 39.4481C90.2775 39.3878 90.1569 39.3275 90.0966 39.2069C90.0363 39.0863 89.976 38.9657 89.9157 38.845C89.8554 38.7244 89.8554 38.5435 89.8554 38.3626C89.8554 38.0008 89.9157 37.6992 90.0966 37.5183C90.2775 37.3374 90.5188 37.2168 90.8203 37.2168C90.9409 37.2168 91.0012 37.2168 91.1218 37.2771C91.2424 37.3374 91.3027 37.3374 91.363 37.3977C91.4234 37.458 91.4837 37.5786 91.544 37.6389C91.6043 37.7595 91.6043 37.8802 91.6043 38.1214C91.6043 38.242 91.6043 38.3023 91.6043 38.4229H90.2172C90.2172 38.5435 90.2172 38.6641 90.2775 38.7847C90.2775 38.9054 90.3378 38.9657 90.3982 39.026C90.4585 39.0863 90.5188 39.1466 90.6394 39.2069C90.6997 39.2672 90.8203 39.2672 90.9409 39.2672C91.0615 39.2672 91.1218 39.2672 91.2424 39.2069C91.3631 39.1466 91.4234 39.1466 91.4837 39.0863L91.6043 39.2672ZM90.8203 37.458C90.6394 37.458 90.5188 37.5183 90.3982 37.5786C90.2775 37.6992 90.2172 37.8199 90.2172 38.0611H91.3027C91.3027 37.8199 91.2424 37.6992 91.1821 37.5786C91.1218 37.5183 91.0012 37.458 90.8203 37.458Z" fill="#0A4F28"/>
<path d="M93.7753 39.4484V38.1819C93.7753 38.0613 93.7753 37.9407 93.7753 37.8804C93.7753 37.8201 93.7753 37.6995 93.715 37.6392C93.6547 37.5789 93.6547 37.5186 93.5944 37.5186C93.534 37.5186 93.4737 37.4583 93.3531 37.4583C93.2325 37.4583 93.1119 37.5186 92.9913 37.5789C92.931 37.6392 92.8104 37.7598 92.8104 37.8804V39.3881H92.4485V37.1567H92.6898L92.7501 37.4583C92.8104 37.3377 92.931 37.2774 93.0516 37.2171C93.1722 37.1567 93.2928 37.0964 93.4737 37.0964C93.5944 37.0964 93.715 37.0964 93.8356 37.1567C93.8959 37.2171 94.0165 37.3377 94.0165 37.4583C94.0768 37.3377 94.1974 37.2774 94.318 37.1567C94.4386 37.0361 94.5592 37.0361 94.7402 37.0361C94.8608 37.0361 94.9814 37.0361 95.0417 37.0964C95.102 37.0964 95.2226 37.1567 95.2829 37.2171C95.3432 37.2774 95.4035 37.398 95.4035 37.5186C95.4035 37.6392 95.4638 37.8201 95.4638 38.001V39.3277H95.102V38.001C95.102 37.8804 95.102 37.8201 95.102 37.6995C95.102 37.6392 95.0417 37.5789 95.0417 37.5186C94.9814 37.4583 94.9814 37.398 94.9211 37.398C94.8608 37.398 94.8005 37.3377 94.6799 37.3377C94.5592 37.3377 94.4386 37.398 94.318 37.4583C94.1974 37.5186 94.1974 37.6392 94.1371 37.8201V39.3277H93.7753V39.4484Z" fill="#0A4F28"/>
<path d="M97.2127 38.845C97.2127 38.7847 97.2127 38.6641 97.1524 38.6641C97.0921 38.6641 97.0318 38.5435 96.9715 38.5435C96.9112 38.4832 96.7906 38.4832 96.7303 38.4229C96.6699 38.3626 96.5493 38.3626 96.489 38.3023C96.4287 38.242 96.3684 38.1817 96.3081 38.1214C96.2478 38.0611 96.2478 37.9405 96.2478 37.8199C96.2478 37.5786 96.3081 37.458 96.4287 37.3374C96.5493 37.2168 96.7303 37.2168 96.9112 37.2168C97.0921 37.2168 97.2127 37.2168 97.3333 37.2771C97.4539 37.2771 97.5142 37.3374 97.6348 37.3977L97.5745 37.6992C97.5142 37.6389 97.4539 37.6389 97.3333 37.6389C97.2127 37.6389 97.1524 37.5786 97.0318 37.5786C96.9112 37.5786 96.7906 37.5786 96.7303 37.6389C96.6699 37.6992 96.67 37.7595 96.67 37.8802C96.67 37.9405 96.6699 38.0008 96.7303 38.0611C96.7906 38.1214 96.8509 38.1214 96.9112 38.1817C96.9715 38.242 97.0921 38.242 97.1524 38.3023C97.273 38.3626 97.3333 38.3626 97.3936 38.4229C97.4539 38.4832 97.5142 38.5435 97.5745 38.6038C97.6348 38.6641 97.6348 38.7847 97.6348 38.9054C97.6348 39.026 97.6348 39.0863 97.5745 39.1466C97.5142 39.2069 97.5142 39.3275 97.4539 39.3878C97.3936 39.4481 97.3333 39.5084 97.2127 39.5084C97.0921 39.5687 97.0318 39.5687 96.8509 39.5687C96.67 39.5687 96.5493 39.5687 96.4287 39.5084C96.3081 39.4481 96.1875 39.4481 96.1272 39.3878L96.2478 39.0863C96.3081 39.1466 96.4287 39.1466 96.489 39.2069C96.5493 39.2672 96.7303 39.2672 96.7906 39.2672C96.9112 39.2672 97.0318 39.2672 97.0921 39.2069C97.1524 39.1466 97.2127 38.9657 97.2127 38.845Z" fill="#0A4F28"/>
<path d="M99.6852 37.3369C99.8059 37.2766 99.9265 37.2163 100.047 37.156C100.168 37.0957 100.349 37.0957 100.53 37.0957C100.71 37.0957 100.831 37.0957 100.891 37.156C101.012 37.2163 101.072 37.2766 101.133 37.3369C101.193 37.3972 101.193 37.4575 101.253 37.5781C101.253 37.6385 101.253 37.7591 101.253 37.8194C101.253 38.0003 101.253 38.1812 101.253 38.3621C101.253 38.543 101.253 38.6636 101.253 38.8446C101.253 38.9652 101.253 39.0858 101.253 39.1461C101.253 39.2667 101.253 39.327 101.313 39.4476H101.072L100.952 39.1461C100.952 39.2064 100.891 39.2064 100.831 39.2667C100.771 39.327 100.771 39.327 100.71 39.3873C100.65 39.4476 100.59 39.4476 100.53 39.4476C100.469 39.4476 100.349 39.5079 100.288 39.5079C100.168 39.5079 100.107 39.5079 100.047 39.4476C99.9868 39.3873 99.8662 39.3873 99.8662 39.327C99.8662 39.2667 99.7455 39.2064 99.7455 39.1461C99.6852 39.0858 99.6852 38.9652 99.6852 38.9049C99.6852 38.7843 99.6852 38.6637 99.7455 38.6033C99.8058 38.543 99.8662 38.4224 99.9868 38.4224C100.107 38.3621 100.168 38.3621 100.349 38.3018C100.469 38.3018 100.65 38.2415 100.771 38.2415C100.831 38.2415 100.831 38.2415 100.891 38.2415C100.952 38.2415 100.952 38.2415 101.012 38.2415C101.012 38.1812 101.012 38.0606 101.012 38.0003C101.012 37.8194 100.952 37.6988 100.891 37.6385C100.831 37.5781 100.71 37.5178 100.53 37.5178C100.469 37.5178 100.409 37.5178 100.349 37.5178C100.288 37.5178 100.228 37.5178 100.168 37.5781C100.107 37.5781 100.047 37.6385 99.9868 37.6385C99.9265 37.6385 99.8662 37.6988 99.8662 37.6988L99.6852 37.3369ZM100.349 39.1461C100.409 39.1461 100.53 39.1461 100.59 39.0858C100.65 39.0858 100.71 39.0255 100.771 39.0255C100.831 38.9652 100.831 38.9652 100.891 38.9049C100.952 38.8446 100.952 38.8446 100.952 38.7843V38.4224C100.891 38.4224 100.891 38.4224 100.831 38.4224C100.771 38.4224 100.771 38.4224 100.71 38.4224C100.59 38.4224 100.53 38.4224 100.469 38.4224C100.409 38.4224 100.288 38.4224 100.228 38.4827C100.168 38.4827 100.107 38.543 100.047 38.6033C99.9868 38.6637 99.9868 38.724 99.9868 38.7843C99.9868 38.9049 100.047 38.9652 100.107 39.0255C100.107 39.0858 100.228 39.1461 100.349 39.1461Z" fill="#0A4F28"/>
<path d="M103.605 39.4476V38.1812C103.605 37.94 103.545 37.7591 103.485 37.6385C103.424 37.5178 103.304 37.4575 103.123 37.4575C102.942 37.4575 102.821 37.5178 102.761 37.5781C102.64 37.6385 102.58 37.7591 102.52 37.8797V39.3873H102.158V37.156H102.399L102.459 37.4575C102.52 37.3369 102.64 37.2766 102.761 37.2163C102.881 37.156 103.002 37.0957 103.183 37.0957C103.304 37.0957 103.424 37.0957 103.485 37.156C103.605 37.156 103.665 37.2163 103.726 37.2766C103.786 37.3369 103.846 37.4575 103.846 37.5781C103.907 37.6988 103.907 37.8797 103.907 38.0606V39.3873H103.605V39.4476Z" fill="#0A4F28"/>
<path d="M106.5 38.6644C106.5 38.8453 106.5 38.9659 106.5 39.0866C106.5 39.2072 106.5 39.3278 106.56 39.4484H106.319L106.259 39.1469C106.198 39.2675 106.138 39.3278 106.017 39.3881C105.897 39.4484 105.776 39.5087 105.595 39.5087C105.294 39.5087 105.052 39.3881 104.932 39.2072C104.811 39.0263 104.691 38.7247 104.691 38.3026C104.691 37.9408 104.751 37.6392 104.932 37.4583C105.113 37.2774 105.354 37.1568 105.655 37.1568C105.776 37.1568 105.836 37.1568 105.897 37.1568C105.957 37.1568 106.017 37.2171 106.078 37.2171V36.3125H106.439V38.6644H106.5ZM105.595 39.1469C105.716 39.1469 105.836 39.0866 105.957 39.0263C106.017 38.9659 106.078 38.8453 106.138 38.6644V37.5789C106.078 37.5186 106.017 37.5186 105.957 37.5186C105.897 37.5186 105.776 37.5186 105.716 37.5186C105.535 37.5186 105.354 37.5789 105.233 37.6995C105.113 37.8201 105.052 38.0614 105.052 38.3629C105.052 38.4835 105.052 38.6041 105.052 38.7247C105.052 38.8453 105.113 38.9056 105.173 38.9659C105.233 39.0263 105.294 39.0866 105.354 39.1469C105.414 39.1469 105.475 39.1469 105.595 39.1469Z" fill="#0A4F28"/>
<path d="M109.756 38.845C109.756 38.7847 109.756 38.6641 109.696 38.6641C109.636 38.6641 109.575 38.5435 109.515 38.5435C109.455 38.4832 109.334 38.4832 109.274 38.4229C109.214 38.3626 109.093 38.3626 109.033 38.3023C108.972 38.242 108.912 38.1817 108.852 38.1214C108.791 38.0611 108.791 37.9405 108.791 37.8199C108.791 37.5786 108.852 37.458 108.972 37.3374C109.093 37.2168 109.274 37.2168 109.455 37.2168C109.636 37.2168 109.756 37.2168 109.877 37.2771C109.998 37.2771 110.058 37.3374 110.178 37.3977L110.118 37.6992C110.058 37.6389 109.998 37.6389 109.877 37.6389C109.756 37.6389 109.696 37.5786 109.575 37.5786C109.455 37.5786 109.334 37.5786 109.274 37.6389C109.214 37.6992 109.214 37.7595 109.214 37.8802C109.214 37.9405 109.214 38.0008 109.274 38.0611C109.334 38.1214 109.394 38.1214 109.455 38.1817C109.515 38.242 109.636 38.242 109.696 38.3023C109.817 38.3626 109.877 38.3626 109.937 38.4229C109.998 38.4832 110.058 38.5435 110.118 38.6038C110.178 38.6641 110.178 38.7847 110.178 38.9054C110.178 39.026 110.178 39.0863 110.118 39.1466C110.058 39.2069 110.058 39.3275 109.997 39.3878C109.937 39.4481 109.877 39.5084 109.756 39.5084C109.636 39.5687 109.575 39.5687 109.394 39.5687C109.214 39.5687 109.093 39.5687 108.972 39.5084C108.852 39.4481 108.731 39.4481 108.671 39.3878L108.791 39.0863C108.852 39.1466 108.972 39.1466 109.033 39.2069C109.093 39.2672 109.274 39.2672 109.334 39.2672C109.455 39.2672 109.575 39.2672 109.636 39.2069C109.696 39.1466 109.756 38.9657 109.756 38.845Z" fill="#0A4F28"/>
<path d="M110.842 37.3369C110.962 37.2766 111.083 37.2163 111.204 37.156C111.324 37.0957 111.505 37.0957 111.686 37.0957C111.867 37.0957 111.988 37.0957 112.048 37.156C112.169 37.2163 112.229 37.2766 112.289 37.3369C112.349 37.3972 112.349 37.4575 112.41 37.5781C112.41 37.6385 112.41 37.7591 112.41 37.8194C112.41 38.0003 112.41 38.1812 112.41 38.3621C112.41 38.543 112.41 38.6636 112.41 38.8446C112.41 38.9652 112.41 39.0858 112.41 39.1461C112.41 39.2667 112.41 39.327 112.47 39.4476H112.169L112.048 39.1461C112.048 39.2064 111.988 39.2064 111.927 39.2667C111.867 39.327 111.867 39.327 111.807 39.3873C111.746 39.4476 111.686 39.4476 111.626 39.4476C111.565 39.4476 111.445 39.5079 111.385 39.5079C111.264 39.5079 111.204 39.5079 111.143 39.4476C111.083 39.3873 110.962 39.3873 110.962 39.327C110.962 39.2667 110.842 39.2064 110.842 39.1461C110.781 39.0858 110.781 38.9652 110.781 38.9049C110.781 38.7843 110.781 38.6637 110.842 38.6033C110.902 38.543 110.962 38.4224 111.083 38.4224C111.204 38.3621 111.264 38.3621 111.445 38.3018C111.565 38.3018 111.746 38.2415 111.867 38.2415C111.927 38.2415 111.927 38.2415 111.988 38.2415C112.048 38.2415 112.048 38.2415 112.108 38.2415C112.108 38.1812 112.108 38.0606 112.108 38.0003C112.108 37.8194 112.048 37.6988 111.988 37.6385C111.927 37.5781 111.807 37.5178 111.626 37.5178C111.565 37.5178 111.505 37.5178 111.445 37.5178C111.385 37.5178 111.324 37.5178 111.264 37.5781C111.204 37.5781 111.143 37.6385 111.083 37.6385C111.023 37.6385 110.962 37.6988 110.962 37.6988L110.842 37.3369ZM111.445 39.1461C111.505 39.1461 111.626 39.1461 111.686 39.0858C111.746 39.0858 111.807 39.0255 111.867 39.0255C111.927 38.9652 111.927 38.9652 111.988 38.9049C112.048 38.8446 112.048 38.8446 112.048 38.7843V38.4224C111.988 38.4224 111.988 38.4224 111.927 38.4224C111.867 38.4224 111.867 38.4224 111.807 38.4224C111.686 38.4224 111.626 38.4224 111.565 38.4224C111.505 38.4224 111.385 38.4224 111.324 38.4827C111.264 38.4827 111.204 38.543 111.143 38.6033C111.083 38.6637 111.083 38.724 111.083 38.7843C111.083 38.9049 111.143 38.9652 111.204 39.0255C111.264 39.0858 111.385 39.1461 111.445 39.1461Z" fill="#0A4F28"/>
<path d="M113.073 37.2171H113.435V37.0965C113.435 36.9759 113.435 36.8552 113.495 36.7346C113.495 36.614 113.556 36.5537 113.616 36.4934C113.676 36.4331 113.736 36.3728 113.797 36.3728C113.857 36.3728 113.978 36.3125 114.098 36.3125C114.219 36.3125 114.279 36.3125 114.339 36.3125C114.4 36.3125 114.46 36.3728 114.581 36.3728L114.52 36.6743C114.46 36.6743 114.4 36.614 114.339 36.614C114.279 36.614 114.219 36.614 114.159 36.614C114.098 36.614 114.038 36.614 113.978 36.6743C113.917 36.6743 113.917 36.7346 113.857 36.7949C113.857 36.8553 113.797 36.9156 113.797 36.9759C113.797 37.0362 113.797 37.0965 113.797 37.2171V37.2774H114.4V37.5789H113.797V39.5087H113.375V37.5789H113.013V37.2171H113.073Z" fill="#0A4F28"/>
<path d="M116.511 39.2672C116.45 39.3275 116.33 39.3878 116.149 39.4481C116.028 39.5084 115.847 39.5084 115.727 39.5084C115.546 39.5084 115.425 39.5084 115.304 39.4481C115.184 39.3878 115.063 39.3275 115.003 39.2069C114.943 39.0863 114.882 38.9657 114.822 38.845C114.762 38.7244 114.762 38.5435 114.762 38.3626C114.762 38.0008 114.822 37.6992 115.003 37.5183C115.184 37.3374 115.425 37.2168 115.727 37.2168C115.847 37.2168 115.907 37.2168 116.028 37.2771C116.149 37.3374 116.209 37.3374 116.269 37.3977C116.33 37.458 116.39 37.5786 116.45 37.6389C116.511 37.7595 116.511 37.8802 116.511 38.1214C116.511 38.242 116.511 38.3023 116.511 38.4229H115.123C115.123 38.5435 115.123 38.6641 115.184 38.7847C115.184 38.9054 115.244 38.9657 115.304 39.026C115.365 39.0863 115.425 39.1466 115.546 39.2069C115.606 39.2672 115.727 39.2672 115.847 39.2672C115.968 39.2672 116.028 39.2672 116.149 39.2069C116.269 39.1466 116.33 39.1466 116.39 39.0863L116.511 39.2672ZM115.727 37.458C115.546 37.458 115.425 37.5183 115.304 37.5786C115.184 37.6992 115.123 37.8199 115.123 38.0611H116.209C116.209 37.8199 116.149 37.6992 116.088 37.5786C116.028 37.5183 115.907 37.458 115.727 37.458Z" fill="#0A4F28"/>
<path d="M117.053 37.2171H117.415V36.7949L117.777 36.6743V37.2171H118.38V37.5186H117.777V38.785C117.777 38.9659 117.777 39.0262 117.837 39.0865C117.898 39.1468 117.958 39.2072 118.018 39.2072C118.078 39.2072 118.139 39.2072 118.199 39.2072C118.259 39.2072 118.32 39.1468 118.38 39.1468L118.44 39.4484C118.38 39.5087 118.259 39.5087 118.199 39.569C118.078 39.569 118.018 39.6293 117.898 39.6293C117.717 39.6293 117.596 39.569 117.536 39.4484C117.475 39.3278 117.415 39.1468 117.415 38.9056V37.5789H117.053V37.2171Z" fill="#0A4F28"/>
<path d="M119.707 38.6639L119.827 39.086L119.948 38.6639L120.37 37.2166H120.732L120.069 39.2066C120.008 39.3273 119.948 39.5082 119.948 39.6288C119.888 39.7494 119.827 39.87 119.767 39.9906C119.707 40.1112 119.646 40.1715 119.586 40.2318C119.526 40.2921 119.405 40.3524 119.345 40.3524C119.224 40.3524 119.164 40.3525 119.104 40.2921L119.164 39.9906C119.224 39.9906 119.224 39.9906 119.285 39.9906C119.345 39.9906 119.465 39.9303 119.526 39.87C119.586 39.8097 119.646 39.6288 119.707 39.3876L118.802 37.1562H119.224L119.707 38.6639Z" fill="#0A4F28"/>
<path d="M124.169 39.2672C124.109 39.3275 123.988 39.3878 123.808 39.4481C123.687 39.5084 123.506 39.5084 123.385 39.5084C123.205 39.5084 123.084 39.5084 122.963 39.4481C122.843 39.3878 122.722 39.3275 122.662 39.2069C122.601 39.0863 122.541 38.9657 122.481 38.845C122.421 38.7244 122.421 38.5435 122.421 38.3626C122.421 38.0008 122.481 37.6992 122.662 37.5183C122.843 37.3374 123.084 37.2168 123.385 37.2168C123.506 37.2168 123.566 37.2168 123.687 37.2771C123.808 37.3374 123.868 37.3374 123.928 37.3977C123.988 37.458 124.049 37.5786 124.109 37.6389C124.169 37.7595 124.169 37.8802 124.169 38.1214C124.169 38.242 124.169 38.3023 124.169 38.4229H122.782C122.782 38.5435 122.782 38.6641 122.843 38.7847C122.843 38.9054 122.903 38.9657 122.963 39.026C123.024 39.0863 123.084 39.1466 123.205 39.2069C123.265 39.2672 123.385 39.2672 123.506 39.2672C123.627 39.2672 123.687 39.2672 123.808 39.2069C123.928 39.1466 123.988 39.1466 124.049 39.0863L124.169 39.2672ZM123.446 37.458C123.265 37.458 123.144 37.5183 123.024 37.5786C122.903 37.6992 122.843 37.8199 122.843 38.0611H123.928C123.928 37.8199 123.868 37.6992 123.808 37.5786C123.687 37.5183 123.566 37.458 123.446 37.458Z" fill="#0A4F28"/>
<path d="M126.702 40.2926H126.34V39.1468C126.28 39.2071 126.22 39.3277 126.099 39.3277C126.039 39.3881 125.918 39.3881 125.737 39.3881C125.436 39.3881 125.255 39.2674 125.074 39.0865C124.953 38.9056 124.833 38.6041 124.833 38.1819C124.833 37.8201 124.953 37.5186 125.134 37.3377C125.315 37.1567 125.556 37.0361 125.918 37.0361C126.099 37.0361 126.22 37.0361 126.34 37.0964C126.461 37.0964 126.582 37.1567 126.642 37.2171V40.2926H126.702ZM125.798 39.1468C125.918 39.1468 126.039 39.0865 126.159 39.0262C126.28 38.9659 126.28 38.8453 126.34 38.6644V37.5789C126.22 37.5186 126.099 37.5186 125.918 37.5186C125.737 37.5186 125.556 37.5789 125.436 37.6995C125.315 37.8201 125.255 38.0613 125.255 38.3629C125.255 38.4835 125.255 38.6041 125.315 38.7247C125.315 38.8453 125.375 38.9056 125.436 38.9659C125.496 39.0262 125.556 39.0865 125.617 39.1468C125.617 39.1468 125.677 39.1468 125.798 39.1468Z" fill="#0A4F28"/>
<path d="M127.908 37.2166V38.483C127.908 38.6036 127.908 38.7242 127.908 38.7845C127.908 38.8448 127.969 38.9654 127.969 39.0257C127.969 39.086 128.029 39.1463 128.089 39.1463C128.15 39.1463 128.21 39.2066 128.33 39.2066C128.391 39.2066 128.451 39.2066 128.572 39.1463C128.632 39.1463 128.692 39.086 128.753 39.0257C128.813 38.9654 128.873 38.9051 128.873 38.8448C128.934 38.7845 128.934 38.7242 128.934 38.6639V37.1562H129.295V38.7845C129.295 38.9051 129.295 39.0257 129.295 39.1463C129.295 39.2669 129.295 39.3876 129.356 39.4479H129.114L129.054 39.086C128.994 39.2066 128.873 39.3273 128.753 39.3876C128.632 39.4479 128.511 39.5082 128.33 39.5082C128.21 39.5082 128.089 39.5082 128.029 39.4479C127.969 39.4479 127.848 39.3876 127.788 39.3273C127.727 39.2669 127.667 39.1463 127.667 39.0257C127.607 38.9051 127.607 38.7242 127.607 38.5433V37.2166H127.908Z" fill="#0A4F28"/>
<path d="M130.2 36.4932C130.2 36.4329 130.2 36.3726 130.26 36.3123C130.321 36.252 130.381 36.252 130.441 36.252C130.501 36.252 130.562 36.252 130.622 36.3123C130.682 36.3726 130.682 36.4329 130.682 36.4932C130.682 36.5535 130.682 36.6138 130.622 36.6741C130.562 36.7344 130.501 36.7344 130.441 36.7344C130.381 36.7344 130.321 36.7344 130.26 36.6741C130.2 36.6138 130.2 36.6138 130.2 36.4932ZM130.26 37.2168H130.622V39.4482H130.26V37.2168Z" fill="#0A4F28"/>
<path d="M131.587 37.2166H131.828L131.889 37.4578C131.949 37.3372 132.069 37.2769 132.13 37.2166C132.25 37.1563 132.371 37.1562 132.492 37.1562C132.793 37.1562 133.034 37.2166 133.155 37.3975C133.276 37.5784 133.396 37.8799 133.396 38.2418C133.396 38.4227 133.396 38.6036 133.336 38.7242C133.276 38.8448 133.215 39.0257 133.155 39.086C133.095 39.2066 132.974 39.2669 132.853 39.3273C132.733 39.3876 132.612 39.3876 132.431 39.3876C132.311 39.3876 132.25 39.3876 132.19 39.3876C132.13 39.3876 132.069 39.3273 132.009 39.3273V40.2318H131.647V37.2166H131.587ZM132.492 37.4578C132.371 37.4578 132.25 37.5181 132.13 37.5784C132.069 37.6387 132.009 37.7593 131.949 37.9402V39.0257C132.009 39.086 132.069 39.086 132.13 39.1463C132.19 39.2066 132.311 39.2066 132.371 39.2066C132.552 39.2066 132.733 39.1463 132.853 38.9654C132.974 38.7845 133.034 38.6036 133.034 38.3021C133.034 38.1814 133.034 38.0608 132.974 37.9402C132.974 37.8196 132.914 37.7593 132.853 37.699C132.793 37.6387 132.733 37.5784 132.672 37.5181C132.672 37.4578 132.612 37.4578 132.492 37.4578Z" fill="#0A4F28"/>
<path d="M135.507 39.4484V38.1819C135.507 38.0613 135.507 37.9407 135.507 37.8804C135.507 37.8201 135.507 37.6995 135.447 37.6392C135.447 37.5789 135.386 37.5186 135.326 37.5186C135.266 37.5186 135.205 37.4583 135.085 37.4583C134.964 37.4583 134.843 37.5186 134.723 37.5789C134.663 37.6392 134.542 37.7598 134.542 37.8804V39.3881H134.18V37.1567H134.421L134.482 37.4583C134.542 37.3377 134.663 37.2774 134.783 37.2171C134.904 37.1567 135.024 37.0964 135.205 37.0964C135.326 37.0964 135.447 37.0964 135.567 37.1567C135.627 37.2171 135.748 37.3377 135.748 37.4583C135.808 37.3377 135.929 37.2774 136.05 37.1567C136.17 37.0361 136.291 37.0361 136.472 37.0361C136.592 37.0361 136.713 37.0361 136.773 37.0964C136.834 37.0964 136.954 37.1567 137.014 37.2171C137.075 37.2774 137.135 37.398 137.135 37.5186C137.135 37.6392 137.195 37.8201 137.195 38.001V39.3277H136.834V38.001C136.834 37.8804 136.834 37.8201 136.834 37.6995C136.834 37.6392 136.773 37.5789 136.773 37.5186C136.713 37.4583 136.713 37.398 136.653 37.398C136.592 37.398 136.532 37.3377 136.411 37.3377C136.291 37.3377 136.17 37.398 136.05 37.4583C135.929 37.5186 135.929 37.6392 135.869 37.8201V39.3277H135.507V39.4484Z" fill="#0A4F28"/>
<path d="M139.608 39.2672C139.547 39.3275 139.427 39.3878 139.246 39.4481C139.125 39.5084 138.944 39.5084 138.824 39.5084C138.643 39.5084 138.522 39.5084 138.401 39.4481C138.281 39.3878 138.16 39.3275 138.1 39.2069C138.04 39.0863 137.979 38.9657 137.919 38.845C137.859 38.7244 137.859 38.5435 137.859 38.3626C137.859 38.0008 137.919 37.6992 138.1 37.5183C138.281 37.3374 138.522 37.2168 138.824 37.2168C138.944 37.2168 139.005 37.2168 139.125 37.2771C139.246 37.3374 139.306 37.3374 139.366 37.3977C139.427 37.458 139.487 37.5786 139.547 37.6389C139.608 37.7595 139.608 37.8802 139.608 38.1214C139.608 38.242 139.608 38.3023 139.608 38.4229H138.221C138.221 38.5435 138.221 38.6641 138.281 38.7847C138.281 38.9054 138.341 38.9657 138.401 39.026C138.462 39.0863 138.522 39.1466 138.643 39.2069C138.703 39.2672 138.824 39.2672 138.944 39.2672C139.065 39.2672 139.125 39.2672 139.246 39.2069C139.366 39.1466 139.427 39.1466 139.487 39.0863L139.608 39.2672ZM138.884 37.458C138.703 37.458 138.582 37.5183 138.462 37.5786C138.341 37.6992 138.281 37.8199 138.281 38.0611H139.366C139.366 37.8199 139.306 37.6992 139.246 37.5786C139.125 37.5183 139.005 37.458 138.884 37.458Z" fill="#0A4F28"/>
<path d="M141.899 39.4476V38.1812C141.899 37.94 141.839 37.7591 141.779 37.6385C141.718 37.5178 141.598 37.4575 141.417 37.4575C141.236 37.4575 141.115 37.5178 141.055 37.5781C140.934 37.6385 140.874 37.7591 140.814 37.8797V39.3873H140.512V37.156H140.753L140.814 37.4575C140.874 37.3369 140.995 37.2766 141.115 37.2163C141.236 37.156 141.356 37.0957 141.537 37.0957C141.658 37.0957 141.779 37.0957 141.839 37.156C141.96 37.156 142.02 37.2163 142.08 37.2766C142.14 37.3369 142.201 37.4575 142.201 37.5781C142.261 37.6988 142.261 37.8797 142.261 38.0606V39.3873H141.899V39.4476Z" fill="#0A4F28"/>
<path d="M142.864 37.2171H143.226V36.7949L143.588 36.6743V37.2171H144.191V37.5186H143.588V38.785C143.588 38.9659 143.588 39.0262 143.648 39.0865C143.708 39.1468 143.769 39.2072 143.829 39.2072C143.889 39.2072 143.95 39.2072 144.01 39.2072C144.07 39.2072 144.131 39.1468 144.191 39.1468L144.251 39.4484C144.191 39.5087 144.07 39.5087 144.01 39.569C143.889 39.569 143.829 39.6293 143.708 39.6293C143.527 39.6293 143.407 39.569 143.347 39.4484C143.286 39.3278 143.226 39.1468 143.226 38.9056V37.5789H142.864V37.2171Z" fill="#0A4F28"/>
<path fill-rule="evenodd" clip-rule="evenodd" d="M0.0603027 25.3976L19.4184 26.664L37.691 2.48145L17.368 3.86848L0.0603027 25.3976Z" fill="#8EC587"/>
<path fill-rule="evenodd" clip-rule="evenodd" d="M37.7513 2.48145L19.4184 26.664L37.7513 48.6153L53.5514 25.2167L37.7513 2.48145Z" fill="#CDE3A8"/>
<path fill-rule="evenodd" clip-rule="evenodd" d="M0 25.3975L19.4787 26.5433L37.7513 48.6151L17.6093 45.7205L0 25.3975Z" fill="#699566"/>
<path fill-rule="evenodd" clip-rule="evenodd" d="M38.5353 31.85L34.0124 26.1209L38.7162 19.6682L43.0582 25.6988L38.5353 31.85ZM31.6002 41.3783L37.6307 33.3576L32.8666 27.327C32.8666 27.327 28.1024 34.2019 27.0772 35.2874C26.052 36.3729 24.4238 36.3729 24.4238 36.3729L19.7199 35.8905L24.0016 41.0164C24.0016 41.0164 29.4895 41.8607 30.0322 41.9813C30.5147 42.1019 31.6002 41.3783 31.6002 41.3783ZM17.6092 40.1722L13.2672 35.1668L17.3077 35.5286L21.5894 40.6546L17.6092 40.1722ZM5.84964 26.4225C5.3672 25.6988 5.90995 24.9751 5.90995 24.9751L11.5787 17.6178H16.0413C16.0413 17.6178 11.9405 22.985 10.7947 24.4324C9.58859 26.0003 10.855 27.7492 10.855 27.7492L15.8604 33.9607L11.7596 33.4179C11.8199 33.4179 6.33209 27.1461 5.84964 26.4225ZM17.4283 10.3812L21.7703 10.2605L17.2474 16.1102H12.8451L17.4283 10.3812ZM31.9017 26.1812C31.9017 26.1812 26.836 33.3576 25.9917 34.0813C25.1475 34.805 24.2429 34.6843 24.2429 34.6843L18.152 34.021C18.152 34.021 12.8451 27.5683 12.3023 26.8446C11.639 25.8797 12.1817 25.2164 12.1817 25.2164L18.0314 17.5575C18.0314 17.5575 24.2429 17.6781 24.3635 17.6781C25.2681 17.6781 26.1727 18.643 26.1727 18.643L31.9017 26.1812ZM23.7001 10.3209L19.2375 16.1705C19.2375 16.1705 24.062 16.1705 24.1826 16.1705C26.052 15.9293 27.1978 17.3163 27.1978 17.3163L33.1078 24.7942L37.691 18.3415C37.691 18.3415 32.746 11.9491 32.3238 11.2254C31.6605 10.0796 30.3337 10.0193 30.3337 10.0193L23.7001 10.3209ZM44.988 25.5179L50.0537 18.2812C50.0537 18.2812 50.898 16.5323 49.2094 15.9896C49.0888 15.9896 47.2193 16.1705 47.2193 16.1705L48.0033 17.3163C48.0033 17.3163 48.4857 17.256 48.4857 17.3163C48.4857 17.3766 48.3651 17.6781 48.3048 17.7384L43.9025 24.1308L39.7414 18.2812L45.0483 10.8636C45.0483 10.8636 45.6514 9.71779 45.0483 9.11474C44.5659 8.63229 44.2643 8.63229 43.8422 8.63229C43.3598 8.63229 42.0933 8.7529 42.0933 8.7529L43.0582 10.1399C43.1185 10.1399 43.5407 10.0796 43.5407 10.1399C43.5407 10.2002 43.4201 10.5018 43.3598 10.5621L38.6559 16.8942L33.349 9.65749C33.349 9.65749 32.4444 8.14985 30.8765 8.27046C29.6704 8.39107 25.2078 8.45138 25.2078 8.45138L29.791 2.60173C29.791 2.60173 30.1528 2.11928 30.5147 2.42081C31.0574 3.02387 30.9368 3.14448 30.8162 2.84295C31.1177 2.84295 32.6857 2.72234 32.6857 2.72234C32.6857 2.72234 31.4796 1.09408 31.178 0.913168C30.9368 0.792556 29.5498 0.310111 28.7658 1.09408C27.7406 2.11928 27.3185 2.96356 27.3185 2.96356L23.0971 8.45138L18.6947 8.7529L23.4589 3.02387C23.4589 3.02387 23.881 3.08417 24.1223 3.44601L26.052 3.26509L25.1475 2.05898C25.1475 2.05898 24.2429 0.611639 22.3131 1.87806L16.765 8.81321L10.7344 9.11474C10.7344 9.11474 9.5886 9.17504 9.76951 10.2002C9.95043 11.2254 10.7947 12.0697 10.7947 12.0697L11.8802 10.6827L15.3176 10.4415L10.9756 15.869L5.06567 15.9896C5.06567 15.9896 3.67864 16.0499 4.40231 17.5575C4.70384 18.2812 5.24659 18.8843 5.24659 18.8843L6.33209 17.4972L9.70921 17.4369L4.70384 24.1308C4.70384 24.1308 3.43742 25.7591 4.64353 27.327C5.54812 28.4729 9.6489 33.237 9.6489 33.237L6.69392 32.8752C6.69392 32.8752 6.09087 32.8149 6.09087 32.7546C6.09087 32.6943 6.15117 32.5736 6.21148 32.5133L5.3672 31.6087C5.3672 31.6087 4.342 32.6943 4.52292 33.4179C4.64353 33.9004 4.64353 34.3225 5.4275 34.4431C5.60842 34.5034 11.1565 35.0462 11.1565 35.0462L15.4382 40.0515L12.242 39.5691L12.1214 39.3882C12.1214 39.3882 11.5787 39.3279 11.5787 39.2676C11.5787 39.147 11.639 39.147 11.7596 38.966L10.7947 37.8805C10.7947 37.8805 10.0107 39.0867 10.071 39.6294C10.1313 40.1118 10.1917 40.534 10.7947 40.8958C11.1565 41.0767 16.8253 41.6195 16.8253 41.6195L22.1322 47.7707C22.1322 47.7707 23.5795 49.7004 24.6047 48.434C25.5696 47.2882 25.6299 46.8661 25.6299 46.8661L24.3032 46.6249C24.3032 46.6249 24.1826 47.047 23.9413 47.047C23.6398 47.047 23.1574 46.4439 23.1574 46.4439L19.2375 41.9813L23.1574 42.4638L28.7055 49.0974C28.7055 49.0974 29.6704 49.8814 30.4544 49.5798C31.2383 49.2783 32.0223 47.7707 32.0223 47.7707L30.575 47.5897C30.575 47.5897 30.3337 48.0722 30.1528 48.0722C29.9116 48.0722 29.3689 47.4691 29.3689 47.4691L25.449 42.8859L30.8162 43.4287C30.8162 43.4287 32.2635 43.2477 32.9872 42.4035C33.7712 41.5592 38.5956 34.5034 38.5956 34.5034L43.3598 40.4737L42.8773 40.8958L42.033 42.1622C42.033 42.1622 44.0834 42.2829 44.5056 41.921C45.2895 41.2577 45.1689 40.1722 45.1689 40.1722L39.6208 33.1164L44.1437 26.9652L48.6064 32.8752V32.6339L47.2193 34.624L49.2094 34.5034C49.2094 34.5034 50.4758 33.9607 50.2346 32.5736C50.114 32.3927 44.988 25.5179 44.988 25.5179Z" fill="#495B68"/>
</svg>
