<svg width="74" height="68" viewBox="0 0 74 68" fill="none" xmlns="http://www.w3.org/2000/svg">
<path d="M0 46H23V68H0V46Z" fill="#6EB44A"/>
<path d="M21.0137 1.99878C16.045 1.99878 12.0137 6.03008 12.0137 10.9988V14.9987C12.0137 19.9675 16.0442 23.9988 21.0098 23.9988H23.2188L24.9746 31.0222L23.1797 39.9988H20.791L21.7188 27.071C21.7713 26.4688 21.2816 25.9581 20.6777 25.9851C20.165 26.0078 19.7523 26.4141 19.7227 26.9265L18.0566 50.1668C16.8698 50.5694 15.9961 51.6873 15.9961 53.0007V59.0027C15.9961 60.6474 17.3573 61.9988 19.0019 61.9988H41C41.5553 62.0009 42.006 61.5502 42.0039 60.9948V57.0026C42.0039 53.142 38.8587 49.9967 34.998 49.9967H20.0742L20.6484 41.9987H24C24.4769 41.9986 24.8873 41.6616 24.9805 41.1941L26.9805 31.194C27.0096 31.0493 27.0062 30.9 26.9707 30.7565L24.9705 22.7565C24.8595 22.311 24.4592 21.9986 24 21.9987H21.0098C17.1185 21.9987 14.0137 18.894 14.0137 14.9987V10.9988C14.0137 7.10351 17.1184 3.99869 21.0137 3.99869H45.0137C46.693 3.99869 48.0137 5.31946 48.0137 6.99874V18.9987C48.0137 20.678 46.693 21.9987 45.0137 21.9987H31C30.3494 21.9986 29.8718 22.6097 30.0293 23.241L31.9668 30.9909L28.0332 45.741C27.9781 45.9492 27.9918 46.1699 28.0723 46.3698L28.4708 47.3698C28.9654 48.6084 30.8228 47.8662 30.3282 46.6276L30.0528 45.9362L33.7696 31.9988H36.9981C37.4593 32.0006 37.8619 31.6866 37.9727 31.239L39.7832 23.9988H45.0137C47.0545 23.9988 48.8125 22.7613 49.5879 21.0007H53.002C54.6467 21.0007 56 19.6396 56 17.9949V8.99681H58.9961C59.5674 8.99681 60 9.42947 60 10.0007V15.9948C60 16.5662 59.5674 16.9988 58.9961 16.9988C57.6624 16.9988 57.6624 19.0007 58.9961 19.0007C60.6408 19.0007 62.002 17.6395 62.002 15.9948H66.9981C67.1622 15.9978 67.3245 15.9608 67.4707 15.8856L71.4727 13.7509C72.205 13.3623 72.1738 12.3027 71.42 11.9579L67.4258 10.0907C67.2916 10.0295 67.1456 9.99886 66.9981 10.0007H62.002C62.002 8.35605 60.6409 6.9969 58.9961 6.9969H55.8126C55.3953 5.83953 54.2941 4.99686 53.002 4.99686H49.5879C48.8125 3.23617 47.0545 1.99878 45.0137 1.99878H21.0137ZM50.0137 6.99678H53.0019C53.5732 6.99678 53.9981 7.42944 53.9981 8.00072V17.9949C53.9981 18.5661 53.5732 19.0007 53.0019 19.0007H50.0137V18.9987V6.99874V6.99678ZM21.0176 8.00072C19.3729 8.00072 18.0117 9.35214 18.0117 10.9968V14.9987C18.0117 16.6434 19.3729 17.9949 21.0176 17.9949H25.0039C26.308 17.9646 26.308 16.0238 25.0039 15.9948H21.0176C20.4463 15.9948 20.0137 15.5701 20.0137 14.9987V10.9968C20.0137 10.4256 20.4463 10.0007 21.0176 10.0007H28.9961C29.5674 10.0007 30 10.4256 30 10.9968V14.9987C30 15.5701 29.5674 15.9948 28.9961 15.9948C27.692 16.0251 27.692 17.9659 28.9961 17.9949C30.6408 17.9949 32.0019 16.6434 32.0019 14.9987V10.9968C32.0019 9.35214 30.6408 8.00072 28.9961 8.00072H21.0176ZM34.998 10.0007H43C44.3632 10.031 44.3632 7.97048 43 8.00072H34.9502C33.6 8.09218 33.6929 10.0339 34.9981 10.0007H34.998ZM34.998 14.0027H43C44.3632 14.0329 44.3632 11.9724 43 12.0026H34.9502C33.6 12.0941 33.6929 14.0358 34.9981 14.0027H34.998ZM62.0019 12.0026H66.7773L68.7637 12.9246L66.748 14.0027H62.0019V12.0026ZM34.998 15.9948C33.694 16.0251 33.694 17.9659 34.998 17.9949H43C44.3041 17.9646 44.3041 16.0238 43 15.9948H34.998ZM32.2812 23.9988H37.7207L36.2168 29.9987H33.7812L32.2812 23.9988ZM32.998 57.0026C33.5693 57.0026 34.002 57.4274 34.002 57.9987V59.9987H19.0019C18.4307 59.9987 17.9981 59.574 17.9981 59.0027V53.0007C17.9981 52.4294 18.4307 51.9968 19.0019 51.9968H34.998C37.7853 51.9968 40.0039 54.2153 40.0039 57.0026V59.9987H36.0019V57.9987C36.002 56.354 34.6427 55.0007 32.998 55.0007H20.9502C19.5638 55.0699 19.6673 57.0716 21.002 57.0026H32.998Z" fill="black"/>
</svg>
