<svg width="83" height="74" viewBox="0 0 83 74" fill="none" xmlns="http://www.w3.org/2000/svg">
<path d="M0 52H23V74H0V52Z" fill="#6EB44A"/>
<g clip-path="url(#clip0_494_3950)">
<path d="M76.9204 21.9468L41.807 0.194219C41.3816 -0.0694245 40.8421 -0.0642295 40.4219 0.207206L5.71954 22.6104C5.34602 22.852 5.12165 23.2689 5.12554 23.7143C5.12943 24.1598 5.36158 24.5715 5.74029 24.8066L18.4516 32.6808L14.7281 35.0848L16.134 37.268L20.8951 34.1951L40.8524 46.5591C41.0651 46.6916 41.3064 46.7552 41.5476 46.7526C41.7888 46.75 42.0288 46.6812 42.2389 46.5461L61.9641 33.812L66.7809 36.7965L68.1466 34.5874L64.379 32.2535L76.9412 24.1429C77.3147 23.9014 77.5391 23.4845 77.5352 23.039C77.5313 22.5935 77.2991 22.1818 76.9204 21.9468ZM41.5217 43.9175L8.85166 23.6793L41.1391 2.83455L73.8091 23.0728L41.5217 43.9175Z" fill="black"/>
<path d="M44.6518 35.364L41.46 37.4251L38.1567 35.3783L36.791 37.5874L40.7908 40.0654C41.0035 40.1979 41.2447 40.2615 41.4859 40.2589C41.7272 40.2564 41.9671 40.1875 42.1772 40.0524L46.0577 37.5472L44.6518 35.364Z" fill="black"/>
<path d="M41.8681 6.68641C41.4427 6.42276 40.9032 6.42796 40.483 6.69939L36.3989 9.33583L37.8048 11.519L41.2002 9.32804L44.6306 11.4541L45.9963 9.24492L41.8681 6.68641Z" fill="black"/>
<path d="M9.01979 41.8615L12.7446 39.4576L11.3387 37.2744L5.88897 40.7914C5.51545 41.033 5.29108 41.4499 5.29497 41.8953C5.29886 42.3408 5.53102 42.7538 5.90843 42.9889L11.423 46.4045L12.7887 44.1954L9.01979 41.8615Z" fill="black"/>
<path d="M25.7587 52.2298L24.394 54.4387L33.6562 60.1767L35.0209 57.9678L25.7587 52.2298Z" fill="black"/>
<path d="M46.4522 59.0256L41.6911 62.0997L36.8717 59.1139L35.5073 61.3244L41.0219 64.74C41.2346 64.8725 41.4759 64.9362 41.7171 64.9336C41.9583 64.931 42.1983 64.8621 42.4084 64.7271L47.8581 61.2088L46.4522 59.0256Z" fill="black"/>
<path d="M57.4304 51.9266L48.2759 57.8359L49.6812 60.0191L58.8357 54.1098L57.4304 51.9266Z" fill="black"/>
<path d="M77.0898 40.1264L71.5752 36.7107L70.2095 38.9198L73.9784 41.2537L70.2536 43.6576L71.6595 45.8408L77.1092 42.3225C77.4827 42.081 77.7071 41.6641 77.7032 41.2186C77.7006 40.7744 77.4685 40.3614 77.0898 40.1264Z" fill="black"/>
<path d="M69.8304 47.0252L64.5479 50.4344L62.1343 51.9929L60.6753 52.9345L59.2694 50.7513L68.4245 44.842L69.8304 47.0252Z" fill="black"/>
<path d="M22.5386 53.289L21.064 52.376L18.6206 50.8617L13.2759 47.5512L14.6416 45.3421L23.9043 51.0799L22.5386 53.289Z" fill="black"/>
</g>
<defs>
<clipPath id="clip0_494_3950">
<rect width="83" height="65" fill="white"/>
</clipPath>
</defs>
</svg>
