<svg width="13" height="13" viewBox="0 0 13 13" fill="none" xmlns="http://www.w3.org/2000/svg">
<g clip-path="url(#clip0_141_5727)">
<path d="M0.790282 3.21172H12.2099C12.6457 3.21172 13 2.85738 13 2.42163C13 1.98588 12.6457 1.63135 12.2099 1.63135H0.790282C0.354534 1.63135 0 1.98588 0 2.42163C0 2.85738 0.354534 3.21172 0.790282 3.21172Z" fill="white"/>
<path d="M12.2099 5.70947H0.790282C0.354534 5.70947 0 6.06401 0 6.49976C0 6.93551 0.354534 7.28986 0.790282 7.28986H12.2099C12.6457 7.28986 13 6.93551 13 6.49976C13 6.06401 12.6457 5.70947 12.2099 5.70947Z" fill="white"/>
<path d="M12.2099 9.78809H0.790282C0.354534 9.78809 0 10.1428 0 10.5786C0 11.0143 0.354534 11.3687 0.790282 11.3687H12.2099C12.6456 11.3687 13 11.0143 13 10.5786C13 10.1428 12.6456 9.78809 12.2099 9.78809Z" fill="white"/>
</g>
<defs>
<clipPath id="clip0_141_5727">
<rect width="13" height="13" fill="white"/>
</clipPath>
</defs>
</svg>
