<svg width="13" height="13" viewBox="0 0 13 13" fill="none" xmlns="http://www.w3.org/2000/svg">
<g clip-path="url(#clip0_142_7133)">
<path d="M0.672387 13C0.501145 13 0.329903 12.9349 0.199798 12.8038C-0.061391 12.5426 -0.061391 12.1192 0.199798 11.858L11.8619 0.195892C12.1231 -0.0652973 12.5465 -0.0652973 12.8077 0.195892C13.0689 0.457081 13.0689 0.880534 12.8077 1.14189L1.14579 12.8038C1.01471 12.9341 0.843466 13 0.672387 13Z" fill="white"/>
<path d="M12.3353 13C12.1641 13 11.993 12.9349 11.8627 12.8038L0.199798 1.14189C-0.061391 0.880534 -0.061391 0.457081 0.199798 0.195892C0.460987 -0.0652973 0.88444 -0.0652973 1.14579 0.195892L12.8077 11.858C13.0689 12.1192 13.0689 12.5426 12.8077 12.8038C12.6766 12.9341 12.5056 13 12.3353 13Z" fill="white"/>
</g>
<defs>
<clipPath id="clip0_142_7133">
<rect width="13" height="13" fill="white"/>
</clipPath>
</defs>
</svg>
