<svg width="53" height="47" viewBox="0 0 53 47" fill="none" xmlns="http://www.w3.org/2000/svg">
<rect x="32" width="21" height="21" fill="#6EB44A"/>
<g clip-path="url(#clip0_389_3943)">
<path d="M42.2748 12.8442C42.2512 11.6022 42.2287 10.429 42.2287 9.29396C42.2287 8.40474 41.508 7.68384 40.6185 7.68384C33.7326 7.68384 28.4898 5.7049 24.1198 1.4559C23.4946 0.847924 22.4998 0.848139 21.8748 1.4559C17.5052 5.7049 12.2633 7.68384 5.37778 7.68384C4.48856 7.68384 3.76766 8.40474 3.76766 9.29396C3.76766 10.4292 3.74533 11.6029 3.7215 12.845C3.50081 24.4027 3.19854 40.2314 22.4699 46.9113C22.6408 46.9705 22.819 47.0001 22.9972 47.0001C23.1754 47.0001 23.3538 46.9705 23.5245 46.9113C42.7973 40.2312 42.4955 24.402 42.2748 12.8442ZM22.9974 43.6814C6.46965 37.6773 6.71954 24.5248 6.94131 12.9064C6.95462 12.2091 6.9675 11.5333 6.97652 10.8708C13.4256 10.5986 18.5827 8.64433 22.9974 4.79851C27.4126 8.64433 32.5705 10.5988 39.02 10.8708C39.029 11.5331 39.0419 12.2085 39.0552 12.9053C39.2768 24.5242 39.5264 37.6771 22.9974 43.6814Z" fill="black"/>
<path d="M28.543 18.4068L20.7718 26.1777L17.4556 22.8615C16.8268 22.2329 15.8072 22.2329 15.1786 22.8615C14.5498 23.4905 14.5498 24.5098 15.1786 25.1386L19.6333 29.5933C19.9476 29.9076 20.3598 30.0647 20.7718 30.0647C21.1837 30.0647 21.5959 29.9076 21.9102 29.5933L30.8197 20.6839C31.4488 20.0551 31.4488 19.0356 30.82 18.407C30.1914 17.7782 29.1718 17.778 28.543 18.4068Z" fill="black"/>
</g>
<defs>
<clipPath id="clip0_389_3943">
<rect width="46" height="46" fill="white" transform="translate(0 1)"/>
</clipPath>
</defs>
</svg>
