<svg width="29" height="29" viewBox="0 0 29 29" fill="none" xmlns="http://www.w3.org/2000/svg">
<path d="M28.0065 7.84796L20.6184 0.170941C20.5132 0.0617383 20.3681 0 20.2165 0H9.20501C7.97268 0 6.97008 1.0022 6.97008 2.23402V10.0385H2.50754C1.58554 10.0385 0.835449 10.7883 0.835449 11.7101V20.0784C0.835449 21.0001 1.58554 21.75 2.50754 21.75H6.97008V26.7699C6.97008 27.9996 7.97268 29 9.20501 29H25.9275C27.1598 29 28.1624 28.0001 28.1624 26.7711V8.2347C28.1624 8.09049 28.1065 7.95189 28.0065 7.84796ZM20.3547 1.50556L26.4197 7.80768H20.3547V1.50556ZM2.50754 20.6346C2.20054 20.6346 1.95087 20.3851 1.95087 20.0784V11.7101C1.95087 11.4034 2.2006 11.1538 2.50754 11.1538H17.5673C17.8742 11.1538 18.1239 11.4034 18.1239 11.7101V20.0784C18.1239 20.3851 17.8742 20.6346 17.5673 20.6346H2.50754ZM27.047 26.7711C27.047 27.3851 26.5447 27.8846 25.9274 27.8846H9.20501C8.58768 27.8846 8.08545 27.3846 8.08545 26.7699V21.75H17.5673C18.4893 21.75 19.2393 21.0001 19.2393 20.0784V11.7101C19.2393 10.7883 18.4893 10.0385 17.5673 10.0385H8.08545V2.23402C8.08545 1.61715 8.58768 1.11537 9.20501 1.11537H19.2393V8.36537C19.2393 8.67338 19.489 8.92305 19.797 8.92305H27.047V26.7711Z" fill="#6EB44A"/>
<path d="M7.50422 14.1541C7.31906 13.9134 7.08921 13.757 6.81473 13.6852C6.63609 13.6372 6.25269 13.6133 5.66448 13.6133H4.1123V18.4038H5.07955V16.5967H5.71025C6.14813 16.5967 6.48254 16.5738 6.71346 16.5281C6.88338 16.491 7.05059 16.4153 7.21507 16.3009C7.37955 16.1866 7.51515 16.0292 7.62192 15.8288C7.72869 15.6284 7.78204 15.3811 7.78204 15.087C7.78198 14.7058 7.68938 14.3948 7.50422 14.1541ZM6.67585 15.4726C6.6029 15.5794 6.50214 15.6578 6.37356 15.7079C6.24499 15.758 5.99016 15.7831 5.60892 15.7831H5.07955V14.4237H5.54684C5.8954 14.4237 6.1274 14.4346 6.24284 14.4564C6.39967 14.4847 6.52932 14.5555 6.63167 14.6688C6.73408 14.7821 6.78528 14.9259 6.78528 15.1001C6.78534 15.2417 6.74881 15.3658 6.67585 15.4726Z" fill="#6EB44A"/>
<path d="M12.432 14.922C12.3274 14.6159 12.1749 14.3573 11.9745 14.1459C11.7741 13.9346 11.5333 13.7876 11.2523 13.7048C11.0432 13.6438 10.7393 13.6133 10.3406 13.6133H8.57275V18.4038H10.3929C10.7502 18.4038 11.0355 18.37 11.249 18.3024C11.5344 18.211 11.761 18.0835 11.9287 17.9201C12.1509 17.7044 12.3219 17.4223 12.4418 17.0738C12.5398 16.7884 12.5888 16.4485 12.5888 16.0543C12.5888 15.6055 12.5365 15.2281 12.432 14.922ZM11.4908 16.8892C11.4255 17.1038 11.3411 17.2579 11.2376 17.3515C11.1341 17.4452 11.0039 17.5117 10.8471 17.5509C10.7273 17.5814 10.5323 17.5966 10.2622 17.5966H9.54001V14.4237H9.97461C10.3689 14.4237 10.6336 14.4389 10.7687 14.4695C10.9495 14.5087 11.0987 14.5838 11.2163 14.6949C11.334 14.8061 11.4255 14.9607 11.4908 15.1589C11.5562 15.3572 11.5889 15.6415 11.5889 16.0118C11.5889 16.3821 11.5562 16.6746 11.4908 16.8892Z" fill="#6EB44A"/>
<path d="M16.6996 14.4237V13.6133H13.4155V18.4038H14.3828V16.368H16.3826V15.5576H14.3828V14.4237H16.6996Z" fill="#6EB44A"/>
</svg>
