<svg width="18" height="17" viewBox="0 0 18 17" fill="none" xmlns="http://www.w3.org/2000/svg">
<path d="M6.84301 13.6789C8.36273 13.6789 9.83898 13.1718 11.0379 12.238L15.5612 16.7612C15.8991 17.0876 16.4375 17.0782 16.7638 16.7403C17.0822 16.4107 17.0822 15.8882 16.7638 15.5586L12.2406 11.0353C14.5578 8.05242 14.0182 3.75579 11.0353 1.43855C8.05238 -0.878699 3.75579 -0.339092 1.43855 2.64383C-0.878699 5.62675 -0.339093 9.92338 2.64383 12.2406C3.84473 13.1735 5.3223 13.6796 6.84301 13.6789ZM3.20864 3.20602C5.21587 1.19875 8.47023 1.19871 10.4775 3.20595C12.4848 5.21318 12.4848 8.46754 10.4776 10.4748C8.47034 12.4821 5.21598 12.4821 3.20871 10.4749C3.20867 10.4748 3.20867 10.4748 3.20864 10.4748C1.2014 8.48221 1.18958 5.2397 3.18218 3.23247C3.19099 3.22363 3.19979 3.21482 3.20864 3.20602Z" fill="white"/>
</svg>
