<svg width="32" height="21" viewBox="0 0 32 21" fill="none" xmlns="http://www.w3.org/2000/svg">
<path d="M31.8047 10.036L21.8047 0.192276C21.5442 -0.0640921 21.1224 -0.0640921 20.862 0.192276C20.6015 0.448644 20.6015 0.863928 20.862 1.12023L29.724 9.84377H0.666687C0.298187 9.84377 0 10.1373 0 10.5C0 10.8628 0.298187 11.1563 0.666687 11.1563H29.724L20.862 19.8798C20.6015 20.1362 20.6015 20.5514 20.862 20.8077C20.9922 20.9359 21.1628 21 21.3334 21C21.5039 21 21.6745 20.9359 21.8047 20.8077L31.8047 10.964C32.0651 10.7077 32.0651 10.2924 31.8047 10.036Z" fill="#6EB44A"/>
</svg>
