<svg width="16" height="11" viewBox="0 0 16 11" fill="none" xmlns="http://www.w3.org/2000/svg">
<path d="M15.6703 1.72118C15.486 1.04812 14.9455 0.517557 14.2602 0.336323C13.0081 -6.10352e-05 7.99982 -6.10352e-05 7.99982 -6.10352e-05C7.99982 -6.10352e-05 2.9917 -6.10352e-05 1.73965 0.32357C1.06748 0.504611 0.513868 1.04822 0.329493 1.72118C0 2.95049 0 5.49994 0 5.49994C0 5.49994 0 8.06223 0.329493 9.2787C0.514063 9.95166 1.0543 10.4822 1.73975 10.6635C3.00489 10.9999 8.00002 10.9999 8.00002 10.9999C8.00002 10.9999 13.0081 10.9999 14.2602 10.6763C14.9456 10.4952 15.486 9.96461 15.6705 9.29165C15.9999 8.06223 15.9999 5.51288 15.9999 5.51288C15.9999 5.51288 16.0131 2.95049 15.6703 1.72118ZM6.40529 7.85521V3.14467L10.5699 5.49994L6.40529 7.85521Z" fill="#6EB44A"/>
</svg>
